<?xml version="1.0" encoding="UTF-8" standalone="no"?>
<!DOCTYPE svg PUBLIC "-//W3C//DTD SVG 1.1//EN"
 "http://www.w3.org/Graphics/SVG/1.1/DTD/svg11.dtd">
<!-- Generated by graphviz version 2.38.0 (20140413.2041)
 -->
<!-- Title: GlobalRegistration::Utils::UnrollIndexLoop Pages: 1 -->
<svg width="312pt" height="100pt"
 viewBox="0.00 0.00 312.00 99.50" xmlns="http://www.w3.org/2000/svg" xmlns:xlink="http://www.w3.org/1999/xlink">
<g id="graph0" class="graph" transform="scale(1 1) rotate(0) translate(4 95.5)">
<title>GlobalRegistration::Utils::UnrollIndexLoop</title>
<polygon fill="white" stroke="none" points="-4,4 -4,-95.5 308,-95.5 308,4 -4,4"/>
<!-- Node1 -->
<g id="node1" class="node"><title>Node1</title>
<polygon fill="#bfbfbf" stroke="black" points="0,-27.5 0,-57.5 119,-57.5 119,-27.5 0,-27.5"/>
<text text-anchor="start" x="8" y="-45.5" font-family="Helvetica,sans-Serif" font-size="10.00">GlobalRegistration</text>
<text text-anchor="middle" x="59.5" y="-34.5" font-family="Helvetica,sans-Serif" font-size="10.00">::Utils::UnrollIndexLoop</text>
</g>
<!-- Node2 -->
<g id="node2" class="node"><title>Node2</title>
<g id="a_node2"><a xlink:href="a04640.html#a6e1971574f816cdac58c031d8cbaacee" target="_top" xlink:title="Check if n is within [0:gsize] if enable=true. ">
<polygon fill="white" stroke="black" points="155,-50 155,-91 304,-91 304,-50 155,-50"/>
<text text-anchor="start" x="163" y="-79" font-family="Helvetica,sans-Serif" font-size="10.00">GlobalRegistration</text>
<text text-anchor="start" x="163" y="-68" font-family="Helvetica,sans-Serif" font-size="10.00">::Utils::internal::IndexValidator</text>
<text text-anchor="middle" x="229.5" y="-57" font-family="Helvetica,sans-Serif" font-size="10.00">::validate</text>
</a>
</g>
</g>
<!-- Node1&#45;&gt;Node2 -->
<g id="edge1" class="edge"><title>Node1&#45;&gt;Node2</title>
<path fill="none" stroke="midnightblue" d="M119.258,-52.293C127.487,-53.6646 136.073,-55.0955 144.656,-56.526"/>
<polygon fill="midnightblue" stroke="midnightblue" points="144.27,-60.0099 154.71,-58.2016 145.421,-53.1052 144.27,-60.0099"/>
</g>
<!-- Node3 -->
<g id="node3" class="node"><title>Node3</title>
<g id="a_node3"><a xlink:href="a04030.html#a76ba87a33277e2c0cb66bbf1dbb3f4c7" target="_top" xlink:title="Compile time pow. ">
<polygon fill="white" stroke="black" points="181,-0.5 181,-30.5 278,-30.5 278,-0.5 181,-0.5"/>
<text text-anchor="start" x="189" y="-18.5" font-family="Helvetica,sans-Serif" font-size="10.00">GlobalRegistration</text>
<text text-anchor="middle" x="229.5" y="-7.5" font-family="Helvetica,sans-Serif" font-size="10.00">::Utils::POW</text>
</a>
</g>
</g>
<!-- Node1&#45;&gt;Node3 -->
<g id="edge2" class="edge"><title>Node1&#45;&gt;Node3</title>
<path fill="none" stroke="midnightblue" d="M119.258,-33.0567C135.949,-30.3743 154.105,-27.4564 170.736,-24.7836"/>
<polygon fill="midnightblue" stroke="midnightblue" points="171.549,-28.1978 180.867,-23.1553 170.438,-21.2865 171.549,-28.1978"/>
</g>
</g>
</svg>
