<?xml version="1.0" encoding="UTF-8" standalone="no"?>
<!DOCTYPE svg PUBLIC "-//W3C//DTD SVG 1.1//EN"
 "http://www.w3.org/Graphics/SVG/1.1/DTD/svg11.dtd">
<!-- Generated by graphviz version 2.38.0 (20140413.2041)
 -->
<!-- Title: GlobalRegistration::KdTree&lt; _Scalar, _Index &gt; Pages: 1 -->
<svg width="889pt" height="986pt"
 viewBox="0.00 0.00 888.50 986.00" xmlns="http://www.w3.org/2000/svg" xmlns:xlink="http://www.w3.org/1999/xlink">
<g id="graph0" class="graph" transform="scale(1 1) rotate(0) translate(4 982)">
<title>GlobalRegistration::KdTree&lt; _Scalar, _Index &gt;</title>
<polygon fill="white" stroke="none" points="-4,4 -4,-982 884.5,-982 884.5,4 -4,4"/>
<!-- Node2 -->
<g id="node1" class="node"><title>Node2</title>
<polygon fill="#bfbfbf" stroke="black" points="379.5,-0.5 379.5,-288.5 555.5,-288.5 555.5,-0.5 379.5,-0.5"/>
<text text-anchor="start" x="387.5" y="-276.5" font-family="Helvetica,sans-Serif" font-size="10.00">GlobalRegistration</text>
<text text-anchor="start" x="387.5" y="-265.5" font-family="Helvetica,sans-Serif" font-size="10.00">::KdTree&lt; _Scalar, </text>
<text text-anchor="middle" x="467.5" y="-254.5" font-family="Helvetica,sans-Serif" font-size="10.00">_Index &gt;</text>
<polyline fill="none" stroke="black" points="379.5,-247.5 555.5,-247.5 "/>
<text text-anchor="middle" x="467.5" y="-235.5" font-family="Helvetica,sans-Serif" font-size="10.00"> </text>
<polyline fill="none" stroke="black" points="379.5,-228.5 555.5,-228.5 "/>
<text text-anchor="start" x="387.5" y="-216.5" font-family="Helvetica,sans-Serif" font-size="10.00">+ _getNodes()</text>
<text text-anchor="start" x="387.5" y="-205.5" font-family="Helvetica,sans-Serif" font-size="10.00">+ _getPoints()</text>
<text text-anchor="start" x="387.5" y="-194.5" font-family="Helvetica,sans-Serif" font-size="10.00">+ _getIndices()</text>
<text text-anchor="start" x="387.5" y="-183.5" font-family="Helvetica,sans-Serif" font-size="10.00">+ KdTree()</text>
<text text-anchor="start" x="387.5" y="-172.5" font-family="Helvetica,sans-Serif" font-size="10.00">+ KdTree()</text>
<text text-anchor="start" x="387.5" y="-161.5" font-family="Helvetica,sans-Serif" font-size="10.00">+ add()</text>
<text text-anchor="start" x="387.5" y="-150.5" font-family="Helvetica,sans-Serif" font-size="10.00">+ add()</text>
<text text-anchor="start" x="387.5" y="-139.5" font-family="Helvetica,sans-Serif" font-size="10.00">+ finalize()</text>
<text text-anchor="start" x="387.5" y="-128.5" font-family="Helvetica,sans-Serif" font-size="10.00">+ aabb()</text>
<text text-anchor="start" x="387.5" y="-117.5" font-family="Helvetica,sans-Serif" font-size="10.00">+ ~KdTree()</text>
<text text-anchor="start" x="387.5" y="-106.5" font-family="Helvetica,sans-Serif" font-size="10.00">+ doQueryK()</text>
<text text-anchor="start" x="387.5" y="-95.5" font-family="Helvetica,sans-Serif" font-size="10.00">+ doQueryDist()</text>
<text text-anchor="start" x="387.5" y="-84.5" font-family="Helvetica,sans-Serif" font-size="10.00">+ doQueryDistIndices()</text>
<text text-anchor="start" x="387.5" y="-73.5" font-family="Helvetica,sans-Serif" font-size="10.00">+ doQueryDistProcessIndices()</text>
<text text-anchor="start" x="387.5" y="-62.5" font-family="Helvetica,sans-Serif" font-size="10.00">+ doQueryRestrictedClosest</text>
<text text-anchor="start" x="387.5" y="-51.5" font-family="Helvetica,sans-Serif" font-size="10.00">Index()</text>
<text text-anchor="start" x="387.5" y="-40.5" font-family="Helvetica,sans-Serif" font-size="10.00">+ invalidIndex()</text>
<text text-anchor="start" x="387.5" y="-29.5" font-family="Helvetica,sans-Serif" font-size="10.00"># split()</text>
<text text-anchor="start" x="387.5" y="-18.5" font-family="Helvetica,sans-Serif" font-size="10.00"># createTree()</text>
<text text-anchor="start" x="387.5" y="-7.5" font-family="Helvetica,sans-Serif" font-size="10.00"># _doQueryDistIndicesWithFunctor()</text>
</g>
<!-- Node3 -->
<g id="node2" class="node"><title>Node3</title>
<polygon fill="white" stroke="#bfbfbf" points="40,-430 40,-487 171,-487 171,-430 40,-430"/>
<text text-anchor="middle" x="105.5" y="-475" font-family="Helvetica,sans-Serif" font-size="10.00">std::vector&lt; VectorType &gt;</text>
<polyline fill="none" stroke="#bfbfbf" points="40,-468 171,-468 "/>
<text text-anchor="middle" x="105.5" y="-456" font-family="Helvetica,sans-Serif" font-size="10.00"> </text>
<polyline fill="none" stroke="#bfbfbf" points="40,-449 171,-449 "/>
<text text-anchor="middle" x="105.5" y="-437" font-family="Helvetica,sans-Serif" font-size="10.00"> </text>
</g>
<!-- Node3&#45;&gt;Node2 -->
<g id="edge1" class="edge"><title>Node3&#45;&gt;Node2</title>
<path fill="none" stroke="#404040" d="M133.547,-429.648C156.702,-406.931 190.653,-374.257 221.5,-347 269.295,-304.766 324.054,-259.613 369.756,-222.777"/>
<polygon fill="none" stroke="#404040" points="370.015,-222.569 372.182,-215.691 379.365,-215.047 377.197,-221.925 370.015,-222.569"/>
<text text-anchor="middle" x="291" y="-315.5" font-family="Helvetica,sans-Serif" font-size="10.00"> #mPoints</text>
</g>
<!-- Node4 -->
<g id="node3" class="node"><title>Node4</title>
<polygon fill="white" stroke="#bfbfbf" points="0,-700 0,-757 67,-757 67,-700 0,-700"/>
<text text-anchor="middle" x="33.5" y="-745" font-family="Helvetica,sans-Serif" font-size="10.00">VectorType</text>
<polyline fill="none" stroke="#bfbfbf" points="0,-738 67,-738 "/>
<text text-anchor="middle" x="33.5" y="-726" font-family="Helvetica,sans-Serif" font-size="10.00"> </text>
<polyline fill="none" stroke="#bfbfbf" points="0,-719 67,-719 "/>
<text text-anchor="middle" x="33.5" y="-707" font-family="Helvetica,sans-Serif" font-size="10.00"> </text>
</g>
<!-- Node4&#45;&gt;Node3 -->
<g id="edge2" class="edge"><title>Node4&#45;&gt;Node3</title>
<path fill="none" stroke="#404040" d="M29.7598,-699.976C26.7906,-671.455 24.5967,-625.84 34.5,-588 43.0445,-555.352 61.7435,-522.101 77.8071,-497.605"/>
<polygon fill="none" stroke="#404040" points="78.0204,-497.288 78.0545,-490.077 84.724,-487.335 84.6898,-494.546 78.0204,-497.288"/>
<text text-anchor="middle" x="59" y="-591" font-family="Helvetica,sans-Serif" font-size="10.00"> +elements</text>
</g>
<!-- Node5 -->
<g id="node4" class="node"><title>Node5</title>
<g id="a_node4"><a xlink:title="STL class. ">
<polygon fill="white" stroke="#bfbfbf" points="134,-700 134,-757 221,-757 221,-700 134,-700"/>
<text text-anchor="middle" x="177.5" y="-745" font-family="Helvetica,sans-Serif" font-size="10.00">std::vector&lt; T &gt;</text>
<polyline fill="none" stroke="#bfbfbf" points="134,-738 221,-738 "/>
<text text-anchor="middle" x="177.5" y="-726" font-family="Helvetica,sans-Serif" font-size="10.00"> </text>
<polyline fill="none" stroke="#bfbfbf" points="134,-719 221,-719 "/>
<text text-anchor="middle" x="177.5" y="-707" font-family="Helvetica,sans-Serif" font-size="10.00"> </text>
</a>
</g>
</g>
<!-- Node5&#45;&gt;Node3 -->
<g id="edge3" class="edge"><title>Node5&#45;&gt;Node3</title>
<path fill="none" stroke="orange" d="M151.098,-691.354C134.757,-666.689 115.274,-632.526 106.5,-599 96.5967,-561.16 98.7906,-515.545 101.76,-487.024"/>
<polygon fill="orange" stroke="orange" points="148.22,-693.346 156.724,-699.665 154.017,-689.422 148.22,-693.346"/>
<text text-anchor="middle" x="142.5" y="-591" font-family="Helvetica,sans-Serif" font-size="10.00"> &lt; VectorType &gt;</text>
</g>
<!-- Node11 -->
<g id="node10" class="node"><title>Node11</title>
<polygon fill="white" stroke="#bfbfbf" points="230.5,-430 230.5,-487 346.5,-487 346.5,-430 230.5,-430"/>
<text text-anchor="middle" x="288.5" y="-475" font-family="Helvetica,sans-Serif" font-size="10.00">std::vector&lt; KdNode &gt;</text>
<polyline fill="none" stroke="#bfbfbf" points="230.5,-468 346.5,-468 "/>
<text text-anchor="middle" x="288.5" y="-456" font-family="Helvetica,sans-Serif" font-size="10.00"> </text>
<polyline fill="none" stroke="#bfbfbf" points="230.5,-449 346.5,-449 "/>
<text text-anchor="middle" x="288.5" y="-437" font-family="Helvetica,sans-Serif" font-size="10.00"> </text>
</g>
<!-- Node5&#45;&gt;Node11 -->
<g id="edge15" class="edge"><title>Node5&#45;&gt;Node11</title>
<path fill="none" stroke="orange" d="M179.657,-689.778C182.318,-661.018 188.258,-620.891 201.5,-588 216.794,-550.013 244.598,-511.834 264.664,-487.083"/>
<polygon fill="orange" stroke="orange" points="176.162,-689.568 178.817,-699.825 183.138,-690.151 176.162,-689.568"/>
<text text-anchor="middle" x="230" y="-591" font-family="Helvetica,sans-Serif" font-size="10.00"> &lt; KdNode &gt;</text>
</g>
<!-- Node19 -->
<g id="node18" class="node"><title>Node19</title>
<polygon fill="white" stroke="#bfbfbf" points="365,-430 365,-487 470,-487 470,-430 365,-430"/>
<text text-anchor="middle" x="417.5" y="-475" font-family="Helvetica,sans-Serif" font-size="10.00">std::vector&lt; Index &gt;</text>
<polyline fill="none" stroke="#bfbfbf" points="365,-468 470,-468 "/>
<text text-anchor="middle" x="417.5" y="-456" font-family="Helvetica,sans-Serif" font-size="10.00"> </text>
<polyline fill="none" stroke="#bfbfbf" points="365,-449 470,-449 "/>
<text text-anchor="middle" x="417.5" y="-437" font-family="Helvetica,sans-Serif" font-size="10.00"> </text>
</g>
<!-- Node5&#45;&gt;Node19 -->
<g id="edge22" class="edge"><title>Node5&#45;&gt;Node19</title>
<path fill="none" stroke="orange" d="M194.348,-690.715C210.95,-658.653 239.358,-613.418 277.5,-588 307.106,-568.27 327.03,-591.336 355.5,-570 383.136,-549.288 400.194,-512.42 409.254,-487.003"/>
<polygon fill="orange" stroke="orange" points="191.148,-689.287 189.778,-699.793 197.401,-692.434 191.148,-689.287"/>
<text text-anchor="middle" x="300.5" y="-591" font-family="Helvetica,sans-Serif" font-size="10.00"> &lt; Index &gt;</text>
</g>
<!-- Node6 -->
<g id="node5" class="node"><title>Node6</title>
<polygon fill="white" stroke="#bfbfbf" points="141,-920.5 141,-977.5 170,-977.5 170,-920.5 141,-920.5"/>
<text text-anchor="middle" x="155.5" y="-965.5" font-family="Helvetica,sans-Serif" font-size="10.00">T</text>
<polyline fill="none" stroke="#bfbfbf" points="141,-958.5 170,-958.5 "/>
<text text-anchor="middle" x="155.5" y="-946.5" font-family="Helvetica,sans-Serif" font-size="10.00"> </text>
<polyline fill="none" stroke="#bfbfbf" points="141,-939.5 170,-939.5 "/>
<text text-anchor="middle" x="155.5" y="-927.5" font-family="Helvetica,sans-Serif" font-size="10.00"> </text>
</g>
<!-- Node6&#45;&gt;Node5 -->
<g id="edge4" class="edge"><title>Node6&#45;&gt;Node5</title>
<path fill="none" stroke="#404040" d="M155.171,-920.375C155.192,-902.542 155.653,-878.861 157.5,-858 160.149,-828.083 165.445,-794.561 169.922,-769.258"/>
<polygon fill="none" stroke="#404040" points="169.968,-769.002 167.1,-762.386 172.105,-757.194 174.973,-763.81 169.968,-769.002"/>
<text text-anchor="middle" x="182" y="-877.5" font-family="Helvetica,sans-Serif" font-size="10.00"> +elements</text>
</g>
<!-- Node7 -->
<g id="node6" class="node"><title>Node7</title>
<polygon fill="white" stroke="#bfbfbf" points="591,-430 591,-487 660,-487 660,-430 591,-430"/>
<text text-anchor="middle" x="625.5" y="-475" font-family="Helvetica,sans-Serif" font-size="10.00">unsigned int</text>
<polyline fill="none" stroke="#bfbfbf" points="591,-468 660,-468 "/>
<text text-anchor="middle" x="625.5" y="-456" font-family="Helvetica,sans-Serif" font-size="10.00"> </text>
<polyline fill="none" stroke="#bfbfbf" points="591,-449 660,-449 "/>
<text text-anchor="middle" x="625.5" y="-437" font-family="Helvetica,sans-Serif" font-size="10.00"> </text>
</g>
<!-- Node7&#45;&gt;Node2 -->
<g id="edge5" class="edge"><title>Node7&#45;&gt;Node2</title>
<path fill="none" stroke="#404040" d="M614.007,-429.978C604.432,-407.453 590.194,-374.877 576.5,-347 568.913,-331.555 560.777,-315.575 552.494,-299.682"/>
<polygon fill="none" stroke="#404040" points="552.31,-299.331 545.982,-295.872 546.741,-288.701 553.069,-292.16 552.31,-299.331"/>
<text text-anchor="middle" x="609.5" y="-321" font-family="Helvetica,sans-Serif" font-size="10.00"> #_nofPointsPerCell</text>
<text text-anchor="middle" x="609.5" y="-310" font-family="Helvetica,sans-Serif" font-size="10.00">#_maxDepth</text>
</g>
<!-- Node8 -->
<g id="node7" class="node"><title>Node8</title>
<g id="a_node7"><a xlink:href="a04604.xhtml" target="_top" xlink:title="element of the stack ">
<polygon fill="white" stroke="black" points="477.5,-683.5 477.5,-773.5 587.5,-773.5 587.5,-683.5 477.5,-683.5"/>
<text text-anchor="start" x="485.5" y="-761.5" font-family="Helvetica,sans-Serif" font-size="10.00">GlobalRegistration</text>
<text text-anchor="start" x="485.5" y="-750.5" font-family="Helvetica,sans-Serif" font-size="10.00">::KdTree&lt; _Scalar, </text>
<text text-anchor="middle" x="532.5" y="-739.5" font-family="Helvetica,sans-Serif" font-size="10.00">_Index &gt;::QueryNode</text>
<polyline fill="none" stroke="black" points="477.5,-732.5 587.5,-732.5 "/>
<text text-anchor="middle" x="532.5" y="-720.5" font-family="Helvetica,sans-Serif" font-size="10.00"> </text>
<polyline fill="none" stroke="black" points="477.5,-713.5 587.5,-713.5 "/>
<text text-anchor="start" x="485.5" y="-701.5" font-family="Helvetica,sans-Serif" font-size="10.00">+ QueryNode()</text>
<text text-anchor="start" x="485.5" y="-690.5" font-family="Helvetica,sans-Serif" font-size="10.00">+ QueryNode()</text>
</a>
</g>
</g>
<!-- Node8&#45;&gt;Node2 -->
<g id="edge6" class="edge"><title>Node8&#45;&gt;Node2</title>
<path fill="none" stroke="#404040" d="M527.498,-683.396C523.977,-651.832 519.243,-608.321 515.5,-570 504.093,-453.221 506.594,-423.486 492.5,-307 492.248,-304.918 491.99,-302.822 491.726,-300.714"/>
<polygon fill="none" stroke="#404040" points="491.69,-300.431 486.956,-294.992 490.156,-288.53 494.89,-293.97 491.69,-300.431"/>
<text text-anchor="middle" x="548.5" y="-456" font-family="Helvetica,sans-Serif" font-size="10.00"> #mNodeStack</text>
</g>
<!-- Node9 -->
<g id="node8" class="node"><title>Node9</title>
<polygon fill="white" stroke="#bfbfbf" points="569.5,-920.5 569.5,-977.5 619.5,-977.5 619.5,-920.5 569.5,-920.5"/>
<text text-anchor="middle" x="594.5" y="-965.5" font-family="Helvetica,sans-Serif" font-size="10.00">_Scalar</text>
<polyline fill="none" stroke="#bfbfbf" points="569.5,-958.5 619.5,-958.5 "/>
<text text-anchor="middle" x="594.5" y="-946.5" font-family="Helvetica,sans-Serif" font-size="10.00"> </text>
<polyline fill="none" stroke="#bfbfbf" points="569.5,-939.5 619.5,-939.5 "/>
<text text-anchor="middle" x="594.5" y="-927.5" font-family="Helvetica,sans-Serif" font-size="10.00"> </text>
</g>
<!-- Node9&#45;&gt;Node8 -->
<g id="edge7" class="edge"><title>Node9&#45;&gt;Node8</title>
<path fill="none" stroke="#404040" d="M586.648,-920.327C577.057,-886.528 560.599,-828.527 548.339,-785.319"/>
<polygon fill="none" stroke="#404040" points="548.277,-785.101 542.791,-780.421 545.001,-773.557 550.487,-778.237 548.277,-785.101"/>
<text text-anchor="middle" x="591.5" y="-877.5" font-family="Helvetica,sans-Serif" font-size="10.00"> +sq</text>
</g>
<!-- Node10 -->
<g id="node9" class="node"><title>Node10</title>
<polygon fill="white" stroke="#bfbfbf" points="484,-920.5 484,-977.5 513,-977.5 513,-920.5 484,-920.5"/>
<text text-anchor="middle" x="498.5" y="-965.5" font-family="Helvetica,sans-Serif" font-size="10.00">int</text>
<polyline fill="none" stroke="#bfbfbf" points="484,-958.5 513,-958.5 "/>
<text text-anchor="middle" x="498.5" y="-946.5" font-family="Helvetica,sans-Serif" font-size="10.00"> </text>
<polyline fill="none" stroke="#bfbfbf" points="484,-939.5 513,-939.5 "/>
<text text-anchor="middle" x="498.5" y="-927.5" font-family="Helvetica,sans-Serif" font-size="10.00"> </text>
</g>
<!-- Node10&#45;&gt;Node8 -->
<g id="edge8" class="edge"><title>Node10&#45;&gt;Node8</title>
<path fill="none" stroke="#404040" d="M506.313,-920.401C507.849,-914.37 509.34,-907.996 510.5,-902 517.953,-863.457 523.511,-819.564 527.176,-785.7"/>
<polygon fill="none" stroke="#404040" points="527.182,-785.64 523.833,-779.254 528.44,-773.706 531.789,-780.092 527.182,-785.64"/>
<text text-anchor="middle" x="538" y="-877.5" font-family="Helvetica,sans-Serif" font-size="10.00"> +nodeId</text>
</g>
<!-- Node12 -->
<g id="node11" class="node"><title>Node12</title>
<g id="a_node11"><a xlink:href="a04588.xhtml" target="_top" xlink:title="{GlobalRegistration\l::KdTree\&lt; _Scalar, \l_Index \&gt;::KdNode\n||}">
<polygon fill="white" stroke="black" points="289.5,-689 289.5,-768 391.5,-768 391.5,-689 289.5,-689"/>
<text text-anchor="start" x="297.5" y="-756" font-family="Helvetica,sans-Serif" font-size="10.00">GlobalRegistration</text>
<text text-anchor="start" x="297.5" y="-745" font-family="Helvetica,sans-Serif" font-size="10.00">::KdTree&lt; _Scalar, </text>
<text text-anchor="middle" x="340.5" y="-734" font-family="Helvetica,sans-Serif" font-size="10.00">_Index &gt;::KdNode</text>
<polyline fill="none" stroke="black" points="289.5,-727 391.5,-727 "/>
<text text-anchor="middle" x="340.5" y="-715" font-family="Helvetica,sans-Serif" font-size="10.00"> </text>
<polyline fill="none" stroke="black" points="289.5,-708 391.5,-708 "/>
<text text-anchor="middle" x="340.5" y="-696" font-family="Helvetica,sans-Serif" font-size="10.00"> </text>
</a>
</g>
</g>
<!-- Node10&#45;&gt;Node12 -->
<g id="edge13" class="edge"><title>Node10&#45;&gt;Node12</title>
<path fill="none" stroke="#404040" d="M483.771,-935.908C473.939,-927.254 461.256,-914.894 452.5,-902 440.534,-884.378 447.856,-873.737 433.5,-858 422.241,-845.658 412.302,-851.825 400.5,-840 383.39,-822.857 369.84,-799.817 359.979,-779.212"/>
<polygon fill="none" stroke="#404040" points="359.873,-778.981 353.74,-775.188 354.881,-768.068 361.015,-771.86 359.873,-778.981"/>
<text text-anchor="middle" x="479.5" y="-894" font-family="Helvetica,sans-Serif" font-size="10.00"> +start</text>
<text text-anchor="middle" x="479.5" y="-883" font-family="Helvetica,sans-Serif" font-size="10.00">+leaf</text>
<text text-anchor="middle" x="479.5" y="-872" font-family="Helvetica,sans-Serif" font-size="10.00">+dim</text>
<text text-anchor="middle" x="479.5" y="-861" font-family="Helvetica,sans-Serif" font-size="10.00">+firstChildId</text>
</g>
<!-- Node11&#45;&gt;Node2 -->
<g id="edge9" class="edge"><title>Node11&#45;&gt;Node2</title>
<path fill="none" stroke="#404040" d="M304.385,-429.812C321.599,-399.807 350.471,-349.483 379.181,-299.441"/>
<polygon fill="none" stroke="#404040" points="379.329,-299.183 378.845,-291.988 385.301,-288.775 385.784,-295.97 379.329,-299.183"/>
<text text-anchor="middle" x="396.5" y="-315.5" font-family="Helvetica,sans-Serif" font-size="10.00"> #mNodes</text>
</g>
<!-- Node12&#45;&gt;Node11 -->
<g id="edge10" class="edge"><title>Node12&#45;&gt;Node11</title>
<path fill="none" stroke="#404040" d="M338.985,-688.714C337.378,-660.555 334.105,-621.654 327.5,-588 321.519,-557.527 311.204,-523.975 302.683,-498.8"/>
<polygon fill="none" stroke="#404040" points="302.583,-498.509 296.846,-494.14 298.672,-487.164 304.409,-491.532 302.583,-498.509"/>
<text text-anchor="middle" x="354" y="-591" font-family="Helvetica,sans-Serif" font-size="10.00"> +elements</text>
</g>
<!-- Node13 -->
<g id="node12" class="node"><title>Node13</title>
<polygon fill="white" stroke="#bfbfbf" points="397,-920.5 397,-977.5 432,-977.5 432,-920.5 397,-920.5"/>
<text text-anchor="middle" x="414.5" y="-965.5" font-family="Helvetica,sans-Serif" font-size="10.00">float</text>
<polyline fill="none" stroke="#bfbfbf" points="397,-958.5 432,-958.5 "/>
<text text-anchor="middle" x="414.5" y="-946.5" font-family="Helvetica,sans-Serif" font-size="10.00"> </text>
<polyline fill="none" stroke="#bfbfbf" points="397,-939.5 432,-939.5 "/>
<text text-anchor="middle" x="414.5" y="-927.5" font-family="Helvetica,sans-Serif" font-size="10.00"> </text>
</g>
<!-- Node13&#45;&gt;Node12 -->
<g id="edge11" class="edge"><title>Node13&#45;&gt;Node12</title>
<path fill="none" stroke="#404040" d="M396.872,-927.077C391.269,-919.559 385.496,-910.764 381.5,-902 363.735,-863.041 353.171,-815.491 347.227,-780.188"/>
<polygon fill="none" stroke="#404040" points="347.212,-780.095 342.313,-774.803 345.313,-768.246 350.212,-773.537 347.212,-780.095"/>
<text text-anchor="middle" x="407.5" y="-877.5" font-family="Helvetica,sans-Serif" font-size="10.00"> +splitValue</text>
</g>
<!-- Node14 -->
<g id="node13" class="node"><title>Node14</title>
<polygon fill="white" stroke="#bfbfbf" points="188.5,-920.5 188.5,-977.5 268.5,-977.5 268.5,-920.5 188.5,-920.5"/>
<text text-anchor="middle" x="228.5" y="-965.5" font-family="Helvetica,sans-Serif" font-size="10.00">unsigned short</text>
<polyline fill="none" stroke="#bfbfbf" points="188.5,-958.5 268.5,-958.5 "/>
<text text-anchor="middle" x="228.5" y="-946.5" font-family="Helvetica,sans-Serif" font-size="10.00"> </text>
<polyline fill="none" stroke="#bfbfbf" points="188.5,-939.5 268.5,-939.5 "/>
<text text-anchor="middle" x="228.5" y="-927.5" font-family="Helvetica,sans-Serif" font-size="10.00"> </text>
</g>
<!-- Node14&#45;&gt;Node12 -->
<g id="edge12" class="edge"><title>Node14&#45;&gt;Node12</title>
<path fill="none" stroke="#404040" d="M242.685,-920.327C260.863,-884.863 292.7,-822.753 315.104,-779.045"/>
<polygon fill="none" stroke="#404040" points="315.109,-779.036 314.286,-771.872 320.583,-768.357 321.405,-775.521 315.109,-779.036"/>
<text text-anchor="middle" x="288.5" y="-877.5" font-family="Helvetica,sans-Serif" font-size="10.00"> +size</text>
</g>
<!-- Node15 -->
<g id="node14" class="node"><title>Node15</title>
<polygon fill="white" stroke="#bfbfbf" points="286.5,-920.5 286.5,-977.5 378.5,-977.5 378.5,-920.5 286.5,-920.5"/>
<text text-anchor="middle" x="332.5" y="-965.5" font-family="Helvetica,sans-Serif" font-size="10.00">anonymous:+@2</text>
<polyline fill="none" stroke="#bfbfbf" points="286.5,-958.5 378.5,-958.5 "/>
<text text-anchor="middle" x="332.5" y="-946.5" font-family="Helvetica,sans-Serif" font-size="10.00"> </text>
<polyline fill="none" stroke="#bfbfbf" points="286.5,-939.5 378.5,-939.5 "/>
<text text-anchor="middle" x="332.5" y="-927.5" font-family="Helvetica,sans-Serif" font-size="10.00"> </text>
</g>
<!-- Node15&#45;&gt;Node12 -->
<g id="edge14" class="edge"><title>Node15&#45;&gt;Node12</title>
<path fill="none" stroke="#404040" d="M332.498,-920.42C332.572,-902.605 332.814,-878.928 333.5,-858 334.338,-832.447 335.825,-804.062 337.214,-780.484"/>
<polygon fill="none" stroke="#404040" points="337.227,-780.259 333.596,-774.029 337.949,-768.281 341.581,-774.51 337.227,-780.259"/>
<text text-anchor="middle" x="346" y="-877.5" font-family="Helvetica,sans-Serif" font-size="10.00"> +@2</text>
</g>
<!-- Node16 -->
<g id="node15" class="node"><title>Node16</title>
<g id="a_node15"><a xlink:href="a04580.xhtml" target="_top" xlink:title="{GlobalRegistration\l::AABB\&lt; Scalar \&gt;\n||+ AABB()\l+ AABB()\l+ AABB()\l+ AABB()\l+ operator=()\l+ extendTo()\l+ extendTo()\l+ contains()\l+ diagonal()\l+ center()\l+ min()\l+ max()\l+ depth()\l+ width()\l+ height()\l}">
<polygon fill="white" stroke="black" points="683,-347.5 683,-569.5 780,-569.5 780,-347.5 683,-347.5"/>
<text text-anchor="start" x="691" y="-557.5" font-family="Helvetica,sans-Serif" font-size="10.00">GlobalRegistration</text>
<text text-anchor="middle" x="731.5" y="-546.5" font-family="Helvetica,sans-Serif" font-size="10.00">::AABB&lt; Scalar &gt;</text>
<polyline fill="none" stroke="black" points="683,-539.5 780,-539.5 "/>
<text text-anchor="middle" x="731.5" y="-527.5" font-family="Helvetica,sans-Serif" font-size="10.00"> </text>
<polyline fill="none" stroke="black" points="683,-520.5 780,-520.5 "/>
<text text-anchor="start" x="691" y="-508.5" font-family="Helvetica,sans-Serif" font-size="10.00">+ AABB()</text>
<text text-anchor="start" x="691" y="-497.5" font-family="Helvetica,sans-Serif" font-size="10.00">+ AABB()</text>
<text text-anchor="start" x="691" y="-486.5" font-family="Helvetica,sans-Serif" font-size="10.00">+ AABB()</text>
<text text-anchor="start" x="691" y="-475.5" font-family="Helvetica,sans-Serif" font-size="10.00">+ AABB()</text>
<text text-anchor="start" x="691" y="-464.5" font-family="Helvetica,sans-Serif" font-size="10.00">+ operator=()</text>
<text text-anchor="start" x="691" y="-453.5" font-family="Helvetica,sans-Serif" font-size="10.00">+ extendTo()</text>
<text text-anchor="start" x="691" y="-442.5" font-family="Helvetica,sans-Serif" font-size="10.00">+ extendTo()</text>
<text text-anchor="start" x="691" y="-431.5" font-family="Helvetica,sans-Serif" font-size="10.00">+ contains()</text>
<text text-anchor="start" x="691" y="-420.5" font-family="Helvetica,sans-Serif" font-size="10.00">+ diagonal()</text>
<text text-anchor="start" x="691" y="-409.5" font-family="Helvetica,sans-Serif" font-size="10.00">+ center()</text>
<text text-anchor="start" x="691" y="-398.5" font-family="Helvetica,sans-Serif" font-size="10.00">+ min()</text>
<text text-anchor="start" x="691" y="-387.5" font-family="Helvetica,sans-Serif" font-size="10.00">+ max()</text>
<text text-anchor="start" x="691" y="-376.5" font-family="Helvetica,sans-Serif" font-size="10.00">+ depth()</text>
<text text-anchor="start" x="691" y="-365.5" font-family="Helvetica,sans-Serif" font-size="10.00">+ width()</text>
<text text-anchor="start" x="691" y="-354.5" font-family="Helvetica,sans-Serif" font-size="10.00">+ height()</text>
</a>
</g>
</g>
<!-- Node16&#45;&gt;Node2 -->
<g id="edge16" class="edge"><title>Node16&#45;&gt;Node2</title>
<path fill="none" stroke="#404040" d="M684.033,-347.435C676.038,-333.273 667.16,-319.405 657.5,-307 631.354,-273.425 597.274,-241.823 565.208,-215.629"/>
<polygon fill="none" stroke="#404040" points="565.124,-215.562 557.943,-214.912 555.78,-208.033 562.962,-208.683 565.124,-215.562"/>
<text text-anchor="middle" x="693.5" y="-315.5" font-family="Helvetica,sans-Serif" font-size="10.00"> #mAABB</text>
</g>
<!-- Node17 -->
<g id="node16" class="node"><title>Node17</title>
<polygon fill="white" stroke="#bfbfbf" points="662,-920.5 662,-977.5 787,-977.5 787,-920.5 662,-920.5"/>
<text text-anchor="middle" x="724.5" y="-965.5" font-family="Helvetica,sans-Serif" font-size="10.00">Matrix&lt; Scalar, Dim, 1 &gt;</text>
<polyline fill="none" stroke="#bfbfbf" points="662,-958.5 787,-958.5 "/>
<text text-anchor="middle" x="724.5" y="-946.5" font-family="Helvetica,sans-Serif" font-size="10.00"> </text>
<polyline fill="none" stroke="#bfbfbf" points="662,-939.5 787,-939.5 "/>
<text text-anchor="middle" x="724.5" y="-927.5" font-family="Helvetica,sans-Serif" font-size="10.00"> </text>
</g>
<!-- Node17&#45;&gt;Node16 -->
<g id="edge17" class="edge"><title>Node17&#45;&gt;Node16</title>
<path fill="none" stroke="#404040" d="M720.212,-920.112C717.092,-898.352 713.139,-867.335 711.5,-840 705.567,-741.067 705.245,-715.914 711.5,-617 712.217,-605.669 713.22,-593.907 714.4,-582.145"/>
<polygon fill="none" stroke="#404040" points="714.432,-581.841 711.083,-575.455 715.689,-569.907 719.039,-576.293 714.432,-581.841"/>
<text text-anchor="middle" x="726.5" y="-731.5" font-family="Helvetica,sans-Serif" font-size="10.00"> #_min</text>
<text text-anchor="middle" x="726.5" y="-720.5" font-family="Helvetica,sans-Serif" font-size="10.00">#_max</text>
</g>
<!-- Node18 -->
<g id="node17" class="node"><title>Node18</title>
<g id="a_node17"><a xlink:href="a04580.xhtml" target="_top" xlink:title="{GlobalRegistration\l::AABB\&lt; _Scalar, _Dim \&gt;\n||+ AABB()\l+ AABB()\l+ AABB()\l+ AABB()\l+ operator=()\l+ extendTo()\l+ extendTo()\l+ contains()\l+ diagonal()\l+ center()\l+ min()\l+ max()\l+ depth()\l+ width()\l+ height()\l}">
<polygon fill="white" stroke="black" points="750.5,-617.5 750.5,-839.5 880.5,-839.5 880.5,-617.5 750.5,-617.5"/>
<text text-anchor="start" x="758.5" y="-827.5" font-family="Helvetica,sans-Serif" font-size="10.00">GlobalRegistration</text>
<text text-anchor="middle" x="815.5" y="-816.5" font-family="Helvetica,sans-Serif" font-size="10.00">::AABB&lt; _Scalar, _Dim &gt;</text>
<polyline fill="none" stroke="black" points="750.5,-809.5 880.5,-809.5 "/>
<text text-anchor="middle" x="815.5" y="-797.5" font-family="Helvetica,sans-Serif" font-size="10.00"> </text>
<polyline fill="none" stroke="black" points="750.5,-790.5 880.5,-790.5 "/>
<text text-anchor="start" x="758.5" y="-778.5" font-family="Helvetica,sans-Serif" font-size="10.00">+ AABB()</text>
<text text-anchor="start" x="758.5" y="-767.5" font-family="Helvetica,sans-Serif" font-size="10.00">+ AABB()</text>
<text text-anchor="start" x="758.5" y="-756.5" font-family="Helvetica,sans-Serif" font-size="10.00">+ AABB()</text>
<text text-anchor="start" x="758.5" y="-745.5" font-family="Helvetica,sans-Serif" font-size="10.00">+ AABB()</text>
<text text-anchor="start" x="758.5" y="-734.5" font-family="Helvetica,sans-Serif" font-size="10.00">+ operator=()</text>
<text text-anchor="start" x="758.5" y="-723.5" font-family="Helvetica,sans-Serif" font-size="10.00">+ extendTo()</text>
<text text-anchor="start" x="758.5" y="-712.5" font-family="Helvetica,sans-Serif" font-size="10.00">+ extendTo()</text>
<text text-anchor="start" x="758.5" y="-701.5" font-family="Helvetica,sans-Serif" font-size="10.00">+ contains()</text>
<text text-anchor="start" x="758.5" y="-690.5" font-family="Helvetica,sans-Serif" font-size="10.00">+ diagonal()</text>
<text text-anchor="start" x="758.5" y="-679.5" font-family="Helvetica,sans-Serif" font-size="10.00">+ center()</text>
<text text-anchor="start" x="758.5" y="-668.5" font-family="Helvetica,sans-Serif" font-size="10.00">+ min()</text>
<text text-anchor="start" x="758.5" y="-657.5" font-family="Helvetica,sans-Serif" font-size="10.00">+ max()</text>
<text text-anchor="start" x="758.5" y="-646.5" font-family="Helvetica,sans-Serif" font-size="10.00">+ depth()</text>
<text text-anchor="start" x="758.5" y="-635.5" font-family="Helvetica,sans-Serif" font-size="10.00">+ width()</text>
<text text-anchor="start" x="758.5" y="-624.5" font-family="Helvetica,sans-Serif" font-size="10.00">+ height()</text>
</a>
</g>
</g>
<!-- Node17&#45;&gt;Node18 -->
<g id="edge19" class="edge"><title>Node17&#45;&gt;Node18</title>
<path fill="none" stroke="#404040" d="M736.025,-920.327C743.6,-902.14 754.092,-876.946 764.974,-850.819"/>
<polygon fill="none" stroke="#404040" points="765.04,-850.66 763.654,-843.584 769.653,-839.583 771.039,-846.659 765.04,-850.66"/>
<text text-anchor="middle" x="777.5" y="-883" font-family="Helvetica,sans-Serif" font-size="10.00"> #_min</text>
<text text-anchor="middle" x="777.5" y="-872" font-family="Helvetica,sans-Serif" font-size="10.00">#_max</text>
</g>
<!-- Node18&#45;&gt;Node16 -->
<g id="edge18" class="edge"><title>Node18&#45;&gt;Node16</title>
<path fill="none" stroke="orange" d="M777.95,-607.696C773.982,-595.039 769.962,-582.211 766.031,-569.671"/>
<polygon fill="orange" stroke="orange" points="774.64,-608.839 780.97,-617.334 781.319,-606.745 774.64,-608.839"/>
<text text-anchor="middle" x="798" y="-591" font-family="Helvetica,sans-Serif" font-size="10.00"> &lt; Scalar &gt;</text>
</g>
<!-- Node19&#45;&gt;Node2 -->
<g id="edge20" class="edge"><title>Node19&#45;&gt;Node2</title>
<path fill="none" stroke="#404040" d="M421.937,-429.812C426.705,-400.058 434.676,-350.324 442.629,-300.698"/>
<polygon fill="none" stroke="#404040" points="442.64,-300.623 439.64,-294.066 444.539,-288.775 447.539,-295.332 442.64,-300.623"/>
<text text-anchor="middle" x="466" y="-315.5" font-family="Helvetica,sans-Serif" font-size="10.00"> #mIndices</text>
</g>
<!-- Node20 -->
<g id="node19" class="node"><title>Node20</title>
<polygon fill="white" stroke="#bfbfbf" points="410,-700 410,-757 451,-757 451,-700 410,-700"/>
<text text-anchor="middle" x="430.5" y="-745" font-family="Helvetica,sans-Serif" font-size="10.00">Index</text>
<polyline fill="none" stroke="#bfbfbf" points="410,-738 451,-738 "/>
<text text-anchor="middle" x="430.5" y="-726" font-family="Helvetica,sans-Serif" font-size="10.00"> </text>
<polyline fill="none" stroke="#bfbfbf" points="410,-719 451,-719 "/>
<text text-anchor="middle" x="430.5" y="-707" font-family="Helvetica,sans-Serif" font-size="10.00"> </text>
</g>
<!-- Node20&#45;&gt;Node19 -->
<g id="edge21" class="edge"><title>Node20&#45;&gt;Node19</title>
<path fill="none" stroke="#404040" d="M429.158,-699.829C426.841,-652.061 422.083,-553.981 419.418,-499.032"/>
<polygon fill="none" stroke="#404040" points="419.416,-499.007 415.13,-493.208 418.835,-487.021 423.121,-492.82 419.416,-499.007"/>
<text text-anchor="middle" x="449" y="-591" font-family="Helvetica,sans-Serif" font-size="10.00"> +elements</text>
</g>
</g>
</svg>
