<?xml version="1.0" encoding="UTF-8" standalone="no"?>
<!DOCTYPE svg PUBLIC "-//W3C//DTD SVG 1.1//EN"
 "http://www.w3.org/Graphics/SVG/1.1/DTD/svg11.dtd">
<!-- Generated by graphviz version 2.38.0 (20140413.2041)
 -->
<!-- Title: GlobalRegistration::Match4PCSBase Pages: 1 -->
<svg width="271pt" height="226pt"
 viewBox="0.00 0.00 270.50 226.00" xmlns="http://www.w3.org/2000/svg" xmlns:xlink="http://www.w3.org/1999/xlink">
<g id="graph0" class="graph" transform="scale(1 1) rotate(0) translate(4 222)">
<title>GlobalRegistration::Match4PCSBase</title>
<polygon fill="white" stroke="none" points="-4,4 -4,-222 266.5,-222 266.5,4 -4,4"/>
<!-- Node3 -->
<g id="node1" class="node"><title>Node3</title>
<polygon fill="#bfbfbf" stroke="black" points="38,-0.5 38,-101.5 175,-101.5 175,-0.5 38,-0.5"/>
<text text-anchor="start" x="46" y="-89.5" font-family="Helvetica,sans-Serif" font-size="10.00">GlobalRegistration</text>
<text text-anchor="middle" x="106.5" y="-78.5" font-family="Helvetica,sans-Serif" font-size="10.00">::Match4PCSBase</text>
<polyline fill="none" stroke="black" points="38,-71.5 175,-71.5 "/>
<text text-anchor="middle" x="106.5" y="-59.5" font-family="Helvetica,sans-Serif" font-size="10.00"> </text>
<polyline fill="none" stroke="black" points="38,-52.5 175,-52.5 "/>
<text text-anchor="start" x="46" y="-40.5" font-family="Helvetica,sans-Serif" font-size="10.00">+ ~Match4PCSBase()</text>
<text text-anchor="start" x="46" y="-29.5" font-family="Helvetica,sans-Serif" font-size="10.00">+ getFirstSampled()</text>
<text text-anchor="start" x="46" y="-18.5" font-family="Helvetica,sans-Serif" font-size="10.00">+ getSecondSampled()</text>
<text text-anchor="start" x="46" y="-7.5" font-family="Helvetica,sans-Serif" font-size="10.00">+ ComputeTransformation()</text>
</g>
<!-- Node4 -->
<g id="node2" class="node"><title>Node4</title>
<polygon fill="white" stroke="#bfbfbf" points="0,-160.5 0,-217.5 117,-217.5 117,-160.5 0,-160.5"/>
<text text-anchor="middle" x="58.5" y="-205.5" font-family="Helvetica,sans-Serif" font-size="10.00">static constexpr Scalar</text>
<polyline fill="none" stroke="#bfbfbf" points="0,-198.5 117,-198.5 "/>
<text text-anchor="middle" x="58.5" y="-186.5" font-family="Helvetica,sans-Serif" font-size="10.00"> </text>
<polyline fill="none" stroke="#bfbfbf" points="0,-179.5 117,-179.5 "/>
<text text-anchor="middle" x="58.5" y="-167.5" font-family="Helvetica,sans-Serif" font-size="10.00"> </text>
</g>
<!-- Node4&#45;&gt;Node3 -->
<g id="edge1" class="edge"><title>Node4&#45;&gt;Node3</title>
<path fill="none" stroke="#404040" d="M55.2948,-160.277C54.7502,-147.706 55.3973,-132.819 59.5,-120 60.3175,-117.446 61.266,-114.902 62.3222,-112.381"/>
<polygon fill="none" stroke="#404040" points="62.3531,-112.317 61.3589,-105.175 67.5693,-101.51 68.5636,-108.652 62.3531,-112.317"/>
<text text-anchor="middle" x="96" y="-134" font-family="Helvetica,sans-Serif" font-size="10.00"> +kLargeNumber</text>
<text text-anchor="middle" x="96" y="-123" font-family="Helvetica,sans-Serif" font-size="10.00">+distance_factor</text>
</g>
<!-- Node5 -->
<g id="node3" class="node"><title>Node5</title>
<polygon fill="white" stroke="#bfbfbf" points="140,-160.5 140,-217.5 169,-217.5 169,-160.5 140,-160.5"/>
<text text-anchor="middle" x="154.5" y="-205.5" font-family="Helvetica,sans-Serif" font-size="10.00">int</text>
<polyline fill="none" stroke="#bfbfbf" points="140,-198.5 169,-198.5 "/>
<text text-anchor="middle" x="154.5" y="-186.5" font-family="Helvetica,sans-Serif" font-size="10.00"> </text>
<polyline fill="none" stroke="#bfbfbf" points="140,-179.5 169,-179.5 "/>
<text text-anchor="middle" x="154.5" y="-167.5" font-family="Helvetica,sans-Serif" font-size="10.00"> </text>
</g>
<!-- Node5&#45;&gt;Node3 -->
<g id="edge2" class="edge"><title>Node5&#45;&gt;Node3</title>
<path fill="none" stroke="#404040" d="M145.94,-160.428C141.996,-148.022 137.163,-133.223 132.5,-120 131.712,-117.765 130.9,-115.493 130.071,-113.201"/>
<polygon fill="none" stroke="#404040" points="129.967,-112.918 124.144,-108.665 125.829,-101.654 131.653,-105.907 129.967,-112.918"/>
<text text-anchor="middle" x="200.5" y="-128.5" font-family="Helvetica,sans-Serif" font-size="10.00"> +kNumberOfDiameterTrials</text>
</g>
</g>
</svg>
