<?xml version="1.0" encoding="UTF-8" standalone="no"?>
<!DOCTYPE svg PUBLIC "-//W3C//DTD SVG 1.1//EN"
 "http://www.w3.org/Graphics/SVG/1.1/DTD/svg11.dtd">
<!-- Generated by graphviz version 2.38.0 (20140413.2041)
 -->
<!-- Title: GlobalRegistration::Match4PCSBase::Perform_N_steps Pages: 1 -->
<svg width="342pt" height="50pt"
 viewBox="0.00 0.00 342.00 50.00" xmlns="http://www.w3.org/2000/svg" xmlns:xlink="http://www.w3.org/1999/xlink">
<g id="graph0" class="graph" transform="scale(1 1) rotate(0) translate(4 46)">
<title>GlobalRegistration::Match4PCSBase::Perform_N_steps</title>
<polygon fill="white" stroke="none" points="-4,4 -4,-46 338,-46 338,4 -4,4"/>
<!-- Node47 -->
<g id="node1" class="node"><title>Node47</title>
<polygon fill="#bfbfbf" stroke="black" points="0,-0.5 0,-41.5 139,-41.5 139,-0.5 0,-0.5"/>
<text text-anchor="start" x="8" y="-29.5" font-family="Helvetica,sans-Serif" font-size="10.00">GlobalRegistration</text>
<text text-anchor="start" x="8" y="-18.5" font-family="Helvetica,sans-Serif" font-size="10.00">::Match4PCSBase::Perform</text>
<text text-anchor="middle" x="69.5" y="-7.5" font-family="Helvetica,sans-Serif" font-size="10.00">_N_steps</text>
</g>
<!-- Node48 -->
<g id="node2" class="node"><title>Node48</title>
<g id="a_node2"><a xlink:href="a04648.xhtml#adcacd57bf5844d8205a7620c72c0d450" target="_top" xlink:title="Tries one base and finds the best transformation for this base. Returns true if the achieved LCP is g...">
<polygon fill="white" stroke="black" points="175,-6 175,-36 334,-36 334,-6 175,-6"/>
<text text-anchor="start" x="183" y="-24" font-family="Helvetica,sans-Serif" font-size="10.00">GlobalRegistration</text>
<text text-anchor="middle" x="254.5" y="-13" font-family="Helvetica,sans-Serif" font-size="10.00">::Match4PCSBase::TryOneBase</text>
</a>
</g>
</g>
<!-- Node47&#45;&gt;Node48 -->
<g id="edge1" class="edge"><title>Node47&#45;&gt;Node48</title>
<path fill="none" stroke="midnightblue" d="M139.163,-21C147.546,-21 156.202,-21 164.825,-21"/>
<polygon fill="midnightblue" stroke="midnightblue" points="164.914,-24.5001 174.914,-21 164.914,-17.5001 164.914,-24.5001"/>
</g>
</g>
</svg>
