<?xml version="1.0" encoding="UTF-8" standalone="no"?>
<!DOCTYPE svg PUBLIC "-//W3C//DTD SVG 1.1//EN"
 "http://www.w3.org/Graphics/SVG/1.1/DTD/svg11.dtd">
<!-- Generated by graphviz version 2.38.0 (20140413.2041)
 -->
<!-- Title: GlobalRegistration::Match4PCSBase::base3D Pages: 1 -->
<svg width="361pt" height="149pt"
 viewBox="0.00 0.00 361.00 149.00" xmlns="http://www.w3.org/2000/svg" xmlns:xlink="http://www.w3.org/1999/xlink">
<g id="graph0" class="graph" transform="scale(1 1) rotate(0) translate(4 145)">
<title>GlobalRegistration::Match4PCSBase::base3D</title>
<polygon fill="white" stroke="none" points="-4,4 -4,-145 357,-145 357,4 -4,4"/>
<!-- Node2 -->
<g id="node1" class="node"><title>Node2</title>
<polygon fill="#bfbfbf" stroke="black" points="0,-55.5 0,-85.5 138,-85.5 138,-55.5 0,-55.5"/>
<text text-anchor="start" x="8" y="-73.5" font-family="Helvetica,sans-Serif" font-size="10.00">GlobalRegistration</text>
<text text-anchor="middle" x="69" y="-62.5" font-family="Helvetica,sans-Serif" font-size="10.00">::Match4PCSBase::base3D</text>
</g>
<!-- Node3 -->
<g id="node2" class="node"><title>Node3</title>
<g id="a_node2"><a xlink:href="a04648.xhtml#a869c21b7c49110f7301e78d64d9e0e57" target="_top" xlink:title="Constructs pairs of points in Q, corresponding to a single pair in the in basein P. ">
<polygon fill="white" stroke="black" points="184.5,-110.5 184.5,-140.5 342.5,-140.5 342.5,-110.5 184.5,-110.5"/>
<text text-anchor="start" x="192.5" y="-128.5" font-family="Helvetica,sans-Serif" font-size="10.00">GlobalRegistration</text>
<text text-anchor="middle" x="263.5" y="-117.5" font-family="Helvetica,sans-Serif" font-size="10.00">::Match4PCSBase::ExtractPairs</text>
</a>
</g>
</g>
<!-- Node2&#45;&gt;Node3 -->
<g id="edge1" class="edge"><title>Node2&#45;&gt;Node3</title>
<path fill="none" stroke="midnightblue" d="M121.826,-85.5107C138.481,-90.3183 157.014,-95.6511 174,-100.5 182.166,-102.831 190.758,-105.273 199.248,-107.678"/>
<polygon fill="midnightblue" stroke="midnightblue" points="198.561,-111.121 209.136,-110.477 200.467,-104.386 198.561,-111.121"/>
</g>
<!-- Node4 -->
<g id="node3" class="node"><title>Node4</title>
<g id="a_node3"><a xlink:href="a04648.xhtml#ae197b4fe78911f96d3732d5faf0a6901" target="_top" xlink:title="Finds congruent candidates in the set Q, given the invariants and threshold distances. Returns true if a non empty set can be found, false otherwise. ">
<polygon fill="white" stroke="black" points="179.5,-50 179.5,-91 347.5,-91 347.5,-50 179.5,-50"/>
<text text-anchor="start" x="187.5" y="-79" font-family="Helvetica,sans-Serif" font-size="10.00">GlobalRegistration</text>
<text text-anchor="start" x="187.5" y="-68" font-family="Helvetica,sans-Serif" font-size="10.00">::Match4PCSBase::FindCongruent</text>
<text text-anchor="middle" x="263.5" y="-57" font-family="Helvetica,sans-Serif" font-size="10.00">Quadrilaterals</text>
</a>
</g>
</g>
<!-- Node2&#45;&gt;Node4 -->
<g id="edge2" class="edge"><title>Node2&#45;&gt;Node4</title>
<path fill="none" stroke="midnightblue" d="M138.139,-70.5C148.221,-70.5 158.753,-70.5 169.238,-70.5"/>
<polygon fill="midnightblue" stroke="midnightblue" points="169.26,-74.0001 179.26,-70.5 169.26,-67.0001 169.26,-74.0001"/>
</g>
<!-- Node5 -->
<g id="node4" class="node"><title>Node5</title>
<g id="a_node4"><a xlink:href="a04648.xhtml#acecb2de1f163aff07803ebf905ab3e36" target="_top" xlink:title="Loop over the set of congruent 4&#45;points and test compatiliby with the input base. ...">
<polygon fill="white" stroke="black" points="174,-0.5 174,-30.5 353,-30.5 353,-0.5 174,-0.5"/>
<text text-anchor="start" x="182" y="-18.5" font-family="Helvetica,sans-Serif" font-size="10.00">GlobalRegistration</text>
<text text-anchor="middle" x="263.5" y="-7.5" font-family="Helvetica,sans-Serif" font-size="10.00">::Match4PCSBase::TryCongruentSet</text>
</a>
</g>
</g>
<!-- Node2&#45;&gt;Node5 -->
<g id="edge3" class="edge"><title>Node2&#45;&gt;Node5</title>
<path fill="none" stroke="midnightblue" d="M121.826,-55.4893C138.481,-50.6817 157.014,-45.3489 174,-40.5 182.166,-38.1689 190.758,-35.7274 199.248,-33.3218"/>
<polygon fill="midnightblue" stroke="midnightblue" points="200.467,-36.6144 209.136,-30.5232 198.561,-29.879 200.467,-36.6144"/>
</g>
</g>
</svg>
