<?xml version="1.0" encoding="UTF-8" standalone="no"?>
<!DOCTYPE svg PUBLIC "-//W3C//DTD SVG 1.1//EN"
 "http://www.w3.org/Graphics/SVG/1.1/DTD/svg11.dtd">
<!-- Generated by graphviz version 2.38.0 (20140413.2041)
 -->
<!-- Title: GlobalRegistration::Accelerators::PairExtraction::NdNode::split Pages: 1 -->
<svg width="286pt" height="50pt"
 viewBox="0.00 0.00 286.00 50.00" xmlns="http://www.w3.org/2000/svg" xmlns:xlink="http://www.w3.org/1999/xlink">
<g id="graph0" class="graph" transform="scale(1 1) rotate(0) translate(4 46)">
<title>GlobalRegistration::Accelerators::PairExtraction::NdNode::split</title>
<polygon fill="white" stroke="none" points="-4,4 -4,-46 282,-46 282,4 -4,4"/>
<!-- Node13 -->
<g id="node1" class="node"><title>Node13</title>
<polygon fill="#bfbfbf" stroke="black" points="0,-0.5 0,-41.5 145,-41.5 145,-0.5 0,-0.5"/>
<text text-anchor="start" x="8" y="-29.5" font-family="Helvetica,sans-Serif" font-size="10.00">GlobalRegistration</text>
<text text-anchor="start" x="8" y="-18.5" font-family="Helvetica,sans-Serif" font-size="10.00">::Accelerators::PairExtraction</text>
<text text-anchor="middle" x="72.5" y="-7.5" font-family="Helvetica,sans-Serif" font-size="10.00">::NdNode::split</text>
</g>
<!-- Node14 -->
<g id="node2" class="node"><title>Node14</title>
<g id="a_node2"><a xlink:href="a04057.html#a76ba87a33277e2c0cb66bbf1dbb3f4c7" target="_top" xlink:title="Compile time pow. ">
<polygon fill="white" stroke="black" points="181,-6 181,-36 278,-36 278,-6 181,-6"/>
<text text-anchor="start" x="189" y="-24" font-family="Helvetica,sans-Serif" font-size="10.00">GlobalRegistration</text>
<text text-anchor="middle" x="229.5" y="-13" font-family="Helvetica,sans-Serif" font-size="10.00">::Utils::POW</text>
</a>
</g>
</g>
<!-- Node13&#45;&gt;Node14 -->
<g id="edge1" class="edge"><title>Node13&#45;&gt;Node14</title>
<path fill="none" stroke="midnightblue" d="M145.102,-21C153.579,-21 162.151,-21 170.409,-21"/>
<polygon fill="midnightblue" stroke="midnightblue" points="170.671,-24.5001 180.671,-21 170.671,-17.5001 170.671,-24.5001"/>
</g>
</g>
</svg>
