<?xml version="1.0" encoding="UTF-8" standalone="no"?>
<!DOCTYPE svg PUBLIC "-//W3C//DTD SVG 1.1//EN"
 "http://www.w3.org/Graphics/SVG/1.1/DTD/svg11.dtd">
<!-- Generated by graphviz version 2.38.0 (20140413.2041)
 -->
<!-- Title: GlobalRegistration::Match4PCSBase::init Pages: 1 -->
<svg width="328pt" height="198pt"
 viewBox="0.00 0.00 328.00 198.00" xmlns="http://www.w3.org/2000/svg" xmlns:xlink="http://www.w3.org/1999/xlink">
<g id="graph0" class="graph" transform="scale(1 1) rotate(0) translate(4 194)">
<title>GlobalRegistration::Match4PCSBase::init</title>
<polygon fill="white" stroke="none" points="-4,4 -4,-194 324,-194 324,4 -4,4"/>
<!-- Node27 -->
<g id="node1" class="node"><title>Node27</title>
<polygon fill="#bfbfbf" stroke="black" points="0,-76.5 0,-106.5 117,-106.5 117,-76.5 0,-76.5"/>
<text text-anchor="start" x="8" y="-94.5" font-family="Helvetica,sans-Serif" font-size="10.00">GlobalRegistration</text>
<text text-anchor="middle" x="58.5" y="-83.5" font-family="Helvetica,sans-Serif" font-size="10.00">::Match4PCSBase::init</text>
</g>
<!-- Node28 -->
<g id="node2" class="node"><title>Node28</title>
<g id="a_node2"><a xlink:href="a04648.xhtml#abdead928eb9370da120c4735550ad5e8" target="_top" xlink:title="Computes the mean distance between points in Q and their nearest neighbor. We need this for normaliza...">
<polygon fill="white" stroke="black" points="153,-159.5 153,-189.5 320,-189.5 320,-159.5 153,-159.5"/>
<text text-anchor="start" x="161" y="-177.5" font-family="Helvetica,sans-Serif" font-size="10.00">GlobalRegistration</text>
<text text-anchor="middle" x="236.5" y="-166.5" font-family="Helvetica,sans-Serif" font-size="10.00">::Match4PCSBase::MeanDistance</text>
</a>
</g>
</g>
<!-- Node27&#45;&gt;Node28 -->
<g id="edge1" class="edge"><title>Node27&#45;&gt;Node28</title>
<path fill="none" stroke="midnightblue" d="M80.1571,-106.515C98.5425,-119.331 126.545,-137.535 153,-149.5 158.241,-151.871 163.769,-154.093 169.378,-156.158"/>
<polygon fill="midnightblue" stroke="midnightblue" points="168.265,-159.476 178.859,-159.483 170.581,-152.871 168.265,-159.476"/>
</g>
<!-- Node29 -->
<g id="node3" class="node"><title>Node29</title>
<g id="a_node3"><a xlink:href="a04688.xhtml#a91b3ac4a47f82c2c2ff8ecd0bbd43c2b" target="_top" xlink:title="GlobalRegistration\l::Match4PCSOptions::\lgetOverlapEstimation">
<polygon fill="white" stroke="black" points="178.5,-99 178.5,-140 294.5,-140 294.5,-99 178.5,-99"/>
<text text-anchor="start" x="186.5" y="-128" font-family="Helvetica,sans-Serif" font-size="10.00">GlobalRegistration</text>
<text text-anchor="start" x="186.5" y="-117" font-family="Helvetica,sans-Serif" font-size="10.00">::Match4PCSOptions::</text>
<text text-anchor="middle" x="236.5" y="-106" font-family="Helvetica,sans-Serif" font-size="10.00">getOverlapEstimation</text>
</a>
</g>
</g>
<!-- Node27&#45;&gt;Node29 -->
<g id="edge2" class="edge"><title>Node27&#45;&gt;Node29</title>
<path fill="none" stroke="midnightblue" d="M117.129,-100.668C133.401,-103.257 151.252,-106.097 168.046,-108.769"/>
<polygon fill="midnightblue" stroke="midnightblue" points="167.917,-112.292 178.343,-110.407 169.017,-105.379 167.917,-112.292"/>
</g>
<!-- Node30 -->
<g id="node4" class="node"><title>Node30</title>
<g id="a_node4"><a xlink:href="a04648.xhtml#adac9aa457425985cf778c69c60fecc21" target="_top" xlink:title="Initializes the data structures and needed values before the match computation. ">
<polygon fill="white" stroke="black" points="166.5,-49.5 166.5,-79.5 306.5,-79.5 306.5,-49.5 166.5,-49.5"/>
<text text-anchor="start" x="174.5" y="-67.5" font-family="Helvetica,sans-Serif" font-size="10.00">GlobalRegistration</text>
<text text-anchor="middle" x="236.5" y="-56.5" font-family="Helvetica,sans-Serif" font-size="10.00">::Match4PCSBase::Initialize</text>
</a>
</g>
</g>
<!-- Node27&#45;&gt;Node30 -->
<g id="edge3" class="edge"><title>Node27&#45;&gt;Node30</title>
<path fill="none" stroke="midnightblue" d="M117.129,-82.6592C129.671,-80.7351 143.152,-78.667 156.364,-76.6402"/>
<polygon fill="midnightblue" stroke="midnightblue" points="157.04,-80.0775 166.394,-75.1015 155.979,-73.1584 157.04,-80.0775"/>
</g>
<!-- Node31 -->
<g id="node5" class="node"><title>Node31</title>
<g id="a_node5"><a xlink:href="a04648.xhtml#a8b3bea4c48cb1efbd844ba6ee629cfcd" target="_top" xlink:title="For each randomly picked base, verifies the computed transformation by computing the number of points...">
<polygon fill="white" stroke="black" points="171.5,-0.5 171.5,-30.5 301.5,-30.5 301.5,-0.5 171.5,-0.5"/>
<text text-anchor="start" x="179.5" y="-18.5" font-family="Helvetica,sans-Serif" font-size="10.00">GlobalRegistration</text>
<text text-anchor="middle" x="236.5" y="-7.5" font-family="Helvetica,sans-Serif" font-size="10.00">::Match4PCSBase::Verify</text>
</a>
</g>
</g>
<!-- Node27&#45;&gt;Node31 -->
<g id="edge4" class="edge"><title>Node27&#45;&gt;Node31</title>
<path fill="none" stroke="midnightblue" d="M83.8152,-76.4348C102.296,-65.4344 128.613,-50.7185 153,-40.5 158.483,-38.2027 164.25,-36.0165 170.081,-33.9622"/>
<polygon fill="midnightblue" stroke="midnightblue" points="171.567,-37.1544 179.917,-30.6331 169.323,-30.5239 171.567,-37.1544"/>
</g>
</g>
</svg>
