<?xml version="1.0" encoding="UTF-8" standalone="no"?>
<!DOCTYPE svg PUBLIC "-//W3C//DTD SVG 1.1//EN"
 "http://www.w3.org/Graphics/SVG/1.1/DTD/svg11.dtd">
<!-- Generated by graphviz version 2.38.0 (20140413.2041)
 -->
<!-- Title: GlobalRegistration::Match4PCSBase::getSecondSampled Pages: 1 -->
<svg width="556pt" height="94pt"
 viewBox="0.00 0.00 556.00 93.50" xmlns="http://www.w3.org/2000/svg" xmlns:xlink="http://www.w3.org/1999/xlink">
<g id="graph0" class="graph" transform="scale(1 1) rotate(0) translate(4 89.5)">
<title>GlobalRegistration::Match4PCSBase::getSecondSampled</title>
<polygon fill="white" stroke="none" points="-4,4 -4,-89.5 552,-89.5 552,4 -4,4"/>
<!-- Node4 -->
<g id="node1" class="node"><title>Node4</title>
<polygon fill="#bfbfbf" stroke="black" points="0,-19 0,-60 151,-60 151,-19 0,-19"/>
<text text-anchor="start" x="8" y="-48" font-family="Helvetica,sans-Serif" font-size="10.00">GlobalRegistration</text>
<text text-anchor="start" x="8" y="-37" font-family="Helvetica,sans-Serif" font-size="10.00">::Match4PCSBase::getSecond</text>
<text text-anchor="middle" x="75.5" y="-26" font-family="Helvetica,sans-Serif" font-size="10.00">Sampled</text>
</g>
<!-- Node5 -->
<g id="node2" class="node"><title>Node5</title>
<g id="a_node2"><a xlink:href="a04648.html#a75c9ca6da4d064f8484e432b7f795b8c" target="_top" xlink:title="Computes an approximation of the best LCP (directional) from Q to P and the rigid transformation that...">
<polygon fill="white" stroke="black" points="187,-49.5 187,-79.5 396,-79.5 396,-49.5 187,-49.5"/>
<text text-anchor="start" x="195" y="-67.5" font-family="Helvetica,sans-Serif" font-size="10.00">GlobalRegistration</text>
<text text-anchor="middle" x="291.5" y="-56.5" font-family="Helvetica,sans-Serif" font-size="10.00">::Match4PCSBase::ComputeTransformation</text>
</a>
</g>
</g>
<!-- Node4&#45;&gt;Node5 -->
<g id="edge1" class="edge"><title>Node4&#45;&gt;Node5</title>
<path fill="none" stroke="midnightblue" d="M151.046,-48.2087C159.37,-49.181 167.982,-50.1872 176.655,-51.2003"/>
<polygon fill="midnightblue" stroke="midnightblue" points="176.511,-54.7073 186.85,-52.3913 177.323,-47.7546 176.511,-54.7073"/>
</g>
<!-- Node7 -->
<g id="node4" class="node"><title>Node7</title>
<g id="a_node4"><a xlink:href="a04692.html#a80be1cf2fd1833a5062f0699e40fc396" target="_top" xlink:title="GlobalRegistration\l::Utils::Logger::Log">
<polygon fill="white" stroke="black" points="241.5,-0.5 241.5,-30.5 341.5,-30.5 341.5,-0.5 241.5,-0.5"/>
<text text-anchor="start" x="249.5" y="-18.5" font-family="Helvetica,sans-Serif" font-size="10.00">GlobalRegistration</text>
<text text-anchor="middle" x="291.5" y="-7.5" font-family="Helvetica,sans-Serif" font-size="10.00">::Utils::Logger::Log</text>
</a>
</g>
</g>
<!-- Node4&#45;&gt;Node7 -->
<g id="edge3" class="edge"><title>Node4&#45;&gt;Node7</title>
<path fill="none" stroke="midnightblue" d="M151.046,-31.1397C177.339,-28.191 206.519,-24.9184 231.363,-22.1322"/>
<polygon fill="midnightblue" stroke="midnightblue" points="231.819,-25.6031 241.366,-21.0103 231.039,-18.6467 231.819,-25.6031"/>
</g>
<!-- Node6 -->
<g id="node3" class="node"><title>Node6</title>
<g id="a_node3"><a xlink:href="a04688.html#a91b3ac4a47f82c2c2ff8ecd0bbd43c2b" target="_top" xlink:title="GlobalRegistration\l::Match4PCSOptions::\lgetOverlapEstimation">
<polygon fill="white" stroke="black" points="432,-44 432,-85 548,-85 548,-44 432,-44"/>
<text text-anchor="start" x="440" y="-73" font-family="Helvetica,sans-Serif" font-size="10.00">GlobalRegistration</text>
<text text-anchor="start" x="440" y="-62" font-family="Helvetica,sans-Serif" font-size="10.00">::Match4PCSOptions::</text>
<text text-anchor="middle" x="490" y="-51" font-family="Helvetica,sans-Serif" font-size="10.00">getOverlapEstimation</text>
</a>
</g>
</g>
<!-- Node5&#45;&gt;Node6 -->
<g id="edge2" class="edge"><title>Node5&#45;&gt;Node6</title>
<path fill="none" stroke="midnightblue" d="M396.216,-64.5C404.844,-64.5 413.416,-64.5 421.663,-64.5"/>
<polygon fill="midnightblue" stroke="midnightblue" points="421.917,-68.0001 431.917,-64.5 421.917,-61.0001 421.917,-68.0001"/>
</g>
</g>
</svg>
