<?xml version="1.0" encoding="UTF-8" standalone="no"?>
<!DOCTYPE svg PUBLIC "-//W3C//DTD SVG 1.1//EN"
 "http://www.w3.org/Graphics/SVG/1.1/DTD/svg11.dtd">
<!-- Generated by graphviz version 2.38.0 (20140413.2041)
 -->
<!-- Title: GlobalRegistration::PairCreationFunctor&lt; _Scalar &gt; Pages: 1 -->
<svg width="1290pt" height="832pt"
 viewBox="0.00 0.00 1289.50 832.00" xmlns="http://www.w3.org/2000/svg" xmlns:xlink="http://www.w3.org/1999/xlink">
<g id="graph0" class="graph" transform="scale(1 1) rotate(0) translate(4 828)">
<title>GlobalRegistration::PairCreationFunctor&lt; _Scalar &gt;</title>
<polygon fill="white" stroke="none" points="-4,4 -4,-828 1285.5,-828 1285.5,4 -4,4"/>
<!-- Node2 -->
<g id="node1" class="node"><title>Node2</title>
<polygon fill="#bfbfbf" stroke="black" points="541.5,-0.5 541.5,-189.5 669.5,-189.5 669.5,-0.5 541.5,-0.5"/>
<text text-anchor="start" x="549.5" y="-177.5" font-family="Helvetica,sans-Serif" font-size="10.00">GlobalRegistration</text>
<text text-anchor="start" x="549.5" y="-166.5" font-family="Helvetica,sans-Serif" font-size="10.00">::PairCreationFunctor</text>
<text text-anchor="middle" x="605.5" y="-155.5" font-family="Helvetica,sans-Serif" font-size="10.00">&lt; _Scalar &gt;</text>
<polyline fill="none" stroke="black" points="541.5,-148.5 669.5,-148.5 "/>
<text text-anchor="middle" x="605.5" y="-136.5" font-family="Helvetica,sans-Serif" font-size="10.00"> </text>
<polyline fill="none" stroke="black" points="541.5,-129.5 669.5,-129.5 "/>
<text text-anchor="start" x="549.5" y="-117.5" font-family="Helvetica,sans-Serif" font-size="10.00">+ PairCreationFunctor()</text>
<text text-anchor="start" x="549.5" y="-106.5" font-family="Helvetica,sans-Serif" font-size="10.00">+ unitToWorld()</text>
<text text-anchor="start" x="549.5" y="-95.5" font-family="Helvetica,sans-Serif" font-size="10.00">+ unitToWorld()</text>
<text text-anchor="start" x="549.5" y="-84.5" font-family="Helvetica,sans-Serif" font-size="10.00">+ getPointInWorldCoord()</text>
<text text-anchor="start" x="549.5" y="-73.5" font-family="Helvetica,sans-Serif" font-size="10.00">+ synch3DContent()</text>
<text text-anchor="start" x="549.5" y="-62.5" font-family="Helvetica,sans-Serif" font-size="10.00">+ setRadius()</text>
<text text-anchor="start" x="549.5" y="-51.5" font-family="Helvetica,sans-Serif" font-size="10.00">+ getNormalizedEpsilon()</text>
<text text-anchor="start" x="549.5" y="-40.5" font-family="Helvetica,sans-Serif" font-size="10.00">+ setBase()</text>
<text text-anchor="start" x="549.5" y="-29.5" font-family="Helvetica,sans-Serif" font-size="10.00">+ beginPrimitiveCollect()</text>
<text text-anchor="start" x="549.5" y="-18.5" font-family="Helvetica,sans-Serif" font-size="10.00">+ endPrimitiveCollect()</text>
<text text-anchor="start" x="549.5" y="-7.5" font-family="Helvetica,sans-Serif" font-size="10.00">+ process()</text>
</g>
<!-- Node3 -->
<g id="node2" class="node"><title>Node3</title>
<polygon fill="white" stroke="#bfbfbf" points="293.5,-270.5 293.5,-349.5 445.5,-349.5 445.5,-270.5 293.5,-270.5"/>
<text text-anchor="start" x="301.5" y="-337.5" font-family="Helvetica,sans-Serif" font-size="10.00">std::vector&lt; GlobalRegistration</text>
<text text-anchor="start" x="301.5" y="-326.5" font-family="Helvetica,sans-Serif" font-size="10.00">::Accelerators::PairExtraction</text>
<text text-anchor="middle" x="369.5" y="-315.5" font-family="Helvetica,sans-Serif" font-size="10.00">::HyperSphere &gt;</text>
<polyline fill="none" stroke="#bfbfbf" points="293.5,-308.5 445.5,-308.5 "/>
<text text-anchor="middle" x="369.5" y="-296.5" font-family="Helvetica,sans-Serif" font-size="10.00"> </text>
<polyline fill="none" stroke="#bfbfbf" points="293.5,-289.5 445.5,-289.5 "/>
<text text-anchor="middle" x="369.5" y="-277.5" font-family="Helvetica,sans-Serif" font-size="10.00"> </text>
</g>
<!-- Node3&#45;&gt;Node2 -->
<g id="edge1" class="edge"><title>Node3&#45;&gt;Node2</title>
<path fill="none" stroke="#404040" d="M394.345,-270.243C408.084,-250.413 426.247,-226.603 445.5,-208 471.126,-183.239 502.677,-159.933 530.969,-141.06"/>
<polygon fill="none" stroke="#404040" points="531.202,-140.907 534.017,-134.268 541.228,-134.313 538.413,-140.952 531.202,-140.907"/>
<text text-anchor="middle" x="471.5" y="-222" font-family="Helvetica,sans-Serif" font-size="10.00"> +primitives</text>
</g>
<!-- Node4 -->
<g id="node3" class="node"><title>Node4</title>
<g id="a_node3"><a xlink:href="a04659.html" target="_top" xlink:title="{GlobalRegistration\l::Accelerators::PairExtraction\l::HyperSphere\&lt; Point, _dim,\l Scalar \&gt;\n||+ HyperSphere()\l+ HyperSphere()\l+ quantified()\l+ operator\&lt;()\l+ operator Point()\l+ intersect()\l+ intersectFast()\l+ intersectPoint()\l+ center()\l+ radius()\l+ radius()\l+ intersectPoint()\l}">
<polygon fill="white" stroke="black" points="57,-485.5 57,-696.5 202,-696.5 202,-485.5 57,-485.5"/>
<text text-anchor="start" x="65" y="-684.5" font-family="Helvetica,sans-Serif" font-size="10.00">GlobalRegistration</text>
<text text-anchor="start" x="65" y="-673.5" font-family="Helvetica,sans-Serif" font-size="10.00">::Accelerators::PairExtraction</text>
<text text-anchor="start" x="65" y="-662.5" font-family="Helvetica,sans-Serif" font-size="10.00">::HyperSphere&lt; Point, _dim,</text>
<text text-anchor="middle" x="129.5" y="-651.5" font-family="Helvetica,sans-Serif" font-size="10.00"> Scalar &gt;</text>
<polyline fill="none" stroke="black" points="57,-644.5 202,-644.5 "/>
<text text-anchor="middle" x="129.5" y="-632.5" font-family="Helvetica,sans-Serif" font-size="10.00"> </text>
<polyline fill="none" stroke="black" points="57,-625.5 202,-625.5 "/>
<text text-anchor="start" x="65" y="-613.5" font-family="Helvetica,sans-Serif" font-size="10.00">+ HyperSphere()</text>
<text text-anchor="start" x="65" y="-602.5" font-family="Helvetica,sans-Serif" font-size="10.00">+ HyperSphere()</text>
<text text-anchor="start" x="65" y="-591.5" font-family="Helvetica,sans-Serif" font-size="10.00">+ quantified()</text>
<text text-anchor="start" x="65" y="-580.5" font-family="Helvetica,sans-Serif" font-size="10.00">+ operator&lt;()</text>
<text text-anchor="start" x="65" y="-569.5" font-family="Helvetica,sans-Serif" font-size="10.00">+ operator Point()</text>
<text text-anchor="start" x="65" y="-558.5" font-family="Helvetica,sans-Serif" font-size="10.00">+ intersect()</text>
<text text-anchor="start" x="65" y="-547.5" font-family="Helvetica,sans-Serif" font-size="10.00">+ intersectFast()</text>
<text text-anchor="start" x="65" y="-536.5" font-family="Helvetica,sans-Serif" font-size="10.00">+ intersectPoint()</text>
<text text-anchor="start" x="65" y="-525.5" font-family="Helvetica,sans-Serif" font-size="10.00">+ center()</text>
<text text-anchor="start" x="65" y="-514.5" font-family="Helvetica,sans-Serif" font-size="10.00">+ radius()</text>
<text text-anchor="start" x="65" y="-503.5" font-family="Helvetica,sans-Serif" font-size="10.00">+ radius()</text>
<text text-anchor="start" x="65" y="-492.5" font-family="Helvetica,sans-Serif" font-size="10.00">+ intersectPoint()</text>
</a>
</g>
</g>
<!-- Node4&#45;&gt;Node3 -->
<g id="edge2" class="edge"><title>Node4&#45;&gt;Node3</title>
<path fill="none" stroke="#404040" d="M117.549,-485.439C114.897,-440.726 116.3,-395.111 130.5,-379 150.804,-355.965 238.104,-369.875 267.5,-361 273.872,-359.076 280.337,-356.791 286.759,-354.272"/>
<polygon fill="none" stroke="#404040" points="287.157,-354.107 291.17,-348.116 298.244,-349.515 294.231,-355.507 287.157,-354.107"/>
<text text-anchor="middle" x="155" y="-409.5" font-family="Helvetica,sans-Serif" font-size="10.00"> +elements</text>
</g>
<!-- Node5 -->
<g id="node4" class="node"><title>Node5</title>
<g id="a_node4"><a xlink:title="STL class. ">
<polygon fill="white" stroke="#bfbfbf" points="470,-562.5 470,-619.5 557,-619.5 557,-562.5 470,-562.5"/>
<text text-anchor="middle" x="513.5" y="-607.5" font-family="Helvetica,sans-Serif" font-size="10.00">std::vector&lt; T &gt;</text>
<polyline fill="none" stroke="#bfbfbf" points="470,-600.5 557,-600.5 "/>
<text text-anchor="middle" x="513.5" y="-588.5" font-family="Helvetica,sans-Serif" font-size="10.00"> </text>
<polyline fill="none" stroke="#bfbfbf" points="470,-581.5 557,-581.5 "/>
<text text-anchor="middle" x="513.5" y="-569.5" font-family="Helvetica,sans-Serif" font-size="10.00"> </text>
</a>
</g>
</g>
<!-- Node5&#45;&gt;Node2 -->
<g id="edge16" class="edge"><title>Node5&#45;&gt;Node2</title>
<path fill="none" stroke="#404040" d="M510.987,-562.211C506.481,-504.895 499.347,-369.653 520.5,-259 525.042,-235.242 529.097,-229.837 539.5,-208 540.663,-205.558 541.862,-203.099 543.091,-200.631"/>
<polygon fill="none" stroke="#404040" points="543.185,-200.447 542.357,-193.284 548.652,-189.765 549.479,-196.929 543.185,-200.447"/>
<text text-anchor="middle" x="536" y="-307.5" font-family="Helvetica,sans-Serif" font-size="10.00"> +pairs</text>
</g>
<!-- Node5&#45;&gt;Node3 -->
<g id="edge3" class="edge"><title>Node5&#45;&gt;Node3</title>
<path fill="none" stroke="orange" d="M464.118,-556.157C430.788,-530.132 389.533,-490.917 370.5,-445 357.984,-414.805 358.905,-377.391 362.284,-349.777"/>
<polygon fill="orange" stroke="orange" points="462.331,-559.197 472.402,-562.486 466.58,-553.634 462.331,-559.197"/>
<text text-anchor="start" x="370.5" y="-420.5" font-family="Helvetica,sans-Serif" font-size="10.00"> &lt; GlobalRegistration</text>
<text text-anchor="start" x="370.5" y="-409.5" font-family="Helvetica,sans-Serif" font-size="10.00">::Accelerators::PairExtraction</text>
<text text-anchor="middle" x="435" y="-398.5" font-family="Helvetica,sans-Serif" font-size="10.00">::HyperSphere &gt;</text>
</g>
<!-- Node7 -->
<g id="node6" class="node"><title>Node7</title>
<polygon fill="white" stroke="#bfbfbf" points="144,-270.5 144,-349.5 259,-349.5 259,-270.5 144,-270.5"/>
<text text-anchor="start" x="152" y="-337.5" font-family="Helvetica,sans-Serif" font-size="10.00">std::vector&lt; typename</text>
<text text-anchor="start" x="152" y="-326.5" font-family="Helvetica,sans-Serif" font-size="10.00"> PairCreationFunctor</text>
<text text-anchor="middle" x="201.5" y="-315.5" font-family="Helvetica,sans-Serif" font-size="10.00">::Point &gt;</text>
<polyline fill="none" stroke="#bfbfbf" points="144,-308.5 259,-308.5 "/>
<text text-anchor="middle" x="201.5" y="-296.5" font-family="Helvetica,sans-Serif" font-size="10.00"> </text>
<polyline fill="none" stroke="#bfbfbf" points="144,-289.5 259,-289.5 "/>
<text text-anchor="middle" x="201.5" y="-277.5" font-family="Helvetica,sans-Serif" font-size="10.00"> </text>
</g>
<!-- Node5&#45;&gt;Node7 -->
<g id="edge7" class="edge"><title>Node5&#45;&gt;Node7</title>
<path fill="none" stroke="orange" d="M459.898,-581.043C389.772,-566.218 269.073,-529.366 211.5,-445 192.564,-417.252 191.767,-378.322 194.694,-349.57"/>
<polygon fill="orange" stroke="orange" points="459.366,-584.506 469.864,-583.073 460.764,-577.647 459.366,-584.506"/>
<text text-anchor="start" x="211.5" y="-415" font-family="Helvetica,sans-Serif" font-size="10.00"> &lt; typename PairCreationFunctor</text>
<text text-anchor="middle" x="284" y="-404" font-family="Helvetica,sans-Serif" font-size="10.00">::Point &gt;</text>
</g>
<!-- Node11 -->
<g id="node10" class="node"><title>Node11</title>
<polygon fill="white" stroke="#bfbfbf" points="692.5,-276 692.5,-344 844.5,-344 844.5,-276 692.5,-276"/>
<text text-anchor="start" x="700.5" y="-332" font-family="Helvetica,sans-Serif" font-size="10.00">std::vector&lt; GlobalRegistration</text>
<text text-anchor="middle" x="768.5" y="-321" font-family="Helvetica,sans-Serif" font-size="10.00">::Point3D &gt;</text>
<polyline fill="none" stroke="#bfbfbf" points="692.5,-314 844.5,-314 "/>
<text text-anchor="middle" x="768.5" y="-302" font-family="Helvetica,sans-Serif" font-size="10.00"> </text>
<polyline fill="none" stroke="#bfbfbf" points="692.5,-295 844.5,-295 "/>
<text text-anchor="middle" x="768.5" y="-283" font-family="Helvetica,sans-Serif" font-size="10.00"> </text>
</g>
<!-- Node5&#45;&gt;Node11 -->
<g id="edge12" class="edge"><title>Node5&#45;&gt;Node11</title>
<path fill="none" stroke="orange" d="M515.88,-552.202C520.115,-498.013 530.938,-402.206 555.5,-379 576.379,-359.274 656.379,-370.463 683.5,-361 695.785,-356.713 708.268,-350.565 719.747,-344.038"/>
<polygon fill="orange" stroke="orange" points="512.369,-552.219 515.119,-562.451 519.35,-552.738 512.369,-552.219"/>
<text text-anchor="start" x="555.5" y="-415" font-family="Helvetica,sans-Serif" font-size="10.00"> &lt; GlobalRegistration</text>
<text text-anchor="middle" x="602" y="-404" font-family="Helvetica,sans-Serif" font-size="10.00">::Point3D &gt;</text>
</g>
<!-- Node13 -->
<g id="node12" class="node"><title>Node13</title>
<polygon fill="white" stroke="#bfbfbf" points="863,-276 863,-344 974,-344 974,-276 863,-276"/>
<text text-anchor="start" x="871" y="-332" font-family="Helvetica,sans-Serif" font-size="10.00">std::vector&lt; unsigned</text>
<text text-anchor="middle" x="918.5" y="-321" font-family="Helvetica,sans-Serif" font-size="10.00"> int &gt;</text>
<polyline fill="none" stroke="#bfbfbf" points="863,-314 974,-314 "/>
<text text-anchor="middle" x="918.5" y="-302" font-family="Helvetica,sans-Serif" font-size="10.00"> </text>
<polyline fill="none" stroke="#bfbfbf" points="863,-295 974,-295 "/>
<text text-anchor="middle" x="918.5" y="-283" font-family="Helvetica,sans-Serif" font-size="10.00"> </text>
</g>
<!-- Node5&#45;&gt;Node13 -->
<g id="edge15" class="edge"><title>Node5&#45;&gt;Node13</title>
<path fill="none" stroke="orange" d="M549.333,-555.205C577.717,-526.8 617.598,-484.964 648.5,-445 669.768,-417.495 660.987,-397.381 690.5,-379 752.367,-340.468 785.891,-388.227 853.5,-361 863.669,-356.905 873.601,-350.75 882.519,-344.144"/>
<polygon fill="orange" stroke="orange" points="546.634,-552.953 542.013,-562.488 551.571,-557.916 546.634,-552.953"/>
<text text-anchor="middle" x="727.5" y="-409.5" font-family="Helvetica,sans-Serif" font-size="10.00"> &lt; unsigned int &gt;</text>
</g>
<!-- Node6 -->
<g id="node5" class="node"><title>Node6</title>
<polygon fill="white" stroke="#bfbfbf" points="499,-766.5 499,-823.5 528,-823.5 528,-766.5 499,-766.5"/>
<text text-anchor="middle" x="513.5" y="-811.5" font-family="Helvetica,sans-Serif" font-size="10.00">T</text>
<polyline fill="none" stroke="#bfbfbf" points="499,-804.5 528,-804.5 "/>
<text text-anchor="middle" x="513.5" y="-792.5" font-family="Helvetica,sans-Serif" font-size="10.00"> </text>
<polyline fill="none" stroke="#bfbfbf" points="499,-785.5 528,-785.5 "/>
<text text-anchor="middle" x="513.5" y="-773.5" font-family="Helvetica,sans-Serif" font-size="10.00"> </text>
</g>
<!-- Node6&#45;&gt;Node5 -->
<g id="edge4" class="edge"><title>Node6&#45;&gt;Node5</title>
<path fill="none" stroke="#404040" d="M513.5,-766.336C513.5,-731.529 513.5,-671.509 513.5,-631.781"/>
<polygon fill="none" stroke="#404040" points="513.5,-631.653 509.5,-625.653 513.5,-619.653 517.5,-625.653 513.5,-631.653"/>
<text text-anchor="middle" x="538" y="-740" font-family="Helvetica,sans-Serif" font-size="10.00"> +elements</text>
</g>
<!-- Node7&#45;&gt;Node2 -->
<g id="edge5" class="edge"><title>Node7&#45;&gt;Node2</title>
<path fill="none" stroke="#404040" d="M259.35,-273.697C267.752,-268.702 276.323,-263.678 284.5,-259 366.94,-211.836 464.613,-163.231 530.387,-131.515"/>
<polygon fill="none" stroke="#404040" points="530.659,-131.384 534.332,-125.179 541.473,-126.183 537.799,-132.388 530.659,-131.384"/>
<text text-anchor="middle" x="389.5" y="-222" font-family="Helvetica,sans-Serif" font-size="10.00"> +points</text>
</g>
<!-- Node8 -->
<g id="node7" class="node"><title>Node8</title>
<polygon fill="white" stroke="#bfbfbf" points="0,-562.5 0,-619.5 39,-619.5 39,-562.5 0,-562.5"/>
<text text-anchor="middle" x="19.5" y="-607.5" font-family="Helvetica,sans-Serif" font-size="10.00">Point</text>
<polyline fill="none" stroke="#bfbfbf" points="0,-600.5 39,-600.5 "/>
<text text-anchor="middle" x="19.5" y="-588.5" font-family="Helvetica,sans-Serif" font-size="10.00"> </text>
<polyline fill="none" stroke="#bfbfbf" points="0,-581.5 39,-581.5 "/>
<text text-anchor="middle" x="19.5" y="-569.5" font-family="Helvetica,sans-Serif" font-size="10.00"> </text>
</g>
<!-- Node8&#45;&gt;Node7 -->
<g id="edge6" class="edge"><title>Node8&#45;&gt;Node7</title>
<path fill="none" stroke="#404040" d="M17.113,-562.218C14.8704,-518.584 16.7539,-433.365 58.5,-379 76.8123,-355.152 105.58,-339.269 132.526,-328.899"/>
<polygon fill="none" stroke="#404040" points="132.64,-328.858 136.926,-323.059 143.927,-324.785 139.641,-330.584 132.64,-328.858"/>
<text text-anchor="middle" x="83" y="-409.5" font-family="Helvetica,sans-Serif" font-size="10.00"> +elements</text>
</g>
<!-- Node9 -->
<g id="node8" class="node"><title>Node9</title>
<polygon fill="white" stroke="#bfbfbf" points="561,-281.5 561,-338.5 606,-338.5 606,-281.5 561,-281.5"/>
<text text-anchor="middle" x="583.5" y="-326.5" font-family="Helvetica,sans-Serif" font-size="10.00">double</text>
<polyline fill="none" stroke="#bfbfbf" points="561,-319.5 606,-319.5 "/>
<text text-anchor="middle" x="583.5" y="-307.5" font-family="Helvetica,sans-Serif" font-size="10.00"> </text>
<polyline fill="none" stroke="#bfbfbf" points="561,-300.5 606,-300.5 "/>
<text text-anchor="middle" x="583.5" y="-288.5" font-family="Helvetica,sans-Serif" font-size="10.00"> </text>
</g>
<!-- Node9&#45;&gt;Node2 -->
<g id="edge8" class="edge"><title>Node9&#45;&gt;Node2</title>
<path fill="none" stroke="#404040" d="M563.774,-281.268C556.52,-269.445 549.181,-255.134 545.5,-241 541.803,-226.807 541.93,-222.225 545.5,-208 546.074,-205.713 546.704,-203.422 547.386,-201.132"/>
<polygon fill="none" stroke="#404040" points="547.402,-201.084 545.501,-194.128 551.191,-189.698 553.092,-196.654 547.402,-201.084"/>
<text text-anchor="middle" x="595.5" y="-233" font-family="Helvetica,sans-Serif" font-size="10.00"> +pair_distance</text>
<text text-anchor="middle" x="595.5" y="-222" font-family="Helvetica,sans-Serif" font-size="10.00">+pair_distance_epsilon</text>
<text text-anchor="middle" x="595.5" y="-211" font-family="Helvetica,sans-Serif" font-size="10.00">+pair_normals_angle</text>
</g>
<!-- Node10 -->
<g id="node9" class="node"><title>Node10</title>
<polygon fill="white" stroke="#bfbfbf" points="624.5,-281.5 624.5,-338.5 674.5,-338.5 674.5,-281.5 624.5,-281.5"/>
<text text-anchor="middle" x="649.5" y="-326.5" font-family="Helvetica,sans-Serif" font-size="10.00">_Scalar</text>
<polyline fill="none" stroke="#bfbfbf" points="624.5,-319.5 674.5,-319.5 "/>
<text text-anchor="middle" x="649.5" y="-307.5" font-family="Helvetica,sans-Serif" font-size="10.00"> </text>
<polyline fill="none" stroke="#bfbfbf" points="624.5,-300.5 674.5,-300.5 "/>
<text text-anchor="middle" x="649.5" y="-288.5" font-family="Helvetica,sans-Serif" font-size="10.00"> </text>
</g>
<!-- Node10&#45;&gt;Node2 -->
<g id="edge9" class="edge"><title>Node10&#45;&gt;Node2</title>
<path fill="none" stroke="#404040" d="M650.646,-281.306C650.951,-260.864 650.238,-232.464 645.5,-208 645.077,-205.815 644.618,-203.615 644.128,-201.405"/>
<polygon fill="none" stroke="#404040" points="644.074,-201.185 638.765,-196.306 641.227,-189.528 646.537,-194.407 644.074,-201.185"/>
<text text-anchor="middle" x="687.5" y="-222" font-family="Helvetica,sans-Serif" font-size="10.00"> +norm_threshold</text>
</g>
<!-- Node11&#45;&gt;Node2 -->
<g id="edge10" class="edge"><title>Node11&#45;&gt;Node2</title>
<path fill="none" stroke="#404040" d="M759.951,-275.724C753.638,-255.056 743.664,-228.6 729.5,-208 715.446,-187.56 696.946,-168.28 678.539,-151.664"/>
<polygon fill="none" stroke="#404040" points="678.534,-151.66 671.388,-150.696 669.529,-143.728 676.676,-144.693 678.534,-151.66"/>
<text text-anchor="middle" x="757.5" y="-222" font-family="Helvetica,sans-Serif" font-size="10.00"> +Q_</text>
</g>
<!-- Node12 -->
<g id="node11" class="node"><title>Node12</title>
<g id="a_node11"><a xlink:href="a04707.html" target="_top" xlink:title="The basic 3D point structure. A point potentially contains also directional information and color...">
<polygon fill="white" stroke="black" points="720,-463.5 720,-718.5 817,-718.5 817,-463.5 720,-463.5"/>
<text text-anchor="start" x="728" y="-706.5" font-family="Helvetica,sans-Serif" font-size="10.00">GlobalRegistration</text>
<text text-anchor="middle" x="768.5" y="-695.5" font-family="Helvetica,sans-Serif" font-size="10.00">::Point3D</text>
<polyline fill="none" stroke="black" points="720,-688.5 817,-688.5 "/>
<text text-anchor="middle" x="768.5" y="-676.5" font-family="Helvetica,sans-Serif" font-size="10.00"> </text>
<polyline fill="none" stroke="black" points="720,-669.5 817,-669.5 "/>
<text text-anchor="start" x="728" y="-657.5" font-family="Helvetica,sans-Serif" font-size="10.00">+ Point3D()</text>
<text text-anchor="start" x="728" y="-646.5" font-family="Helvetica,sans-Serif" font-size="10.00">+ Point3D()</text>
<text text-anchor="start" x="728" y="-635.5" font-family="Helvetica,sans-Serif" font-size="10.00">+ Point3D()</text>
<text text-anchor="start" x="728" y="-624.5" font-family="Helvetica,sans-Serif" font-size="10.00">+ Point3D()</text>
<text text-anchor="start" x="728" y="-613.5" font-family="Helvetica,sans-Serif" font-size="10.00">+ pos()</text>
<text text-anchor="start" x="728" y="-602.5" font-family="Helvetica,sans-Serif" font-size="10.00">+ pos()</text>
<text text-anchor="start" x="728" y="-591.5" font-family="Helvetica,sans-Serif" font-size="10.00">+ rgb()</text>
<text text-anchor="start" x="728" y="-580.5" font-family="Helvetica,sans-Serif" font-size="10.00">+ normal()</text>
<text text-anchor="start" x="728" y="-569.5" font-family="Helvetica,sans-Serif" font-size="10.00">+ set_rgb()</text>
<text text-anchor="start" x="728" y="-558.5" font-family="Helvetica,sans-Serif" font-size="10.00">+ set_normal()</text>
<text text-anchor="start" x="728" y="-547.5" font-family="Helvetica,sans-Serif" font-size="10.00">+ normalize()</text>
<text text-anchor="start" x="728" y="-536.5" font-family="Helvetica,sans-Serif" font-size="10.00">+ hasColor()</text>
<text text-anchor="start" x="728" y="-525.5" font-family="Helvetica,sans-Serif" font-size="10.00">+ x()</text>
<text text-anchor="start" x="728" y="-514.5" font-family="Helvetica,sans-Serif" font-size="10.00">+ y()</text>
<text text-anchor="start" x="728" y="-503.5" font-family="Helvetica,sans-Serif" font-size="10.00">+ z()</text>
<text text-anchor="start" x="728" y="-492.5" font-family="Helvetica,sans-Serif" font-size="10.00">+ x()</text>
<text text-anchor="start" x="728" y="-481.5" font-family="Helvetica,sans-Serif" font-size="10.00">+ y()</text>
<text text-anchor="start" x="728" y="-470.5" font-family="Helvetica,sans-Serif" font-size="10.00">+ z()</text>
</a>
</g>
</g>
<!-- Node12&#45;&gt;Node11 -->
<g id="edge11" class="edge"><title>Node12&#45;&gt;Node11</title>
<path fill="none" stroke="#404040" d="M768.5,-463.154C768.5,-425.034 768.5,-385.644 768.5,-356.495"/>
<polygon fill="none" stroke="#404040" points="768.5,-356.264 764.5,-350.265 768.5,-344.264 772.5,-350.264 768.5,-356.264"/>
<text text-anchor="middle" x="793" y="-409.5" font-family="Helvetica,sans-Serif" font-size="10.00"> +elements</text>
</g>
<!-- Node13&#45;&gt;Node2 -->
<g id="edge13" class="edge"><title>Node13&#45;&gt;Node2</title>
<path fill="none" stroke="#404040" d="M876.534,-275.995C868.941,-270.231 861.039,-264.366 853.5,-259 796.285,-218.276 729.691,-174.709 679.926,-142.871"/>
<polygon fill="none" stroke="#404040" points="679.685,-142.718 672.476,-142.861 669.571,-136.261 676.781,-136.118 679.685,-142.718"/>
<text text-anchor="middle" x="838.5" y="-222" font-family="Helvetica,sans-Serif" font-size="10.00"> +ids</text>
</g>
<!-- Node14 -->
<g id="node13" class="node"><title>Node14</title>
<polygon fill="white" stroke="#bfbfbf" points="927,-562.5 927,-619.5 956,-619.5 956,-562.5 927,-562.5"/>
<text text-anchor="middle" x="941.5" y="-607.5" font-family="Helvetica,sans-Serif" font-size="10.00">int</text>
<polyline fill="none" stroke="#bfbfbf" points="927,-600.5 956,-600.5 "/>
<text text-anchor="middle" x="941.5" y="-588.5" font-family="Helvetica,sans-Serif" font-size="10.00"> </text>
<polyline fill="none" stroke="#bfbfbf" points="927,-581.5 956,-581.5 "/>
<text text-anchor="middle" x="941.5" y="-569.5" font-family="Helvetica,sans-Serif" font-size="10.00"> </text>
</g>
<!-- Node14&#45;&gt;Node13 -->
<g id="edge14" class="edge"><title>Node14&#45;&gt;Node13</title>
<path fill="none" stroke="#404040" d="M932.733,-562.289C924.077,-533.368 911.441,-486.53 906.5,-445 903.034,-415.872 903.941,-408.222 906.5,-379 907.151,-371.566 908.195,-363.727 909.402,-356.118"/>
<polygon fill="none" stroke="#404040" points="909.444,-355.876 906.516,-349.286 911.473,-344.049 914.401,-350.639 909.444,-355.876"/>
<text text-anchor="middle" x="931" y="-409.5" font-family="Helvetica,sans-Serif" font-size="10.00"> +elements</text>
</g>
<!-- Node15 -->
<g id="node14" class="node"><title>Node15</title>
<g id="a_node14"><a xlink:href="a04715.html" target="_top" xlink:title="delta and overlap_estimation are the application parameters. All other parameters are more likely to ...">
<polygon fill="white" stroke="black" points="1004,-259.5 1004,-360.5 1135,-360.5 1135,-259.5 1004,-259.5"/>
<text text-anchor="start" x="1012" y="-348.5" font-family="Helvetica,sans-Serif" font-size="10.00">GlobalRegistration</text>
<text text-anchor="middle" x="1069.5" y="-337.5" font-family="Helvetica,sans-Serif" font-size="10.00">::Match4PCSOptions</text>
<polyline fill="none" stroke="black" points="1004,-330.5 1135,-330.5 "/>
<text text-anchor="middle" x="1069.5" y="-318.5" font-family="Helvetica,sans-Serif" font-size="10.00"> </text>
<polyline fill="none" stroke="black" points="1004,-311.5 1135,-311.5 "/>
<text text-anchor="start" x="1012" y="-299.5" font-family="Helvetica,sans-Serif" font-size="10.00">+ Match4PCSOptions()</text>
<text text-anchor="start" x="1012" y="-288.5" font-family="Helvetica,sans-Serif" font-size="10.00">+ configureOverlap()</text>
<text text-anchor="start" x="1012" y="-277.5" font-family="Helvetica,sans-Serif" font-size="10.00">+ getTerminateThreshold()</text>
<text text-anchor="start" x="1012" y="-266.5" font-family="Helvetica,sans-Serif" font-size="10.00">+ getOverlapEstimation()</text>
</a>
</g>
</g>
<!-- Node14&#45;&gt;Node15 -->
<g id="edge19" class="edge"><title>Node14&#45;&gt;Node15</title>
<path fill="none" stroke="#404040" d="M943.81,-562.343C948.396,-512.356 959.847,-409.334 978.5,-379 983.046,-371.608 988.717,-364.748 994.993,-358.456"/>
<polygon fill="none" stroke="#404040" points="995.071,-358.384 996.756,-351.372 1003.88,-350.231 1002.19,-357.242 995.071,-358.384"/>
<text text-anchor="middle" x="1025.5" y="-415" font-family="Helvetica,sans-Serif" font-size="10.00"> +max_time_seconds</text>
<text text-anchor="middle" x="1025.5" y="-404" font-family="Helvetica,sans-Serif" font-size="10.00">+randomSeed</text>
</g>
<!-- Node15&#45;&gt;Node2 -->
<g id="edge17" class="edge"><title>Node15&#45;&gt;Node2</title>
<path fill="none" stroke="#404040" d="M1003.9,-270.254C996.74,-266.338 989.508,-262.514 982.5,-259 880.19,-207.691 757.969,-156.644 681.025,-125.701"/>
<polygon fill="none" stroke="#404040" points="680.68,-125.563 673.623,-127.043 669.542,-121.098 676.6,-119.618 680.68,-125.563"/>
<text text-anchor="middle" x="966.5" y="-222" font-family="Helvetica,sans-Serif" font-size="10.00"> +options_</text>
</g>
<!-- Node16 -->
<g id="node15" class="node"><title>Node16</title>
<polygon fill="white" stroke="#bfbfbf" points="1073,-562.5 1073,-619.5 1116,-619.5 1116,-562.5 1073,-562.5"/>
<text text-anchor="middle" x="1094.5" y="-607.5" font-family="Helvetica,sans-Serif" font-size="10.00">size_t</text>
<polyline fill="none" stroke="#bfbfbf" points="1073,-600.5 1116,-600.5 "/>
<text text-anchor="middle" x="1094.5" y="-588.5" font-family="Helvetica,sans-Serif" font-size="10.00"> </text>
<polyline fill="none" stroke="#bfbfbf" points="1073,-581.5 1116,-581.5 "/>
<text text-anchor="middle" x="1094.5" y="-569.5" font-family="Helvetica,sans-Serif" font-size="10.00"> </text>
</g>
<!-- Node16&#45;&gt;Node15 -->
<g id="edge18" class="edge"><title>Node16&#45;&gt;Node15</title>
<path fill="none" stroke="#404040" d="M1092.03,-562.485C1088.11,-518.719 1080.36,-432.15 1075.05,-372.928"/>
<polygon fill="none" stroke="#404040" points="1075.03,-372.683 1070.51,-367.064 1073.96,-360.731 1078.48,-366.35 1075.03,-372.683"/>
<text text-anchor="middle" x="1113.5" y="-409.5" font-family="Helvetica,sans-Serif" font-size="10.00"> +sample_size</text>
</g>
<!-- Node17 -->
<g id="node16" class="node"><title>Node17</title>
<polygon fill="white" stroke="#bfbfbf" points="1159.5,-562.5 1159.5,-619.5 1203.5,-619.5 1203.5,-562.5 1159.5,-562.5"/>
<text text-anchor="middle" x="1181.5" y="-607.5" font-family="Helvetica,sans-Serif" font-size="10.00">Scalar</text>
<polyline fill="none" stroke="#bfbfbf" points="1159.5,-600.5 1203.5,-600.5 "/>
<text text-anchor="middle" x="1181.5" y="-588.5" font-family="Helvetica,sans-Serif" font-size="10.00"> </text>
<polyline fill="none" stroke="#bfbfbf" points="1159.5,-581.5 1203.5,-581.5 "/>
<text text-anchor="middle" x="1181.5" y="-569.5" font-family="Helvetica,sans-Serif" font-size="10.00"> </text>
</g>
<!-- Node17&#45;&gt;Node15 -->
<g id="edge20" class="edge"><title>Node17&#45;&gt;Node15</title>
<path fill="none" stroke="#404040" d="M1183.24,-562.415C1184.66,-520.149 1182.42,-438.066 1149.5,-379 1147.55,-375.497 1145.34,-372.094 1142.94,-368.799"/>
<polygon fill="none" stroke="#404040" points="1142.75,-368.57 1135.86,-366.43 1135.19,-359.25 1142.08,-361.39 1142.75,-368.57"/>
<text text-anchor="middle" x="1227.5" y="-437" font-family="Helvetica,sans-Serif" font-size="10.00"> +max_angle</text>
<text text-anchor="middle" x="1227.5" y="-426" font-family="Helvetica,sans-Serif" font-size="10.00">+max_color_distance</text>
<text text-anchor="middle" x="1227.5" y="-415" font-family="Helvetica,sans-Serif" font-size="10.00">+delta</text>
<text text-anchor="start" x="1173.5" y="-404" font-family="Helvetica,sans-Serif" font-size="10.00">+max_translation</text>
<text text-anchor="middle" x="1227.5" y="-393" font-family="Helvetica,sans-Serif" font-size="10.00">_distance</text>
<text text-anchor="middle" x="1227.5" y="-382" font-family="Helvetica,sans-Serif" font-size="10.00">+max_normal_difference</text>
</g>
</g>
</svg>
