<?xml version="1.0" encoding="UTF-8" standalone="no"?>
<!DOCTYPE svg PUBLIC "-//W3C//DTD SVG 1.1//EN"
 "http://www.w3.org/Graphics/SVG/1.1/DTD/svg11.dtd">
<!-- Generated by graphviz version 2.38.0 (20140413.2041)
 -->
<!-- Title: GlobalRegistration::KdTree&lt; _Scalar, _Index &gt;::KdNode Pages: 1 -->
<svg width="300pt" height="226pt"
 viewBox="0.00 0.00 299.50 226.00" xmlns="http://www.w3.org/2000/svg" xmlns:xlink="http://www.w3.org/1999/xlink">
<g id="graph0" class="graph" transform="scale(1 1) rotate(0) translate(4 222)">
<title>GlobalRegistration::KdTree&lt; _Scalar, _Index &gt;::KdNode</title>
<polygon fill="white" stroke="none" points="-4,4 -4,-222 295.5,-222 295.5,4 -4,4"/>
<!-- Node1 -->
<g id="node1" class="node"><title>Node1</title>
<polygon fill="#bfbfbf" stroke="black" points="78.5,-0.5 78.5,-79.5 180.5,-79.5 180.5,-0.5 78.5,-0.5"/>
<text text-anchor="start" x="86.5" y="-67.5" font-family="Helvetica,sans-Serif" font-size="10.00">GlobalRegistration</text>
<text text-anchor="start" x="86.5" y="-56.5" font-family="Helvetica,sans-Serif" font-size="10.00">::KdTree&lt; _Scalar, </text>
<text text-anchor="middle" x="129.5" y="-45.5" font-family="Helvetica,sans-Serif" font-size="10.00">_Index &gt;::KdNode</text>
<polyline fill="none" stroke="black" points="78.5,-38.5 180.5,-38.5 "/>
<text text-anchor="middle" x="129.5" y="-26.5" font-family="Helvetica,sans-Serif" font-size="10.00"> </text>
<polyline fill="none" stroke="black" points="78.5,-19.5 180.5,-19.5 "/>
<text text-anchor="middle" x="129.5" y="-7.5" font-family="Helvetica,sans-Serif" font-size="10.00"> </text>
</g>
<!-- Node2 -->
<g id="node2" class="node"><title>Node2</title>
<polygon fill="white" stroke="#bfbfbf" points="0,-160.5 0,-217.5 35,-217.5 35,-160.5 0,-160.5"/>
<text text-anchor="middle" x="17.5" y="-205.5" font-family="Helvetica,sans-Serif" font-size="10.00">float</text>
<polyline fill="none" stroke="#bfbfbf" points="0,-198.5 35,-198.5 "/>
<text text-anchor="middle" x="17.5" y="-186.5" font-family="Helvetica,sans-Serif" font-size="10.00"> </text>
<polyline fill="none" stroke="#bfbfbf" points="0,-179.5 35,-179.5 "/>
<text text-anchor="middle" x="17.5" y="-167.5" font-family="Helvetica,sans-Serif" font-size="10.00"> </text>
</g>
<!-- Node2&#45;&gt;Node1 -->
<g id="edge1" class="edge"><title>Node2&#45;&gt;Node1</title>
<path fill="none" stroke="#404040" d="M22.7394,-160.314C27.3706,-141.349 35.6111,-116.397 49.5,-98 54.9396,-90.795 61.5503,-84.1324 68.6153,-78.096"/>
<polygon fill="none" stroke="#404040" points="69.0731,-77.7318 71.278,-70.866 78.4636,-70.2606 76.2588,-77.1263 69.0731,-77.7318"/>
<text text-anchor="middle" x="75.5" y="-117.5" font-family="Helvetica,sans-Serif" font-size="10.00"> +splitValue</text>
</g>
<!-- Node3 -->
<g id="node3" class="node"><title>Node3</title>
<polygon fill="white" stroke="#bfbfbf" points="53.5,-160.5 53.5,-217.5 133.5,-217.5 133.5,-160.5 53.5,-160.5"/>
<text text-anchor="middle" x="93.5" y="-205.5" font-family="Helvetica,sans-Serif" font-size="10.00">unsigned short</text>
<polyline fill="none" stroke="#bfbfbf" points="53.5,-198.5 133.5,-198.5 "/>
<text text-anchor="middle" x="93.5" y="-186.5" font-family="Helvetica,sans-Serif" font-size="10.00"> </text>
<polyline fill="none" stroke="#bfbfbf" points="53.5,-179.5 133.5,-179.5 "/>
<text text-anchor="middle" x="93.5" y="-167.5" font-family="Helvetica,sans-Serif" font-size="10.00"> </text>
</g>
<!-- Node3&#45;&gt;Node1 -->
<g id="edge2" class="edge"><title>Node3&#45;&gt;Node1</title>
<path fill="none" stroke="#404040" d="M100.271,-160.35C105.024,-140.945 111.515,-114.44 117.173,-91.3357"/>
<polygon fill="none" stroke="#404040" points="117.188,-91.2751 114.73,-84.4958 120.042,-79.6195 122.5,-86.3988 117.188,-91.2751"/>
<text text-anchor="middle" x="129.5" y="-117.5" font-family="Helvetica,sans-Serif" font-size="10.00"> +size</text>
</g>
<!-- Node4 -->
<g id="node4" class="node"><title>Node4</title>
<polygon fill="white" stroke="#bfbfbf" points="152,-160.5 152,-217.5 181,-217.5 181,-160.5 152,-160.5"/>
<text text-anchor="middle" x="166.5" y="-205.5" font-family="Helvetica,sans-Serif" font-size="10.00">int</text>
<polyline fill="none" stroke="#bfbfbf" points="152,-198.5 181,-198.5 "/>
<text text-anchor="middle" x="166.5" y="-186.5" font-family="Helvetica,sans-Serif" font-size="10.00"> </text>
<polyline fill="none" stroke="#bfbfbf" points="152,-179.5 181,-179.5 "/>
<text text-anchor="middle" x="166.5" y="-167.5" font-family="Helvetica,sans-Serif" font-size="10.00"> </text>
</g>
<!-- Node4&#45;&gt;Node1 -->
<g id="edge3" class="edge"><title>Node4&#45;&gt;Node1</title>
<path fill="none" stroke="#404040" d="M159.885,-160.396C155.581,-142.571 149.802,-118.892 144.5,-98 143.957,-95.8614 143.4,-93.6786 142.833,-91.4743"/>
<polygon fill="none" stroke="#404040" points="142.769,-91.2256 137.392,-86.4209 139.758,-79.6093 145.136,-84.414 142.769,-91.2256"/>
<text text-anchor="middle" x="182.5" y="-134" font-family="Helvetica,sans-Serif" font-size="10.00"> +start</text>
<text text-anchor="middle" x="182.5" y="-123" font-family="Helvetica,sans-Serif" font-size="10.00">+leaf</text>
<text text-anchor="middle" x="182.5" y="-112" font-family="Helvetica,sans-Serif" font-size="10.00">+dim</text>
<text text-anchor="middle" x="182.5" y="-101" font-family="Helvetica,sans-Serif" font-size="10.00">+firstChildId</text>
</g>
<!-- Node5 -->
<g id="node5" class="node"><title>Node5</title>
<polygon fill="white" stroke="#bfbfbf" points="199.5,-160.5 199.5,-217.5 291.5,-217.5 291.5,-160.5 199.5,-160.5"/>
<text text-anchor="middle" x="245.5" y="-205.5" font-family="Helvetica,sans-Serif" font-size="10.00">anonymous:+@1</text>
<polyline fill="none" stroke="#bfbfbf" points="199.5,-198.5 291.5,-198.5 "/>
<text text-anchor="middle" x="245.5" y="-186.5" font-family="Helvetica,sans-Serif" font-size="10.00"> </text>
<polyline fill="none" stroke="#bfbfbf" points="199.5,-179.5 291.5,-179.5 "/>
<text text-anchor="middle" x="245.5" y="-167.5" font-family="Helvetica,sans-Serif" font-size="10.00"> </text>
</g>
<!-- Node5&#45;&gt;Node1 -->
<g id="edge4" class="edge"><title>Node5&#45;&gt;Node1</title>
<path fill="none" stroke="#404040" d="M240.392,-160.214C235.821,-141.203 227.598,-116.237 213.5,-98 207.078,-89.6929 199.096,-82.1652 190.627,-75.504"/>
<polygon fill="none" stroke="#404040" points="190.58,-75.4697 183.377,-75.1343 180.916,-68.3561 188.119,-68.6914 190.58,-75.4697"/>
<text text-anchor="middle" x="248" y="-117.5" font-family="Helvetica,sans-Serif" font-size="10.00"> +@1</text>
</g>
</g>
</svg>
