<?xml version="1.0" encoding="UTF-8" standalone="no"?>
<!DOCTYPE svg PUBLIC "-//W3C//DTD SVG 1.1//EN"
 "http://www.w3.org/Graphics/SVG/1.1/DTD/svg11.dtd">
<!-- Generated by graphviz version 2.38.0 (20140413.2041)
 -->
<!-- Title: GlobalRegistration::Match4PCSBase::ComputeTransformation Pages: 1 -->
<svg width="595pt" height="247pt"
 viewBox="0.00 0.00 595.00 247.00" xmlns="http://www.w3.org/2000/svg" xmlns:xlink="http://www.w3.org/1999/xlink">
<g id="graph0" class="graph" transform="scale(1 1) rotate(0) translate(4 243)">
<title>GlobalRegistration::Match4PCSBase::ComputeTransformation</title>
<polygon fill="white" stroke="none" points="-4,4 -4,-243 591,-243 591,4 -4,4"/>
<!-- Node7 -->
<g id="node1" class="node"><title>Node7</title>
<polygon fill="#bfbfbf" stroke="black" points="0,-60.5 0,-90.5 209,-90.5 209,-60.5 0,-60.5"/>
<text text-anchor="start" x="8" y="-78.5" font-family="Helvetica,sans-Serif" font-size="10.00">GlobalRegistration</text>
<text text-anchor="middle" x="104.5" y="-67.5" font-family="Helvetica,sans-Serif" font-size="10.00">::Match4PCSBase::ComputeTransformation</text>
</g>
<!-- Node8 -->
<g id="node2" class="node"><title>Node8</title>
<g id="a_node2"><a xlink:href="a04648.xhtml#a6da7132684e7b8285711303d136aed79" target="_top" xlink:title="GlobalRegistration\l::Match4PCSBase::init">
<polygon fill="white" stroke="black" points="256,-98.5 256,-128.5 373,-128.5 373,-98.5 256,-98.5"/>
<text text-anchor="start" x="264" y="-116.5" font-family="Helvetica,sans-Serif" font-size="10.00">GlobalRegistration</text>
<text text-anchor="middle" x="314.5" y="-105.5" font-family="Helvetica,sans-Serif" font-size="10.00">::Match4PCSBase::init</text>
</a>
</g>
</g>
<!-- Node7&#45;&gt;Node8 -->
<g id="edge1" class="edge"><title>Node7&#45;&gt;Node8</title>
<path fill="none" stroke="midnightblue" d="M187.707,-90.5186C207.054,-94.0532 227.455,-97.7802 246.066,-101.18"/>
<polygon fill="midnightblue" stroke="midnightblue" points="245.444,-104.624 255.91,-102.979 246.702,-97.7385 245.444,-104.624"/>
</g>
<!-- Node13 -->
<g id="node7" class="node"><title>Node13</title>
<g id="a_node7"><a xlink:href="a04648.xhtml#afd714116c6898bc5913a9d77eca865ff" target="_top" xlink:title="Performs n RANSAC iterations, each one of them containing base selection, finding congruent sets and ...">
<polygon fill="white" stroke="black" points="245,-17 245,-58 384,-58 384,-17 245,-17"/>
<text text-anchor="start" x="253" y="-46" font-family="Helvetica,sans-Serif" font-size="10.00">GlobalRegistration</text>
<text text-anchor="start" x="253" y="-35" font-family="Helvetica,sans-Serif" font-size="10.00">::Match4PCSBase::Perform</text>
<text text-anchor="middle" x="314.5" y="-24" font-family="Helvetica,sans-Serif" font-size="10.00">_N_steps</text>
</a>
</g>
</g>
<!-- Node7&#45;&gt;Node13 -->
<g id="edge6" class="edge"><title>Node7&#45;&gt;Node13</title>
<path fill="none" stroke="midnightblue" d="M187.707,-60.4814C203.263,-57.6394 219.5,-54.673 234.94,-51.8523"/>
<polygon fill="midnightblue" stroke="midnightblue" points="235.748,-55.2627 244.956,-50.0224 234.49,-48.3767 235.748,-55.2627"/>
</g>
<!-- Node9 -->
<g id="node3" class="node"><title>Node9</title>
<g id="a_node3"><a xlink:href="a04648.xhtml#abdead928eb9370da120c4735550ad5e8" target="_top" xlink:title="Computes the mean distance between points in Q and their nearest neighbor. We need this for normaliza...">
<polygon fill="white" stroke="black" points="420,-208.5 420,-238.5 587,-238.5 587,-208.5 420,-208.5"/>
<text text-anchor="start" x="428" y="-226.5" font-family="Helvetica,sans-Serif" font-size="10.00">GlobalRegistration</text>
<text text-anchor="middle" x="503.5" y="-215.5" font-family="Helvetica,sans-Serif" font-size="10.00">::Match4PCSBase::MeanDistance</text>
</a>
</g>
</g>
<!-- Node8&#45;&gt;Node9 -->
<g id="edge2" class="edge"><title>Node8&#45;&gt;Node9</title>
<path fill="none" stroke="midnightblue" d="M330.065,-128.523C349.111,-147.369 384.275,-179.511 420,-198.5 424.237,-200.752 428.707,-202.832 433.285,-204.748"/>
<polygon fill="midnightblue" stroke="midnightblue" points="432.205,-208.084 442.793,-208.453 434.746,-201.561 432.205,-208.084"/>
</g>
<!-- Node10 -->
<g id="node4" class="node"><title>Node10</title>
<g id="a_node4"><a xlink:href="a04688.xhtml#a91b3ac4a47f82c2c2ff8ecd0bbd43c2b" target="_top" xlink:title="GlobalRegistration\l::Match4PCSOptions::\lgetOverlapEstimation">
<polygon fill="white" stroke="black" points="445.5,-148 445.5,-189 561.5,-189 561.5,-148 445.5,-148"/>
<text text-anchor="start" x="453.5" y="-177" font-family="Helvetica,sans-Serif" font-size="10.00">GlobalRegistration</text>
<text text-anchor="start" x="453.5" y="-166" font-family="Helvetica,sans-Serif" font-size="10.00">::Match4PCSOptions::</text>
<text text-anchor="middle" x="503.5" y="-155" font-family="Helvetica,sans-Serif" font-size="10.00">getOverlapEstimation</text>
</a>
</g>
</g>
<!-- Node8&#45;&gt;Node10 -->
<g id="edge3" class="edge"><title>Node8&#45;&gt;Node10</title>
<path fill="none" stroke="midnightblue" d="M366.599,-128.529C387.793,-134.763 412.676,-142.081 435.318,-148.74"/>
<polygon fill="midnightblue" stroke="midnightblue" points="434.621,-152.184 445.203,-151.648 436.597,-145.468 434.621,-152.184"/>
</g>
<!-- Node11 -->
<g id="node5" class="node"><title>Node11</title>
<g id="a_node5"><a xlink:href="a04648.xhtml#adac9aa457425985cf778c69c60fecc21" target="_top" xlink:title="Initializes the data structures and needed values before the match computation. ">
<polygon fill="white" stroke="black" points="433.5,-98.5 433.5,-128.5 573.5,-128.5 573.5,-98.5 433.5,-98.5"/>
<text text-anchor="start" x="441.5" y="-116.5" font-family="Helvetica,sans-Serif" font-size="10.00">GlobalRegistration</text>
<text text-anchor="middle" x="503.5" y="-105.5" font-family="Helvetica,sans-Serif" font-size="10.00">::Match4PCSBase::Initialize</text>
</a>
</g>
</g>
<!-- Node8&#45;&gt;Node11 -->
<g id="edge4" class="edge"><title>Node8&#45;&gt;Node11</title>
<path fill="none" stroke="midnightblue" d="M373.132,-113.5C388.862,-113.5 406.188,-113.5 422.908,-113.5"/>
<polygon fill="midnightblue" stroke="midnightblue" points="423.22,-117 433.22,-113.5 423.22,-110 423.22,-117"/>
</g>
<!-- Node12 -->
<g id="node6" class="node"><title>Node12</title>
<g id="a_node6"><a xlink:href="a04648.xhtml#a8b3bea4c48cb1efbd844ba6ee629cfcd" target="_top" xlink:title="For each randomly picked base, verifies the computed transformation by computing the number of points...">
<polygon fill="white" stroke="black" points="438.5,-49.5 438.5,-79.5 568.5,-79.5 568.5,-49.5 438.5,-49.5"/>
<text text-anchor="start" x="446.5" y="-67.5" font-family="Helvetica,sans-Serif" font-size="10.00">GlobalRegistration</text>
<text text-anchor="middle" x="503.5" y="-56.5" font-family="Helvetica,sans-Serif" font-size="10.00">::Match4PCSBase::Verify</text>
</a>
</g>
</g>
<!-- Node8&#45;&gt;Node12 -->
<g id="edge5" class="edge"><title>Node8&#45;&gt;Node12</title>
<path fill="none" stroke="midnightblue" d="M372.877,-98.4654C392.622,-93.2917 414.906,-87.4525 435.358,-82.0934"/>
<polygon fill="midnightblue" stroke="midnightblue" points="436.445,-85.4267 445.231,-79.5062 434.671,-78.6553 436.445,-85.4267"/>
</g>
<!-- Node14 -->
<g id="node8" class="node"><title>Node14</title>
<g id="a_node8"><a xlink:href="a04648.xhtml#adcacd57bf5844d8205a7620c72c0d450" target="_top" xlink:title="Tries one base and finds the best transformation for this base. Returns true if the achieved LCP is g...">
<polygon fill="white" stroke="black" points="424,-0.5 424,-30.5 583,-30.5 583,-0.5 424,-0.5"/>
<text text-anchor="start" x="432" y="-18.5" font-family="Helvetica,sans-Serif" font-size="10.00">GlobalRegistration</text>
<text text-anchor="middle" x="503.5" y="-7.5" font-family="Helvetica,sans-Serif" font-size="10.00">::Match4PCSBase::TryOneBase</text>
</a>
</g>
</g>
<!-- Node13&#45;&gt;Node14 -->
<g id="edge7" class="edge"><title>Node13&#45;&gt;Node14</title>
<path fill="none" stroke="midnightblue" d="M384.07,-29.4329C393.764,-28.2925 403.844,-27.1066 413.85,-25.9295"/>
<polygon fill="midnightblue" stroke="midnightblue" points="414.291,-29.4018 423.813,-24.7573 413.473,-22.4497 414.291,-29.4018"/>
</g>
</g>
</svg>
