<?xml version="1.0" encoding="UTF-8" standalone="no"?>
<!DOCTYPE svg PUBLIC "-//W3C//DTD SVG 1.1//EN"
 "http://www.w3.org/Graphics/SVG/1.1/DTD/svg11.dtd">
<!-- Generated by graphviz version 2.38.0 (20140413.2041)
 -->
<!-- Title: GlobalRegistration::AABB&lt; _Scalar, _Dim &gt; Pages: 1 -->
<svg width="167pt" height="204pt"
 viewBox="0.00 0.00 166.50 204.00" xmlns="http://www.w3.org/2000/svg" xmlns:xlink="http://www.w3.org/1999/xlink">
<g id="graph0" class="graph" transform="scale(1 1) rotate(0) translate(4 200)">
<title>GlobalRegistration::AABB&lt; _Scalar, _Dim &gt;</title>
<polygon fill="white" stroke="none" points="-4,4 -4,-200 162.5,-200 162.5,4 -4,4"/>
<!-- Node3 -->
<g id="node1" class="node"><title>Node3</title>
<polygon fill="#bfbfbf" stroke="black" points="28.5,-0.5 28.5,-79.5 158.5,-79.5 158.5,-0.5 28.5,-0.5"/>
<text text-anchor="start" x="36.5" y="-67.5" font-family="Helvetica,sans-Serif" font-size="10.00">GlobalRegistration</text>
<text text-anchor="middle" x="93.5" y="-56.5" font-family="Helvetica,sans-Serif" font-size="10.00">::AABB&lt; _Scalar, _Dim &gt;</text>
<polyline fill="none" stroke="black" points="28.5,-49.5 158.5,-49.5 "/>
<text text-anchor="middle" x="93.5" y="-37.5" font-family="Helvetica,sans-Serif" font-size="10.00"> </text>
<polyline fill="none" stroke="black" points="28.5,-30.5 158.5,-30.5 "/>
<text text-anchor="start" x="36.5" y="-18.5" font-family="Helvetica,sans-Serif" font-size="10.00">+ AABB()</text>
<text text-anchor="start" x="36.5" y="-7.5" font-family="Helvetica,sans-Serif" font-size="10.00">+ extend()</text>
</g>
<!-- Node4 -->
<g id="node2" class="node"><title>Node4</title>
<polygon fill="white" stroke="#bfbfbf" points="0,-127.5 0,-195.5 103,-195.5 103,-127.5 0,-127.5"/>
<text text-anchor="start" x="8" y="-183.5" font-family="Helvetica,sans-Serif" font-size="10.00">Eigen::AlignedBox&lt;</text>
<text text-anchor="middle" x="51.5" y="-172.5" font-family="Helvetica,sans-Serif" font-size="10.00"> _Scalar, _Dim &gt;</text>
<polyline fill="none" stroke="#bfbfbf" points="0,-165.5 103,-165.5 "/>
<text text-anchor="middle" x="51.5" y="-153.5" font-family="Helvetica,sans-Serif" font-size="10.00"> </text>
<polyline fill="none" stroke="#bfbfbf" points="0,-146.5 103,-146.5 "/>
<text text-anchor="middle" x="51.5" y="-134.5" font-family="Helvetica,sans-Serif" font-size="10.00"> </text>
</g>
<!-- Node4&#45;&gt;Node3 -->
<g id="edge1" class="edge"><title>Node4&#45;&gt;Node3</title>
<path fill="none" stroke="midnightblue" d="M66.5974,-117.544C70.9529,-105.152 75.6771,-91.7103 79.9336,-79.5997"/>
<polygon fill="none" stroke="midnightblue" points="63.2132,-116.618 63.1993,-127.213 69.8172,-118.939 63.2132,-116.618"/>
</g>
<!-- Node5 -->
<g id="node3" class="node"><title>Node5</title>
<polygon fill="white" stroke="#bfbfbf" points="121,-133 121,-190 150,-190 150,-133 121,-133"/>
<text text-anchor="middle" x="135.5" y="-178" font-family="Helvetica,sans-Serif" font-size="10.00">int</text>
<polyline fill="none" stroke="#bfbfbf" points="121,-171 150,-171 "/>
<text text-anchor="middle" x="135.5" y="-159" font-family="Helvetica,sans-Serif" font-size="10.00"> </text>
<polyline fill="none" stroke="#bfbfbf" points="121,-152 150,-152 "/>
<text text-anchor="middle" x="135.5" y="-140" font-family="Helvetica,sans-Serif" font-size="10.00"> </text>
</g>
<!-- Node5&#45;&gt;Node3 -->
<g id="edge2" class="edge"><title>Node5&#45;&gt;Node3</title>
<path fill="none" stroke="#404040" d="M125.759,-132.784C121.442,-120.503 116.225,-105.657 111.256,-91.5191"/>
<polygon fill="none" stroke="#404040" points="111.144,-91.2019 105.381,-86.8677 107.165,-79.8808 112.928,-84.215 111.144,-91.2019"/>
<text text-anchor="middle" x="130.5" y="-101" font-family="Helvetica,sans-Serif" font-size="10.00"> +Dim</text>
</g>
</g>
</svg>
