<?xml version="1.0" encoding="UTF-8" standalone="no"?>
<!DOCTYPE svg PUBLIC "-//W3C//DTD SVG 1.1//EN"
 "http://www.w3.org/Graphics/SVG/1.1/DTD/svg11.dtd">
<!-- Generated by graphviz version 2.38.0 (20140413.2041)
 -->
<!-- Title: GlobalRegistration::AABB&lt; _Scalar, _Dim &gt; Pages: 1 -->
<svg width="138pt" height="321pt"
 viewBox="0.00 0.00 138.00 321.00" xmlns="http://www.w3.org/2000/svg" xmlns:xlink="http://www.w3.org/1999/xlink">
<g id="graph0" class="graph" transform="scale(1 1) rotate(0) translate(4 317)">
<title>GlobalRegistration::AABB&lt; _Scalar, _Dim &gt;</title>
<polygon fill="white" stroke="none" points="-4,4 -4,-317 134,-317 134,4 -4,4"/>
<!-- Node0 -->
<g id="node1" class="node"><title>Node0</title>
<polygon fill="#bfbfbf" stroke="black" points="0,-127.5 0,-206.5 130,-206.5 130,-127.5 0,-127.5"/>
<text text-anchor="start" x="8" y="-194.5" font-family="Helvetica,sans-Serif" font-size="10.00">GlobalRegistration</text>
<text text-anchor="middle" x="65" y="-183.5" font-family="Helvetica,sans-Serif" font-size="10.00">::AABB&lt; _Scalar, _Dim &gt;</text>
<polyline fill="none" stroke="black" points="0,-176.5 130,-176.5 "/>
<text text-anchor="start" x="8" y="-164.5" font-family="Helvetica,sans-Serif" font-size="10.00">+ Dim</text>
<polyline fill="none" stroke="black" points="0,-157.5 130,-157.5 "/>
<text text-anchor="start" x="8" y="-145.5" font-family="Helvetica,sans-Serif" font-size="10.00">+ AABB()</text>
<text text-anchor="start" x="8" y="-134.5" font-family="Helvetica,sans-Serif" font-size="10.00">+ extend()</text>
</g>
<!-- Node2 -->
<g id="node3" class="node"><title>Node2</title>
<g id="a_node3"><a xlink:href="a04634.html" target="_top" xlink:title="{GlobalRegistration\l::AABB\&lt; Scalar \&gt;\n|+ Dim\l|+ AABB()\l+ extend()\l}">
<polygon fill="white" stroke="black" points="16.5,-0.5 16.5,-79.5 113.5,-79.5 113.5,-0.5 16.5,-0.5"/>
<text text-anchor="start" x="24.5" y="-67.5" font-family="Helvetica,sans-Serif" font-size="10.00">GlobalRegistration</text>
<text text-anchor="middle" x="65" y="-56.5" font-family="Helvetica,sans-Serif" font-size="10.00">::AABB&lt; Scalar &gt;</text>
<polyline fill="none" stroke="black" points="16.5,-49.5 113.5,-49.5 "/>
<text text-anchor="start" x="24.5" y="-37.5" font-family="Helvetica,sans-Serif" font-size="10.00">+ Dim</text>
<polyline fill="none" stroke="black" points="16.5,-30.5 113.5,-30.5 "/>
<text text-anchor="start" x="24.5" y="-18.5" font-family="Helvetica,sans-Serif" font-size="10.00">+ AABB()</text>
<text text-anchor="start" x="24.5" y="-7.5" font-family="Helvetica,sans-Serif" font-size="10.00">+ extend()</text>
</a>
</g>
</g>
<!-- Node0&#45;&gt;Node2 -->
<g id="edge2" class="edge"><title>Node0&#45;&gt;Node2</title>
<path fill="none" stroke="orange" d="M65,-117.222C65,-104.745 65,-91.4998 65,-79.6121"/>
<polygon fill="orange" stroke="orange" points="61.5001,-117.476 65,-127.476 68.5001,-117.476 61.5001,-117.476"/>
<text text-anchor="middle" x="89.5" y="-101" font-family="Helvetica,sans-Serif" font-size="10.00"> &lt; Scalar &gt;</text>
</g>
<!-- Node1 -->
<g id="node2" class="node"><title>Node1</title>
<polygon fill="white" stroke="#bfbfbf" points="13.5,-244.5 13.5,-312.5 116.5,-312.5 116.5,-244.5 13.5,-244.5"/>
<text text-anchor="start" x="21.5" y="-300.5" font-family="Helvetica,sans-Serif" font-size="10.00">Eigen::AlignedBox&lt;</text>
<text text-anchor="middle" x="65" y="-289.5" font-family="Helvetica,sans-Serif" font-size="10.00"> _Scalar, _Dim &gt;</text>
<polyline fill="none" stroke="#bfbfbf" points="13.5,-282.5 116.5,-282.5 "/>
<text text-anchor="middle" x="65" y="-270.5" font-family="Helvetica,sans-Serif" font-size="10.00"> </text>
<polyline fill="none" stroke="#bfbfbf" points="13.5,-263.5 116.5,-263.5 "/>
<text text-anchor="middle" x="65" y="-251.5" font-family="Helvetica,sans-Serif" font-size="10.00"> </text>
</g>
<!-- Node1&#45;&gt;Node0 -->
<g id="edge1" class="edge"><title>Node1&#45;&gt;Node0</title>
<path fill="none" stroke="midnightblue" d="M65,-234.339C65,-225.254 65,-215.724 65,-206.81"/>
<polygon fill="none" stroke="midnightblue" points="61.5001,-234.349 65,-244.349 68.5001,-234.349 61.5001,-234.349"/>
</g>
</g>
</svg>
