<?xml version="1.0" encoding="UTF-8" standalone="no"?>
<!DOCTYPE svg PUBLIC "-//W3C//DTD SVG 1.1//EN"
 "http://www.w3.org/Graphics/SVG/1.1/DTD/svg11.dtd">
<!-- Generated by graphviz version 2.38.0 (20140413.2041)
 -->
<!-- Title: GlobalRegistration::Match4PCS Pages: 1 -->
<svg width="271pt" height="343pt"
 viewBox="0.00 0.00 270.50 343.00" xmlns="http://www.w3.org/2000/svg" xmlns:xlink="http://www.w3.org/1999/xlink">
<g id="graph0" class="graph" transform="scale(1 1) rotate(0) translate(4 339)">
<title>GlobalRegistration::Match4PCS</title>
<polygon fill="white" stroke="none" points="-4,4 -4,-339 266.5,-339 266.5,4 -4,4"/>
<!-- Node2 -->
<g id="node1" class="node"><title>Node2</title>
<polygon fill="#bfbfbf" stroke="black" points="58,-0.5 58,-79.5 155,-79.5 155,-0.5 58,-0.5"/>
<text text-anchor="start" x="66" y="-67.5" font-family="Helvetica,sans-Serif" font-size="10.00">GlobalRegistration</text>
<text text-anchor="middle" x="106.5" y="-56.5" font-family="Helvetica,sans-Serif" font-size="10.00">::Match4PCS</text>
<polyline fill="none" stroke="black" points="58,-49.5 155,-49.5 "/>
<text text-anchor="middle" x="106.5" y="-37.5" font-family="Helvetica,sans-Serif" font-size="10.00"> </text>
<polyline fill="none" stroke="black" points="58,-30.5 155,-30.5 "/>
<text text-anchor="start" x="66" y="-18.5" font-family="Helvetica,sans-Serif" font-size="10.00">+ Match4PCS()</text>
<text text-anchor="start" x="66" y="-7.5" font-family="Helvetica,sans-Serif" font-size="10.00">+ ~Match4PCS()</text>
</g>
<!-- Node3 -->
<g id="node2" class="node"><title>Node3</title>
<g id="a_node2"><a xlink:href="a04703.html" target="_top" xlink:title="{GlobalRegistration\l::Match4PCSBase\n||+ ~Match4PCSBase()\l+ getFirstSampled()\l+ getSecondSampled()\l+ ComputeTransformation()\l}">
<polygon fill="white" stroke="black" points="38,-117.5 38,-218.5 175,-218.5 175,-117.5 38,-117.5"/>
<text text-anchor="start" x="46" y="-206.5" font-family="Helvetica,sans-Serif" font-size="10.00">GlobalRegistration</text>
<text text-anchor="middle" x="106.5" y="-195.5" font-family="Helvetica,sans-Serif" font-size="10.00">::Match4PCSBase</text>
<polyline fill="none" stroke="black" points="38,-188.5 175,-188.5 "/>
<text text-anchor="middle" x="106.5" y="-176.5" font-family="Helvetica,sans-Serif" font-size="10.00"> </text>
<polyline fill="none" stroke="black" points="38,-169.5 175,-169.5 "/>
<text text-anchor="start" x="46" y="-157.5" font-family="Helvetica,sans-Serif" font-size="10.00">+ ~Match4PCSBase()</text>
<text text-anchor="start" x="46" y="-146.5" font-family="Helvetica,sans-Serif" font-size="10.00">+ getFirstSampled()</text>
<text text-anchor="start" x="46" y="-135.5" font-family="Helvetica,sans-Serif" font-size="10.00">+ getSecondSampled()</text>
<text text-anchor="start" x="46" y="-124.5" font-family="Helvetica,sans-Serif" font-size="10.00">+ ComputeTransformation()</text>
</a>
</g>
</g>
<!-- Node3&#45;&gt;Node2 -->
<g id="edge1" class="edge"><title>Node3&#45;&gt;Node2</title>
<path fill="none" stroke="midnightblue" d="M106.5,-107.11C106.5,-97.7412 106.5,-88.28 106.5,-79.5585"/>
<polygon fill="none" stroke="midnightblue" points="103,-107.201 106.5,-117.201 110,-107.201 103,-107.201"/>
</g>
<!-- Node4 -->
<g id="node3" class="node"><title>Node4</title>
<polygon fill="white" stroke="#bfbfbf" points="0,-277.5 0,-334.5 117,-334.5 117,-277.5 0,-277.5"/>
<text text-anchor="middle" x="58.5" y="-322.5" font-family="Helvetica,sans-Serif" font-size="10.00">static constexpr Scalar</text>
<polyline fill="none" stroke="#bfbfbf" points="0,-315.5 117,-315.5 "/>
<text text-anchor="middle" x="58.5" y="-303.5" font-family="Helvetica,sans-Serif" font-size="10.00"> </text>
<polyline fill="none" stroke="#bfbfbf" points="0,-296.5 117,-296.5 "/>
<text text-anchor="middle" x="58.5" y="-284.5" font-family="Helvetica,sans-Serif" font-size="10.00"> </text>
</g>
<!-- Node4&#45;&gt;Node3 -->
<g id="edge2" class="edge"><title>Node4&#45;&gt;Node3</title>
<path fill="none" stroke="#404040" d="M55.2948,-277.277C54.7502,-264.706 55.3973,-249.819 59.5,-237 60.3175,-234.446 61.266,-231.902 62.3222,-229.381"/>
<polygon fill="none" stroke="#404040" points="62.3531,-229.317 61.3589,-222.175 67.5693,-218.51 68.5636,-225.652 62.3531,-229.317"/>
<text text-anchor="middle" x="96" y="-251" font-family="Helvetica,sans-Serif" font-size="10.00"> +kLargeNumber</text>
<text text-anchor="middle" x="96" y="-240" font-family="Helvetica,sans-Serif" font-size="10.00">+distance_factor</text>
</g>
<!-- Node5 -->
<g id="node4" class="node"><title>Node5</title>
<polygon fill="white" stroke="#bfbfbf" points="140,-277.5 140,-334.5 169,-334.5 169,-277.5 140,-277.5"/>
<text text-anchor="middle" x="154.5" y="-322.5" font-family="Helvetica,sans-Serif" font-size="10.00">int</text>
<polyline fill="none" stroke="#bfbfbf" points="140,-315.5 169,-315.5 "/>
<text text-anchor="middle" x="154.5" y="-303.5" font-family="Helvetica,sans-Serif" font-size="10.00"> </text>
<polyline fill="none" stroke="#bfbfbf" points="140,-296.5 169,-296.5 "/>
<text text-anchor="middle" x="154.5" y="-284.5" font-family="Helvetica,sans-Serif" font-size="10.00"> </text>
</g>
<!-- Node5&#45;&gt;Node3 -->
<g id="edge3" class="edge"><title>Node5&#45;&gt;Node3</title>
<path fill="none" stroke="#404040" d="M145.94,-277.428C141.996,-265.022 137.163,-250.223 132.5,-237 131.712,-234.765 130.9,-232.493 130.071,-230.201"/>
<polygon fill="none" stroke="#404040" points="129.967,-229.918 124.144,-225.665 125.829,-218.654 131.653,-222.907 129.967,-229.918"/>
<text text-anchor="middle" x="200.5" y="-245.5" font-family="Helvetica,sans-Serif" font-size="10.00"> +kNumberOfDiameterTrials</text>
</g>
</g>
</svg>
