<?xml version="1.0" encoding="UTF-8" standalone="no"?>
<!DOCTYPE svg PUBLIC "-//W3C//DTD SVG 1.1//EN"
 "http://www.w3.org/Graphics/SVG/1.1/DTD/svg11.dtd">
<!-- Generated by graphviz version 2.38.0 (20140413.2041)
 -->
<!-- Title: GlobalRegistration::KdTree&lt; _Scalar, _Index &gt;::RangeQuery&lt; _stackSize &gt; Pages: 1 -->
<svg width="320pt" height="342pt"
 viewBox="0.00 0.00 320.00 342.00" xmlns="http://www.w3.org/2000/svg" xmlns:xlink="http://www.w3.org/1999/xlink">
<g id="graph0" class="graph" transform="scale(1 1) rotate(0) translate(4 338)">
<title>GlobalRegistration::KdTree&lt; _Scalar, _Index &gt;::RangeQuery&lt; _stackSize &gt;</title>
<polygon fill="white" stroke="none" points="-4,4 -4,-338 316,-338 316,4 -4,4"/>
<!-- Node1 -->
<g id="node1" class="node"><title>Node1</title>
<polygon fill="#bfbfbf" stroke="black" points="90,-0.5 90,-90.5 206,-90.5 206,-0.5 90,-0.5"/>
<text text-anchor="start" x="98" y="-78.5" font-family="Helvetica,sans-Serif" font-size="10.00">GlobalRegistration</text>
<text text-anchor="start" x="98" y="-67.5" font-family="Helvetica,sans-Serif" font-size="10.00">::KdTree&lt; _Scalar, </text>
<text text-anchor="start" x="98" y="-56.5" font-family="Helvetica,sans-Serif" font-size="10.00">_Index &gt;::RangeQuery</text>
<text text-anchor="middle" x="148" y="-45.5" font-family="Helvetica,sans-Serif" font-size="10.00">&lt; _stackSize &gt;</text>
<polyline fill="none" stroke="black" points="90,-38.5 206,-38.5 "/>
<text text-anchor="middle" x="148" y="-26.5" font-family="Helvetica,sans-Serif" font-size="10.00"> </text>
<polyline fill="none" stroke="black" points="90,-19.5 206,-19.5 "/>
<text text-anchor="middle" x="148" y="-7.5" font-family="Helvetica,sans-Serif" font-size="10.00"> </text>
</g>
<!-- Node2 -->
<g id="node2" class="node"><title>Node2</title>
<polygon fill="white" stroke="#bfbfbf" points="0,-155 0,-212 112,-212 112,-155 0,-155"/>
<text text-anchor="middle" x="56" y="-200" font-family="Helvetica,sans-Serif" font-size="10.00">Matrix&lt; Scalar, 3, 1 &gt;</text>
<polyline fill="none" stroke="#bfbfbf" points="0,-193 112,-193 "/>
<text text-anchor="middle" x="56" y="-181" font-family="Helvetica,sans-Serif" font-size="10.00"> </text>
<polyline fill="none" stroke="#bfbfbf" points="0,-174 112,-174 "/>
<text text-anchor="middle" x="56" y="-162" font-family="Helvetica,sans-Serif" font-size="10.00"> </text>
</g>
<!-- Node2&#45;&gt;Node1 -->
<g id="edge1" class="edge"><title>Node2&#45;&gt;Node1</title>
<path fill="none" stroke="#404040" d="M60.5257,-154.792C63.7868,-140.333 69.2089,-122.825 78,-109 79.9902,-105.87 82.18,-102.803 84.5181,-99.8114"/>
<polygon fill="none" stroke="#404040" points="84.6426,-99.6654 85.4912,-92.5044 92.4277,-90.5334 91.5792,-97.6944 84.6426,-99.6654"/>
<text text-anchor="middle" x="106" y="-112" font-family="Helvetica,sans-Serif" font-size="10.00"> +queryPoint</text>
</g>
<!-- Node3 -->
<g id="node3" class="node"><title>Node3</title>
<polygon fill="white" stroke="#bfbfbf" points="148,-276.5 148,-333.5 198,-333.5 198,-276.5 148,-276.5"/>
<text text-anchor="middle" x="173" y="-321.5" font-family="Helvetica,sans-Serif" font-size="10.00">_Scalar</text>
<polyline fill="none" stroke="#bfbfbf" points="148,-314.5 198,-314.5 "/>
<text text-anchor="middle" x="173" y="-302.5" font-family="Helvetica,sans-Serif" font-size="10.00"> </text>
<polyline fill="none" stroke="#bfbfbf" points="148,-295.5 198,-295.5 "/>
<text text-anchor="middle" x="173" y="-283.5" font-family="Helvetica,sans-Serif" font-size="10.00"> </text>
</g>
<!-- Node3&#45;&gt;Node1 -->
<g id="edge2" class="edge"><title>Node3&#45;&gt;Node1</title>
<path fill="none" stroke="#404040" d="M166.001,-276.402C162.712,-262.312 159.067,-244.842 157,-229 151.512,-186.933 149.302,-139.014 148.442,-102.837"/>
<polygon fill="none" stroke="#404040" points="148.437,-102.556 144.315,-96.6394 148.191,-90.5589 152.313,-96.4759 148.437,-102.556"/>
<text text-anchor="middle" x="175" y="-181" font-family="Helvetica,sans-Serif" font-size="10.00"> +sqdist</text>
</g>
<!-- Node4 -->
<g id="node4" class="node"><title>Node4</title>
<g id="a_node4"><a xlink:href="a04658.html" target="_top" xlink:title="element of the stack ">
<polygon fill="white" stroke="black" points="202,-138.5 202,-228.5 312,-228.5 312,-138.5 202,-138.5"/>
<text text-anchor="start" x="210" y="-216.5" font-family="Helvetica,sans-Serif" font-size="10.00">GlobalRegistration</text>
<text text-anchor="start" x="210" y="-205.5" font-family="Helvetica,sans-Serif" font-size="10.00">::KdTree&lt; _Scalar, </text>
<text text-anchor="middle" x="257" y="-194.5" font-family="Helvetica,sans-Serif" font-size="10.00">_Index &gt;::QueryNode</text>
<polyline fill="none" stroke="black" points="202,-187.5 312,-187.5 "/>
<text text-anchor="middle" x="257" y="-175.5" font-family="Helvetica,sans-Serif" font-size="10.00"> </text>
<polyline fill="none" stroke="black" points="202,-168.5 312,-168.5 "/>
<text text-anchor="start" x="210" y="-156.5" font-family="Helvetica,sans-Serif" font-size="10.00">+ QueryNode()</text>
<text text-anchor="start" x="210" y="-145.5" font-family="Helvetica,sans-Serif" font-size="10.00">+ QueryNode()</text>
</a>
</g>
</g>
<!-- Node3&#45;&gt;Node4 -->
<g id="edge4" class="edge"><title>Node3&#45;&gt;Node4</title>
<path fill="none" stroke="#404040" d="M192.482,-276.284C200.361,-265.076 209.741,-251.732 218.874,-238.739"/>
<polygon fill="none" stroke="#404040" points="218.88,-238.73 219.058,-231.521 225.781,-228.912 225.603,-236.121 218.88,-238.73"/>
<text text-anchor="middle" x="223" y="-250" font-family="Helvetica,sans-Serif" font-size="10.00"> +sq</text>
</g>
<!-- Node4&#45;&gt;Node1 -->
<g id="edge3" class="edge"><title>Node4&#45;&gt;Node1</title>
<path fill="none" stroke="#404040" d="M221.611,-138.345C211.902,-126.231 201.266,-112.961 191.173,-100.367"/>
<polygon fill="none" stroke="#404040" points="191.089,-100.263 184.216,-98.0826 183.585,-90.8992 190.458,-93.0794 191.089,-100.263"/>
<text text-anchor="middle" x="234" y="-112" font-family="Helvetica,sans-Serif" font-size="10.00"> +nodeStack</text>
</g>
<!-- Node5 -->
<g id="node5" class="node"><title>Node5</title>
<polygon fill="white" stroke="#bfbfbf" points="242.5,-276.5 242.5,-333.5 271.5,-333.5 271.5,-276.5 242.5,-276.5"/>
<text text-anchor="middle" x="257" y="-321.5" font-family="Helvetica,sans-Serif" font-size="10.00">int</text>
<polyline fill="none" stroke="#bfbfbf" points="242.5,-314.5 271.5,-314.5 "/>
<text text-anchor="middle" x="257" y="-302.5" font-family="Helvetica,sans-Serif" font-size="10.00"> </text>
<polyline fill="none" stroke="#bfbfbf" points="242.5,-295.5 271.5,-295.5 "/>
<text text-anchor="middle" x="257" y="-283.5" font-family="Helvetica,sans-Serif" font-size="10.00"> </text>
</g>
<!-- Node5&#45;&gt;Node4 -->
<g id="edge5" class="edge"><title>Node5&#45;&gt;Node4</title>
<path fill="none" stroke="#404040" d="M257,-276.284C257,-265.735 257,-253.294 257,-241.035"/>
<polygon fill="none" stroke="#404040" points="257,-240.912 253,-234.912 257,-228.912 261,-234.912 257,-240.912"/>
<text text-anchor="middle" x="276.5" y="-250" font-family="Helvetica,sans-Serif" font-size="10.00"> +nodeId</text>
</g>
</g>
</svg>
