<?xml version="1.0" encoding="UTF-8" standalone="no"?>
<!DOCTYPE svg PUBLIC "-//W3C//DTD SVG 1.1//EN"
 "http://www.w3.org/Graphics/SVG/1.1/DTD/svg11.dtd">
<!-- Generated by graphviz version 2.38.0 (20140413.2041)
 -->
<!-- Title: IOManager::ReadObject Pages: 1 -->
<svg width="396pt" height="186pt"
 viewBox="0.00 0.00 396.00 186.00" xmlns="http://www.w3.org/2000/svg" xmlns:xlink="http://www.w3.org/1999/xlink">
<g id="graph0" class="graph" transform="scale(1 1) rotate(0) translate(4 182)">
<title>IOManager::ReadObject</title>
<polygon fill="white" stroke="none" points="-4,4 -4,-182 392,-182 392,4 -4,4"/>
<!-- Node0 -->
<g id="node1" class="node"><title>Node0</title>
<polygon fill="#bfbfbf" stroke="black" points="0,-79 0,-98 122,-98 122,-79 0,-79"/>
<text text-anchor="middle" x="61" y="-86" font-family="Helvetica,sans-Serif" font-size="10.00">IOManager::ReadObject</text>
</g>
<!-- Node1 -->
<g id="node2" class="node"><title>Node1</title>
<g id="a_node2"><a xlink:href="a04707.html#a5045e2b156b9c70042f67a03f2f33102" target="_top" xlink:title="GlobalRegistration\l::Point3D::x">
<polygon fill="white" stroke="black" points="158,-147.5 158,-177.5 255,-177.5 255,-147.5 158,-147.5"/>
<text text-anchor="start" x="166" y="-165.5" font-family="Helvetica,sans-Serif" font-size="10.00">GlobalRegistration</text>
<text text-anchor="middle" x="206.5" y="-154.5" font-family="Helvetica,sans-Serif" font-size="10.00">::Point3D::x</text>
</a>
</g>
</g>
<!-- Node0&#45;&gt;Node1 -->
<g id="edge1" class="edge"><title>Node0&#45;&gt;Node1</title>
<path fill="none" stroke="midnightblue" d="M80.369,-98.1527C99.6652,-108.273 130.914,-124.604 158,-138.5 160.748,-139.91 163.587,-141.36 166.448,-142.817"/>
<polygon fill="midnightblue" stroke="midnightblue" points="165.071,-146.043 175.572,-147.449 168.24,-139.801 165.071,-146.043"/>
</g>
<!-- Node2 -->
<g id="node3" class="node"><title>Node2</title>
<g id="a_node3"><a xlink:href="a04707.html#afda4bde657b8db9bd6ccd74e2c4adf8a" target="_top" xlink:title="GlobalRegistration\l::Point3D::y">
<polygon fill="white" stroke="black" points="158,-98.5 158,-128.5 255,-128.5 255,-98.5 158,-98.5"/>
<text text-anchor="start" x="166" y="-116.5" font-family="Helvetica,sans-Serif" font-size="10.00">GlobalRegistration</text>
<text text-anchor="middle" x="206.5" y="-105.5" font-family="Helvetica,sans-Serif" font-size="10.00">::Point3D::y</text>
</a>
</g>
</g>
<!-- Node0&#45;&gt;Node2 -->
<g id="edge2" class="edge"><title>Node0&#45;&gt;Node2</title>
<path fill="none" stroke="midnightblue" d="M116.661,-98.0227C126.759,-99.7821 137.337,-101.625 147.53,-103.401"/>
<polygon fill="midnightblue" stroke="midnightblue" points="147.11,-106.88 157.562,-105.148 148.311,-99.984 147.11,-106.88"/>
</g>
<!-- Node3 -->
<g id="node4" class="node"><title>Node3</title>
<g id="a_node4"><a xlink:href="a04707.html#a01b88c7f4d8aec81f77fff36eb4bc7a9" target="_top" xlink:title="GlobalRegistration\l::Point3D::z">
<polygon fill="white" stroke="black" points="158,-49.5 158,-79.5 255,-79.5 255,-49.5 158,-49.5"/>
<text text-anchor="start" x="166" y="-67.5" font-family="Helvetica,sans-Serif" font-size="10.00">GlobalRegistration</text>
<text text-anchor="middle" x="206.5" y="-56.5" font-family="Helvetica,sans-Serif" font-size="10.00">::Point3D::z</text>
</a>
</g>
</g>
<!-- Node0&#45;&gt;Node3 -->
<g id="edge3" class="edge"><title>Node0&#45;&gt;Node3</title>
<path fill="none" stroke="midnightblue" d="M119.127,-78.9456C128.541,-77.3713 138.305,-75.7383 147.733,-74.1613"/>
<polygon fill="midnightblue" stroke="midnightblue" points="148.515,-77.5793 157.801,-72.4776 147.36,-70.6752 148.515,-77.5793"/>
</g>
<!-- Node4 -->
<g id="node5" class="node"><title>Node4</title>
<g id="a_node5"><a xlink:href="a04707.html#a3fc39e91ad38e4144cb6e0feb363c9f0" target="_top" xlink:title="GlobalRegistration\l::Point3D::set_rgb">
<polygon fill="white" stroke="black" points="158,-0.5 158,-30.5 255,-30.5 255,-0.5 158,-0.5"/>
<text text-anchor="start" x="166" y="-18.5" font-family="Helvetica,sans-Serif" font-size="10.00">GlobalRegistration</text>
<text text-anchor="middle" x="206.5" y="-7.5" font-family="Helvetica,sans-Serif" font-size="10.00">::Point3D::set_rgb</text>
</a>
</g>
</g>
<!-- Node0&#45;&gt;Node4 -->
<g id="edge4" class="edge"><title>Node0&#45;&gt;Node4</title>
<path fill="none" stroke="midnightblue" d="M80.7601,-78.9565C102.465,-67.9148 138.788,-49.4369 166.657,-35.2599"/>
<polygon fill="midnightblue" stroke="midnightblue" points="168.424,-38.2877 175.75,-30.634 165.25,-32.0486 168.424,-38.2877"/>
</g>
<!-- Node5 -->
<g id="node6" class="node"><title>Node5</title>
<g id="a_node6"><a xlink:href="a04707.html#aea3ed1eb4ea38cbd76fb8db3e15270e7" target="_top" xlink:title="GlobalRegistration\l::Point3D::rgb">
<polygon fill="white" stroke="black" points="291,-0.5 291,-30.5 388,-30.5 388,-0.5 291,-0.5"/>
<text text-anchor="start" x="299" y="-18.5" font-family="Helvetica,sans-Serif" font-size="10.00">GlobalRegistration</text>
<text text-anchor="middle" x="339.5" y="-7.5" font-family="Helvetica,sans-Serif" font-size="10.00">::Point3D::rgb</text>
</a>
</g>
</g>
<!-- Node4&#45;&gt;Node5 -->
<g id="edge5" class="edge"><title>Node4&#45;&gt;Node5</title>
<path fill="none" stroke="midnightblue" d="M255.165,-15.5C263.382,-15.5 272.005,-15.5 280.46,-15.5"/>
<polygon fill="midnightblue" stroke="midnightblue" points="280.651,-19.0001 290.651,-15.5 280.651,-12.0001 280.651,-19.0001"/>
</g>
</g>
</svg>
