<?xml version="1.0" encoding="UTF-8" standalone="no"?>
<!DOCTYPE svg PUBLIC "-//W3C//DTD SVG 1.1//EN"
 "http://www.w3.org/Graphics/SVG/1.1/DTD/svg11.dtd">
<!-- Generated by graphviz version 2.38.0 (20140413.2041)
 -->
<!-- Title: GlobalRegistration::IndexedNormalSet::IndexedNormalSet Pages: 1 -->
<svg width="264pt" height="110pt"
 viewBox="0.00 0.00 264.00 110.00" xmlns="http://www.w3.org/2000/svg" xmlns:xlink="http://www.w3.org/1999/xlink">
<g id="graph0" class="graph" transform="scale(1 1) rotate(0) translate(4 106)">
<title>GlobalRegistration::IndexedNormalSet::IndexedNormalSet</title>
<polygon fill="white" stroke="none" points="-4,4 -4,-106 260,-106 260,4 -4,4"/>
<!-- Node0 -->
<g id="node1" class="node"><title>Node0</title>
<polygon fill="#bfbfbf" stroke="black" points="0,-30.5 0,-71.5 110,-71.5 110,-30.5 0,-30.5"/>
<text text-anchor="start" x="8" y="-59.5" font-family="Helvetica,sans-Serif" font-size="10.00">GlobalRegistration</text>
<text text-anchor="start" x="8" y="-48.5" font-family="Helvetica,sans-Serif" font-size="10.00">::IndexedNormalSet::</text>
<text text-anchor="middle" x="55" y="-37.5" font-family="Helvetica,sans-Serif" font-size="10.00">IndexedNormalSet</text>
</g>
<!-- Node1 -->
<g id="node2" class="node"><title>Node1</title>
<g id="a_node2"><a xlink:href="a04612.html#ad0310363e5192d196e78c4b7bbcce261" target="_top" xlink:title="GlobalRegistration\l::IndexedNormalSet::\l~IndexedNormalSet">
<polygon fill="white" stroke="black" points="146,-60.5 146,-101.5 256,-101.5 256,-60.5 146,-60.5"/>
<text text-anchor="start" x="154" y="-89.5" font-family="Helvetica,sans-Serif" font-size="10.00">GlobalRegistration</text>
<text text-anchor="start" x="154" y="-78.5" font-family="Helvetica,sans-Serif" font-size="10.00">::IndexedNormalSet::</text>
<text text-anchor="middle" x="201" y="-67.5" font-family="Helvetica,sans-Serif" font-size="10.00">~IndexedNormalSet</text>
</a>
</g>
</g>
<!-- Node0&#45;&gt;Node1 -->
<g id="edge1" class="edge"><title>Node0&#45;&gt;Node1</title>
<path fill="none" stroke="midnightblue" d="M110.03,-62.2562C118.405,-64.001 127.126,-65.8179 135.7,-67.6041"/>
<polygon fill="midnightblue" stroke="midnightblue" points="135.164,-71.0675 145.667,-69.6807 136.591,-64.2146 135.164,-71.0675"/>
</g>
<!-- Node2 -->
<g id="node3" class="node"><title>Node2</title>
<g id="a_node3"><a xlink:href="a04612.html#a33214ce57b59b9a16c5ac6bca7145c54" target="_top" xlink:title="Add a new couple pos/normal, and its associated id. ">
<polygon fill="white" stroke="black" points="146,-0.5 146,-41.5 256,-41.5 256,-0.5 146,-0.5"/>
<text text-anchor="start" x="154" y="-29.5" font-family="Helvetica,sans-Serif" font-size="10.00">GlobalRegistration</text>
<text text-anchor="start" x="154" y="-18.5" font-family="Helvetica,sans-Serif" font-size="10.00">::IndexedNormalSet::</text>
<text text-anchor="middle" x="201" y="-7.5" font-family="Helvetica,sans-Serif" font-size="10.00">addElement</text>
</a>
</g>
</g>
<!-- Node0&#45;&gt;Node2 -->
<g id="edge2" class="edge"><title>Node0&#45;&gt;Node2</title>
<path fill="none" stroke="midnightblue" d="M110.03,-39.7438C118.405,-37.999 127.126,-36.1821 135.7,-34.3959"/>
<polygon fill="midnightblue" stroke="midnightblue" points="136.591,-37.7854 145.667,-32.3193 135.164,-30.9325 136.591,-37.7854"/>
</g>
</g>
</svg>
