<?xml version="1.0" encoding="UTF-8" standalone="no"?>
<!DOCTYPE svg PUBLIC "-//W3C//DTD SVG 1.1//EN"
 "http://www.w3.org/Graphics/SVG/1.1/DTD/svg11.dtd">
<!-- Generated by graphviz version 2.38.0 (20140413.2041)
 -->
<!-- Title: GlobalRegistration::Match4PCSBase::Log Pages: 1 -->
<!--zoomable 521 -->
<svg id="main" version="1.1" xmlns="http://www.w3.org/2000/svg" xmlns:xlink="http://www.w3.org/1999/xlink" xml:space="preserve" onload="init(evt)">
<style type="text/css"><![CDATA[
.edge:hover path { stroke: red; }
.edge:hover polygon { stroke: red; fill: red; }
]]></style>
<script type="text/javascript"><![CDATA[
var edges = document.getElementsByTagName('g');
if (edges && edges.length) {
  for (var i=0;i<edges.length;i++) {
    if (edges[i].id.substr(0,4)=='edge') {
      edges[i].setAttribute('class','edge');
    }
  }
}
]]></script>
        <defs>
                <circle id="rim" cx="0" cy="0" r="7"/>
                <circle id="rim2" cx="0" cy="0" r="3.5"/>
                <g id="zoomPlus">
                        <use xlink:href="#rim" fill="#404040">
                                <set attributeName="fill" to="#808080" begin="zoomplus.mouseover" end="zoomplus.mouseout"/>
                        </use>
                        <path d="M-4,0h8M0,-4v8" fill="none" stroke="white" stroke-width="1.5" pointer-events="none"/>
                </g>
                <g id="zoomMin">
                        <use xlink:href="#rim" fill="#404040">
                                <set attributeName="fill" to="#808080" begin="zoomminus.mouseover" end="zoomminus.mouseout"/>
                        </use>
                        <path d="M-4,0h8" fill="none" stroke="white" stroke-width="1.5" pointer-events="none"/>
                </g>
                <g id="dirArrow">
                        <path fill="none" stroke="white" stroke-width="1.5" d="M0,-3.0v7 M-2.5,-0.5L0,-3.0L2.5,-0.5"/>
                </g>
               <g id="resetDef">
                       <use xlink:href="#rim2" fill="#404040">
                               <set attributeName="fill" to="#808080" begin="reset.mouseover" end="reset.mouseout"/>
                       </use>
               </g>
        </defs>

<script type="text/javascript">
var viewWidth = 554;
var viewHeight = 521;
var sectionId = 'dynsection-6';
</script>
<script xlink:href="svgpan.js"/>
<svg id="graph" class="graph">
<g id="viewport">
<title>GlobalRegistration::Match4PCSBase::Log</title>
<polygon fill="white" stroke="none" points="-4,4 -4,-517 550,-517 550,4 -4,4"/>
<!-- Node33 -->
<g id="node1" class="node"><title>Node33</title>
<polygon fill="#bfbfbf" stroke="black" points="0,-263.5 0,-293.5 120,-293.5 120,-263.5 0,-263.5"/>
<text text-anchor="start" x="8" y="-281.5" font-family="Helvetica,sans-Serif" font-size="10.00">GlobalRegistration</text>
<text text-anchor="middle" x="60" y="-270.5" font-family="Helvetica,sans-Serif" font-size="10.00">::Match4PCSBase::Log</text>
</g>
<!-- Node34 -->
<g id="node2" class="node"><title>Node34</title>
<g id="a_node2"><a xlink:href="a04692.xhtml#a80be1cf2fd1833a5062f0699e40fc396" target="_top" xlink:title="GlobalRegistration\l::Utils::Logger::Log">
<polygon fill="white" stroke="black" points="199.5,-482.5 199.5,-512.5 299.5,-512.5 299.5,-482.5 199.5,-482.5"/>
<text text-anchor="start" x="207.5" y="-500.5" font-family="Helvetica,sans-Serif" font-size="10.00">GlobalRegistration</text>
<text text-anchor="middle" x="249.5" y="-489.5" font-family="Helvetica,sans-Serif" font-size="10.00">::Utils::Logger::Log</text>
</a>
</g>
</g>
<!-- Node33&#45;&gt;Node34 -->
<g id="edge1" class="edge"><title>Node33&#45;&gt;Node34</title>
<path fill="none" stroke="midnightblue" d="M64.3839,-293.731C73.1037,-329.441 99.7097,-419.183 156,-467.5 165.603,-475.743 177.513,-481.73 189.556,-486.077"/>
<polygon fill="midnightblue" stroke="midnightblue" points="188.609,-489.449 199.201,-489.223 190.779,-482.795 188.609,-489.449"/>
</g>
<!-- Node35 -->
<g id="node3" class="node"><title>Node35</title>
<g id="a_node3"><a xlink:href="a04648.xhtml#abdead928eb9370da120c4735550ad5e8" target="_top" xlink:title="Computes the mean distance between points in Q and their nearest neighbor. We need this for normaliza...">
<polygon fill="white" stroke="black" points="379,-449.5 379,-479.5 546,-479.5 546,-449.5 379,-449.5"/>
<text text-anchor="start" x="387" y="-467.5" font-family="Helvetica,sans-Serif" font-size="10.00">GlobalRegistration</text>
<text text-anchor="middle" x="462.5" y="-456.5" font-family="Helvetica,sans-Serif" font-size="10.00">::Match4PCSBase::MeanDistance</text>
</a>
</g>
</g>
<!-- Node33&#45;&gt;Node35 -->
<g id="edge2" class="edge"><title>Node33&#45;&gt;Node35</title>
<path fill="none" stroke="midnightblue" d="M65.864,-293.824C76.5749,-324.798 105.359,-394.613 156,-426.5 219.109,-466.237 304.182,-473.946 368.528,-472.735"/>
<polygon fill="midnightblue" stroke="midnightblue" points="368.766,-476.23 378.67,-472.467 368.581,-469.232 368.766,-476.23"/>
</g>
<!-- Node36 -->
<g id="node4" class="node"><title>Node36</title>
<g id="a_node4"><a xlink:href="a04648.xhtml#af9b9a0034ec3ff9646b36ce6250702cd" target="_top" xlink:title="Selects a random triangle in the set P (then we add another point to keep the base as planar as possi...">
<polygon fill="white" stroke="black" points="165,-258 165,-299 334,-299 334,-258 165,-258"/>
<text text-anchor="start" x="173" y="-287" font-family="Helvetica,sans-Serif" font-size="10.00">GlobalRegistration</text>
<text text-anchor="start" x="173" y="-276" font-family="Helvetica,sans-Serif" font-size="10.00">::Match4PCSBase::SelectRandom</text>
<text text-anchor="middle" x="249.5" y="-265" font-family="Helvetica,sans-Serif" font-size="10.00">Triangle</text>
</a>
</g>
</g>
<!-- Node33&#45;&gt;Node36 -->
<g id="edge3" class="edge"><title>Node33&#45;&gt;Node36</title>
<path fill="none" stroke="midnightblue" d="M120.069,-278.5C131.028,-278.5 142.723,-278.5 154.425,-278.5"/>
<polygon fill="midnightblue" stroke="midnightblue" points="154.692,-282 164.692,-278.5 154.692,-275 154.692,-282"/>
</g>
<!-- Node37 -->
<g id="node5" class="node"><title>Node37</title>
<g id="a_node5"><a xlink:href="a04648.xhtml#a423c63bc1aece6379b9b6a8cf9d5aa0f" target="_top" xlink:title="Takes quadrilateral as a base, computes robust intersection point (approximate as the lines might not...">
<polygon fill="white" stroke="black" points="163,-208.5 163,-238.5 336,-238.5 336,-208.5 163,-208.5"/>
<text text-anchor="start" x="171" y="-226.5" font-family="Helvetica,sans-Serif" font-size="10.00">GlobalRegistration</text>
<text text-anchor="middle" x="249.5" y="-215.5" font-family="Helvetica,sans-Serif" font-size="10.00">::Match4PCSBase::TryQuadrilateral</text>
</a>
</g>
</g>
<!-- Node33&#45;&gt;Node37 -->
<g id="edge4" class="edge"><title>Node33&#45;&gt;Node37</title>
<path fill="none" stroke="midnightblue" d="M107.268,-263.461C122.722,-258.553 140.065,-253.167 156,-248.5 164.235,-246.088 172.908,-243.633 181.507,-241.25"/>
<polygon fill="midnightblue" stroke="midnightblue" points="182.443,-244.623 191.157,-238.596 180.587,-237.873 182.443,-244.623"/>
</g>
<!-- Node38 -->
<g id="node6" class="node"><title>Node38</title>
<g id="a_node6"><a xlink:href="a04648.xhtml#af4249983ba17f93c48ba4f4d83442511" target="_top" xlink:title="Computes the best rigid transformation between three corresponding pairs. The transformation is chara...">
<polygon fill="white" stroke="black" points="166,-148 166,-189 333,-189 333,-148 166,-148"/>
<text text-anchor="start" x="174" y="-177" font-family="Helvetica,sans-Serif" font-size="10.00">GlobalRegistration</text>
<text text-anchor="start" x="174" y="-166" font-family="Helvetica,sans-Serif" font-size="10.00">::Match4PCSBase::ComputeRigid</text>
<text text-anchor="middle" x="249.5" y="-155" font-family="Helvetica,sans-Serif" font-size="10.00">Transformation</text>
</a>
</g>
</g>
<!-- Node33&#45;&gt;Node38 -->
<g id="edge5" class="edge"><title>Node33&#45;&gt;Node38</title>
<path fill="none" stroke="midnightblue" d="M75.4193,-263.189C92.9434,-245.385 124.14,-216.186 156,-198.5 159.293,-196.672 162.716,-194.934 166.219,-193.286"/>
<polygon fill="midnightblue" stroke="midnightblue" points="167.911,-196.365 175.649,-189.128 165.087,-189.96 167.911,-196.365"/>
</g>
<!-- Node39 -->
<g id="node7" class="node"><title>Node39</title>
<g id="a_node7"><a xlink:href="a04648.xhtml#a8b3bea4c48cb1efbd844ba6ee629cfcd" target="_top" xlink:title="For each randomly picked base, verifies the computed transformation by computing the number of points...">
<polygon fill="white" stroke="black" points="397.5,-400.5 397.5,-430.5 527.5,-430.5 527.5,-400.5 397.5,-400.5"/>
<text text-anchor="start" x="405.5" y="-418.5" font-family="Helvetica,sans-Serif" font-size="10.00">GlobalRegistration</text>
<text text-anchor="middle" x="462.5" y="-407.5" font-family="Helvetica,sans-Serif" font-size="10.00">::Match4PCSBase::Verify</text>
</a>
</g>
</g>
<!-- Node33&#45;&gt;Node39 -->
<g id="edge6" class="edge"><title>Node33&#45;&gt;Node39</title>
<path fill="none" stroke="midnightblue" d="M68.0438,-293.823C81.1114,-320.225 111.853,-373.655 156,-396.5 227.903,-433.709 322.421,-433.359 387.172,-426.977"/>
<polygon fill="midnightblue" stroke="midnightblue" points="387.724,-430.438 397.301,-425.906 386.988,-423.477 387.724,-430.438"/>
</g>
<!-- Node40 -->
<g id="node8" class="node"><title>Node40</title>
<g id="a_node8"><a xlink:href="a04648.xhtml#afd714116c6898bc5913a9d77eca865ff" target="_top" xlink:title="Performs n RANSAC iterations, each one of them containing base selection, finding congruent sets and ...">
<polygon fill="white" stroke="black" points="180,-88 180,-129 319,-129 319,-88 180,-88"/>
<text text-anchor="start" x="188" y="-117" font-family="Helvetica,sans-Serif" font-size="10.00">GlobalRegistration</text>
<text text-anchor="start" x="188" y="-106" font-family="Helvetica,sans-Serif" font-size="10.00">::Match4PCSBase::Perform</text>
<text text-anchor="middle" x="249.5" y="-95" font-family="Helvetica,sans-Serif" font-size="10.00">_N_steps</text>
</a>
</g>
</g>
<!-- Node33&#45;&gt;Node40 -->
<g id="edge7" class="edge"><title>Node33&#45;&gt;Node40</title>
<path fill="none" stroke="midnightblue" d="M67.1924,-263.422C79.6928,-234.827 110.669,-172.542 156,-138.5 160.472,-135.142 165.335,-132.151 170.414,-129.487"/>
<polygon fill="midnightblue" stroke="midnightblue" points="172.227,-132.5 179.75,-125.039 169.216,-126.181 172.227,-132.5"/>
</g>
<!-- Node41 -->
<g id="node9" class="node"><title>Node41</title>
<g id="a_node9"><a xlink:href="a04648.xhtml#adcacd57bf5844d8205a7620c72c0d450" target="_top" xlink:title="Tries one base and finds the best transformation for this base. Returns true if the achieved LCP is g...">
<polygon fill="white" stroke="black" points="383,-69.5 383,-99.5 542,-99.5 542,-69.5 383,-69.5"/>
<text text-anchor="start" x="391" y="-87.5" font-family="Helvetica,sans-Serif" font-size="10.00">GlobalRegistration</text>
<text text-anchor="middle" x="462.5" y="-76.5" font-family="Helvetica,sans-Serif" font-size="10.00">::Match4PCSBase::TryOneBase</text>
</a>
</g>
</g>
<!-- Node33&#45;&gt;Node41 -->
<g id="edge9" class="edge"><title>Node33&#45;&gt;Node41</title>
<path fill="none" stroke="midnightblue" d="M62.796,-263.434C68.3383,-224.531 89.0635,-120.809 156,-78.5 232.347,-30.2424 342.272,-48.8288 407.341,-66.6921"/>
<polygon fill="midnightblue" stroke="midnightblue" points="406.421,-70.0692 416.996,-69.4282 408.329,-63.3343 406.421,-70.0692"/>
</g>
<!-- Node42 -->
<g id="node10" class="node"><title>Node42</title>
<g id="a_node10"><a xlink:href="a04648.xhtml#adac9aa457425985cf778c69c60fecc21" target="_top" xlink:title="Initializes the data structures and needed values before the match computation. ">
<polygon fill="white" stroke="black" points="392.5,-290.5 392.5,-320.5 532.5,-320.5 532.5,-290.5 392.5,-290.5"/>
<text text-anchor="start" x="400.5" y="-308.5" font-family="Helvetica,sans-Serif" font-size="10.00">GlobalRegistration</text>
<text text-anchor="middle" x="462.5" y="-297.5" font-family="Helvetica,sans-Serif" font-size="10.00">::Match4PCSBase::Initialize</text>
</a>
</g>
</g>
<!-- Node33&#45;&gt;Node42 -->
<g id="edge10" class="edge"><title>Node33&#45;&gt;Node42</title>
<path fill="none" stroke="midnightblue" d="M99.6454,-293.656C116.645,-299.547 137.026,-305.575 156,-308.5 232.224,-320.249 320.417,-317.684 382.392,-313.274"/>
<polygon fill="midnightblue" stroke="midnightblue" points="382.779,-316.755 392.492,-312.523 382.26,-309.775 382.779,-316.755"/>
</g>
<!-- Node43 -->
<g id="node11" class="node"><title>Node43</title>
<g id="a_node11"><a xlink:href="a04648.xhtml#a6da7132684e7b8285711303d136aed79" target="_top" xlink:title="GlobalRegistration\l::Match4PCSBase::init">
<polygon fill="white" stroke="black" points="191,-356.5 191,-386.5 308,-386.5 308,-356.5 191,-356.5"/>
<text text-anchor="start" x="199" y="-374.5" font-family="Helvetica,sans-Serif" font-size="10.00">GlobalRegistration</text>
<text text-anchor="middle" x="249.5" y="-363.5" font-family="Helvetica,sans-Serif" font-size="10.00">::Match4PCSBase::init</text>
</a>
</g>
</g>
<!-- Node33&#45;&gt;Node43 -->
<g id="edge11" class="edge"><title>Node33&#45;&gt;Node43</title>
<path fill="none" stroke="midnightblue" d="M80.4347,-293.687C99.0006,-307.623 128.195,-328.083 156,-341.5 164.895,-345.792 174.555,-349.689 184.166,-353.148"/>
<polygon fill="midnightblue" stroke="midnightblue" points="183.135,-356.495 193.73,-356.458 185.425,-349.88 183.135,-356.495"/>
</g>
<!-- Node45 -->
<g id="node13" class="node"><title>Node45</title>
<g id="a_node13"><a xlink:href="a04648.xhtml#a3b37709e1bda55f4d109c9a2dbd7b170" target="_top" xlink:title="Selects a quadrilateral from P and returns the corresponding invariants and point indices...">
<polygon fill="white" stroke="black" points="156,-0.5 156,-30.5 343,-30.5 343,-0.5 156,-0.5"/>
<text text-anchor="start" x="164" y="-18.5" font-family="Helvetica,sans-Serif" font-size="10.00">GlobalRegistration</text>
<text text-anchor="middle" x="249.5" y="-7.5" font-family="Helvetica,sans-Serif" font-size="10.00">::Match4PCSBase::SelectQuadrilateral</text>
</a>
</g>
</g>
<!-- Node33&#45;&gt;Node45 -->
<g id="edge16" class="edge"><title>Node33&#45;&gt;Node45</title>
<path fill="none" stroke="midnightblue" d="M62.7867,-263.223C68.4237,-221.955 89.5915,-107.197 156,-45.5 160.097,-41.6936 164.683,-38.37 169.561,-35.468"/>
<polygon fill="midnightblue" stroke="midnightblue" points="171.409,-38.4503 178.618,-30.6864 168.141,-32.2601 171.409,-38.4503"/>
</g>
<!-- Node40&#45;&gt;Node41 -->
<g id="edge8" class="edge"><title>Node40&#45;&gt;Node41</title>
<path fill="none" stroke="midnightblue" d="M319.006,-100.708C336.085,-98.7652 354.645,-96.6541 372.553,-94.6172"/>
<polygon fill="midnightblue" stroke="midnightblue" points="373.172,-98.0695 382.712,-93.4616 372.381,-91.1143 373.172,-98.0695"/>
</g>
<!-- Node43&#45;&gt;Node35 -->
<g id="edge12" class="edge"><title>Node43&#45;&gt;Node35</title>
<path fill="none" stroke="midnightblue" d="M274.863,-386.583C300.166,-401.763 341.261,-425.078 379,-440.5 383.796,-442.46 388.81,-444.33 393.893,-446.098"/>
<polygon fill="midnightblue" stroke="midnightblue" points="393.123,-449.531 403.717,-449.37 395.335,-442.889 393.123,-449.531"/>
</g>
<!-- Node43&#45;&gt;Node39 -->
<g id="edge15" class="edge"><title>Node43&#45;&gt;Node39</title>
<path fill="none" stroke="midnightblue" d="M308.157,-383.523C332.609,-388.622 361.411,-394.628 387.413,-400.051"/>
<polygon fill="midnightblue" stroke="midnightblue" points="386.722,-403.482 397.226,-402.097 388.151,-396.629 386.722,-403.482"/>
</g>
<!-- Node43&#45;&gt;Node42 -->
<g id="edge14" class="edge"><title>Node43&#45;&gt;Node42</title>
<path fill="none" stroke="midnightblue" d="M297.142,-356.437C321.507,-348.615 351.832,-338.95 379,-330.5 386.335,-328.219 394.046,-325.847 401.686,-323.513"/>
<polygon fill="midnightblue" stroke="midnightblue" points="402.746,-326.849 411.292,-320.587 400.706,-320.153 402.746,-326.849"/>
</g>
<!-- Node44 -->
<g id="node12" class="node"><title>Node44</title>
<g id="a_node12"><a xlink:href="a04688.xhtml#a91b3ac4a47f82c2c2ff8ecd0bbd43c2b" target="_top" xlink:title="GlobalRegistration\l::Match4PCSOptions::\lgetOverlapEstimation">
<polygon fill="white" stroke="black" points="404.5,-340 404.5,-381 520.5,-381 520.5,-340 404.5,-340"/>
<text text-anchor="start" x="412.5" y="-369" font-family="Helvetica,sans-Serif" font-size="10.00">GlobalRegistration</text>
<text text-anchor="start" x="412.5" y="-358" font-family="Helvetica,sans-Serif" font-size="10.00">::Match4PCSOptions::</text>
<text text-anchor="middle" x="462.5" y="-347" font-family="Helvetica,sans-Serif" font-size="10.00">getOverlapEstimation</text>
</a>
</g>
</g>
<!-- Node43&#45;&gt;Node44 -->
<g id="edge13" class="edge"><title>Node43&#45;&gt;Node44</title>
<path fill="none" stroke="midnightblue" d="M308.157,-368.494C334.781,-367.106 366.564,-365.449 394.272,-364.005"/>
<polygon fill="midnightblue" stroke="midnightblue" points="394.474,-367.499 404.279,-363.483 394.11,-360.509 394.474,-367.499"/>
</g>
</g>
</svg>
        <g id="navigator" transform="translate(0 0)" fill="#404254">
                <rect fill="#f2f5e9" fill-opacity="0.5" stroke="#606060" stroke-width=".5" x="0" y="0" width="60" height="60"/>
                <use id="zoomplus" xlink:href="#zoomPlus" x="17" y="9" onmousedown="handleZoom(evt,'in')"/>
                <use id="zoomminus" xlink:href="#zoomMin" x="42" y="9" onmousedown="handleZoom(evt,'out')"/>
                <use id="reset" xlink:href="#resetDef" x="30" y="36" onmousedown="handleReset()"/>
                <g id="arrowUp" xlink:href="#dirArrow" transform="translate(30 24)" onmousedown="handlePan(0,-1)">
                  <use xlink:href="#rim" fill="#404040">
                        <set attributeName="fill" to="#808080" begin="arrowUp.mouseover" end="arrowUp.mouseout"/>
                  </use>
                  <path fill="none" stroke="white" stroke-width="1.5" d="M0,-3.0v7 M-2.5,-0.5L0,-3.0L2.5,-0.5"/>
                </g>
                <g id="arrowRight" xlink:href="#dirArrow" transform="rotate(90) translate(36 -43)" onmousedown="handlePan(1,0)">
                  <use xlink:href="#rim" fill="#404040">
                        <set attributeName="fill" to="#808080" begin="arrowRight.mouseover" end="arrowRight.mouseout"/>
                  </use>
                  <path fill="none" stroke="white" stroke-width="1.5" d="M0,-3.0v7 M-2.5,-0.5L0,-3.0L2.5,-0.5"/>
                </g>
                <g id="arrowDown" xlink:href="#dirArrow" transform="rotate(180) translate(-30 -48)" onmousedown="handlePan(0,1)">
                  <use xlink:href="#rim" fill="#404040">
                        <set attributeName="fill" to="#808080" begin="arrowDown.mouseover" end="arrowDown.mouseout"/>
                  </use>
                  <path fill="none" stroke="white" stroke-width="1.5" d="M0,-3.0v7 M-2.5,-0.5L0,-3.0L2.5,-0.5"/>
                </g>
                <g id="arrowLeft" xlink:href="#dirArrow" transform="rotate(270) translate(-36 17)" onmousedown="handlePan(-1,0)">
                  <use xlink:href="#rim" fill="#404040">
                        <set attributeName="fill" to="#808080" begin="arrowLeft.mouseover" end="arrowLeft.mouseout"/>
                  </use>
                  <path fill="none" stroke="white" stroke-width="1.5" d="M0,-3.0v7 M-2.5,-0.5L0,-3.0L2.5,-0.5"/>
                </g>
        </g>
        <svg viewBox="0 0 15 15" width="100%" height="30px" preserveAspectRatio="xMaxYMin meet">
         <g id="arrow_out" transform="scale(0.3 0.3)">
          <a xlink:href="a04648_a8e8c05b6f4156e85f6239f5f06537516_cgraph_org.svg" target="_base">
           <rect id="button" ry="5" rx="5" y="6" x="6" height="38" width="38"
                fill="#f2f5e9" fill-opacity="0.5" stroke="#606060" stroke-width="1.0"/>
           <path id="arrow"
             d="M 11.500037,31.436501 C 11.940474,20.09759 22.043105,11.32322 32.158766,21.979434 L 37.068811,17.246167 C 37.068811,17.246167 37.088388,32 37.088388,32 L 22.160133,31.978069 C 22.160133,31.978069 26.997745,27.140456 26.997745,27.140456 C 18.528582,18.264221 13.291696,25.230495 11.500037,31.436501 z"
             style="fill:#404040;"/>
          </a>
         </g>
        </svg>
</svg>
