<?xml version="1.0" encoding="UTF-8" standalone="no"?>
<!DOCTYPE svg PUBLIC "-//W3C//DTD SVG 1.1//EN"
 "http://www.w3.org/Graphics/SVG/1.1/DTD/svg11.dtd">
<!-- Generated by graphviz version 2.38.0 (20140413.2041)
 -->
<!-- Title: TransformVisitor::needsGlobalTransformation Pages: 1 -->
<svg width="554pt" height="105pt"
 viewBox="0.00 0.00 554.00 105.00" xmlns="http://www.w3.org/2000/svg" xmlns:xlink="http://www.w3.org/1999/xlink">
<g id="graph0" class="graph" transform="scale(1 1) rotate(0) translate(4 101)">
<title>TransformVisitor::needsGlobalTransformation</title>
<polygon fill="white" stroke="none" points="-4,4 -4,-101 550,-101 550,4 -4,4"/>
<!-- Node3 -->
<g id="node1" class="node"><title>Node3</title>
<polygon fill="#bfbfbf" stroke="black" points="0,-33 0,-63 149,-63 149,-33 0,-33"/>
<text text-anchor="start" x="8" y="-51" font-family="Helvetica,sans-Serif" font-size="10.00">TransformVisitor::needsGlobal</text>
<text text-anchor="middle" x="74.5" y="-40" font-family="Helvetica,sans-Serif" font-size="10.00">Transformation</text>
</g>
<!-- Node4 -->
<g id="node2" class="node"><title>Node4</title>
<g id="a_node2"><a xlink:href="a04693.html#a914945c84d7646c4960edebdf3912973" target="_top" xlink:title="GlobalRegistration\l::Match4PCSOptions::\lconfigureOverlap">
<polygon fill="white" stroke="black" points="231.5,-55.5 231.5,-96.5 347.5,-96.5 347.5,-55.5 231.5,-55.5"/>
<text text-anchor="start" x="239.5" y="-84.5" font-family="Helvetica,sans-Serif" font-size="10.00">GlobalRegistration</text>
<text text-anchor="start" x="239.5" y="-73.5" font-family="Helvetica,sans-Serif" font-size="10.00">::Match4PCSOptions::</text>
<text text-anchor="middle" x="289.5" y="-62.5" font-family="Helvetica,sans-Serif" font-size="10.00">configureOverlap</text>
</a>
</g>
</g>
<!-- Node3&#45;&gt;Node4 -->
<g id="edge1" class="edge"><title>Node3&#45;&gt;Node4</title>
<path fill="none" stroke="midnightblue" d="M149.101,-57.6752C172.564,-60.7596 198.39,-64.1545 221.37,-67.1753"/>
<polygon fill="midnightblue" stroke="midnightblue" points="220.997,-70.6563 231.367,-68.4896 221.909,-63.716 220.997,-70.6563"/>
</g>
<!-- Node5 -->
<g id="node3" class="node"><title>Node5</title>
<g id="a_node3"><a xlink:href="a04653.html#a75c9ca6da4d064f8484e432b7f795b8c" target="_top" xlink:title="Computes an approximation of the best LCP (directional) from Q to P and the rigid transformation that...">
<polygon fill="white" stroke="black" points="185,-6 185,-36 394,-36 394,-6 185,-6"/>
<text text-anchor="start" x="193" y="-24" font-family="Helvetica,sans-Serif" font-size="10.00">GlobalRegistration</text>
<text text-anchor="middle" x="289.5" y="-13" font-family="Helvetica,sans-Serif" font-size="10.00">::Match4PCSBase::ComputeTransformation</text>
</a>
</g>
</g>
<!-- Node3&#45;&gt;Node5 -->
<g id="edge2" class="edge"><title>Node3&#45;&gt;Node5</title>
<path fill="none" stroke="midnightblue" d="M149.101,-38.6703C157.398,-37.6186 165.99,-36.5294 174.648,-35.432"/>
<polygon fill="midnightblue" stroke="midnightblue" points="175.347,-38.8715 184.827,-34.1416 174.467,-31.927 175.347,-38.8715"/>
</g>
<!-- Node6 -->
<g id="node4" class="node"><title>Node6</title>
<g id="a_node4"><a xlink:href="a04693.html#a91b3ac4a47f82c2c2ff8ecd0bbd43c2b" target="_top" xlink:title="GlobalRegistration\l::Match4PCSOptions::\lgetOverlapEstimation">
<polygon fill="white" stroke="black" points="430,-0.5 430,-41.5 546,-41.5 546,-0.5 430,-0.5"/>
<text text-anchor="start" x="438" y="-29.5" font-family="Helvetica,sans-Serif" font-size="10.00">GlobalRegistration</text>
<text text-anchor="start" x="438" y="-18.5" font-family="Helvetica,sans-Serif" font-size="10.00">::Match4PCSOptions::</text>
<text text-anchor="middle" x="488" y="-7.5" font-family="Helvetica,sans-Serif" font-size="10.00">getOverlapEstimation</text>
</a>
</g>
</g>
<!-- Node5&#45;&gt;Node6 -->
<g id="edge3" class="edge"><title>Node5&#45;&gt;Node6</title>
<path fill="none" stroke="midnightblue" d="M394.216,-21C402.844,-21 411.416,-21 419.663,-21"/>
<polygon fill="midnightblue" stroke="midnightblue" points="419.917,-24.5001 429.917,-21 419.917,-17.5001 419.917,-24.5001"/>
</g>
</g>
</svg>
