<?xml version="1.0" encoding="UTF-8" standalone="no"?>
<!DOCTYPE svg PUBLIC "-//W3C//DTD SVG 1.1//EN"
 "http://www.w3.org/Graphics/SVG/1.1/DTD/svg11.dtd">
<!-- Generated by graphviz version 2.38.0 (20140413.2041)
 -->
<!-- Title: GlobalRegistration::MatchSuper4PCS::~MatchSuper4PCS Pages: 1 -->
<svg width="381pt" height="230pt"
 viewBox="0.00 0.00 381.00 230.00" xmlns="http://www.w3.org/2000/svg" xmlns:xlink="http://www.w3.org/1999/xlink">
<g id="graph0" class="graph" transform="scale(1 1) rotate(0) translate(4 226)">
<title>GlobalRegistration::MatchSuper4PCS::~MatchSuper4PCS</title>
<polygon fill="white" stroke="none" points="-4,4 -4,-226 377,-226 377,4 -4,4"/>
<!-- Node1 -->
<g id="node1" class="node"><title>Node1</title>
<polygon fill="#bfbfbf" stroke="black" points="0,-96 0,-126 192,-126 192,-96 0,-96"/>
<text text-anchor="start" x="8" y="-114" font-family="Helvetica,sans-Serif" font-size="10.00">GlobalRegistration</text>
<text text-anchor="middle" x="96" y="-103" font-family="Helvetica,sans-Serif" font-size="10.00">::MatchSuper4PCS::~MatchSuper4PCS</text>
</g>
<!-- Node2 -->
<g id="node2" class="node"><title>Node2</title>
<g id="a_node2"><a xlink:href="a04717.html#af672b4e105893166dace675ef3647245" target="_top" xlink:title="GlobalRegistration\l::PairCreationFunctor\l::getNormalizedEpsilon">
<polygon fill="white" stroke="black" points="241.5,-180.5 241.5,-221.5 359.5,-221.5 359.5,-180.5 241.5,-180.5"/>
<text text-anchor="start" x="249.5" y="-209.5" font-family="Helvetica,sans-Serif" font-size="10.00">GlobalRegistration</text>
<text text-anchor="start" x="249.5" y="-198.5" font-family="Helvetica,sans-Serif" font-size="10.00">::PairCreationFunctor</text>
<text text-anchor="middle" x="300.5" y="-187.5" font-family="Helvetica,sans-Serif" font-size="10.00">::getNormalizedEpsilon</text>
</a>
</g>
</g>
<!-- Node1&#45;&gt;Node2 -->
<g id="edge1" class="edge"><title>Node1&#45;&gt;Node2</title>
<path fill="none" stroke="midnightblue" d="M129.171,-126.085C155.61,-138.398 194.096,-156.128 228,-171 232.062,-172.782 236.264,-174.602 240.501,-176.422"/>
<polygon fill="midnightblue" stroke="midnightblue" points="239.222,-179.681 249.794,-180.387 241.97,-173.243 239.222,-179.681"/>
</g>
<!-- Node3 -->
<g id="node3" class="node"><title>Node3</title>
<g id="a_node3"><a xlink:href="a04673.html#a33214ce57b59b9a16c5ac6bca7145c54" target="_top" xlink:title="Add a new couple pos/normal, and its associated id. ">
<polygon fill="white" stroke="black" points="245.5,-120.5 245.5,-161.5 355.5,-161.5 355.5,-120.5 245.5,-120.5"/>
<text text-anchor="start" x="253.5" y="-149.5" font-family="Helvetica,sans-Serif" font-size="10.00">GlobalRegistration</text>
<text text-anchor="start" x="253.5" y="-138.5" font-family="Helvetica,sans-Serif" font-size="10.00">::IndexedNormalSet::</text>
<text text-anchor="middle" x="300.5" y="-127.5" font-family="Helvetica,sans-Serif" font-size="10.00">addElement</text>
</a>
</g>
</g>
<!-- Node1&#45;&gt;Node3 -->
<g id="edge2" class="edge"><title>Node1&#45;&gt;Node3</title>
<path fill="none" stroke="midnightblue" d="M192.024,-125.078C206.6,-127.237 221.348,-129.422 235.055,-131.453"/>
<polygon fill="midnightblue" stroke="midnightblue" points="234.909,-134.969 245.314,-132.972 235.935,-128.045 234.909,-134.969"/>
</g>
<!-- Node4 -->
<g id="node4" class="node"><title>Node4</title>
<g id="a_node4"><a xlink:href="a04673.html#a63eba7afc1b198dccc938aeabe0b398e" target="_top" xlink:title="Get closest points in euclidean space. ">
<polygon fill="white" stroke="black" points="245.5,-60.5 245.5,-101.5 355.5,-101.5 355.5,-60.5 245.5,-60.5"/>
<text text-anchor="start" x="253.5" y="-89.5" font-family="Helvetica,sans-Serif" font-size="10.00">GlobalRegistration</text>
<text text-anchor="start" x="253.5" y="-78.5" font-family="Helvetica,sans-Serif" font-size="10.00">::IndexedNormalSet::</text>
<text text-anchor="middle" x="300.5" y="-67.5" font-family="Helvetica,sans-Serif" font-size="10.00">getNeighbors</text>
</a>
</g>
</g>
<!-- Node1&#45;&gt;Node4 -->
<g id="edge3" class="edge"><title>Node1&#45;&gt;Node4</title>
<path fill="none" stroke="midnightblue" d="M192.024,-96.9223C206.6,-94.763 221.348,-92.578 235.055,-90.5474"/>
<polygon fill="midnightblue" stroke="midnightblue" points="235.935,-93.9554 245.314,-89.0276 234.909,-87.0309 235.935,-93.9554"/>
</g>
<!-- Node5 -->
<g id="node5" class="node"><title>Node5</title>
<g id="a_node5"><a xlink:href="a04681.html#a73faa4455d871392bb6367f210b921d4" target="_top" xlink:title="&lt; Process the extracted pairs ">
<polygon fill="white" stroke="black" points="228,-0.5 228,-41.5 373,-41.5 373,-0.5 228,-0.5"/>
<text text-anchor="start" x="236" y="-29.5" font-family="Helvetica,sans-Serif" font-size="10.00">GlobalRegistration</text>
<text text-anchor="start" x="236" y="-18.5" font-family="Helvetica,sans-Serif" font-size="10.00">::Accelerators::PairExtraction</text>
<text text-anchor="middle" x="300.5" y="-7.5" font-family="Helvetica,sans-Serif" font-size="10.00">::BruteForceFunctor::process</text>
</a>
</g>
</g>
<!-- Node1&#45;&gt;Node5 -->
<g id="edge4" class="edge"><title>Node1&#45;&gt;Node5</title>
<path fill="none" stroke="midnightblue" d="M129.171,-95.9149C155.61,-83.6022 194.096,-65.8723 228,-51 232.062,-49.218 236.264,-47.3977 240.501,-45.5784"/>
<polygon fill="midnightblue" stroke="midnightblue" points="241.97,-48.7569 249.794,-41.6128 239.222,-42.3187 241.97,-48.7569"/>
</g>
</g>
</svg>
