<?xml version="1.0" encoding="UTF-8" standalone="no"?>
<!DOCTYPE svg PUBLIC "-//W3C//DTD SVG 1.1//EN"
 "http://www.w3.org/Graphics/SVG/1.1/DTD/svg11.dtd">
<!-- Generated by graphviz version 2.38.0 (20140413.2041)
 -->
<!-- Title: GlobalRegistration::Match4PCS::~Match4PCS Pages: 1 -->
<svg width="336pt" height="296pt"
 viewBox="0.00 0.00 336.00 296.00" xmlns="http://www.w3.org/2000/svg" xmlns:xlink="http://www.w3.org/1999/xlink">
<g id="graph0" class="graph" transform="scale(1 1) rotate(0) translate(4 292)">
<title>GlobalRegistration::Match4PCS::~Match4PCS</title>
<polygon fill="white" stroke="none" points="-4,4 -4,-292 332,-292 332,4 -4,4"/>
<!-- Node1 -->
<g id="node1" class="node"><title>Node1</title>
<polygon fill="#bfbfbf" stroke="black" points="0,-125.5 0,-155.5 141,-155.5 141,-125.5 0,-125.5"/>
<text text-anchor="start" x="8" y="-143.5" font-family="Helvetica,sans-Serif" font-size="10.00">GlobalRegistration</text>
<text text-anchor="middle" x="70.5" y="-132.5" font-family="Helvetica,sans-Serif" font-size="10.00">::Match4PCS::~Match4PCS</text>
</g>
<!-- Node2 -->
<g id="node2" class="node"><title>Node2</title>
<g id="a_node2"><a xlink:href="a04638.html#a81bcdc0c30914894311c78396d3781c7" target="_top" xlink:title="Add a new vertex in the KdTree. ">
<polygon fill="white" stroke="black" points="204,-257.5 204,-287.5 301,-287.5 301,-257.5 204,-257.5"/>
<text text-anchor="start" x="212" y="-275.5" font-family="Helvetica,sans-Serif" font-size="10.00">GlobalRegistration</text>
<text text-anchor="middle" x="252.5" y="-264.5" font-family="Helvetica,sans-Serif" font-size="10.00">::KdTree::add</text>
</a>
</g>
</g>
<!-- Node1&#45;&gt;Node2 -->
<g id="edge1" class="edge"><title>Node1&#45;&gt;Node2</title>
<path fill="none" stroke="midnightblue" d="M82.3948,-155.678C99.8304,-178.911 136.217,-223.25 177,-248.5 182.383,-251.833 188.275,-254.748 194.311,-257.286"/>
<polygon fill="midnightblue" stroke="midnightblue" points="193.275,-260.638 203.864,-260.971 195.794,-254.107 193.275,-260.638"/>
</g>
<!-- Node3 -->
<g id="node3" class="node"><title>Node3</title>
<g id="a_node3"><a xlink:href="a04638.html#a6841c0418254813b75dd036a9e4e7c2b" target="_top" xlink:title="Finalize the creation of the KdTree. ">
<polygon fill="white" stroke="black" points="204,-208.5 204,-238.5 301,-238.5 301,-208.5 204,-208.5"/>
<text text-anchor="start" x="212" y="-226.5" font-family="Helvetica,sans-Serif" font-size="10.00">GlobalRegistration</text>
<text text-anchor="middle" x="252.5" y="-215.5" font-family="Helvetica,sans-Serif" font-size="10.00">::KdTree::finalize</text>
</a>
</g>
</g>
<!-- Node1&#45;&gt;Node3 -->
<g id="edge2" class="edge"><title>Node1&#45;&gt;Node3</title>
<path fill="none" stroke="midnightblue" d="M96.0158,-155.622C117.001,-168.162 148.287,-185.91 177,-198.5 182.443,-200.886 188.191,-203.185 193.982,-205.356"/>
<polygon fill="midnightblue" stroke="midnightblue" points="193.129,-208.769 203.723,-208.882 195.512,-202.187 193.129,-208.769"/>
</g>
<!-- Node4 -->
<g id="node4" class="node"><title>Node4</title>
<g id="a_node4"><a xlink:href="a04638.html#adb92b4dfbf31774c3a59de574e89abd7" target="_top" xlink:title="Performs distance query and return indices. ">
<polygon fill="white" stroke="black" points="177,-148 177,-189 328,-189 328,-148 177,-148"/>
<text text-anchor="start" x="185" y="-177" font-family="Helvetica,sans-Serif" font-size="10.00">GlobalRegistration</text>
<text text-anchor="start" x="185" y="-166" font-family="Helvetica,sans-Serif" font-size="10.00">::KdTree::doQueryDistProcess</text>
<text text-anchor="middle" x="252.5" y="-155" font-family="Helvetica,sans-Serif" font-size="10.00">Indices</text>
</a>
</g>
</g>
<!-- Node1&#45;&gt;Node4 -->
<g id="edge3" class="edge"><title>Node1&#45;&gt;Node4</title>
<path fill="none" stroke="midnightblue" d="M141.093,-151.326C149.483,-152.631 158.123,-153.975 166.701,-155.309"/>
<polygon fill="midnightblue" stroke="midnightblue" points="166.302,-158.789 176.721,-156.868 167.378,-151.872 166.302,-158.789"/>
</g>
<!-- Node5 -->
<g id="node5" class="node"><title>Node5</title>
<g id="a_node5"><a xlink:href="a04738.html#acd6175b6251a3fbf9e3e329ebfc58d06" target="_top" xlink:title="GlobalRegistration\l::Point3D::pos">
<polygon fill="white" stroke="black" points="204,-98.5 204,-128.5 301,-128.5 301,-98.5 204,-98.5"/>
<text text-anchor="start" x="212" y="-116.5" font-family="Helvetica,sans-Serif" font-size="10.00">GlobalRegistration</text>
<text text-anchor="middle" x="252.5" y="-105.5" font-family="Helvetica,sans-Serif" font-size="10.00">::Point3D::pos</text>
</a>
</g>
</g>
<!-- Node1&#45;&gt;Node5 -->
<g id="edge4" class="edge"><title>Node1&#45;&gt;Node5</title>
<path fill="none" stroke="midnightblue" d="M141.093,-130.061C158.461,-127.456 176.9,-124.69 193.633,-122.18"/>
<polygon fill="midnightblue" stroke="midnightblue" points="194.436,-125.599 203.806,-120.654 193.397,-118.676 194.436,-125.599"/>
</g>
<!-- Node6 -->
<g id="node6" class="node"><title>Node6</title>
<g id="a_node6"><a xlink:href="a04738.html#a09505dd544fdc8d8c3d2edc02e6abec7" target="_top" xlink:title="GlobalRegistration\l::Point3D::normal">
<polygon fill="white" stroke="black" points="204,-49.5 204,-79.5 301,-79.5 301,-49.5 204,-49.5"/>
<text text-anchor="start" x="212" y="-67.5" font-family="Helvetica,sans-Serif" font-size="10.00">GlobalRegistration</text>
<text text-anchor="middle" x="252.5" y="-56.5" font-family="Helvetica,sans-Serif" font-size="10.00">::Point3D::normal</text>
</a>
</g>
</g>
<!-- Node1&#45;&gt;Node6 -->
<g id="edge5" class="edge"><title>Node1&#45;&gt;Node6</title>
<path fill="none" stroke="midnightblue" d="M100.16,-125.426C121.13,-114.698 150.437,-100.327 177,-89.5 182.504,-87.2568 188.291,-85.0532 194.107,-82.9405"/>
<polygon fill="midnightblue" stroke="midnightblue" points="195.619,-86.1183 203.876,-79.4801 193.282,-79.52 195.619,-86.1183"/>
</g>
<!-- Node7 -->
<g id="node7" class="node"><title>Node7</title>
<g id="a_node7"><a xlink:href="a04738.html#aea3ed1eb4ea38cbd76fb8db3e15270e7" target="_top" xlink:title="GlobalRegistration\l::Point3D::rgb">
<polygon fill="white" stroke="black" points="204,-0.5 204,-30.5 301,-30.5 301,-0.5 204,-0.5"/>
<text text-anchor="start" x="212" y="-18.5" font-family="Helvetica,sans-Serif" font-size="10.00">GlobalRegistration</text>
<text text-anchor="middle" x="252.5" y="-7.5" font-family="Helvetica,sans-Serif" font-size="10.00">::Point3D::rgb</text>
</a>
</g>
</g>
<!-- Node1&#45;&gt;Node7 -->
<g id="edge6" class="edge"><title>Node1&#45;&gt;Node7</title>
<path fill="none" stroke="midnightblue" d="M83.5795,-125.48C101.725,-103.833 138.066,-63.9018 177,-40.5 182.372,-37.2714 188.214,-34.3964 194.186,-31.8523"/>
<polygon fill="midnightblue" stroke="midnightblue" points="195.612,-35.0521 203.627,-28.1232 193.041,-28.5416 195.612,-35.0521"/>
</g>
</g>
</svg>
