<?xml version="1.0" encoding="UTF-8" standalone="no"?>
<!DOCTYPE svg PUBLIC "-//W3C//DTD SVG 1.1//EN"
 "http://www.w3.org/Graphics/SVG/1.1/DTD/svg11.dtd">
<!-- Generated by graphviz version 2.38.0 (20140413.2041)
 -->
<!-- Title: GlobalRegistration::Match4PCSBase::ComputeTransformation Pages: 1 -->
<svg width="369pt" height="160pt"
 viewBox="0.00 0.00 369.00 160.00" xmlns="http://www.w3.org/2000/svg" xmlns:xlink="http://www.w3.org/1999/xlink">
<g id="graph0" class="graph" transform="scale(1 1) rotate(0) translate(4 156)">
<title>GlobalRegistration::Match4PCSBase::ComputeTransformation</title>
<polygon fill="white" stroke="none" points="-4,4 -4,-156 365,-156 365,4 -4,4"/>
<!-- Node2 -->
<g id="node1" class="node"><title>Node2</title>
<polygon fill="#bfbfbf" stroke="black" points="0,-61 0,-91 209,-91 209,-61 0,-61"/>
<text text-anchor="start" x="8" y="-79" font-family="Helvetica,sans-Serif" font-size="10.00">GlobalRegistration</text>
<text text-anchor="middle" x="104.5" y="-68" font-family="Helvetica,sans-Serif" font-size="10.00">::Match4PCSBase::ComputeTransformation</text>
</g>
<!-- Node3 -->
<g id="node2" class="node"><title>Node3</title>
<g id="a_node2"><a xlink:href="a04743.html#a91b3ac4a47f82c2c2ff8ecd0bbd43c2b" target="_top" xlink:title="GlobalRegistration\l::Match4PCSOptions::\lgetOverlapEstimation">
<polygon fill="white" stroke="black" points="245,-110.5 245,-151.5 361,-151.5 361,-110.5 245,-110.5"/>
<text text-anchor="start" x="253" y="-139.5" font-family="Helvetica,sans-Serif" font-size="10.00">GlobalRegistration</text>
<text text-anchor="start" x="253" y="-128.5" font-family="Helvetica,sans-Serif" font-size="10.00">::Match4PCSOptions::</text>
<text text-anchor="middle" x="303" y="-117.5" font-family="Helvetica,sans-Serif" font-size="10.00">getOverlapEstimation</text>
</a>
</g>
</g>
<!-- Node2&#45;&gt;Node3 -->
<g id="edge1" class="edge"><title>Node2&#45;&gt;Node3</title>
<path fill="none" stroke="midnightblue" d="M159.194,-91.029C182.669,-97.5993 210.448,-105.375 235.237,-112.313"/>
<polygon fill="midnightblue" stroke="midnightblue" points="234.36,-115.702 244.933,-115.027 236.247,-108.961 234.36,-115.702"/>
</g>
<!-- Node4 -->
<g id="node3" class="node"><title>Node4</title>
<g id="a_node3"><a xlink:href="a04735.html#acd6175b6251a3fbf9e3e329ebfc58d06" target="_top" xlink:title="GlobalRegistration\l::Point3D::pos">
<polygon fill="white" stroke="black" points="254.5,-61 254.5,-91 351.5,-91 351.5,-61 254.5,-61"/>
<text text-anchor="start" x="262.5" y="-79" font-family="Helvetica,sans-Serif" font-size="10.00">GlobalRegistration</text>
<text text-anchor="middle" x="303" y="-68" font-family="Helvetica,sans-Serif" font-size="10.00">::Point3D::pos</text>
</a>
</g>
</g>
<!-- Node2&#45;&gt;Node4 -->
<g id="edge2" class="edge"><title>Node2&#45;&gt;Node4</title>
<path fill="none" stroke="midnightblue" d="M209.216,-76C221.102,-76 232.881,-76 243.854,-76"/>
<polygon fill="midnightblue" stroke="midnightblue" points="244.104,-79.5001 254.104,-76 244.104,-72.5001 244.104,-79.5001"/>
</g>
<!-- Node5 -->
<g id="node4" class="node"><title>Node5</title>
<g id="a_node4"><a xlink:href="a04743.html#a1662893334239560ac536fd6bb44f71c" target="_top" xlink:title="GlobalRegistration\l::Match4PCSOptions::\lgetTerminateThreshold">
<polygon fill="white" stroke="black" points="245,-0.5 245,-41.5 361,-41.5 361,-0.5 245,-0.5"/>
<text text-anchor="start" x="253" y="-29.5" font-family="Helvetica,sans-Serif" font-size="10.00">GlobalRegistration</text>
<text text-anchor="start" x="253" y="-18.5" font-family="Helvetica,sans-Serif" font-size="10.00">::Match4PCSOptions::</text>
<text text-anchor="middle" x="303" y="-7.5" font-family="Helvetica,sans-Serif" font-size="10.00">getTerminateThreshold</text>
</a>
</g>
</g>
<!-- Node2&#45;&gt;Node5 -->
<g id="edge3" class="edge"><title>Node2&#45;&gt;Node5</title>
<path fill="none" stroke="midnightblue" d="M159.194,-60.971C182.669,-54.4007 210.448,-46.6253 235.237,-39.687"/>
<polygon fill="midnightblue" stroke="midnightblue" points="236.247,-43.0388 244.933,-36.9729 234.36,-36.2979 236.247,-43.0388"/>
</g>
</g>
</svg>
