<?xml version="1.0" encoding="UTF-8" standalone="no"?>
<!DOCTYPE svg PUBLIC "-//W3C//DTD SVG 1.1//EN"
 "http://www.w3.org/Graphics/SVG/1.1/DTD/svg11.dtd">
<!-- Generated by graphviz version 2.38.0 (20140413.2041)
 -->
<!-- Title: GlobalRegistration::Point3D::Point3D Pages: 1 -->
<svg width="240pt" height="88pt"
 viewBox="0.00 0.00 240.00 88.00" xmlns="http://www.w3.org/2000/svg" xmlns:xlink="http://www.w3.org/1999/xlink">
<g id="graph0" class="graph" transform="scale(1 1) rotate(0) translate(4 84)">
<title>GlobalRegistration::Point3D::Point3D</title>
<polygon fill="white" stroke="none" points="-4,4 -4,-84 236,-84 236,4 -4,4"/>
<!-- Node0 -->
<g id="node1" class="node"><title>Node0</title>
<polygon fill="#bfbfbf" stroke="black" points="0,-24.5 0,-54.5 99,-54.5 99,-24.5 0,-24.5"/>
<text text-anchor="start" x="8" y="-42.5" font-family="Helvetica,sans-Serif" font-size="10.00">GlobalRegistration</text>
<text text-anchor="middle" x="49.5" y="-31.5" font-family="Helvetica,sans-Serif" font-size="10.00">::Point3D::Point3D</text>
</g>
<!-- Node1 -->
<g id="node2" class="node"><title>Node1</title>
<g id="a_node2"><a xlink:href="a04738.html#a5045e2b156b9c70042f67a03f2f33102" target="_top" xlink:title="GlobalRegistration\l::Point3D::x">
<polygon fill="white" stroke="black" points="135,-49.5 135,-79.5 232,-79.5 232,-49.5 135,-49.5"/>
<text text-anchor="start" x="143" y="-67.5" font-family="Helvetica,sans-Serif" font-size="10.00">GlobalRegistration</text>
<text text-anchor="middle" x="183.5" y="-56.5" font-family="Helvetica,sans-Serif" font-size="10.00">::Point3D::x</text>
</a>
</g>
</g>
<!-- Node0&#45;&gt;Node1 -->
<g id="edge1" class="edge"><title>Node0&#45;&gt;Node1</title>
<path fill="none" stroke="midnightblue" d="M99.2769,-48.738C107.617,-50.3176 116.352,-51.9719 124.896,-53.5901"/>
<polygon fill="midnightblue" stroke="midnightblue" points="124.326,-57.0443 134.803,-55.4664 125.629,-50.1666 124.326,-57.0443"/>
</g>
<!-- Node2 -->
<g id="node3" class="node"><title>Node2</title>
<g id="a_node3"><a xlink:href="a04738.html#afda4bde657b8db9bd6ccd74e2c4adf8a" target="_top" xlink:title="GlobalRegistration\l::Point3D::y">
<polygon fill="white" stroke="black" points="135,-0.5 135,-30.5 232,-30.5 232,-0.5 135,-0.5"/>
<text text-anchor="start" x="143" y="-18.5" font-family="Helvetica,sans-Serif" font-size="10.00">GlobalRegistration</text>
<text text-anchor="middle" x="183.5" y="-7.5" font-family="Helvetica,sans-Serif" font-size="10.00">::Point3D::y</text>
</a>
</g>
</g>
<!-- Node0&#45;&gt;Node2 -->
<g id="edge2" class="edge"><title>Node0&#45;&gt;Node2</title>
<path fill="none" stroke="midnightblue" d="M99.2769,-30.6315C107.617,-29.1151 116.352,-27.527 124.896,-25.9735"/>
<polygon fill="midnightblue" stroke="midnightblue" points="125.59,-29.4047 134.803,-24.1722 124.338,-22.5176 125.59,-29.4047"/>
</g>
</g>
</svg>
