<?xml version="1.0" encoding="UTF-8" standalone="no"?>
<!DOCTYPE svg PUBLIC "-//W3C//DTD SVG 1.1//EN"
 "http://www.w3.org/Graphics/SVG/1.1/DTD/svg11.dtd">
<!-- Generated by graphviz version 2.38.0 (20140413.2041)
 -->
<!-- Title: GlobalRegistration::Quadrilateral Pages: 1 -->
<svg width="146pt" height="436pt"
 viewBox="0.00 0.00 145.50 436.00" xmlns="http://www.w3.org/2000/svg" xmlns:xlink="http://www.w3.org/1999/xlink">
<g id="graph0" class="graph" transform="scale(1 1) rotate(0) translate(4 432)">
<title>GlobalRegistration::Quadrilateral</title>
<polygon fill="white" stroke="none" points="-4,4 -4,-432 141.5,-432 141.5,4 -4,4"/>
<!-- Node1 -->
<g id="node1" class="node"><title>Node1</title>
<polygon fill="#bfbfbf" stroke="black" points="2,-0.5 2,-112.5 99,-112.5 99,-0.5 2,-0.5"/>
<text text-anchor="start" x="10" y="-100.5" font-family="Helvetica,sans-Serif" font-size="10.00">GlobalRegistration</text>
<text text-anchor="middle" x="50.5" y="-89.5" font-family="Helvetica,sans-Serif" font-size="10.00">::Quadrilateral</text>
<polyline fill="none" stroke="black" points="2,-82.5 99,-82.5 "/>
<text text-anchor="middle" x="50.5" y="-70.5" font-family="Helvetica,sans-Serif" font-size="10.00"> </text>
<polyline fill="none" stroke="black" points="2,-63.5 99,-63.5 "/>
<text text-anchor="start" x="10" y="-51.5" font-family="Helvetica,sans-Serif" font-size="10.00">+ Quadrilateral()</text>
<text text-anchor="start" x="10" y="-40.5" font-family="Helvetica,sans-Serif" font-size="10.00">+ operator&lt;()</text>
<text text-anchor="start" x="10" y="-29.5" font-family="Helvetica,sans-Serif" font-size="10.00">+ operator==()</text>
<text text-anchor="start" x="10" y="-18.5" font-family="Helvetica,sans-Serif" font-size="10.00">+ operator[]()</text>
<text text-anchor="start" x="10" y="-7.5" font-family="Helvetica,sans-Serif" font-size="10.00">+ operator[]()</text>
</g>
<!-- Node2 -->
<g id="node2" class="node"><title>Node2</title>
<polygon fill="white" stroke="#bfbfbf" points="1.5,-160.5 1.5,-217.5 99.5,-217.5 99.5,-160.5 1.5,-160.5"/>
<text text-anchor="middle" x="50.5" y="-205.5" font-family="Helvetica,sans-Serif" font-size="10.00">std::array&lt; int, 4 &gt;</text>
<polyline fill="none" stroke="#bfbfbf" points="1.5,-198.5 99.5,-198.5 "/>
<text text-anchor="middle" x="50.5" y="-186.5" font-family="Helvetica,sans-Serif" font-size="10.00"> </text>
<polyline fill="none" stroke="#bfbfbf" points="1.5,-179.5 99.5,-179.5 "/>
<text text-anchor="middle" x="50.5" y="-167.5" font-family="Helvetica,sans-Serif" font-size="10.00"> </text>
</g>
<!-- Node2&#45;&gt;Node1 -->
<g id="edge1" class="edge"><title>Node2&#45;&gt;Node1</title>
<path fill="none" stroke="#404040" d="M50.5,-160.324C50.5,-149.778 50.5,-137.246 50.5,-124.62"/>
<polygon fill="none" stroke="#404040" points="50.5001,-124.548 46.5,-118.548 50.5,-112.548 54.5,-118.548 50.5001,-124.548"/>
<text text-anchor="middle" x="72.5" y="-134" font-family="Helvetica,sans-Serif" font-size="10.00"> +vertices</text>
</g>
<!-- Node3 -->
<g id="node3" class="node"><title>Node3</title>
<polygon fill="white" stroke="#bfbfbf" points="0,-265.5 0,-322.5 29,-322.5 29,-265.5 0,-265.5"/>
<text text-anchor="middle" x="14.5" y="-310.5" font-family="Helvetica,sans-Serif" font-size="10.00">int</text>
<polyline fill="none" stroke="#bfbfbf" points="0,-303.5 29,-303.5 "/>
<text text-anchor="middle" x="14.5" y="-291.5" font-family="Helvetica,sans-Serif" font-size="10.00"> </text>
<polyline fill="none" stroke="#bfbfbf" points="0,-284.5 29,-284.5 "/>
<text text-anchor="middle" x="14.5" y="-272.5" font-family="Helvetica,sans-Serif" font-size="10.00"> </text>
</g>
<!-- Node3&#45;&gt;Node2 -->
<g id="edge2" class="edge"><title>Node3&#45;&gt;Node2</title>
<path fill="none" stroke="#404040" d="M12.1892,-265.423C12.2388,-255.877 13.2698,-245.255 16.5,-236 17.4388,-233.31 18.5941,-230.646 19.9056,-228.034"/>
<polygon fill="none" stroke="#404040" points="19.9224,-228.006 19.5279,-220.805 26.0225,-217.672 26.4171,-224.872 19.9224,-228.006"/>
<text text-anchor="middle" x="41" y="-239" font-family="Helvetica,sans-Serif" font-size="10.00"> +elements</text>
</g>
<!-- Node4 -->
<g id="node4" class="node"><title>Node4</title>
<g id="a_node4"><a xlink:title="STL class. ">
<polygon fill="white" stroke="#bfbfbf" points="47.5,-265.5 47.5,-322.5 129.5,-322.5 129.5,-265.5 47.5,-265.5"/>
<text text-anchor="middle" x="88.5" y="-310.5" font-family="Helvetica,sans-Serif" font-size="10.00">std::array&lt; T &gt;</text>
<polyline fill="none" stroke="#bfbfbf" points="47.5,-303.5 129.5,-303.5 "/>
<text text-anchor="middle" x="88.5" y="-291.5" font-family="Helvetica,sans-Serif" font-size="10.00"> </text>
<polyline fill="none" stroke="#bfbfbf" points="47.5,-284.5 129.5,-284.5 "/>
<text text-anchor="middle" x="88.5" y="-272.5" font-family="Helvetica,sans-Serif" font-size="10.00"> </text>
</a>
</g>
</g>
<!-- Node4&#45;&gt;Node2 -->
<g id="edge3" class="edge"><title>Node4&#45;&gt;Node2</title>
<path fill="none" stroke="orange" d="M74.7237,-255.659C70.0946,-243.112 65.0169,-229.348 60.7114,-217.678"/>
<polygon fill="orange" stroke="orange" points="71.5717,-257.227 78.3167,-265.398 78.139,-254.805 71.5717,-257.227"/>
<text text-anchor="middle" x="93" y="-239" font-family="Helvetica,sans-Serif" font-size="10.00"> &lt; int, 4 &gt;</text>
</g>
<!-- Node5 -->
<g id="node5" class="node"><title>Node5</title>
<polygon fill="white" stroke="#bfbfbf" points="74,-370.5 74,-427.5 103,-427.5 103,-370.5 74,-370.5"/>
<text text-anchor="middle" x="88.5" y="-415.5" font-family="Helvetica,sans-Serif" font-size="10.00">T</text>
<polyline fill="none" stroke="#bfbfbf" points="74,-408.5 103,-408.5 "/>
<text text-anchor="middle" x="88.5" y="-396.5" font-family="Helvetica,sans-Serif" font-size="10.00"> </text>
<polyline fill="none" stroke="#bfbfbf" points="74,-389.5 103,-389.5 "/>
<text text-anchor="middle" x="88.5" y="-377.5" font-family="Helvetica,sans-Serif" font-size="10.00"> </text>
</g>
<!-- Node5&#45;&gt;Node4 -->
<g id="edge4" class="edge"><title>Node5&#45;&gt;Node4</title>
<path fill="none" stroke="#404040" d="M88.5,-370.398C88.5,-359.545 88.5,-346.873 88.5,-335.049"/>
<polygon fill="none" stroke="#404040" points="88.5001,-334.678 84.5,-328.678 88.5,-322.678 92.5,-328.678 88.5001,-334.678"/>
<text text-anchor="middle" x="113" y="-344" font-family="Helvetica,sans-Serif" font-size="10.00"> +elements</text>
</g>
</g>
</svg>
