<?xml version="1.0" encoding="UTF-8" standalone="no"?>
<!DOCTYPE svg PUBLIC "-//W3C//DTD SVG 1.1//EN"
 "http://www.w3.org/Graphics/SVG/1.1/DTD/svg11.dtd">
<!-- Generated by graphviz version 2.38.0 (20140413.2041)
 -->
<!-- Title: GlobalRegistration::Match4PCSBase::getSecondSampled Pages: 1 -->
<svg width="556pt" height="160pt"
 viewBox="0.00 0.00 556.00 160.00" xmlns="http://www.w3.org/2000/svg" xmlns:xlink="http://www.w3.org/1999/xlink">
<g id="graph0" class="graph" transform="scale(1 1) rotate(0) translate(4 156)">
<title>GlobalRegistration::Match4PCSBase::getSecondSampled</title>
<polygon fill="white" stroke="none" points="-4,4 -4,-156 552,-156 552,4 -4,4"/>
<!-- Node7 -->
<g id="node1" class="node"><title>Node7</title>
<polygon fill="#bfbfbf" stroke="black" points="0,-30.5 0,-71.5 151,-71.5 151,-30.5 0,-30.5"/>
<text text-anchor="start" x="8" y="-59.5" font-family="Helvetica,sans-Serif" font-size="10.00">GlobalRegistration</text>
<text text-anchor="start" x="8" y="-48.5" font-family="Helvetica,sans-Serif" font-size="10.00">::Match4PCSBase::getSecond</text>
<text text-anchor="middle" x="75.5" y="-37.5" font-family="Helvetica,sans-Serif" font-size="10.00">Sampled</text>
</g>
<!-- Node8 -->
<g id="node2" class="node"><title>Node8</title>
<g id="a_node2"><a xlink:href="a04703.html#a75c9ca6da4d064f8484e432b7f795b8c" target="_top" xlink:title="Computes an approximation of the best LCP (directional) from Q to P and the rigid transformation that...">
<polygon fill="white" stroke="black" points="187,-61 187,-91 396,-91 396,-61 187,-61"/>
<text text-anchor="start" x="195" y="-79" font-family="Helvetica,sans-Serif" font-size="10.00">GlobalRegistration</text>
<text text-anchor="middle" x="291.5" y="-68" font-family="Helvetica,sans-Serif" font-size="10.00">::Match4PCSBase::ComputeTransformation</text>
</a>
</g>
</g>
<!-- Node7&#45;&gt;Node8 -->
<g id="edge1" class="edge"><title>Node7&#45;&gt;Node8</title>
<path fill="none" stroke="midnightblue" d="M151.046,-59.7087C159.37,-60.681 167.982,-61.6872 176.655,-62.7003"/>
<polygon fill="midnightblue" stroke="midnightblue" points="176.511,-66.2073 186.85,-63.8913 177.323,-59.2546 176.511,-66.2073"/>
</g>
<!-- Node12 -->
<g id="node6" class="node"><title>Node12</title>
<g id="a_node6"><a xlink:href="a04747.html#a80be1cf2fd1833a5062f0699e40fc396" target="_top" xlink:title="GlobalRegistration\l::Utils::Logger::Log">
<polygon fill="white" stroke="black" points="241.5,-12 241.5,-42 341.5,-42 341.5,-12 241.5,-12"/>
<text text-anchor="start" x="249.5" y="-30" font-family="Helvetica,sans-Serif" font-size="10.00">GlobalRegistration</text>
<text text-anchor="middle" x="291.5" y="-19" font-family="Helvetica,sans-Serif" font-size="10.00">::Utils::Logger::Log</text>
</a>
</g>
</g>
<!-- Node7&#45;&gt;Node12 -->
<g id="edge5" class="edge"><title>Node7&#45;&gt;Node12</title>
<path fill="none" stroke="midnightblue" d="M151.046,-42.6397C177.339,-39.691 206.519,-36.4184 231.363,-33.6322"/>
<polygon fill="midnightblue" stroke="midnightblue" points="231.819,-37.1031 241.366,-32.5103 231.039,-30.1467 231.819,-37.1031"/>
</g>
<!-- Node9 -->
<g id="node3" class="node"><title>Node9</title>
<g id="a_node3"><a xlink:href="a04743.html#a91b3ac4a47f82c2c2ff8ecd0bbd43c2b" target="_top" xlink:title="GlobalRegistration\l::Match4PCSOptions::\lgetOverlapEstimation">
<polygon fill="white" stroke="black" points="432,-110.5 432,-151.5 548,-151.5 548,-110.5 432,-110.5"/>
<text text-anchor="start" x="440" y="-139.5" font-family="Helvetica,sans-Serif" font-size="10.00">GlobalRegistration</text>
<text text-anchor="start" x="440" y="-128.5" font-family="Helvetica,sans-Serif" font-size="10.00">::Match4PCSOptions::</text>
<text text-anchor="middle" x="490" y="-117.5" font-family="Helvetica,sans-Serif" font-size="10.00">getOverlapEstimation</text>
</a>
</g>
</g>
<!-- Node8&#45;&gt;Node9 -->
<g id="edge2" class="edge"><title>Node8&#45;&gt;Node9</title>
<path fill="none" stroke="midnightblue" d="M346.194,-91.029C369.669,-97.5993 397.448,-105.375 422.237,-112.313"/>
<polygon fill="midnightblue" stroke="midnightblue" points="421.36,-115.702 431.933,-115.027 423.247,-108.961 421.36,-115.702"/>
</g>
<!-- Node10 -->
<g id="node4" class="node"><title>Node10</title>
<g id="a_node4"><a xlink:href="a04735.html#acd6175b6251a3fbf9e3e329ebfc58d06" target="_top" xlink:title="GlobalRegistration\l::Point3D::pos">
<polygon fill="white" stroke="black" points="441.5,-61 441.5,-91 538.5,-91 538.5,-61 441.5,-61"/>
<text text-anchor="start" x="449.5" y="-79" font-family="Helvetica,sans-Serif" font-size="10.00">GlobalRegistration</text>
<text text-anchor="middle" x="490" y="-68" font-family="Helvetica,sans-Serif" font-size="10.00">::Point3D::pos</text>
</a>
</g>
</g>
<!-- Node8&#45;&gt;Node10 -->
<g id="edge3" class="edge"><title>Node8&#45;&gt;Node10</title>
<path fill="none" stroke="midnightblue" d="M396.216,-76C408.102,-76 419.881,-76 430.854,-76"/>
<polygon fill="midnightblue" stroke="midnightblue" points="431.104,-79.5001 441.104,-76 431.104,-72.5001 431.104,-79.5001"/>
</g>
<!-- Node11 -->
<g id="node5" class="node"><title>Node11</title>
<g id="a_node5"><a xlink:href="a04743.html#a1662893334239560ac536fd6bb44f71c" target="_top" xlink:title="GlobalRegistration\l::Match4PCSOptions::\lgetTerminateThreshold">
<polygon fill="white" stroke="black" points="432,-0.5 432,-41.5 548,-41.5 548,-0.5 432,-0.5"/>
<text text-anchor="start" x="440" y="-29.5" font-family="Helvetica,sans-Serif" font-size="10.00">GlobalRegistration</text>
<text text-anchor="start" x="440" y="-18.5" font-family="Helvetica,sans-Serif" font-size="10.00">::Match4PCSOptions::</text>
<text text-anchor="middle" x="490" y="-7.5" font-family="Helvetica,sans-Serif" font-size="10.00">getTerminateThreshold</text>
</a>
</g>
</g>
<!-- Node8&#45;&gt;Node11 -->
<g id="edge4" class="edge"><title>Node8&#45;&gt;Node11</title>
<path fill="none" stroke="midnightblue" d="M361.487,-60.9549C373.057,-58.1597 384.904,-55.1283 396,-52 404.45,-49.6176 413.271,-46.9366 421.97,-44.174"/>
<polygon fill="midnightblue" stroke="midnightblue" points="423.27,-47.4322 431.714,-41.032 421.122,-40.7701 423.27,-47.4322"/>
</g>
</g>
</svg>
