<?xml version="1.0" encoding="UTF-8" standalone="no"?>
<!DOCTYPE svg PUBLIC "-//W3C//DTD SVG 1.1//EN"
 "http://www.w3.org/Graphics/SVG/1.1/DTD/svg11.dtd">
<!-- Generated by graphviz version 2.38.0 (20140413.2041)
 -->
<!-- Title: GlobalRegistration::Match4PCSBase Pages: 1 -->
<svg width="240pt" height="248pt"
 viewBox="0.00 0.00 239.50 248.00" xmlns="http://www.w3.org/2000/svg" xmlns:xlink="http://www.w3.org/1999/xlink">
<g id="graph0" class="graph" transform="scale(1 1) rotate(0) translate(4 244)">
<title>GlobalRegistration::Match4PCSBase</title>
<polygon fill="white" stroke="none" points="-4,4 -4,-244 235.5,-244 235.5,4 -4,4"/>
<!-- Node0 -->
<g id="node1" class="node"><title>Node0</title>
<polygon fill="#bfbfbf" stroke="black" points="40.5,-116.5 40.5,-239.5 180.5,-239.5 180.5,-116.5 40.5,-116.5"/>
<text text-anchor="start" x="48.5" y="-227.5" font-family="Helvetica,sans-Serif" font-size="10.00">GlobalRegistration</text>
<text text-anchor="middle" x="110.5" y="-216.5" font-family="Helvetica,sans-Serif" font-size="10.00">::Match4PCSBase</text>
<polyline fill="none" stroke="black" points="40.5,-209.5 180.5,-209.5 "/>
<text text-anchor="start" x="48.5" y="-197.5" font-family="Helvetica,sans-Serif" font-size="10.00">+ kNumberOfDiameterTrials</text>
<text text-anchor="start" x="48.5" y="-186.5" font-family="Helvetica,sans-Serif" font-size="10.00">+ kLargeNumber</text>
<text text-anchor="start" x="48.5" y="-175.5" font-family="Helvetica,sans-Serif" font-size="10.00">+ distance_factor</text>
<polyline fill="none" stroke="black" points="40.5,-168.5 180.5,-168.5 "/>
<text text-anchor="start" x="48.5" y="-156.5" font-family="Helvetica,sans-Serif" font-size="10.00">+ ~Match4PCSBase()</text>
<text text-anchor="start" x="48.5" y="-145.5" font-family="Helvetica,sans-Serif" font-size="10.00">+ getFirstSampled()</text>
<text text-anchor="start" x="48.5" y="-134.5" font-family="Helvetica,sans-Serif" font-size="10.00">+ getSecondSampled()</text>
<text text-anchor="start" x="48.5" y="-123.5" font-family="Helvetica,sans-Serif" font-size="10.00">+ ComputeTransformation()</text>
</g>
<!-- Node1 -->
<g id="node2" class="node"><title>Node1</title>
<g id="a_node2"><a xlink:href="a04705.html" target="_top" xlink:title="Class for the computation of the 4PCS algorithm. ">
<polygon fill="white" stroke="black" points="0,-0.5 0,-79.5 97,-79.5 97,-0.5 0,-0.5"/>
<text text-anchor="start" x="8" y="-67.5" font-family="Helvetica,sans-Serif" font-size="10.00">GlobalRegistration</text>
<text text-anchor="middle" x="48.5" y="-56.5" font-family="Helvetica,sans-Serif" font-size="10.00">::Match4PCS</text>
<polyline fill="none" stroke="black" points="0,-49.5 97,-49.5 "/>
<text text-anchor="middle" x="48.5" y="-37.5" font-family="Helvetica,sans-Serif" font-size="10.00"> </text>
<polyline fill="none" stroke="black" points="0,-30.5 97,-30.5 "/>
<text text-anchor="start" x="8" y="-18.5" font-family="Helvetica,sans-Serif" font-size="10.00">+ Match4PCS()</text>
<text text-anchor="start" x="8" y="-7.5" font-family="Helvetica,sans-Serif" font-size="10.00">+ ~Match4PCS()</text>
</a>
</g>
</g>
<!-- Node0&#45;&gt;Node1 -->
<g id="edge1" class="edge"><title>Node0&#45;&gt;Node1</title>
<path fill="none" stroke="midnightblue" d="M78.4926,-106.79C74.2176,-97.4127 69.9681,-88.0913 66.0698,-79.5403"/>
<polygon fill="none" stroke="midnightblue" points="75.4313,-108.513 82.7641,-116.16 81.8007,-105.609 75.4313,-108.513"/>
</g>
<!-- Node2 -->
<g id="node3" class="node"><title>Node2</title>
<g id="a_node3"><a xlink:href="a04721.html" target="_top" xlink:title="Class for the computation of the 4PCS algorithm. ">
<polygon fill="white" stroke="black" points="115.5,-0.5 115.5,-79.5 231.5,-79.5 231.5,-0.5 115.5,-0.5"/>
<text text-anchor="start" x="123.5" y="-67.5" font-family="Helvetica,sans-Serif" font-size="10.00">GlobalRegistration</text>
<text text-anchor="middle" x="173.5" y="-56.5" font-family="Helvetica,sans-Serif" font-size="10.00">::MatchSuper4PCS</text>
<polyline fill="none" stroke="black" points="115.5,-49.5 231.5,-49.5 "/>
<text text-anchor="middle" x="173.5" y="-37.5" font-family="Helvetica,sans-Serif" font-size="10.00"> </text>
<polyline fill="none" stroke="black" points="115.5,-30.5 231.5,-30.5 "/>
<text text-anchor="start" x="123.5" y="-18.5" font-family="Helvetica,sans-Serif" font-size="10.00">+ MatchSuper4PCS()</text>
<text text-anchor="start" x="123.5" y="-7.5" font-family="Helvetica,sans-Serif" font-size="10.00">+ ~MatchSuper4PCS()</text>
</a>
</g>
</g>
<!-- Node0&#45;&gt;Node2 -->
<g id="edge2" class="edge"><title>Node0&#45;&gt;Node2</title>
<path fill="none" stroke="midnightblue" d="M142.888,-107.083C147.278,-97.607 151.644,-88.1803 155.647,-79.5403"/>
<polygon fill="none" stroke="midnightblue" points="139.711,-105.615 138.683,-116.16 146.062,-108.557 139.711,-105.615"/>
</g>
</g>
</svg>
