<?xml version="1.0" encoding="UTF-8" standalone="no"?>
<!DOCTYPE svg PUBLIC "-//W3C//DTD SVG 1.1//EN"
 "http://www.w3.org/Graphics/SVG/1.1/DTD/svg11.dtd">
<!-- Generated by graphviz version 2.38.0 (20140413.2041)
 -->
<!-- Title: GlobalRegistration::Match4PCSBase::~Match4PCSBase Pages: 1 -->
<svg width="327pt" height="39pt"
 viewBox="0.00 0.00 327.00 39.00" xmlns="http://www.w3.org/2000/svg" xmlns:xlink="http://www.w3.org/1999/xlink">
<g id="graph0" class="graph" transform="scale(1 1) rotate(0) translate(4 35)">
<title>GlobalRegistration::Match4PCSBase::~Match4PCSBase</title>
<polygon fill="white" stroke="none" points="-4,4 -4,-35 323,-35 323,4 -4,4"/>
<!-- Node0 -->
<g id="node1" class="node"><title>Node0</title>
<polygon fill="#bfbfbf" stroke="black" points="-2.84217e-14,-0.5 -2.84217e-14,-30.5 186,-30.5 186,-0.5 -2.84217e-14,-0.5"/>
<text text-anchor="start" x="8" y="-18.5" font-family="Helvetica,sans-Serif" font-size="10.00">GlobalRegistration</text>
<text text-anchor="middle" x="93" y="-7.5" font-family="Helvetica,sans-Serif" font-size="10.00">::Match4PCSBase::~Match4PCSBase</text>
</g>
<!-- Node1 -->
<g id="node2" class="node"><title>Node1</title>
<g id="a_node2"><a xlink:href="a04638.html#a81bcdc0c30914894311c78396d3781c7" target="_top" xlink:title="Add a new vertex in the KdTree. ">
<polygon fill="white" stroke="black" points="222,-0.5 222,-30.5 319,-30.5 319,-0.5 222,-0.5"/>
<text text-anchor="start" x="230" y="-18.5" font-family="Helvetica,sans-Serif" font-size="10.00">GlobalRegistration</text>
<text text-anchor="middle" x="270.5" y="-7.5" font-family="Helvetica,sans-Serif" font-size="10.00">::KdTree::add</text>
</a>
</g>
</g>
<!-- Node0&#45;&gt;Node1 -->
<g id="edge1" class="edge"><title>Node0&#45;&gt;Node1</title>
<path fill="none" stroke="midnightblue" d="M186.119,-15.5C194.731,-15.5 203.286,-15.5 211.453,-15.5"/>
<polygon fill="midnightblue" stroke="midnightblue" points="211.564,-19.0001 221.564,-15.5 211.564,-12.0001 211.564,-19.0001"/>
</g>
</g>
</svg>
