<?xml version="1.0" encoding="UTF-8" standalone="no"?>
<!DOCTYPE svg PUBLIC "-//W3C//DTD SVG 1.1//EN"
 "http://www.w3.org/Graphics/SVG/1.1/DTD/svg11.dtd">
<!-- Generated by graphviz version 2.38.0 (20140413.2041)
 -->
<!-- Title: QObject Pages: 1 -->
<svg width="132pt" height="160pt"
 viewBox="0.00 0.00 132.00 160.00" xmlns="http://www.w3.org/2000/svg" xmlns:xlink="http://www.w3.org/1999/xlink">
<g id="graph0" class="graph" transform="scale(1 1) rotate(0) translate(4 156)">
<title>QObject</title>
<polygon fill="white" stroke="none" points="-4,4 -4,-156 128,-156 128,4 -4,4"/>
<!-- Node0 -->
<g id="node1" class="node"><title>Node0</title>
<polygon fill="#bfbfbf" stroke="black" points="35.5,-94.5 35.5,-151.5 88.5,-151.5 88.5,-94.5 35.5,-94.5"/>
<text text-anchor="middle" x="62" y="-139.5" font-family="Helvetica,sans-Serif" font-size="10.00">QObject</text>
<polyline fill="none" stroke="black" points="35.5,-132.5 88.5,-132.5 "/>
<text text-anchor="middle" x="62" y="-120.5" font-family="Helvetica,sans-Serif" font-size="10.00"> </text>
<polyline fill="none" stroke="black" points="35.5,-113.5 88.5,-113.5 "/>
<text text-anchor="middle" x="62" y="-101.5" font-family="Helvetica,sans-Serif" font-size="10.00"> </text>
</g>
<!-- Node1 -->
<g id="node2" class="node"><title>Node1</title>
<g id="a_node2"><a xlink:href="a04713.html" target="_top" xlink:title="{GlobalRegistrationPlugin\n||}">
<polygon fill="white" stroke="black" points="-7.10543e-15,-0.5 -7.10543e-15,-57.5 124,-57.5 124,-0.5 -7.10543e-15,-0.5"/>
<text text-anchor="middle" x="62" y="-45.5" font-family="Helvetica,sans-Serif" font-size="10.00">GlobalRegistrationPlugin</text>
<polyline fill="none" stroke="black" points="-7.10543e-15,-38.5 124,-38.5 "/>
<text text-anchor="middle" x="62" y="-26.5" font-family="Helvetica,sans-Serif" font-size="10.00"> </text>
<polyline fill="none" stroke="black" points="-7.10543e-15,-19.5 124,-19.5 "/>
<text text-anchor="middle" x="62" y="-7.5" font-family="Helvetica,sans-Serif" font-size="10.00"> </text>
</a>
</g>
</g>
<!-- Node0&#45;&gt;Node1 -->
<g id="edge1" class="edge"><title>Node0&#45;&gt;Node1</title>
<path fill="none" stroke="midnightblue" d="M62,-84.2092C62,-75.2929 62,-65.9513 62,-57.5836"/>
<polygon fill="none" stroke="midnightblue" points="58.5001,-84.3969 62,-94.397 65.5001,-84.397 58.5001,-84.3969"/>
</g>
</g>
</svg>
