<?xml version="1.0" encoding="UTF-8" standalone="no"?>
<!DOCTYPE svg PUBLIC "-//W3C//DTD SVG 1.1//EN"
 "http://www.w3.org/Graphics/SVG/1.1/DTD/svg11.dtd">
<!-- Generated by graphviz version 2.38.0 (20140413.2041)
 -->
<!-- Title: GlobalRegistration::IndexedNormalHealSet::getEpsilonMaps Pages: 1 -->
<svg width="452pt" height="50pt"
 viewBox="0.00 0.00 452.00 50.00" xmlns="http://www.w3.org/2000/svg" xmlns:xlink="http://www.w3.org/1999/xlink">
<g id="graph0" class="graph" transform="scale(1 1) rotate(0) translate(4 46)">
<title>GlobalRegistration::IndexedNormalHealSet::getEpsilonMaps</title>
<polygon fill="white" stroke="none" points="-4,4 -4,-46 448,-46 448,4 -4,4"/>
<!-- Node5 -->
<g id="node1" class="node"><title>Node5</title>
<polygon fill="#bfbfbf" stroke="black" points="0,-0.5 0,-41.5 124,-41.5 124,-0.5 0,-0.5"/>
<text text-anchor="start" x="8" y="-29.5" font-family="Helvetica,sans-Serif" font-size="10.00">GlobalRegistration</text>
<text text-anchor="start" x="8" y="-18.5" font-family="Helvetica,sans-Serif" font-size="10.00">::IndexedNormalHealSet</text>
<text text-anchor="middle" x="62" y="-7.5" font-family="Helvetica,sans-Serif" font-size="10.00">::getEpsilonMaps</text>
</g>
<!-- Node6 -->
<g id="node2" class="node"><title>Node6</title>
<g id="a_node2"><a xlink:href="a05166.xhtml#aa7314aa789a467a33152f2eab47cbc5d" target="_top" xlink:title="Get closest points in euclidean space. ">
<polygon fill="white" stroke="black" points="160,-0.5 160,-41.5 284,-41.5 284,-0.5 160,-0.5"/>
<text text-anchor="start" x="168" y="-29.5" font-family="Helvetica,sans-Serif" font-size="10.00">GlobalRegistration</text>
<text text-anchor="start" x="168" y="-18.5" font-family="Helvetica,sans-Serif" font-size="10.00">::IndexedNormalHealSet</text>
<text text-anchor="middle" x="222" y="-7.5" font-family="Helvetica,sans-Serif" font-size="10.00">::getNeighbors</text>
</a>
</g>
</g>
<!-- Node5&#45;&gt;Node6 -->
<g id="edge1" class="edge"><title>Node5&#45;&gt;Node6</title>
<path fill="none" stroke="midnightblue" d="M124.087,-21C132.513,-21 141.226,-21 149.815,-21"/>
<polygon fill="midnightblue" stroke="midnightblue" points="149.815,-24.5001 159.815,-21 149.815,-17.5001 149.815,-24.5001"/>
</g>
<!-- Node7 -->
<g id="node3" class="node"><title>Node7</title>
<g id="a_node3"><a xlink:href="a05166.xhtml#a57140b534b36a0e1fa5132eb36149d90" target="_top" xlink:title="GlobalRegistration\l::IndexedNormalHealSet\l::getMap">
<polygon fill="white" stroke="black" points="320,-0.5 320,-41.5 444,-41.5 444,-0.5 320,-0.5"/>
<text text-anchor="start" x="328" y="-29.5" font-family="Helvetica,sans-Serif" font-size="10.00">GlobalRegistration</text>
<text text-anchor="start" x="328" y="-18.5" font-family="Helvetica,sans-Serif" font-size="10.00">::IndexedNormalHealSet</text>
<text text-anchor="middle" x="382" y="-7.5" font-family="Helvetica,sans-Serif" font-size="10.00">::getMap</text>
</a>
</g>
</g>
<!-- Node6&#45;&gt;Node7 -->
<g id="edge2" class="edge"><title>Node6&#45;&gt;Node7</title>
<path fill="none" stroke="midnightblue" d="M284.087,-21C292.513,-21 301.226,-21 309.815,-21"/>
<polygon fill="midnightblue" stroke="midnightblue" points="309.815,-24.5001 319.815,-21 309.815,-17.5001 309.815,-24.5001"/>
</g>
</g>
</svg>
