<?xml version="1.0" encoding="UTF-8" standalone="no"?>
<!DOCTYPE svg PUBLIC "-//W3C//DTD SVG 1.1//EN"
 "http://www.w3.org/Graphics/SVG/1.1/DTD/svg11.dtd">
<!-- Generated by graphviz version 2.38.0 (20140413.2041)
 -->
<!-- Title: GlobalRegistration::Accelerators::PairExtraction::NdNode&lt; Point, _dim, Scalar, _PointContainer, _IdContainer &gt; Pages: 1 -->
<svg width="331pt" height="336pt"
 viewBox="0.00 0.00 330.50 336.00" xmlns="http://www.w3.org/2000/svg" xmlns:xlink="http://www.w3.org/1999/xlink">
<g id="graph0" class="graph" transform="scale(1 1) rotate(0) translate(4 332)">
<title>GlobalRegistration::Accelerators::PairExtraction::NdNode&lt; Point, _dim, Scalar, _PointContainer, _IdContainer &gt;</title>
<polygon fill="white" stroke="none" points="-4,4 -4,-332 326.5,-332 326.5,4 -4,4"/>
<!-- Node1 -->
<g id="node1" class="node"><title>Node1</title>
<polygon fill="#bfbfbf" stroke="black" points="99,-0.5 99,-211.5 259,-211.5 259,-0.5 99,-0.5"/>
<text text-anchor="start" x="107" y="-199.5" font-family="Helvetica,sans-Serif" font-size="10.00">GlobalRegistration</text>
<text text-anchor="start" x="107" y="-188.5" font-family="Helvetica,sans-Serif" font-size="10.00">::Accelerators::PairExtraction</text>
<text text-anchor="start" x="107" y="-177.5" font-family="Helvetica,sans-Serif" font-size="10.00">::NdNode&lt; Point, _dim, Scalar,</text>
<text text-anchor="middle" x="179" y="-166.5" font-family="Helvetica,sans-Serif" font-size="10.00"> _PointContainer, _IdContainer &gt;</text>
<polyline fill="none" stroke="black" points="99,-159.5 259,-159.5 "/>
<text text-anchor="middle" x="179" y="-147.5" font-family="Helvetica,sans-Serif" font-size="10.00"> </text>
<polyline fill="none" stroke="black" points="99,-140.5 259,-140.5 "/>
<text text-anchor="start" x="107" y="-128.5" font-family="Helvetica,sans-Serif" font-size="10.00">+ NdNode()</text>
<text text-anchor="start" x="107" y="-117.5" font-family="Helvetica,sans-Serif" font-size="10.00">+ NdNode()</text>
<text text-anchor="start" x="107" y="-106.5" font-family="Helvetica,sans-Serif" font-size="10.00">+ operator=()</text>
<text text-anchor="start" x="107" y="-95.5" font-family="Helvetica,sans-Serif" font-size="10.00">+ ~NdNode()</text>
<text text-anchor="start" x="107" y="-84.5" font-family="Helvetica,sans-Serif" font-size="10.00">+ rangeLength()</text>
<text text-anchor="start" x="107" y="-73.5" font-family="Helvetica,sans-Serif" font-size="10.00">+ rangeBegin()</text>
<text text-anchor="start" x="107" y="-62.5" font-family="Helvetica,sans-Serif" font-size="10.00">+ rangeEnd()</text>
<text text-anchor="start" x="107" y="-51.5" font-family="Helvetica,sans-Serif" font-size="10.00">+ pointInRange()</text>
<text text-anchor="start" x="107" y="-40.5" font-family="Helvetica,sans-Serif" font-size="10.00">+ idInRange()</text>
<text text-anchor="start" x="107" y="-29.5" font-family="Helvetica,sans-Serif" font-size="10.00">+ center()</text>
<text text-anchor="start" x="107" y="-18.5" font-family="Helvetica,sans-Serif" font-size="10.00">+ split()</text>
<text text-anchor="start" x="107" y="-7.5" font-family="Helvetica,sans-Serif" font-size="10.00">+ buildUnitRootNode()</text>
</g>
<!-- Node2 -->
<g id="node2" class="node"><title>Node2</title>
<polygon fill="white" stroke="#bfbfbf" points="0,-270.5 0,-327.5 118,-327.5 118,-270.5 0,-270.5"/>
<text text-anchor="middle" x="59" y="-315.5" font-family="Helvetica,sans-Serif" font-size="10.00">const PointContainer &amp;</text>
<polyline fill="none" stroke="#bfbfbf" points="0,-308.5 118,-308.5 "/>
<text text-anchor="middle" x="59" y="-296.5" font-family="Helvetica,sans-Serif" font-size="10.00"> </text>
<polyline fill="none" stroke="#bfbfbf" points="0,-289.5 118,-289.5 "/>
<text text-anchor="middle" x="59" y="-277.5" font-family="Helvetica,sans-Serif" font-size="10.00"> </text>
</g>
<!-- Node2&#45;&gt;Node1 -->
<g id="edge1" class="edge"><title>Node2&#45;&gt;Node1</title>
<path fill="none" stroke="#404040" d="M76.449,-270.227C84.7629,-256.994 95.3223,-240.187 106.487,-222.417"/>
<polygon fill="none" stroke="#404040" points="106.734,-222.024 106.539,-214.815 113.118,-211.863 113.313,-219.071 106.734,-222.024"/>
<text text-anchor="middle" x="122" y="-238.5" font-family="Helvetica,sans-Serif" font-size="10.00"> #_points</text>
</g>
<!-- Node3 -->
<g id="node3" class="node"><title>Node3</title>
<polygon fill="white" stroke="#bfbfbf" points="136.5,-270.5 136.5,-327.5 165.5,-327.5 165.5,-270.5 136.5,-270.5"/>
<text text-anchor="middle" x="151" y="-315.5" font-family="Helvetica,sans-Serif" font-size="10.00">int</text>
<polyline fill="none" stroke="#bfbfbf" points="136.5,-308.5 165.5,-308.5 "/>
<text text-anchor="middle" x="151" y="-296.5" font-family="Helvetica,sans-Serif" font-size="10.00"> </text>
<polyline fill="none" stroke="#bfbfbf" points="136.5,-289.5 165.5,-289.5 "/>
<text text-anchor="middle" x="151" y="-277.5" font-family="Helvetica,sans-Serif" font-size="10.00"> </text>
</g>
<!-- Node3&#45;&gt;Node1 -->
<g id="edge2" class="edge"><title>Node3&#45;&gt;Node1</title>
<path fill="none" stroke="#404040" d="M150.15,-270.457C150.089,-258.055 150.464,-243.253 152,-230 152.238,-227.947 152.495,-225.878 152.77,-223.797"/>
<polygon fill="none" stroke="#404040" points="152.792,-223.647 149.699,-217.133 154.522,-211.773 157.615,-218.287 152.792,-223.647"/>
<text text-anchor="middle" x="169" y="-244" font-family="Helvetica,sans-Serif" font-size="10.00"> #_end</text>
<text text-anchor="middle" x="169" y="-233" font-family="Helvetica,sans-Serif" font-size="10.00">#_begin</text>
</g>
<!-- Node4 -->
<g id="node4" class="node"><title>Node4</title>
<polygon fill="white" stroke="#bfbfbf" points="188.5,-270.5 188.5,-327.5 227.5,-327.5 227.5,-270.5 188.5,-270.5"/>
<text text-anchor="middle" x="208" y="-315.5" font-family="Helvetica,sans-Serif" font-size="10.00">Point</text>
<polyline fill="none" stroke="#bfbfbf" points="188.5,-308.5 227.5,-308.5 "/>
<text text-anchor="middle" x="208" y="-296.5" font-family="Helvetica,sans-Serif" font-size="10.00"> </text>
<polyline fill="none" stroke="#bfbfbf" points="188.5,-289.5 227.5,-289.5 "/>
<text text-anchor="middle" x="208" y="-277.5" font-family="Helvetica,sans-Serif" font-size="10.00"> </text>
</g>
<!-- Node4&#45;&gt;Node1 -->
<g id="edge3" class="edge"><title>Node4&#45;&gt;Node1</title>
<path fill="none" stroke="#404040" d="M203.783,-270.227C201.83,-257.365 199.365,-241.127 196.751,-223.909"/>
<polygon fill="none" stroke="#404040" points="196.723,-223.727 191.868,-218.395 194.922,-211.863 199.777,-217.194 196.723,-223.727"/>
<text text-anchor="middle" x="221.5" y="-238.5" font-family="Helvetica,sans-Serif" font-size="10.00"> #_center</text>
</g>
<!-- Node5 -->
<g id="node5" class="node"><title>Node5</title>
<polygon fill="white" stroke="#bfbfbf" points="245.5,-270.5 245.5,-327.5 322.5,-327.5 322.5,-270.5 245.5,-270.5"/>
<text text-anchor="middle" x="284" y="-315.5" font-family="Helvetica,sans-Serif" font-size="10.00">IdContainer &amp;</text>
<polyline fill="none" stroke="#bfbfbf" points="245.5,-308.5 322.5,-308.5 "/>
<text text-anchor="middle" x="284" y="-296.5" font-family="Helvetica,sans-Serif" font-size="10.00"> </text>
<polyline fill="none" stroke="#bfbfbf" points="245.5,-289.5 322.5,-289.5 "/>
<text text-anchor="middle" x="284" y="-277.5" font-family="Helvetica,sans-Serif" font-size="10.00"> </text>
</g>
<!-- Node5&#45;&gt;Node1 -->
<g id="edge4" class="edge"><title>Node5&#45;&gt;Node1</title>
<path fill="none" stroke="#404040" d="M268.732,-270.227C261.458,-256.994 252.218,-240.187 242.449,-222.417"/>
<polygon fill="none" stroke="#404040" points="242.428,-222.378 236.032,-219.048 236.647,-211.863 243.043,-215.194 242.428,-222.378"/>
<text text-anchor="middle" x="272.5" y="-238.5" font-family="Helvetica,sans-Serif" font-size="10.00"> #_ids</text>
</g>
</g>
</svg>
