<?xml version="1.0" encoding="UTF-8" standalone="no"?>
<!DOCTYPE svg PUBLIC "-//W3C//DTD SVG 1.1//EN"
 "http://www.w3.org/Graphics/SVG/1.1/DTD/svg11.dtd">
<!-- Generated by graphviz version 2.38.0 (20140413.2041)
 -->
<!-- Title: GlobalRegistration::Match4PCSBase::ComputeTransformation Pages: 1 -->
<svg width="1197pt" height="575pt"
 viewBox="0.00 0.00 1197.00 575.00" xmlns="http://www.w3.org/2000/svg" xmlns:xlink="http://www.w3.org/1999/xlink">
<g id="graph0" class="graph" transform="scale(1 1) rotate(0) translate(4 571)">
<title>GlobalRegistration::Match4PCSBase::ComputeTransformation</title>
<polygon fill="white" stroke="none" points="-4,4 -4,-571 1193,-571 1193,4 -4,4"/>
<!-- Node12 -->
<g id="node1" class="node"><title>Node12</title>
<polygon fill="#bfbfbf" stroke="black" points="0,-325 0,-355 209,-355 209,-325 0,-325"/>
<text text-anchor="start" x="8" y="-343" font-family="Helvetica,sans-Serif" font-size="10.00">GlobalRegistration</text>
<text text-anchor="middle" x="104.5" y="-332" font-family="Helvetica,sans-Serif" font-size="10.00">::Match4PCSBase::ComputeTransformation</text>
</g>
<!-- Node13 -->
<g id="node2" class="node"><title>Node13</title>
<g id="a_node2"><a xlink:href="a05206.xhtml#a6da7132684e7b8285711303d136aed79" target="_top" xlink:title="GlobalRegistration\l::Match4PCSBase::init">
<polygon fill="white" stroke="black" points="650,-427 650,-457 767,-457 767,-427 650,-427"/>
<text text-anchor="start" x="658" y="-445" font-family="Helvetica,sans-Serif" font-size="10.00">GlobalRegistration</text>
<text text-anchor="middle" x="708.5" y="-434" font-family="Helvetica,sans-Serif" font-size="10.00">::Match4PCSBase::init</text>
</a>
</g>
</g>
<!-- Node12&#45;&gt;Node13 -->
<g id="edge1" class="edge"><title>Node12&#45;&gt;Node13</title>
<path fill="none" stroke="midnightblue" d="M194.327,-355.05C315.642,-375.605 530.513,-412.012 639.716,-430.515"/>
<polygon fill="midnightblue" stroke="midnightblue" points="639.184,-433.975 649.628,-432.195 640.354,-427.073 639.184,-433.975"/>
</g>
<!-- Node19 -->
<g id="node8" class="node"><title>Node19</title>
<g id="a_node8"><a xlink:href="a05206.xhtml#afd714116c6898bc5913a9d77eca865ff" target="_top" xlink:title="GlobalRegistration\l::Match4PCSBase::Perform\l_N_steps">
<polygon fill="white" stroke="black" points="245,-262.5 245,-303.5 384,-303.5 384,-262.5 245,-262.5"/>
<text text-anchor="start" x="253" y="-291.5" font-family="Helvetica,sans-Serif" font-size="10.00">GlobalRegistration</text>
<text text-anchor="start" x="253" y="-280.5" font-family="Helvetica,sans-Serif" font-size="10.00">::Match4PCSBase::Perform</text>
<text text-anchor="middle" x="314.5" y="-269.5" font-family="Helvetica,sans-Serif" font-size="10.00">_N_steps</text>
</a>
</g>
</g>
<!-- Node12&#45;&gt;Node19 -->
<g id="edge8" class="edge"><title>Node12&#45;&gt;Node19</title>
<path fill="none" stroke="midnightblue" d="M160.422,-324.949C183.267,-318.689 210.211,-311.305 235.076,-304.491"/>
<polygon fill="midnightblue" stroke="midnightblue" points="236.134,-307.83 244.853,-301.812 234.284,-301.079 236.134,-307.83"/>
</g>
<!-- Node14 -->
<g id="node3" class="node"><title>Node14</title>
<g id="a_node3"><a xlink:href="a05206.xhtml#a63d5f8d1043f6993c0bc3f14291e04b6" target="_top" xlink:title="GlobalRegistration\l::Match4PCSBase::MeanDistance">
<polygon fill="white" stroke="black" points="841,-427 841,-457 1008,-457 1008,-427 841,-427"/>
<text text-anchor="start" x="849" y="-445" font-family="Helvetica,sans-Serif" font-size="10.00">GlobalRegistration</text>
<text text-anchor="middle" x="924.5" y="-434" font-family="Helvetica,sans-Serif" font-size="10.00">::Match4PCSBase::MeanDistance</text>
</a>
</g>
</g>
<!-- Node13&#45;&gt;Node14 -->
<g id="edge2" class="edge"><title>Node13&#45;&gt;Node14</title>
<path fill="none" stroke="midnightblue" d="M767.13,-442C786.687,-442 809.063,-442 830.656,-442"/>
<polygon fill="midnightblue" stroke="midnightblue" points="830.842,-445.5 840.842,-442 830.842,-438.5 830.842,-445.5"/>
</g>
<!-- Node16 -->
<g id="node5" class="node"><title>Node16</title>
<g id="a_node5"><a xlink:href="a05246.xhtml#a91b3ac4a47f82c2c2ff8ecd0bbd43c2b" target="_top" xlink:title="GlobalRegistration\l::Match4PCSOptions::\lgetOverlapEstimation">
<polygon fill="white" stroke="black" points="866.5,-525.5 866.5,-566.5 982.5,-566.5 982.5,-525.5 866.5,-525.5"/>
<text text-anchor="start" x="874.5" y="-554.5" font-family="Helvetica,sans-Serif" font-size="10.00">GlobalRegistration</text>
<text text-anchor="start" x="874.5" y="-543.5" font-family="Helvetica,sans-Serif" font-size="10.00">::Match4PCSOptions::</text>
<text text-anchor="middle" x="924.5" y="-532.5" font-family="Helvetica,sans-Serif" font-size="10.00">getOverlapEstimation</text>
</a>
</g>
</g>
<!-- Node13&#45;&gt;Node16 -->
<g id="edge4" class="edge"><title>Node13&#45;&gt;Node16</title>
<path fill="none" stroke="midnightblue" d="M733.486,-457.256C758.825,-472.98 800.257,-497.588 838,-515 844.069,-517.8 850.468,-520.521 856.923,-523.113"/>
<polygon fill="midnightblue" stroke="midnightblue" points="855.799,-526.432 866.387,-526.813 858.348,-519.912 855.799,-526.432"/>
</g>
<!-- Node17 -->
<g id="node6" class="node"><title>Node17</title>
<g id="a_node6"><a xlink:href="a05206.xhtml#adac9aa457425985cf778c69c60fecc21" target="_top" xlink:title="GlobalRegistration\l::Match4PCSBase::Initialize">
<polygon fill="white" stroke="black" points="854.5,-476 854.5,-506 994.5,-506 994.5,-476 854.5,-476"/>
<text text-anchor="start" x="862.5" y="-494" font-family="Helvetica,sans-Serif" font-size="10.00">GlobalRegistration</text>
<text text-anchor="middle" x="924.5" y="-483" font-family="Helvetica,sans-Serif" font-size="10.00">::Match4PCSBase::Initialize</text>
</a>
</g>
</g>
<!-- Node13&#45;&gt;Node17 -->
<g id="edge5" class="edge"><title>Node13&#45;&gt;Node17</title>
<path fill="none" stroke="midnightblue" d="M767.13,-455.196C791.938,-460.876 821.282,-467.595 847.81,-473.669"/>
<polygon fill="midnightblue" stroke="midnightblue" points="847.295,-477.142 857.824,-475.962 848.857,-470.318 847.295,-477.142"/>
</g>
<!-- Node18 -->
<g id="node7" class="node"><title>Node18</title>
<g id="a_node7"><a xlink:href="a05206.xhtml#ac9a328320c7729722e3a4b9234f2dadf" target="_top" xlink:title="GlobalRegistration\l::Match4PCSBase::Verify">
<polygon fill="white" stroke="black" points="859.5,-378 859.5,-408 989.5,-408 989.5,-378 859.5,-378"/>
<text text-anchor="start" x="867.5" y="-396" font-family="Helvetica,sans-Serif" font-size="10.00">GlobalRegistration</text>
<text text-anchor="middle" x="924.5" y="-385" font-family="Helvetica,sans-Serif" font-size="10.00">::Match4PCSBase::Verify</text>
</a>
</g>
</g>
<!-- Node13&#45;&gt;Node18 -->
<g id="edge6" class="edge"><title>Node13&#45;&gt;Node18</title>
<path fill="none" stroke="midnightblue" d="M767.13,-428.804C792.488,-422.998 822.586,-416.107 849.571,-409.928"/>
<polygon fill="midnightblue" stroke="midnightblue" points="850.391,-413.331 859.358,-407.687 848.829,-406.507 850.391,-413.331"/>
</g>
<!-- Node15 -->
<g id="node4" class="node"><title>Node15</title>
<g id="a_node4"><a xlink:href="a05142.xhtml#ad6cd36f9f91e1e6b444b38b1a986d0c1" target="_top" xlink:title="Finds the closest element index within the range [0:sqrt(sqdist)]. ">
<polygon fill="white" stroke="black" points="1047,-396.5 1047,-437.5 1189,-437.5 1189,-396.5 1047,-396.5"/>
<text text-anchor="start" x="1055" y="-425.5" font-family="Helvetica,sans-Serif" font-size="10.00">GlobalRegistration</text>
<text text-anchor="start" x="1055" y="-414.5" font-family="Helvetica,sans-Serif" font-size="10.00">::KdTree::doQueryRestricted</text>
<text text-anchor="middle" x="1118" y="-403.5" font-family="Helvetica,sans-Serif" font-size="10.00">ClosestIndex</text>
</a>
</g>
</g>
<!-- Node14&#45;&gt;Node15 -->
<g id="edge3" class="edge"><title>Node14&#45;&gt;Node15</title>
<path fill="none" stroke="midnightblue" d="M1008.1,-431.216C1017.62,-429.974 1027.31,-428.709 1036.79,-427.471"/>
<polygon fill="midnightblue" stroke="midnightblue" points="1037.52,-430.906 1046.98,-426.141 1036.61,-423.965 1037.52,-430.906"/>
</g>
<!-- Node18&#45;&gt;Node15 -->
<g id="edge7" class="edge"><title>Node18&#45;&gt;Node15</title>
<path fill="none" stroke="midnightblue" d="M989.533,-401.025C1004.61,-402.914 1020.86,-404.951 1036.56,-406.918"/>
<polygon fill="midnightblue" stroke="midnightblue" points="1036.41,-410.427 1046.77,-408.198 1037.28,-403.482 1036.41,-410.427"/>
</g>
<!-- Node20 -->
<g id="node9" class="node"><title>Node20</title>
<g id="a_node9"><a xlink:href="a05206.xhtml#adcacd57bf5844d8205a7620c72c0d450" target="_top" xlink:title="GlobalRegistration\l::Match4PCSBase::TryOneBase">
<polygon fill="white" stroke="black" points="420,-137 420,-167 579,-167 579,-137 420,-137"/>
<text text-anchor="start" x="428" y="-155" font-family="Helvetica,sans-Serif" font-size="10.00">GlobalRegistration</text>
<text text-anchor="middle" x="499.5" y="-144" font-family="Helvetica,sans-Serif" font-size="10.00">::Match4PCSBase::TryOneBase</text>
</a>
</g>
</g>
<!-- Node19&#45;&gt;Node20 -->
<g id="edge9" class="edge"><title>Node19&#45;&gt;Node20</title>
<path fill="none" stroke="midnightblue" d="M344.497,-262.243C378.595,-237.834 434.875,-197.546 469.133,-173.023"/>
<polygon fill="midnightblue" stroke="midnightblue" points="471.247,-175.814 477.341,-167.147 467.172,-170.122 471.247,-175.814"/>
</g>
<!-- Node21 -->
<g id="node10" class="node"><title>Node21</title>
<g id="a_node10"><a xlink:href="a05206.xhtml#a423c63bc1aece6379b9b6a8cf9d5aa0f" target="_top" xlink:title="GlobalRegistration\l::Match4PCSBase::TryQuadrilateral">
<polygon fill="white" stroke="black" points="838,-159 838,-189 1011,-189 1011,-159 838,-159"/>
<text text-anchor="start" x="846" y="-177" font-family="Helvetica,sans-Serif" font-size="10.00">GlobalRegistration</text>
<text text-anchor="middle" x="924.5" y="-166" font-family="Helvetica,sans-Serif" font-size="10.00">::Match4PCSBase::TryQuadrilateral</text>
</a>
</g>
</g>
<!-- Node20&#45;&gt;Node21 -->
<g id="edge10" class="edge"><title>Node20&#45;&gt;Node21</title>
<path fill="none" stroke="midnightblue" d="M579.072,-156.086C649.24,-159.736 752.236,-165.093 827.312,-168.997"/>
<polygon fill="midnightblue" stroke="midnightblue" points="827.545,-172.514 837.714,-169.538 827.909,-165.524 827.545,-172.514"/>
</g>
<!-- Node22 -->
<g id="node11" class="node"><title>Node22</title>
<g id="a_node11"><a xlink:href="a05206.xhtml#a3b37709e1bda55f4d109c9a2dbd7b170" target="_top" xlink:title="GlobalRegistration\l::Match4PCSBase::SelectQuadrilateral">
<polygon fill="white" stroke="black" points="615,-115 615,-145 802,-145 802,-115 615,-115"/>
<text text-anchor="start" x="623" y="-133" font-family="Helvetica,sans-Serif" font-size="10.00">GlobalRegistration</text>
<text text-anchor="middle" x="708.5" y="-122" font-family="Helvetica,sans-Serif" font-size="10.00">::Match4PCSBase::SelectQuadrilateral</text>
</a>
</g>
</g>
<!-- Node20&#45;&gt;Node22 -->
<g id="edge11" class="edge"><title>Node20&#45;&gt;Node22</title>
<path fill="none" stroke="midnightblue" d="M579.053,-143.651C587.438,-142.76 596.055,-141.844 604.666,-140.929"/>
<polygon fill="midnightblue" stroke="midnightblue" points="605.184,-144.394 614.758,-139.857 604.444,-137.433 605.184,-144.394"/>
</g>
<!-- Node26 -->
<g id="node15" class="node"><title>Node26</title>
<g id="a_node15"><a xlink:href="a05206.xhtml#a869c21b7c49110f7301e78d64d9e0e57" target="_top" xlink:title="GlobalRegistration\l::Match4PCSBase::ExtractPairs">
<polygon fill="white" stroke="black" points="629.5,-66 629.5,-96 787.5,-96 787.5,-66 629.5,-66"/>
<text text-anchor="start" x="637.5" y="-84" font-family="Helvetica,sans-Serif" font-size="10.00">GlobalRegistration</text>
<text text-anchor="middle" x="708.5" y="-73" font-family="Helvetica,sans-Serif" font-size="10.00">::Match4PCSBase::ExtractPairs</text>
</a>
</g>
</g>
<!-- Node20&#45;&gt;Node26 -->
<g id="edge16" class="edge"><title>Node20&#45;&gt;Node26</title>
<path fill="none" stroke="midnightblue" d="M534.114,-136.791C556.693,-126.927 587.275,-114.24 615,-105 621.345,-102.885 627.986,-100.842 634.671,-98.8989"/>
<polygon fill="midnightblue" stroke="midnightblue" points="635.799,-102.217 644.469,-96.1283 633.894,-95.4815 635.799,-102.217"/>
</g>
<!-- Node27 -->
<g id="node16" class="node"><title>Node27</title>
<g id="a_node16"><a xlink:href="a05206.xhtml#ae197b4fe78911f96d3732d5faf0a6901" target="_top" xlink:title="GlobalRegistration\l::Match4PCSBase::FindCongruent\lQuadrilaterals">
<polygon fill="white" stroke="black" points="624.5,-5.5 624.5,-46.5 792.5,-46.5 792.5,-5.5 624.5,-5.5"/>
<text text-anchor="start" x="632.5" y="-34.5" font-family="Helvetica,sans-Serif" font-size="10.00">GlobalRegistration</text>
<text text-anchor="start" x="632.5" y="-23.5" font-family="Helvetica,sans-Serif" font-size="10.00">::Match4PCSBase::FindCongruent</text>
<text text-anchor="middle" x="708.5" y="-12.5" font-family="Helvetica,sans-Serif" font-size="10.00">Quadrilaterals</text>
</a>
</g>
</g>
<!-- Node20&#45;&gt;Node27 -->
<g id="edge17" class="edge"><title>Node20&#45;&gt;Node27</title>
<path fill="none" stroke="midnightblue" d="M514.661,-136.924C535.028,-116.042 574.604,-78.3672 615,-56 618.295,-54.1753 621.719,-52.4408 625.224,-50.7946"/>
<polygon fill="midnightblue" stroke="midnightblue" points="626.914,-53.8745 634.657,-46.642 624.094,-47.4678 626.914,-53.8745"/>
</g>
<!-- Node28 -->
<g id="node17" class="node"><title>Node28</title>
<g id="a_node17"><a xlink:href="a05206.xhtml#acecb2de1f163aff07803ebf905ab3e36" target="_top" xlink:title="GlobalRegistration\l::Match4PCSBase::TryCongruentSet">
<polygon fill="white" stroke="black" points="619,-263 619,-293 798,-293 798,-263 619,-263"/>
<text text-anchor="start" x="627" y="-281" font-family="Helvetica,sans-Serif" font-size="10.00">GlobalRegistration</text>
<text text-anchor="middle" x="708.5" y="-270" font-family="Helvetica,sans-Serif" font-size="10.00">::Match4PCSBase::TryCongruentSet</text>
</a>
</g>
</g>
<!-- Node20&#45;&gt;Node28 -->
<g id="edge18" class="edge"><title>Node20&#45;&gt;Node28</title>
<path fill="none" stroke="midnightblue" d="M525.469,-167.199C562.636,-189.822 632.578,-232.395 674.106,-257.673"/>
<polygon fill="midnightblue" stroke="midnightblue" points="672.403,-260.734 682.765,-262.944 676.042,-254.754 672.403,-260.734"/>
</g>
<!-- Node22&#45;&gt;Node21 -->
<g id="edge13" class="edge"><title>Node22&#45;&gt;Node21</title>
<path fill="none" stroke="midnightblue" d="M782.548,-145.019C801.211,-148.856 821.411,-153.01 840.531,-156.941"/>
<polygon fill="midnightblue" stroke="midnightblue" points="839.918,-160.388 850.418,-158.974 841.328,-153.531 839.918,-160.388"/>
</g>
<!-- Node23 -->
<g id="node12" class="node"><title>Node23</title>
<g id="a_node12"><a xlink:href="a05206.xhtml#af9b9a0034ec3ff9646b36ce6250702cd" target="_top" xlink:title="GlobalRegistration\l::Match4PCSBase::SelectRandom\lTriangle">
<polygon fill="white" stroke="black" points="840,-0.5 840,-41.5 1009,-41.5 1009,-0.5 840,-0.5"/>
<text text-anchor="start" x="848" y="-29.5" font-family="Helvetica,sans-Serif" font-size="10.00">GlobalRegistration</text>
<text text-anchor="start" x="848" y="-18.5" font-family="Helvetica,sans-Serif" font-size="10.00">::Match4PCSBase::SelectRandom</text>
<text text-anchor="middle" x="924.5" y="-7.5" font-family="Helvetica,sans-Serif" font-size="10.00">Triangle</text>
</a>
</g>
</g>
<!-- Node22&#45;&gt;Node23 -->
<g id="edge12" class="edge"><title>Node22&#45;&gt;Node23</title>
<path fill="none" stroke="midnightblue" d="M784.392,-114.937C790.625,-112.166 796.597,-108.885 802,-105 825.419,-88.1612 815.215,-68.6878 838,-51 839.817,-49.5892 841.706,-48.2417 843.652,-46.9548"/>
<polygon fill="midnightblue" stroke="midnightblue" points="845.699,-49.81 852.508,-41.693 842.123,-43.7921 845.699,-49.81"/>
</g>
<!-- Node24 -->
<g id="node13" class="node"><title>Node24</title>
<g id="a_node13"><a xlink:href="a05142.xhtml#a81bcdc0c30914894311c78396d3781c7" target="_top" xlink:title="Add a new vertex in the KdTree. ">
<polygon fill="white" stroke="black" points="876,-110 876,-140 973,-140 973,-110 876,-110"/>
<text text-anchor="start" x="884" y="-128" font-family="Helvetica,sans-Serif" font-size="10.00">GlobalRegistration</text>
<text text-anchor="middle" x="924.5" y="-117" font-family="Helvetica,sans-Serif" font-size="10.00">::KdTree::add</text>
</a>
</g>
</g>
<!-- Node22&#45;&gt;Node24 -->
<g id="edge14" class="edge"><title>Node22&#45;&gt;Node24</title>
<path fill="none" stroke="midnightblue" d="M802.119,-127.836C823.663,-127.333 845.999,-126.811 865.548,-126.354"/>
<polygon fill="midnightblue" stroke="midnightblue" points="865.882,-129.847 875.798,-126.115 865.719,-122.849 865.882,-129.847"/>
</g>
<!-- Node25 -->
<g id="node14" class="node"><title>Node25</title>
<g id="a_node14"><a xlink:href="a05142.xhtml#a6841c0418254813b75dd036a9e4e7c2b" target="_top" xlink:title="Finalize the creation of the KdTree. ">
<polygon fill="white" stroke="black" points="876,-61 876,-91 973,-91 973,-61 876,-61"/>
<text text-anchor="start" x="884" y="-79" font-family="Helvetica,sans-Serif" font-size="10.00">GlobalRegistration</text>
<text text-anchor="middle" x="924.5" y="-68" font-family="Helvetica,sans-Serif" font-size="10.00">::KdTree::finalize</text>
</a>
</g>
</g>
<!-- Node22&#45;&gt;Node25 -->
<g id="edge15" class="edge"><title>Node22&#45;&gt;Node25</title>
<path fill="none" stroke="midnightblue" d="M769.111,-114.958C799.334,-107.332 835.878,-98.1103 865.823,-90.5539"/>
<polygon fill="midnightblue" stroke="midnightblue" points="866.868,-93.9002 875.707,-88.0598 865.155,-87.113 866.868,-93.9002"/>
</g>
<!-- Node28&#45;&gt;Node18 -->
<g id="edge21" class="edge"><title>Node28&#45;&gt;Node18</title>
<path fill="none" stroke="midnightblue" d="M727.048,-293.131C750.762,-312.885 795.034,-347.365 838,-368 842.879,-370.343 848.023,-372.513 853.267,-374.513"/>
<polygon fill="midnightblue" stroke="midnightblue" points="852.184,-377.843 862.779,-377.931 854.551,-371.256 852.184,-377.843"/>
</g>
<!-- Node29 -->
<g id="node18" class="node"><title>Node29</title>
<g id="a_node18"><a xlink:href="a05238.xhtml#acd6175b6251a3fbf9e3e329ebfc58d06" target="_top" xlink:title="GlobalRegistration\l::Point3D::pos">
<polygon fill="white" stroke="black" points="876,-208 876,-238 973,-238 973,-208 876,-208"/>
<text text-anchor="start" x="884" y="-226" font-family="Helvetica,sans-Serif" font-size="10.00">GlobalRegistration</text>
<text text-anchor="middle" x="924.5" y="-215" font-family="Helvetica,sans-Serif" font-size="10.00">::Point3D::pos</text>
</a>
</g>
</g>
<!-- Node28&#45;&gt;Node29 -->
<g id="edge19" class="edge"><title>Node28&#45;&gt;Node29</title>
<path fill="none" stroke="midnightblue" d="M767.976,-262.971C798.441,-255.141 835.563,-245.601 865.899,-237.804"/>
<polygon fill="midnightblue" stroke="midnightblue" points="867.093,-241.111 875.907,-235.232 865.35,-234.331 867.093,-241.111"/>
</g>
<!-- Node30 -->
<g id="node19" class="node"><title>Node30</title>
<g id="a_node19"><a xlink:href="a05206.xhtml#af4249983ba17f93c48ba4f4d83442511" target="_top" xlink:title="GlobalRegistration\l::Match4PCSBase::ComputeRigid\lTransformation">
<polygon fill="white" stroke="black" points="841,-317.5 841,-358.5 1008,-358.5 1008,-317.5 841,-317.5"/>
<text text-anchor="start" x="849" y="-346.5" font-family="Helvetica,sans-Serif" font-size="10.00">GlobalRegistration</text>
<text text-anchor="start" x="849" y="-335.5" font-family="Helvetica,sans-Serif" font-size="10.00">::Match4PCSBase::ComputeRigid</text>
<text text-anchor="middle" x="924.5" y="-324.5" font-family="Helvetica,sans-Serif" font-size="10.00">Transformation</text>
</a>
</g>
</g>
<!-- Node28&#45;&gt;Node30 -->
<g id="edge20" class="edge"><title>Node28&#45;&gt;Node30</title>
<path fill="none" stroke="midnightblue" d="M763.225,-293.063C786.609,-299.619 814.551,-307.454 840.506,-314.731"/>
<polygon fill="midnightblue" stroke="midnightblue" points="839.769,-318.159 850.343,-317.489 841.659,-311.419 839.769,-318.159"/>
</g>
<!-- Node31 -->
<g id="node20" class="node"><title>Node31</title>
<g id="a_node20"><a xlink:href="a05246.xhtml#a1662893334239560ac536fd6bb44f71c" target="_top" xlink:title="GlobalRegistration\l::Match4PCSOptions::\lgetTerminateThreshold">
<polygon fill="white" stroke="black" points="866.5,-257.5 866.5,-298.5 982.5,-298.5 982.5,-257.5 866.5,-257.5"/>
<text text-anchor="start" x="874.5" y="-286.5" font-family="Helvetica,sans-Serif" font-size="10.00">GlobalRegistration</text>
<text text-anchor="start" x="874.5" y="-275.5" font-family="Helvetica,sans-Serif" font-size="10.00">::Match4PCSOptions::</text>
<text text-anchor="middle" x="924.5" y="-264.5" font-family="Helvetica,sans-Serif" font-size="10.00">getTerminateThreshold</text>
</a>
</g>
</g>
<!-- Node28&#45;&gt;Node31 -->
<g id="edge22" class="edge"><title>Node28&#45;&gt;Node31</title>
<path fill="none" stroke="midnightblue" d="M798.087,-278C817.588,-278 837.93,-278 856.416,-278"/>
<polygon fill="midnightblue" stroke="midnightblue" points="856.479,-281.5 866.479,-278 856.479,-274.5 856.479,-281.5"/>
</g>
</g>
</svg>
