<?xml version="1.0" encoding="UTF-8" standalone="no"?>
<!DOCTYPE svg PUBLIC "-//W3C//DTD SVG 1.1//EN"
 "http://www.w3.org/Graphics/SVG/1.1/DTD/svg11.dtd">
<!-- Generated by graphviz version 2.38.0 (20140413.2041)
 -->
<!-- Title: GlobalRegistration::Match4PCS::ExtractPairs Pages: 1 -->
<svg width="277pt" height="137pt"
 viewBox="0.00 0.00 277.00 137.00" xmlns="http://www.w3.org/2000/svg" xmlns:xlink="http://www.w3.org/1999/xlink">
<g id="graph0" class="graph" transform="scale(1 1) rotate(0) translate(4 133)">
<title>GlobalRegistration::Match4PCS::ExtractPairs</title>
<polygon fill="white" stroke="none" points="-4,4 -4,-133 273,-133 273,4 -4,4"/>
<!-- Node2 -->
<g id="node1" class="node"><title>Node2</title>
<polygon fill="#bfbfbf" stroke="black" points="0,-49.5 0,-79.5 136,-79.5 136,-49.5 0,-49.5"/>
<text text-anchor="start" x="8" y="-67.5" font-family="Helvetica,sans-Serif" font-size="10.00">GlobalRegistration</text>
<text text-anchor="middle" x="68" y="-56.5" font-family="Helvetica,sans-Serif" font-size="10.00">::Match4PCS::ExtractPairs</text>
</g>
<!-- Node3 -->
<g id="node2" class="node"><title>Node3</title>
<g id="a_node2"><a xlink:href="a05238.xhtml#acd6175b6251a3fbf9e3e329ebfc58d06" target="_top" xlink:title="GlobalRegistration\l::Point3D::pos">
<polygon fill="white" stroke="black" points="172,-98.5 172,-128.5 269,-128.5 269,-98.5 172,-98.5"/>
<text text-anchor="start" x="180" y="-116.5" font-family="Helvetica,sans-Serif" font-size="10.00">GlobalRegistration</text>
<text text-anchor="middle" x="220.5" y="-105.5" font-family="Helvetica,sans-Serif" font-size="10.00">::Point3D::pos</text>
</a>
</g>
</g>
<!-- Node2&#45;&gt;Node3 -->
<g id="edge1" class="edge"><title>Node2&#45;&gt;Node3</title>
<path fill="none" stroke="midnightblue" d="M115.383,-79.6014C130.618,-84.5615 147.713,-90.1274 163.578,-95.2929"/>
<polygon fill="midnightblue" stroke="midnightblue" points="162.678,-98.6805 173.27,-98.4484 164.845,-92.0244 162.678,-98.6805"/>
</g>
<!-- Node4 -->
<g id="node3" class="node"><title>Node4</title>
<g id="a_node3"><a xlink:href="a05238.xhtml#a09505dd544fdc8d8c3d2edc02e6abec7" target="_top" xlink:title="GlobalRegistration\l::Point3D::normal">
<polygon fill="white" stroke="black" points="172,-49.5 172,-79.5 269,-79.5 269,-49.5 172,-49.5"/>
<text text-anchor="start" x="180" y="-67.5" font-family="Helvetica,sans-Serif" font-size="10.00">GlobalRegistration</text>
<text text-anchor="middle" x="220.5" y="-56.5" font-family="Helvetica,sans-Serif" font-size="10.00">::Point3D::normal</text>
</a>
</g>
</g>
<!-- Node2&#45;&gt;Node4 -->
<g id="edge2" class="edge"><title>Node2&#45;&gt;Node4</title>
<path fill="none" stroke="midnightblue" d="M136.327,-64.5C144.691,-64.5 153.188,-64.5 161.397,-64.5"/>
<polygon fill="midnightblue" stroke="midnightblue" points="161.609,-68.0001 171.609,-64.5 161.609,-61.0001 161.609,-68.0001"/>
</g>
<!-- Node5 -->
<g id="node4" class="node"><title>Node5</title>
<g id="a_node4"><a xlink:href="a05238.xhtml#aea3ed1eb4ea38cbd76fb8db3e15270e7" target="_top" xlink:title="GlobalRegistration\l::Point3D::rgb">
<polygon fill="white" stroke="black" points="172,-0.5 172,-30.5 269,-30.5 269,-0.5 172,-0.5"/>
<text text-anchor="start" x="180" y="-18.5" font-family="Helvetica,sans-Serif" font-size="10.00">GlobalRegistration</text>
<text text-anchor="middle" x="220.5" y="-7.5" font-family="Helvetica,sans-Serif" font-size="10.00">::Point3D::rgb</text>
</a>
</g>
</g>
<!-- Node2&#45;&gt;Node5 -->
<g id="edge3" class="edge"><title>Node2&#45;&gt;Node5</title>
<path fill="none" stroke="midnightblue" d="M115.383,-49.3986C130.618,-44.4385 147.713,-38.8726 163.578,-33.7071"/>
<polygon fill="midnightblue" stroke="midnightblue" points="164.845,-36.9756 173.27,-30.5516 162.678,-30.3195 164.845,-36.9756"/>
</g>
</g>
</svg>
