<?xml version="1.0" encoding="UTF-8" standalone="no"?>
<!DOCTYPE svg PUBLIC "-//W3C//DTD SVG 1.1//EN"
 "http://www.w3.org/Graphics/SVG/1.1/DTD/svg11.dtd">
<!-- Generated by graphviz version 2.38.0 (20140413.2041)
 -->
<!-- Title: GlobalRegistration::Match4PCSBase::Perform_N_steps Pages: 1 -->
<!--zoomable 418 -->
<svg id="main" version="1.1" xmlns="http://www.w3.org/2000/svg" xmlns:xlink="http://www.w3.org/1999/xlink" xml:space="preserve" onload="init(evt)">
<style type="text/css"><![CDATA[
.edge:hover path { stroke: red; }
.edge:hover polygon { stroke: red; fill: red; }
]]></style>
<script type="text/javascript"><![CDATA[
var edges = document.getElementsByTagName('g');
if (edges && edges.length) {
  for (var i=0;i<edges.length;i++) {
    if (edges[i].id.substr(0,4)=='edge') {
      edges[i].setAttribute('class','edge');
    }
  }
}
]]></script>
        <defs>
                <circle id="rim" cx="0" cy="0" r="7"/>
                <circle id="rim2" cx="0" cy="0" r="3.5"/>
                <g id="zoomPlus">
                        <use xlink:href="#rim" fill="#404040">
                                <set attributeName="fill" to="#808080" begin="zoomplus.mouseover" end="zoomplus.mouseout"/>
                        </use>
                        <path d="M-4,0h8M0,-4v8" fill="none" stroke="white" stroke-width="1.5" pointer-events="none"/>
                </g>
                <g id="zoomMin">
                        <use xlink:href="#rim" fill="#404040">
                                <set attributeName="fill" to="#808080" begin="zoomminus.mouseover" end="zoomminus.mouseout"/>
                        </use>
                        <path d="M-4,0h8" fill="none" stroke="white" stroke-width="1.5" pointer-events="none"/>
                </g>
                <g id="dirArrow">
                        <path fill="none" stroke="white" stroke-width="1.5" d="M0,-3.0v7 M-2.5,-0.5L0,-3.0L2.5,-0.5"/>
                </g>
               <g id="resetDef">
                       <use xlink:href="#rim2" fill="#404040">
                               <set attributeName="fill" to="#808080" begin="reset.mouseover" end="reset.mouseout"/>
                       </use>
               </g>
        </defs>

<script type="text/javascript">
var viewWidth = 952;
var viewHeight = 418;
var sectionId = 'dynsection-8';
</script>
<script xlink:href="svgpan.js"/>
<svg id="graph" class="graph">
<g id="viewport">
<title>GlobalRegistration::Match4PCSBase::Perform_N_steps</title>
<polygon fill="white" stroke="none" points="-4,4 -4,-413.5 948,-413.5 948,4 -4,4"/>
<!-- Node86 -->
<g id="node1" class="node"><title>Node86</title>
<polygon fill="#bfbfbf" stroke="black" points="0,-244.5 0,-285.5 139,-285.5 139,-244.5 0,-244.5"/>
<text text-anchor="start" x="8" y="-273.5" font-family="Helvetica,sans-Serif" font-size="10.00">GlobalRegistration</text>
<text text-anchor="start" x="8" y="-262.5" font-family="Helvetica,sans-Serif" font-size="10.00">::Match4PCSBase::Perform</text>
<text text-anchor="middle" x="69.5" y="-251.5" font-family="Helvetica,sans-Serif" font-size="10.00">_N_steps</text>
</g>
<!-- Node87 -->
<g id="node2" class="node"><title>Node87</title>
<g id="a_node2"><a xlink:href="a05206.xhtml#adcacd57bf5844d8205a7620c72c0d450" target="_top" xlink:title="GlobalRegistration\l::Match4PCSBase::TryOneBase">
<polygon fill="white" stroke="black" points="175,-250 175,-280 334,-280 334,-250 175,-250"/>
<text text-anchor="start" x="183" y="-268" font-family="Helvetica,sans-Serif" font-size="10.00">GlobalRegistration</text>
<text text-anchor="middle" x="254.5" y="-257" font-family="Helvetica,sans-Serif" font-size="10.00">::Match4PCSBase::TryOneBase</text>
</a>
</g>
</g>
<!-- Node86&#45;&gt;Node87 -->
<g id="edge1" class="edge"><title>Node86&#45;&gt;Node87</title>
<path fill="none" stroke="midnightblue" d="M139.163,-265C147.546,-265 156.202,-265 164.825,-265"/>
<polygon fill="midnightblue" stroke="midnightblue" points="164.914,-268.5 174.914,-265 164.914,-261.5 164.914,-268.5"/>
</g>
<!-- Node88 -->
<g id="node3" class="node"><title>Node88</title>
<g id="a_node3"><a xlink:href="a05206.xhtml#a423c63bc1aece6379b9b6a8cf9d5aa0f" target="_top" xlink:title="GlobalRegistration\l::Match4PCSBase::TryQuadrilateral">
<polygon fill="white" stroke="black" points="593,-379 593,-409 766,-409 766,-379 593,-379"/>
<text text-anchor="start" x="601" y="-397" font-family="Helvetica,sans-Serif" font-size="10.00">GlobalRegistration</text>
<text text-anchor="middle" x="679.5" y="-386" font-family="Helvetica,sans-Serif" font-size="10.00">::Match4PCSBase::TryQuadrilateral</text>
</a>
</g>
</g>
<!-- Node87&#45;&gt;Node88 -->
<g id="edge2" class="edge"><title>Node87&#45;&gt;Node88</title>
<path fill="none" stroke="midnightblue" d="M273.672,-280.057C295.252,-297.116 333.001,-324.432 370,-339 438.331,-365.904 520.375,-379.728 582.672,-386.785"/>
<polygon fill="midnightblue" stroke="midnightblue" points="582.565,-390.294 592.887,-387.902 583.326,-383.336 582.565,-390.294"/>
</g>
<!-- Node89 -->
<g id="node4" class="node"><title>Node89</title>
<g id="a_node4"><a xlink:href="a05206.xhtml#a3b37709e1bda55f4d109c9a2dbd7b170" target="_top" xlink:title="GlobalRegistration\l::Match4PCSBase::SelectQuadrilateral">
<polygon fill="white" stroke="black" points="370,-299 370,-329 557,-329 557,-299 370,-299"/>
<text text-anchor="start" x="378" y="-317" font-family="Helvetica,sans-Serif" font-size="10.00">GlobalRegistration</text>
<text text-anchor="middle" x="463.5" y="-306" font-family="Helvetica,sans-Serif" font-size="10.00">::Match4PCSBase::SelectQuadrilateral</text>
</a>
</g>
</g>
<!-- Node87&#45;&gt;Node89 -->
<g id="edge3" class="edge"><title>Node87&#45;&gt;Node89</title>
<path fill="none" stroke="midnightblue" d="M319.014,-280.035C341.168,-285.279 366.211,-291.207 389.102,-296.626"/>
<polygon fill="midnightblue" stroke="midnightblue" points="388.569,-300.096 399.107,-298.994 390.182,-293.284 388.569,-300.096"/>
</g>
<!-- Node93 -->
<g id="node8" class="node"><title>Node93</title>
<g id="a_node8"><a xlink:href="a05206.xhtml#a869c21b7c49110f7301e78d64d9e0e57" target="_top" xlink:title="GlobalRegistration\l::Match4PCSBase::ExtractPairs">
<polygon fill="white" stroke="black" points="384.5,-250 384.5,-280 542.5,-280 542.5,-250 384.5,-250"/>
<text text-anchor="start" x="392.5" y="-268" font-family="Helvetica,sans-Serif" font-size="10.00">GlobalRegistration</text>
<text text-anchor="middle" x="463.5" y="-257" font-family="Helvetica,sans-Serif" font-size="10.00">::Match4PCSBase::ExtractPairs</text>
</a>
</g>
</g>
<!-- Node87&#45;&gt;Node93 -->
<g id="edge8" class="edge"><title>Node87&#45;&gt;Node93</title>
<path fill="none" stroke="midnightblue" d="M334.053,-265C347.177,-265 360.871,-265 374.219,-265"/>
<polygon fill="midnightblue" stroke="midnightblue" points="374.344,-268.5 384.344,-265 374.344,-261.5 374.344,-268.5"/>
</g>
<!-- Node94 -->
<g id="node9" class="node"><title>Node94</title>
<g id="a_node9"><a xlink:href="a05206.xhtml#ae197b4fe78911f96d3732d5faf0a6901" target="_top" xlink:title="GlobalRegistration\l::Match4PCSBase::FindCongruent\lQuadrilaterals">
<polygon fill="white" stroke="black" points="379.5,-189.5 379.5,-230.5 547.5,-230.5 547.5,-189.5 379.5,-189.5"/>
<text text-anchor="start" x="387.5" y="-218.5" font-family="Helvetica,sans-Serif" font-size="10.00">GlobalRegistration</text>
<text text-anchor="start" x="387.5" y="-207.5" font-family="Helvetica,sans-Serif" font-size="10.00">::Match4PCSBase::FindCongruent</text>
<text text-anchor="middle" x="463.5" y="-196.5" font-family="Helvetica,sans-Serif" font-size="10.00">Quadrilaterals</text>
</a>
</g>
</g>
<!-- Node87&#45;&gt;Node94 -->
<g id="edge9" class="edge"><title>Node87&#45;&gt;Node94</title>
<path fill="none" stroke="midnightblue" d="M312.064,-249.971C331.579,-244.786 353.92,-238.85 375.307,-233.167"/>
<polygon fill="midnightblue" stroke="midnightblue" points="376.287,-236.528 385.053,-230.578 374.489,-229.763 376.287,-236.528"/>
</g>
<!-- Node95 -->
<g id="node10" class="node"><title>Node95</title>
<g id="a_node10"><a xlink:href="a05206.xhtml#acecb2de1f163aff07803ebf905ab3e36" target="_top" xlink:title="GlobalRegistration\l::Match4PCSBase::TryCongruentSet">
<polygon fill="white" stroke="black" points="374,-116 374,-146 553,-146 553,-116 374,-116"/>
<text text-anchor="start" x="382" y="-134" font-family="Helvetica,sans-Serif" font-size="10.00">GlobalRegistration</text>
<text text-anchor="middle" x="463.5" y="-123" font-family="Helvetica,sans-Serif" font-size="10.00">::Match4PCSBase::TryCongruentSet</text>
</a>
</g>
</g>
<!-- Node87&#45;&gt;Node95 -->
<g id="edge10" class="edge"><title>Node87&#45;&gt;Node95</title>
<path fill="none" stroke="midnightblue" d="M273.924,-249.957C296.049,-232.218 334.615,-202.326 370,-180 386.445,-169.624 405.303,-159.361 421.683,-150.93"/>
<polygon fill="midnightblue" stroke="midnightblue" points="423.677,-153.843 431.005,-146.19 420.504,-147.603 423.677,-153.843"/>
</g>
<!-- Node89&#45;&gt;Node88 -->
<g id="edge5" class="edge"><title>Node89&#45;&gt;Node88</title>
<path fill="none" stroke="midnightblue" d="M496.815,-329.111C522.546,-340.83 559.652,-357.036 593,-369 599.705,-371.405 606.766,-373.755 613.836,-375.99"/>
<polygon fill="midnightblue" stroke="midnightblue" points="612.864,-379.353 623.452,-378.962 614.932,-372.665 612.864,-379.353"/>
</g>
<!-- Node90 -->
<g id="node5" class="node"><title>Node90</title>
<g id="a_node5"><a xlink:href="a05206.xhtml#af9b9a0034ec3ff9646b36ce6250702cd" target="_top" xlink:title="GlobalRegistration\l::Match4PCSBase::SelectRandom\lTriangle">
<polygon fill="white" stroke="black" points="595,-318.5 595,-359.5 764,-359.5 764,-318.5 595,-318.5"/>
<text text-anchor="start" x="603" y="-347.5" font-family="Helvetica,sans-Serif" font-size="10.00">GlobalRegistration</text>
<text text-anchor="start" x="603" y="-336.5" font-family="Helvetica,sans-Serif" font-size="10.00">::Match4PCSBase::SelectRandom</text>
<text text-anchor="middle" x="679.5" y="-325.5" font-family="Helvetica,sans-Serif" font-size="10.00">Triangle</text>
</a>
</g>
</g>
<!-- Node89&#45;&gt;Node90 -->
<g id="edge4" class="edge"><title>Node89&#45;&gt;Node90</title>
<path fill="none" stroke="midnightblue" d="M557.119,-324.82C566.327,-325.896 575.68,-326.988 584.898,-328.065"/>
<polygon fill="midnightblue" stroke="midnightblue" points="584.496,-331.542 594.834,-329.226 585.308,-324.589 584.496,-331.542"/>
</g>
<!-- Node91 -->
<g id="node6" class="node"><title>Node91</title>
<g id="a_node6"><a xlink:href="a05142.xhtml#a81bcdc0c30914894311c78396d3781c7" target="_top" xlink:title="Add a new vertex in the KdTree. ">
<polygon fill="white" stroke="black" points="631,-269 631,-299 728,-299 728,-269 631,-269"/>
<text text-anchor="start" x="639" y="-287" font-family="Helvetica,sans-Serif" font-size="10.00">GlobalRegistration</text>
<text text-anchor="middle" x="679.5" y="-276" font-family="Helvetica,sans-Serif" font-size="10.00">::KdTree::add</text>
</a>
</g>
</g>
<!-- Node89&#45;&gt;Node91 -->
<g id="edge6" class="edge"><title>Node89&#45;&gt;Node91</title>
<path fill="none" stroke="midnightblue" d="M557.119,-301.016C578.762,-297.982 601.205,-294.836 620.819,-292.086"/>
<polygon fill="midnightblue" stroke="midnightblue" points="621.381,-295.542 630.798,-290.687 620.409,-288.61 621.381,-295.542"/>
</g>
<!-- Node92 -->
<g id="node7" class="node"><title>Node92</title>
<g id="a_node7"><a xlink:href="a05142.xhtml#a6841c0418254813b75dd036a9e4e7c2b" target="_top" xlink:title="Finalize the creation of the KdTree. ">
<polygon fill="white" stroke="black" points="631,-220 631,-250 728,-250 728,-220 631,-220"/>
<text text-anchor="start" x="639" y="-238" font-family="Helvetica,sans-Serif" font-size="10.00">GlobalRegistration</text>
<text text-anchor="middle" x="679.5" y="-227" font-family="Helvetica,sans-Serif" font-size="10.00">::KdTree::finalize</text>
</a>
</g>
</g>
<!-- Node89&#45;&gt;Node92 -->
<g id="edge7" class="edge"><title>Node89&#45;&gt;Node92</title>
<path fill="none" stroke="midnightblue" d="M535.894,-298.913C543.193,-296.362 550.358,-293.41 557,-290 575.528,-280.488 574.619,-269.795 593,-260 601.803,-255.309 611.598,-251.395 621.326,-248.164"/>
<polygon fill="midnightblue" stroke="midnightblue" points="622.483,-251.469 630.992,-245.157 620.404,-244.785 622.483,-251.469"/>
</g>
<!-- Node96 -->
<g id="node11" class="node"><title>Node96</title>
<g id="a_node11"><a xlink:href="a05238.xhtml#acd6175b6251a3fbf9e3e329ebfc58d06" target="_top" xlink:title="GlobalRegistration\l::Point3D::pos">
<polygon fill="white" stroke="black" points="631,-171 631,-201 728,-201 728,-171 631,-171"/>
<text text-anchor="start" x="639" y="-189" font-family="Helvetica,sans-Serif" font-size="10.00">GlobalRegistration</text>
<text text-anchor="middle" x="679.5" y="-178" font-family="Helvetica,sans-Serif" font-size="10.00">::Point3D::pos</text>
</a>
</g>
</g>
<!-- Node95&#45;&gt;Node96 -->
<g id="edge11" class="edge"><title>Node95&#45;&gt;Node96</title>
<path fill="none" stroke="midnightblue" d="M522.976,-146.029C553.441,-153.859 590.563,-163.399 620.899,-171.196"/>
<polygon fill="midnightblue" stroke="midnightblue" points="620.35,-174.669 630.907,-173.768 622.093,-167.889 620.35,-174.669"/>
</g>
<!-- Node97 -->
<g id="node12" class="node"><title>Node97</title>
<g id="a_node12"><a xlink:href="a05206.xhtml#af4249983ba17f93c48ba4f4d83442511" target="_top" xlink:title="GlobalRegistration\l::Match4PCSBase::ComputeRigid\lTransformation">
<polygon fill="white" stroke="black" points="596,-110.5 596,-151.5 763,-151.5 763,-110.5 596,-110.5"/>
<text text-anchor="start" x="604" y="-139.5" font-family="Helvetica,sans-Serif" font-size="10.00">GlobalRegistration</text>
<text text-anchor="start" x="604" y="-128.5" font-family="Helvetica,sans-Serif" font-size="10.00">::Match4PCSBase::ComputeRigid</text>
<text text-anchor="middle" x="679.5" y="-117.5" font-family="Helvetica,sans-Serif" font-size="10.00">Transformation</text>
</a>
</g>
</g>
<!-- Node95&#45;&gt;Node97 -->
<g id="edge12" class="edge"><title>Node95&#45;&gt;Node97</title>
<path fill="none" stroke="midnightblue" d="M553.087,-131C563.805,-131 574.777,-131 585.555,-131"/>
<polygon fill="midnightblue" stroke="midnightblue" points="585.815,-134.5 595.815,-131 585.815,-127.5 585.815,-134.5"/>
</g>
<!-- Node98 -->
<g id="node13" class="node"><title>Node98</title>
<g id="a_node13"><a xlink:href="a05206.xhtml#ac9a328320c7729722e3a4b9234f2dadf" target="_top" xlink:title="GlobalRegistration\l::Match4PCSBase::Verify">
<polygon fill="white" stroke="black" points="614.5,-61 614.5,-91 744.5,-91 744.5,-61 614.5,-61"/>
<text text-anchor="start" x="622.5" y="-79" font-family="Helvetica,sans-Serif" font-size="10.00">GlobalRegistration</text>
<text text-anchor="middle" x="679.5" y="-68" font-family="Helvetica,sans-Serif" font-size="10.00">::Match4PCSBase::Verify</text>
</a>
</g>
</g>
<!-- Node95&#45;&gt;Node98 -->
<g id="edge13" class="edge"><title>Node95&#45;&gt;Node98</title>
<path fill="none" stroke="midnightblue" d="M522.976,-115.971C549.987,-109.029 582.232,-100.742 610.34,-93.5177"/>
<polygon fill="midnightblue" stroke="midnightblue" points="611.28,-96.8899 620.094,-91.0108 609.538,-90.1103 611.28,-96.8899"/>
</g>
<!-- Node100 -->
<g id="node15" class="node"><title>Node100</title>
<g id="a_node15"><a xlink:href="a05246.xhtml#a1662893334239560ac536fd6bb44f71c" target="_top" xlink:title="GlobalRegistration\l::Match4PCSOptions::\lgetTerminateThreshold">
<polygon fill="white" stroke="black" points="621.5,-0.5 621.5,-41.5 737.5,-41.5 737.5,-0.5 621.5,-0.5"/>
<text text-anchor="start" x="629.5" y="-29.5" font-family="Helvetica,sans-Serif" font-size="10.00">GlobalRegistration</text>
<text text-anchor="start" x="629.5" y="-18.5" font-family="Helvetica,sans-Serif" font-size="10.00">::Match4PCSOptions::</text>
<text text-anchor="middle" x="679.5" y="-7.5" font-family="Helvetica,sans-Serif" font-size="10.00">getTerminateThreshold</text>
</a>
</g>
</g>
<!-- Node95&#45;&gt;Node100 -->
<g id="edge15" class="edge"><title>Node95&#45;&gt;Node100</title>
<path fill="none" stroke="midnightblue" d="M485.501,-115.907C510.291,-98.5775 553.192,-70.09 593,-51 599.004,-48.1208 605.36,-45.3736 611.787,-42.7934"/>
<polygon fill="midnightblue" stroke="midnightblue" points="613.163,-46.0138 621.223,-39.1367 610.634,-39.4869 613.163,-46.0138"/>
</g>
<!-- Node99 -->
<g id="node14" class="node"><title>Node99</title>
<g id="a_node14"><a xlink:href="a05142.xhtml#ad6cd36f9f91e1e6b444b38b1a986d0c1" target="_top" xlink:title="Finds the closest element index within the range [0:sqrt(sqdist)]. ">
<polygon fill="white" stroke="black" points="802,-55.5 802,-96.5 944,-96.5 944,-55.5 802,-55.5"/>
<text text-anchor="start" x="810" y="-84.5" font-family="Helvetica,sans-Serif" font-size="10.00">GlobalRegistration</text>
<text text-anchor="start" x="810" y="-73.5" font-family="Helvetica,sans-Serif" font-size="10.00">::KdTree::doQueryRestricted</text>
<text text-anchor="middle" x="873" y="-62.5" font-family="Helvetica,sans-Serif" font-size="10.00">ClosestIndex</text>
</a>
</g>
</g>
<!-- Node98&#45;&gt;Node99 -->
<g id="edge14" class="edge"><title>Node98&#45;&gt;Node99</title>
<path fill="none" stroke="midnightblue" d="M744.533,-76C759.607,-76 775.863,-76 791.556,-76"/>
<polygon fill="midnightblue" stroke="midnightblue" points="791.769,-79.5001 801.769,-76 791.769,-72.5001 791.769,-79.5001"/>
</g>
</g>
</svg>
        <g id="navigator" transform="translate(0 0)" fill="#404254">
                <rect fill="#f2f5e9" fill-opacity="0.5" stroke="#606060" stroke-width=".5" x="0" y="0" width="60" height="60"/>
                <use id="zoomplus" xlink:href="#zoomPlus" x="17" y="9" onmousedown="handleZoom(evt,'in')"/>
                <use id="zoomminus" xlink:href="#zoomMin" x="42" y="9" onmousedown="handleZoom(evt,'out')"/>
                <use id="reset" xlink:href="#resetDef" x="30" y="36" onmousedown="handleReset()"/>
                <g id="arrowUp" xlink:href="#dirArrow" transform="translate(30 24)" onmousedown="handlePan(0,-1)">
                  <use xlink:href="#rim" fill="#404040">
                        <set attributeName="fill" to="#808080" begin="arrowUp.mouseover" end="arrowUp.mouseout"/>
                  </use>
                  <path fill="none" stroke="white" stroke-width="1.5" d="M0,-3.0v7 M-2.5,-0.5L0,-3.0L2.5,-0.5"/>
                </g>
                <g id="arrowRight" xlink:href="#dirArrow" transform="rotate(90) translate(36 -43)" onmousedown="handlePan(1,0)">
                  <use xlink:href="#rim" fill="#404040">
                        <set attributeName="fill" to="#808080" begin="arrowRight.mouseover" end="arrowRight.mouseout"/>
                  </use>
                  <path fill="none" stroke="white" stroke-width="1.5" d="M0,-3.0v7 M-2.5,-0.5L0,-3.0L2.5,-0.5"/>
                </g>
                <g id="arrowDown" xlink:href="#dirArrow" transform="rotate(180) translate(-30 -48)" onmousedown="handlePan(0,1)">
                  <use xlink:href="#rim" fill="#404040">
                        <set attributeName="fill" to="#808080" begin="arrowDown.mouseover" end="arrowDown.mouseout"/>
                  </use>
                  <path fill="none" stroke="white" stroke-width="1.5" d="M0,-3.0v7 M-2.5,-0.5L0,-3.0L2.5,-0.5"/>
                </g>
                <g id="arrowLeft" xlink:href="#dirArrow" transform="rotate(270) translate(-36 17)" onmousedown="handlePan(-1,0)">
                  <use xlink:href="#rim" fill="#404040">
                        <set attributeName="fill" to="#808080" begin="arrowLeft.mouseover" end="arrowLeft.mouseout"/>
                  </use>
                  <path fill="none" stroke="white" stroke-width="1.5" d="M0,-3.0v7 M-2.5,-0.5L0,-3.0L2.5,-0.5"/>
                </g>
        </g>
        <svg viewBox="0 0 15 15" width="100%" height="30px" preserveAspectRatio="xMaxYMin meet">
         <g id="arrow_out" transform="scale(0.3 0.3)">
          <a xlink:href="a05206_afd714116c6898bc5913a9d77eca865ff_cgraph_org.svg" target="_base">
           <rect id="button" ry="5" rx="5" y="6" x="6" height="38" width="38"
                fill="#f2f5e9" fill-opacity="0.5" stroke="#606060" stroke-width="1.0"/>
           <path id="arrow"
             d="M 11.500037,31.436501 C 11.940474,20.09759 22.043105,11.32322 32.158766,21.979434 L 37.068811,17.246167 C 37.068811,17.246167 37.088388,32 37.088388,32 L 22.160133,31.978069 C 22.160133,31.978069 26.997745,27.140456 26.997745,27.140456 C 18.528582,18.264221 13.291696,25.230495 11.500037,31.436501 z"
             style="fill:#404040;"/>
          </a>
         </g>
        </svg>
</svg>
