<?xml version="1.0" encoding="UTF-8" standalone="no"?>
<!DOCTYPE svg PUBLIC "-//W3C//DTD SVG 1.1//EN"
 "http://www.w3.org/Graphics/SVG/1.1/DTD/svg11.dtd">
<!-- Generated by graphviz version 2.38.0 (20140413.2041)
 -->
<!-- Title: GlobalRegistration::Match4PCSBase::getSecondSampled Pages: 1 -->
<svg width="1384pt" height="575pt"
 viewBox="0.00 0.00 1384.00 575.00" xmlns="http://www.w3.org/2000/svg" xmlns:xlink="http://www.w3.org/1999/xlink">
<g id="graph0" class="graph" transform="scale(1 1) rotate(0) translate(4 571)">
<title>GlobalRegistration::Match4PCSBase::getSecondSampled</title>
<polygon fill="white" stroke="none" points="-4,4 -4,-571 1380,-571 1380,4 -4,4"/>
<!-- Node35 -->
<g id="node1" class="node"><title>Node35</title>
<polygon fill="#bfbfbf" stroke="black" points="0,-319.5 0,-360.5 151,-360.5 151,-319.5 0,-319.5"/>
<text text-anchor="start" x="8" y="-348.5" font-family="Helvetica,sans-Serif" font-size="10.00">GlobalRegistration</text>
<text text-anchor="start" x="8" y="-337.5" font-family="Helvetica,sans-Serif" font-size="10.00">::Match4PCSBase::getSecond</text>
<text text-anchor="middle" x="75.5" y="-326.5" font-family="Helvetica,sans-Serif" font-size="10.00">Sampled</text>
</g>
<!-- Node36 -->
<g id="node2" class="node"><title>Node36</title>
<g id="a_node2"><a xlink:href="a05206.xhtml#a75c9ca6da4d064f8484e432b7f795b8c" target="_top" xlink:title="GlobalRegistration\l::Match4PCSBase::ComputeTransformation">
<polygon fill="white" stroke="black" points="187,-325 187,-355 396,-355 396,-325 187,-325"/>
<text text-anchor="start" x="195" y="-343" font-family="Helvetica,sans-Serif" font-size="10.00">GlobalRegistration</text>
<text text-anchor="middle" x="291.5" y="-332" font-family="Helvetica,sans-Serif" font-size="10.00">::Match4PCSBase::ComputeTransformation</text>
</a>
</g>
</g>
<!-- Node35&#45;&gt;Node36 -->
<g id="edge1" class="edge"><title>Node35&#45;&gt;Node36</title>
<path fill="none" stroke="midnightblue" d="M151.046,-340C159.37,-340 167.982,-340 176.655,-340"/>
<polygon fill="midnightblue" stroke="midnightblue" points="176.85,-343.5 186.85,-340 176.85,-336.5 176.85,-343.5"/>
</g>
<!-- Node37 -->
<g id="node3" class="node"><title>Node37</title>
<g id="a_node3"><a xlink:href="a05206.xhtml#a6da7132684e7b8285711303d136aed79" target="_top" xlink:title="GlobalRegistration\l::Match4PCSBase::init">
<polygon fill="white" stroke="black" points="837,-427 837,-457 954,-457 954,-427 837,-427"/>
<text text-anchor="start" x="845" y="-445" font-family="Helvetica,sans-Serif" font-size="10.00">GlobalRegistration</text>
<text text-anchor="middle" x="895.5" y="-434" font-family="Helvetica,sans-Serif" font-size="10.00">::Match4PCSBase::init</text>
</a>
</g>
</g>
<!-- Node36&#45;&gt;Node37 -->
<g id="edge2" class="edge"><title>Node36&#45;&gt;Node37</title>
<path fill="none" stroke="midnightblue" d="M381.327,-355.05C502.642,-375.605 717.513,-412.012 826.716,-430.515"/>
<polygon fill="midnightblue" stroke="midnightblue" points="826.184,-433.975 836.628,-432.195 827.354,-427.073 826.184,-433.975"/>
</g>
<!-- Node43 -->
<g id="node9" class="node"><title>Node43</title>
<g id="a_node9"><a xlink:href="a05206.xhtml#afd714116c6898bc5913a9d77eca865ff" target="_top" xlink:title="GlobalRegistration\l::Match4PCSBase::Perform\l_N_steps">
<polygon fill="white" stroke="black" points="432,-262.5 432,-303.5 571,-303.5 571,-262.5 432,-262.5"/>
<text text-anchor="start" x="440" y="-291.5" font-family="Helvetica,sans-Serif" font-size="10.00">GlobalRegistration</text>
<text text-anchor="start" x="440" y="-280.5" font-family="Helvetica,sans-Serif" font-size="10.00">::Match4PCSBase::Perform</text>
<text text-anchor="middle" x="501.5" y="-269.5" font-family="Helvetica,sans-Serif" font-size="10.00">_N_steps</text>
</a>
</g>
</g>
<!-- Node36&#45;&gt;Node43 -->
<g id="edge9" class="edge"><title>Node36&#45;&gt;Node43</title>
<path fill="none" stroke="midnightblue" d="M347.422,-324.949C370.267,-318.689 397.211,-311.305 422.076,-304.491"/>
<polygon fill="midnightblue" stroke="midnightblue" points="423.134,-307.83 431.853,-301.812 421.284,-301.079 423.134,-307.83"/>
</g>
<!-- Node38 -->
<g id="node4" class="node"><title>Node38</title>
<g id="a_node4"><a xlink:href="a05206.xhtml#a63d5f8d1043f6993c0bc3f14291e04b6" target="_top" xlink:title="GlobalRegistration\l::Match4PCSBase::MeanDistance">
<polygon fill="white" stroke="black" points="1028,-427 1028,-457 1195,-457 1195,-427 1028,-427"/>
<text text-anchor="start" x="1036" y="-445" font-family="Helvetica,sans-Serif" font-size="10.00">GlobalRegistration</text>
<text text-anchor="middle" x="1111.5" y="-434" font-family="Helvetica,sans-Serif" font-size="10.00">::Match4PCSBase::MeanDistance</text>
</a>
</g>
</g>
<!-- Node37&#45;&gt;Node38 -->
<g id="edge3" class="edge"><title>Node37&#45;&gt;Node38</title>
<path fill="none" stroke="midnightblue" d="M954.13,-442C973.687,-442 996.063,-442 1017.66,-442"/>
<polygon fill="midnightblue" stroke="midnightblue" points="1017.84,-445.5 1027.84,-442 1017.84,-438.5 1017.84,-445.5"/>
</g>
<!-- Node40 -->
<g id="node6" class="node"><title>Node40</title>
<g id="a_node6"><a xlink:href="a05246.xhtml#a91b3ac4a47f82c2c2ff8ecd0bbd43c2b" target="_top" xlink:title="GlobalRegistration\l::Match4PCSOptions::\lgetOverlapEstimation">
<polygon fill="white" stroke="black" points="1053.5,-525.5 1053.5,-566.5 1169.5,-566.5 1169.5,-525.5 1053.5,-525.5"/>
<text text-anchor="start" x="1061.5" y="-554.5" font-family="Helvetica,sans-Serif" font-size="10.00">GlobalRegistration</text>
<text text-anchor="start" x="1061.5" y="-543.5" font-family="Helvetica,sans-Serif" font-size="10.00">::Match4PCSOptions::</text>
<text text-anchor="middle" x="1111.5" y="-532.5" font-family="Helvetica,sans-Serif" font-size="10.00">getOverlapEstimation</text>
</a>
</g>
</g>
<!-- Node37&#45;&gt;Node40 -->
<g id="edge5" class="edge"><title>Node37&#45;&gt;Node40</title>
<path fill="none" stroke="midnightblue" d="M920.486,-457.256C945.825,-472.98 987.257,-497.588 1025,-515 1031.07,-517.8 1037.47,-520.521 1043.92,-523.113"/>
<polygon fill="midnightblue" stroke="midnightblue" points="1042.8,-526.432 1053.39,-526.813 1045.35,-519.912 1042.8,-526.432"/>
</g>
<!-- Node41 -->
<g id="node7" class="node"><title>Node41</title>
<g id="a_node7"><a xlink:href="a05206.xhtml#adac9aa457425985cf778c69c60fecc21" target="_top" xlink:title="GlobalRegistration\l::Match4PCSBase::Initialize">
<polygon fill="white" stroke="black" points="1041.5,-476 1041.5,-506 1181.5,-506 1181.5,-476 1041.5,-476"/>
<text text-anchor="start" x="1049.5" y="-494" font-family="Helvetica,sans-Serif" font-size="10.00">GlobalRegistration</text>
<text text-anchor="middle" x="1111.5" y="-483" font-family="Helvetica,sans-Serif" font-size="10.00">::Match4PCSBase::Initialize</text>
</a>
</g>
</g>
<!-- Node37&#45;&gt;Node41 -->
<g id="edge6" class="edge"><title>Node37&#45;&gt;Node41</title>
<path fill="none" stroke="midnightblue" d="M954.13,-455.196C978.938,-460.876 1008.28,-467.595 1034.81,-473.669"/>
<polygon fill="midnightblue" stroke="midnightblue" points="1034.29,-477.142 1044.82,-475.962 1035.86,-470.318 1034.29,-477.142"/>
</g>
<!-- Node42 -->
<g id="node8" class="node"><title>Node42</title>
<g id="a_node8"><a xlink:href="a05206.xhtml#ac9a328320c7729722e3a4b9234f2dadf" target="_top" xlink:title="GlobalRegistration\l::Match4PCSBase::Verify">
<polygon fill="white" stroke="black" points="1046.5,-378 1046.5,-408 1176.5,-408 1176.5,-378 1046.5,-378"/>
<text text-anchor="start" x="1054.5" y="-396" font-family="Helvetica,sans-Serif" font-size="10.00">GlobalRegistration</text>
<text text-anchor="middle" x="1111.5" y="-385" font-family="Helvetica,sans-Serif" font-size="10.00">::Match4PCSBase::Verify</text>
</a>
</g>
</g>
<!-- Node37&#45;&gt;Node42 -->
<g id="edge7" class="edge"><title>Node37&#45;&gt;Node42</title>
<path fill="none" stroke="midnightblue" d="M954.13,-428.804C979.488,-422.998 1009.59,-416.107 1036.57,-409.928"/>
<polygon fill="midnightblue" stroke="midnightblue" points="1037.39,-413.331 1046.36,-407.687 1035.83,-406.507 1037.39,-413.331"/>
</g>
<!-- Node39 -->
<g id="node5" class="node"><title>Node39</title>
<g id="a_node5"><a xlink:href="a05142.xhtml#ad6cd36f9f91e1e6b444b38b1a986d0c1" target="_top" xlink:title="Finds the closest element index within the range [0:sqrt(sqdist)]. ">
<polygon fill="white" stroke="black" points="1234,-396.5 1234,-437.5 1376,-437.5 1376,-396.5 1234,-396.5"/>
<text text-anchor="start" x="1242" y="-425.5" font-family="Helvetica,sans-Serif" font-size="10.00">GlobalRegistration</text>
<text text-anchor="start" x="1242" y="-414.5" font-family="Helvetica,sans-Serif" font-size="10.00">::KdTree::doQueryRestricted</text>
<text text-anchor="middle" x="1305" y="-403.5" font-family="Helvetica,sans-Serif" font-size="10.00">ClosestIndex</text>
</a>
</g>
</g>
<!-- Node38&#45;&gt;Node39 -->
<g id="edge4" class="edge"><title>Node38&#45;&gt;Node39</title>
<path fill="none" stroke="midnightblue" d="M1195.1,-431.216C1204.62,-429.974 1214.31,-428.709 1223.79,-427.471"/>
<polygon fill="midnightblue" stroke="midnightblue" points="1224.52,-430.906 1233.98,-426.141 1223.61,-423.965 1224.52,-430.906"/>
</g>
<!-- Node42&#45;&gt;Node39 -->
<g id="edge8" class="edge"><title>Node42&#45;&gt;Node39</title>
<path fill="none" stroke="midnightblue" d="M1176.53,-401.025C1191.61,-402.914 1207.86,-404.951 1223.56,-406.918"/>
<polygon fill="midnightblue" stroke="midnightblue" points="1223.41,-410.427 1233.77,-408.198 1224.28,-403.482 1223.41,-410.427"/>
</g>
<!-- Node44 -->
<g id="node10" class="node"><title>Node44</title>
<g id="a_node10"><a xlink:href="a05206.xhtml#adcacd57bf5844d8205a7620c72c0d450" target="_top" xlink:title="GlobalRegistration\l::Match4PCSBase::TryOneBase">
<polygon fill="white" stroke="black" points="607,-137 607,-167 766,-167 766,-137 607,-137"/>
<text text-anchor="start" x="615" y="-155" font-family="Helvetica,sans-Serif" font-size="10.00">GlobalRegistration</text>
<text text-anchor="middle" x="686.5" y="-144" font-family="Helvetica,sans-Serif" font-size="10.00">::Match4PCSBase::TryOneBase</text>
</a>
</g>
</g>
<!-- Node43&#45;&gt;Node44 -->
<g id="edge10" class="edge"><title>Node43&#45;&gt;Node44</title>
<path fill="none" stroke="midnightblue" d="M531.497,-262.243C565.595,-237.834 621.875,-197.546 656.133,-173.023"/>
<polygon fill="midnightblue" stroke="midnightblue" points="658.247,-175.814 664.341,-167.147 654.172,-170.122 658.247,-175.814"/>
</g>
<!-- Node45 -->
<g id="node11" class="node"><title>Node45</title>
<g id="a_node11"><a xlink:href="a05206.xhtml#a423c63bc1aece6379b9b6a8cf9d5aa0f" target="_top" xlink:title="GlobalRegistration\l::Match4PCSBase::TryQuadrilateral">
<polygon fill="white" stroke="black" points="1025,-159 1025,-189 1198,-189 1198,-159 1025,-159"/>
<text text-anchor="start" x="1033" y="-177" font-family="Helvetica,sans-Serif" font-size="10.00">GlobalRegistration</text>
<text text-anchor="middle" x="1111.5" y="-166" font-family="Helvetica,sans-Serif" font-size="10.00">::Match4PCSBase::TryQuadrilateral</text>
</a>
</g>
</g>
<!-- Node44&#45;&gt;Node45 -->
<g id="edge11" class="edge"><title>Node44&#45;&gt;Node45</title>
<path fill="none" stroke="midnightblue" d="M766.072,-156.086C836.24,-159.736 939.236,-165.093 1014.31,-168.997"/>
<polygon fill="midnightblue" stroke="midnightblue" points="1014.55,-172.514 1024.71,-169.538 1014.91,-165.524 1014.55,-172.514"/>
</g>
<!-- Node46 -->
<g id="node12" class="node"><title>Node46</title>
<g id="a_node12"><a xlink:href="a05206.xhtml#a3b37709e1bda55f4d109c9a2dbd7b170" target="_top" xlink:title="GlobalRegistration\l::Match4PCSBase::SelectQuadrilateral">
<polygon fill="white" stroke="black" points="802,-115 802,-145 989,-145 989,-115 802,-115"/>
<text text-anchor="start" x="810" y="-133" font-family="Helvetica,sans-Serif" font-size="10.00">GlobalRegistration</text>
<text text-anchor="middle" x="895.5" y="-122" font-family="Helvetica,sans-Serif" font-size="10.00">::Match4PCSBase::SelectQuadrilateral</text>
</a>
</g>
</g>
<!-- Node44&#45;&gt;Node46 -->
<g id="edge12" class="edge"><title>Node44&#45;&gt;Node46</title>
<path fill="none" stroke="midnightblue" d="M766.053,-143.651C774.438,-142.76 783.055,-141.844 791.666,-140.929"/>
<polygon fill="midnightblue" stroke="midnightblue" points="792.184,-144.394 801.758,-139.857 791.444,-137.433 792.184,-144.394"/>
</g>
<!-- Node50 -->
<g id="node16" class="node"><title>Node50</title>
<g id="a_node16"><a xlink:href="a05206.xhtml#a869c21b7c49110f7301e78d64d9e0e57" target="_top" xlink:title="GlobalRegistration\l::Match4PCSBase::ExtractPairs">
<polygon fill="white" stroke="black" points="816.5,-66 816.5,-96 974.5,-96 974.5,-66 816.5,-66"/>
<text text-anchor="start" x="824.5" y="-84" font-family="Helvetica,sans-Serif" font-size="10.00">GlobalRegistration</text>
<text text-anchor="middle" x="895.5" y="-73" font-family="Helvetica,sans-Serif" font-size="10.00">::Match4PCSBase::ExtractPairs</text>
</a>
</g>
</g>
<!-- Node44&#45;&gt;Node50 -->
<g id="edge17" class="edge"><title>Node44&#45;&gt;Node50</title>
<path fill="none" stroke="midnightblue" d="M721.114,-136.791C743.693,-126.927 774.275,-114.24 802,-105 808.345,-102.885 814.986,-100.842 821.671,-98.8989"/>
<polygon fill="midnightblue" stroke="midnightblue" points="822.799,-102.217 831.469,-96.1283 820.894,-95.4815 822.799,-102.217"/>
</g>
<!-- Node51 -->
<g id="node17" class="node"><title>Node51</title>
<g id="a_node17"><a xlink:href="a05206.xhtml#ae197b4fe78911f96d3732d5faf0a6901" target="_top" xlink:title="GlobalRegistration\l::Match4PCSBase::FindCongruent\lQuadrilaterals">
<polygon fill="white" stroke="black" points="811.5,-5.5 811.5,-46.5 979.5,-46.5 979.5,-5.5 811.5,-5.5"/>
<text text-anchor="start" x="819.5" y="-34.5" font-family="Helvetica,sans-Serif" font-size="10.00">GlobalRegistration</text>
<text text-anchor="start" x="819.5" y="-23.5" font-family="Helvetica,sans-Serif" font-size="10.00">::Match4PCSBase::FindCongruent</text>
<text text-anchor="middle" x="895.5" y="-12.5" font-family="Helvetica,sans-Serif" font-size="10.00">Quadrilaterals</text>
</a>
</g>
</g>
<!-- Node44&#45;&gt;Node51 -->
<g id="edge18" class="edge"><title>Node44&#45;&gt;Node51</title>
<path fill="none" stroke="midnightblue" d="M701.661,-136.924C722.028,-116.042 761.604,-78.3672 802,-56 805.295,-54.1753 808.719,-52.4408 812.224,-50.7946"/>
<polygon fill="midnightblue" stroke="midnightblue" points="813.914,-53.8745 821.657,-46.642 811.094,-47.4678 813.914,-53.8745"/>
</g>
<!-- Node52 -->
<g id="node18" class="node"><title>Node52</title>
<g id="a_node18"><a xlink:href="a05206.xhtml#acecb2de1f163aff07803ebf905ab3e36" target="_top" xlink:title="GlobalRegistration\l::Match4PCSBase::TryCongruentSet">
<polygon fill="white" stroke="black" points="806,-263 806,-293 985,-293 985,-263 806,-263"/>
<text text-anchor="start" x="814" y="-281" font-family="Helvetica,sans-Serif" font-size="10.00">GlobalRegistration</text>
<text text-anchor="middle" x="895.5" y="-270" font-family="Helvetica,sans-Serif" font-size="10.00">::Match4PCSBase::TryCongruentSet</text>
</a>
</g>
</g>
<!-- Node44&#45;&gt;Node52 -->
<g id="edge19" class="edge"><title>Node44&#45;&gt;Node52</title>
<path fill="none" stroke="midnightblue" d="M712.469,-167.199C749.636,-189.822 819.578,-232.395 861.106,-257.673"/>
<polygon fill="midnightblue" stroke="midnightblue" points="859.403,-260.734 869.765,-262.944 863.042,-254.754 859.403,-260.734"/>
</g>
<!-- Node46&#45;&gt;Node45 -->
<g id="edge14" class="edge"><title>Node46&#45;&gt;Node45</title>
<path fill="none" stroke="midnightblue" d="M969.548,-145.019C988.211,-148.856 1008.41,-153.01 1027.53,-156.941"/>
<polygon fill="midnightblue" stroke="midnightblue" points="1026.92,-160.388 1037.42,-158.974 1028.33,-153.531 1026.92,-160.388"/>
</g>
<!-- Node47 -->
<g id="node13" class="node"><title>Node47</title>
<g id="a_node13"><a xlink:href="a05206.xhtml#af9b9a0034ec3ff9646b36ce6250702cd" target="_top" xlink:title="GlobalRegistration\l::Match4PCSBase::SelectRandom\lTriangle">
<polygon fill="white" stroke="black" points="1027,-0.5 1027,-41.5 1196,-41.5 1196,-0.5 1027,-0.5"/>
<text text-anchor="start" x="1035" y="-29.5" font-family="Helvetica,sans-Serif" font-size="10.00">GlobalRegistration</text>
<text text-anchor="start" x="1035" y="-18.5" font-family="Helvetica,sans-Serif" font-size="10.00">::Match4PCSBase::SelectRandom</text>
<text text-anchor="middle" x="1111.5" y="-7.5" font-family="Helvetica,sans-Serif" font-size="10.00">Triangle</text>
</a>
</g>
</g>
<!-- Node46&#45;&gt;Node47 -->
<g id="edge13" class="edge"><title>Node46&#45;&gt;Node47</title>
<path fill="none" stroke="midnightblue" d="M971.392,-114.937C977.625,-112.166 983.597,-108.885 989,-105 1012.42,-88.1612 1002.22,-68.6878 1025,-51 1026.82,-49.5892 1028.71,-48.2417 1030.65,-46.9548"/>
<polygon fill="midnightblue" stroke="midnightblue" points="1032.7,-49.81 1039.51,-41.693 1029.12,-43.7921 1032.7,-49.81"/>
</g>
<!-- Node48 -->
<g id="node14" class="node"><title>Node48</title>
<g id="a_node14"><a xlink:href="a05142.xhtml#a81bcdc0c30914894311c78396d3781c7" target="_top" xlink:title="Add a new vertex in the KdTree. ">
<polygon fill="white" stroke="black" points="1063,-110 1063,-140 1160,-140 1160,-110 1063,-110"/>
<text text-anchor="start" x="1071" y="-128" font-family="Helvetica,sans-Serif" font-size="10.00">GlobalRegistration</text>
<text text-anchor="middle" x="1111.5" y="-117" font-family="Helvetica,sans-Serif" font-size="10.00">::KdTree::add</text>
</a>
</g>
</g>
<!-- Node46&#45;&gt;Node48 -->
<g id="edge15" class="edge"><title>Node46&#45;&gt;Node48</title>
<path fill="none" stroke="midnightblue" d="M989.119,-127.836C1010.66,-127.333 1033,-126.811 1052.55,-126.354"/>
<polygon fill="midnightblue" stroke="midnightblue" points="1052.88,-129.847 1062.8,-126.115 1052.72,-122.849 1052.88,-129.847"/>
</g>
<!-- Node49 -->
<g id="node15" class="node"><title>Node49</title>
<g id="a_node15"><a xlink:href="a05142.xhtml#a6841c0418254813b75dd036a9e4e7c2b" target="_top" xlink:title="Finalize the creation of the KdTree. ">
<polygon fill="white" stroke="black" points="1063,-61 1063,-91 1160,-91 1160,-61 1063,-61"/>
<text text-anchor="start" x="1071" y="-79" font-family="Helvetica,sans-Serif" font-size="10.00">GlobalRegistration</text>
<text text-anchor="middle" x="1111.5" y="-68" font-family="Helvetica,sans-Serif" font-size="10.00">::KdTree::finalize</text>
</a>
</g>
</g>
<!-- Node46&#45;&gt;Node49 -->
<g id="edge16" class="edge"><title>Node46&#45;&gt;Node49</title>
<path fill="none" stroke="midnightblue" d="M956.111,-114.958C986.334,-107.332 1022.88,-98.1103 1052.82,-90.5539"/>
<polygon fill="midnightblue" stroke="midnightblue" points="1053.87,-93.9002 1062.71,-88.0598 1052.15,-87.113 1053.87,-93.9002"/>
</g>
<!-- Node52&#45;&gt;Node42 -->
<g id="edge22" class="edge"><title>Node52&#45;&gt;Node42</title>
<path fill="none" stroke="midnightblue" d="M914.048,-293.131C937.762,-312.885 982.034,-347.365 1025,-368 1029.88,-370.343 1035.02,-372.513 1040.27,-374.513"/>
<polygon fill="midnightblue" stroke="midnightblue" points="1039.18,-377.843 1049.78,-377.931 1041.55,-371.256 1039.18,-377.843"/>
</g>
<!-- Node53 -->
<g id="node19" class="node"><title>Node53</title>
<g id="a_node19"><a xlink:href="a05238.xhtml#acd6175b6251a3fbf9e3e329ebfc58d06" target="_top" xlink:title="GlobalRegistration\l::Point3D::pos">
<polygon fill="white" stroke="black" points="1063,-208 1063,-238 1160,-238 1160,-208 1063,-208"/>
<text text-anchor="start" x="1071" y="-226" font-family="Helvetica,sans-Serif" font-size="10.00">GlobalRegistration</text>
<text text-anchor="middle" x="1111.5" y="-215" font-family="Helvetica,sans-Serif" font-size="10.00">::Point3D::pos</text>
</a>
</g>
</g>
<!-- Node52&#45;&gt;Node53 -->
<g id="edge20" class="edge"><title>Node52&#45;&gt;Node53</title>
<path fill="none" stroke="midnightblue" d="M954.976,-262.971C985.441,-255.141 1022.56,-245.601 1052.9,-237.804"/>
<polygon fill="midnightblue" stroke="midnightblue" points="1054.09,-241.111 1062.91,-235.232 1052.35,-234.331 1054.09,-241.111"/>
</g>
<!-- Node54 -->
<g id="node20" class="node"><title>Node54</title>
<g id="a_node20"><a xlink:href="a05206.xhtml#af4249983ba17f93c48ba4f4d83442511" target="_top" xlink:title="GlobalRegistration\l::Match4PCSBase::ComputeRigid\lTransformation">
<polygon fill="white" stroke="black" points="1028,-317.5 1028,-358.5 1195,-358.5 1195,-317.5 1028,-317.5"/>
<text text-anchor="start" x="1036" y="-346.5" font-family="Helvetica,sans-Serif" font-size="10.00">GlobalRegistration</text>
<text text-anchor="start" x="1036" y="-335.5" font-family="Helvetica,sans-Serif" font-size="10.00">::Match4PCSBase::ComputeRigid</text>
<text text-anchor="middle" x="1111.5" y="-324.5" font-family="Helvetica,sans-Serif" font-size="10.00">Transformation</text>
</a>
</g>
</g>
<!-- Node52&#45;&gt;Node54 -->
<g id="edge21" class="edge"><title>Node52&#45;&gt;Node54</title>
<path fill="none" stroke="midnightblue" d="M950.225,-293.063C973.609,-299.619 1001.55,-307.454 1027.51,-314.731"/>
<polygon fill="midnightblue" stroke="midnightblue" points="1026.77,-318.159 1037.34,-317.489 1028.66,-311.419 1026.77,-318.159"/>
</g>
<!-- Node55 -->
<g id="node21" class="node"><title>Node55</title>
<g id="a_node21"><a xlink:href="a05246.xhtml#a1662893334239560ac536fd6bb44f71c" target="_top" xlink:title="GlobalRegistration\l::Match4PCSOptions::\lgetTerminateThreshold">
<polygon fill="white" stroke="black" points="1053.5,-257.5 1053.5,-298.5 1169.5,-298.5 1169.5,-257.5 1053.5,-257.5"/>
<text text-anchor="start" x="1061.5" y="-286.5" font-family="Helvetica,sans-Serif" font-size="10.00">GlobalRegistration</text>
<text text-anchor="start" x="1061.5" y="-275.5" font-family="Helvetica,sans-Serif" font-size="10.00">::Match4PCSOptions::</text>
<text text-anchor="middle" x="1111.5" y="-264.5" font-family="Helvetica,sans-Serif" font-size="10.00">getTerminateThreshold</text>
</a>
</g>
</g>
<!-- Node52&#45;&gt;Node55 -->
<g id="edge23" class="edge"><title>Node52&#45;&gt;Node55</title>
<path fill="none" stroke="midnightblue" d="M985.087,-278C1004.59,-278 1024.93,-278 1043.42,-278"/>
<polygon fill="midnightblue" stroke="midnightblue" points="1043.48,-281.5 1053.48,-278 1043.48,-274.5 1043.48,-281.5"/>
</g>
</g>
</svg>
