<?xml version="1.0" encoding="UTF-8" standalone="no"?>
<!DOCTYPE svg PUBLIC "-//W3C//DTD SVG 1.1//EN"
 "http://www.w3.org/Graphics/SVG/1.1/DTD/svg11.dtd">
<!-- Generated by graphviz version 2.38.0 (20140413.2041)
 -->
<!-- Title: GlobalRegistration::Match4PCSBase::init Pages: 1 -->
<svg width="506pt" height="198pt"
 viewBox="0.00 0.00 506.00 198.00" xmlns="http://www.w3.org/2000/svg" xmlns:xlink="http://www.w3.org/1999/xlink">
<g id="graph0" class="graph" transform="scale(1 1) rotate(0) translate(4 194)">
<title>GlobalRegistration::Match4PCSBase::init</title>
<polygon fill="white" stroke="none" points="-4,4 -4,-194 502,-194 502,4 -4,4"/>
<!-- Node56 -->
<g id="node1" class="node"><title>Node56</title>
<polygon fill="#bfbfbf" stroke="black" points="0,-76.5 0,-106.5 117,-106.5 117,-76.5 0,-76.5"/>
<text text-anchor="start" x="8" y="-94.5" font-family="Helvetica,sans-Serif" font-size="10.00">GlobalRegistration</text>
<text text-anchor="middle" x="58.5" y="-83.5" font-family="Helvetica,sans-Serif" font-size="10.00">::Match4PCSBase::init</text>
</g>
<!-- Node57 -->
<g id="node2" class="node"><title>Node57</title>
<g id="a_node2"><a xlink:href="a05206.xhtml#a63d5f8d1043f6993c0bc3f14291e04b6" target="_top" xlink:title="GlobalRegistration\l::Match4PCSBase::MeanDistance">
<polygon fill="white" stroke="black" points="153,-159.5 153,-189.5 320,-189.5 320,-159.5 153,-159.5"/>
<text text-anchor="start" x="161" y="-177.5" font-family="Helvetica,sans-Serif" font-size="10.00">GlobalRegistration</text>
<text text-anchor="middle" x="236.5" y="-166.5" font-family="Helvetica,sans-Serif" font-size="10.00">::Match4PCSBase::MeanDistance</text>
</a>
</g>
</g>
<!-- Node56&#45;&gt;Node57 -->
<g id="edge1" class="edge"><title>Node56&#45;&gt;Node57</title>
<path fill="none" stroke="midnightblue" d="M80.1571,-106.515C98.5425,-119.331 126.545,-137.535 153,-149.5 158.241,-151.871 163.769,-154.093 169.378,-156.158"/>
<polygon fill="midnightblue" stroke="midnightblue" points="168.265,-159.476 178.859,-159.483 170.581,-152.871 168.265,-159.476"/>
</g>
<!-- Node59 -->
<g id="node4" class="node"><title>Node59</title>
<g id="a_node4"><a xlink:href="a05246.xhtml#a91b3ac4a47f82c2c2ff8ecd0bbd43c2b" target="_top" xlink:title="GlobalRegistration\l::Match4PCSOptions::\lgetOverlapEstimation">
<polygon fill="white" stroke="black" points="178.5,-99 178.5,-140 294.5,-140 294.5,-99 178.5,-99"/>
<text text-anchor="start" x="186.5" y="-128" font-family="Helvetica,sans-Serif" font-size="10.00">GlobalRegistration</text>
<text text-anchor="start" x="186.5" y="-117" font-family="Helvetica,sans-Serif" font-size="10.00">::Match4PCSOptions::</text>
<text text-anchor="middle" x="236.5" y="-106" font-family="Helvetica,sans-Serif" font-size="10.00">getOverlapEstimation</text>
</a>
</g>
</g>
<!-- Node56&#45;&gt;Node59 -->
<g id="edge3" class="edge"><title>Node56&#45;&gt;Node59</title>
<path fill="none" stroke="midnightblue" d="M117.129,-100.668C133.401,-103.257 151.252,-106.097 168.046,-108.769"/>
<polygon fill="midnightblue" stroke="midnightblue" points="167.917,-112.292 178.343,-110.407 169.017,-105.379 167.917,-112.292"/>
</g>
<!-- Node60 -->
<g id="node5" class="node"><title>Node60</title>
<g id="a_node5"><a xlink:href="a05206.xhtml#adac9aa457425985cf778c69c60fecc21" target="_top" xlink:title="GlobalRegistration\l::Match4PCSBase::Initialize">
<polygon fill="white" stroke="black" points="166.5,-49.5 166.5,-79.5 306.5,-79.5 306.5,-49.5 166.5,-49.5"/>
<text text-anchor="start" x="174.5" y="-67.5" font-family="Helvetica,sans-Serif" font-size="10.00">GlobalRegistration</text>
<text text-anchor="middle" x="236.5" y="-56.5" font-family="Helvetica,sans-Serif" font-size="10.00">::Match4PCSBase::Initialize</text>
</a>
</g>
</g>
<!-- Node56&#45;&gt;Node60 -->
<g id="edge4" class="edge"><title>Node56&#45;&gt;Node60</title>
<path fill="none" stroke="midnightblue" d="M117.129,-82.6592C129.671,-80.7351 143.152,-78.667 156.364,-76.6402"/>
<polygon fill="midnightblue" stroke="midnightblue" points="157.04,-80.0775 166.394,-75.1015 155.979,-73.1584 157.04,-80.0775"/>
</g>
<!-- Node61 -->
<g id="node6" class="node"><title>Node61</title>
<g id="a_node6"><a xlink:href="a05206.xhtml#ac9a328320c7729722e3a4b9234f2dadf" target="_top" xlink:title="GlobalRegistration\l::Match4PCSBase::Verify">
<polygon fill="white" stroke="black" points="171.5,-0.5 171.5,-30.5 301.5,-30.5 301.5,-0.5 171.5,-0.5"/>
<text text-anchor="start" x="179.5" y="-18.5" font-family="Helvetica,sans-Serif" font-size="10.00">GlobalRegistration</text>
<text text-anchor="middle" x="236.5" y="-7.5" font-family="Helvetica,sans-Serif" font-size="10.00">::Match4PCSBase::Verify</text>
</a>
</g>
</g>
<!-- Node56&#45;&gt;Node61 -->
<g id="edge5" class="edge"><title>Node56&#45;&gt;Node61</title>
<path fill="none" stroke="midnightblue" d="M83.8152,-76.4348C102.296,-65.4344 128.613,-50.7185 153,-40.5 158.483,-38.2027 164.25,-36.0165 170.081,-33.9622"/>
<polygon fill="midnightblue" stroke="midnightblue" points="171.567,-37.1544 179.917,-30.6331 169.323,-30.5239 171.567,-37.1544"/>
</g>
<!-- Node58 -->
<g id="node3" class="node"><title>Node58</title>
<g id="a_node3"><a xlink:href="a05142.xhtml#ad6cd36f9f91e1e6b444b38b1a986d0c1" target="_top" xlink:title="Finds the closest element index within the range [0:sqrt(sqdist)]. ">
<polygon fill="white" stroke="black" points="356,-74 356,-115 498,-115 498,-74 356,-74"/>
<text text-anchor="start" x="364" y="-103" font-family="Helvetica,sans-Serif" font-size="10.00">GlobalRegistration</text>
<text text-anchor="start" x="364" y="-92" font-family="Helvetica,sans-Serif" font-size="10.00">::KdTree::doQueryRestricted</text>
<text text-anchor="middle" x="427" y="-81" font-family="Helvetica,sans-Serif" font-size="10.00">ClosestIndex</text>
</a>
</g>
</g>
<!-- Node57&#45;&gt;Node58 -->
<g id="edge2" class="edge"><title>Node57&#45;&gt;Node58</title>
<path fill="none" stroke="midnightblue" d="M292.138,-159.498C301.536,-156.477 311.128,-153.11 320,-149.5 340.794,-141.039 362.962,-129.896 381.62,-119.853"/>
<polygon fill="midnightblue" stroke="midnightblue" points="383.37,-122.886 390.477,-115.028 380.021,-116.739 383.37,-122.886"/>
</g>
<!-- Node61&#45;&gt;Node58 -->
<g id="edge6" class="edge"><title>Node61&#45;&gt;Node58</title>
<path fill="none" stroke="midnightblue" d="M292.115,-30.5579C301.516,-33.5723 311.115,-36.9232 320,-40.5 340.324,-48.6812 362.005,-59.3542 380.428,-69.0492"/>
<polygon fill="midnightblue" stroke="midnightblue" points="378.994,-72.2506 389.465,-73.8627 382.285,-66.0724 378.994,-72.2506"/>
</g>
</g>
</svg>
