<?xml version="1.0" encoding="UTF-8" standalone="no"?>
<!DOCTYPE svg PUBLIC "-//W3C//DTD SVG 1.1//EN"
 "http://www.w3.org/Graphics/SVG/1.1/DTD/svg11.dtd">
<!-- Generated by graphviz version 2.38.0 (20140413.2041)
 -->
<!-- Title: GlobalRegistration::MatchSuper4PCS::ExtractPairs Pages: 1 -->
<svg width="350pt" height="50pt"
 viewBox="0.00 0.00 350.00 50.00" xmlns="http://www.w3.org/2000/svg" xmlns:xlink="http://www.w3.org/1999/xlink">
<g id="graph0" class="graph" transform="scale(1 1) rotate(0) translate(4 46)">
<title>GlobalRegistration::MatchSuper4PCS::ExtractPairs</title>
<polygon fill="white" stroke="none" points="-4,4 -4,-46 346,-46 346,4 -4,4"/>
<!-- Node2 -->
<g id="node1" class="node"><title>Node2</title>
<polygon fill="#bfbfbf" stroke="black" points="0,-6 0,-36 161,-36 161,-6 0,-6"/>
<text text-anchor="start" x="8" y="-24" font-family="Helvetica,sans-Serif" font-size="10.00">GlobalRegistration</text>
<text text-anchor="middle" x="80.5" y="-13" font-family="Helvetica,sans-Serif" font-size="10.00">::MatchSuper4PCS::ExtractPairs</text>
</g>
<!-- Node3 -->
<g id="node2" class="node"><title>Node3</title>
<g id="a_node2"><a xlink:href="a05178.xhtml#a73faa4455d871392bb6367f210b921d4" target="_top" xlink:title="&lt; Process the extracted pairs ">
<polygon fill="white" stroke="black" points="197,-0.5 197,-41.5 342,-41.5 342,-0.5 197,-0.5"/>
<text text-anchor="start" x="205" y="-29.5" font-family="Helvetica,sans-Serif" font-size="10.00">GlobalRegistration</text>
<text text-anchor="start" x="205" y="-18.5" font-family="Helvetica,sans-Serif" font-size="10.00">::Accelerators::PairExtraction</text>
<text text-anchor="middle" x="269.5" y="-7.5" font-family="Helvetica,sans-Serif" font-size="10.00">::BruteForceFunctor::process</text>
</a>
</g>
</g>
<!-- Node2&#45;&gt;Node3 -->
<g id="edge1" class="edge"><title>Node2&#45;&gt;Node3</title>
<path fill="none" stroke="midnightblue" d="M161.076,-21C169.65,-21 178.384,-21 186.98,-21"/>
<polygon fill="midnightblue" stroke="midnightblue" points="186.99,-24.5001 196.99,-21 186.99,-17.5001 186.99,-24.5001"/>
</g>
</g>
</svg>
