<?xml version="1.0" encoding="UTF-8" standalone="no"?>
<!DOCTYPE svg PUBLIC "-//W3C//DTD SVG 1.1//EN"
 "http://www.w3.org/Graphics/SVG/1.1/DTD/svg11.dtd">
<!-- Generated by graphviz version 2.38.0 (20140413.2041)
 -->
<!-- Title: GlobalRegistration::Match4PCSBase::TryOneBase Pages: 1 -->
<svg width="777pt" height="418pt"
 viewBox="0.00 0.00 777.00 417.50" xmlns="http://www.w3.org/2000/svg" xmlns:xlink="http://www.w3.org/1999/xlink">
<g id="graph0" class="graph" transform="scale(1 1) rotate(0) translate(4 413.5)">
<title>GlobalRegistration::Match4PCSBase::TryOneBase</title>
<polygon fill="white" stroke="none" points="-4,4 -4,-413.5 773,-413.5 773,4 -4,4"/>
<!-- Node113 -->
<g id="node1" class="node"><title>Node113</title>
<polygon fill="#bfbfbf" stroke="black" points="0,-250 0,-280 159,-280 159,-250 0,-250"/>
<text text-anchor="start" x="8" y="-268" font-family="Helvetica,sans-Serif" font-size="10.00">GlobalRegistration</text>
<text text-anchor="middle" x="79.5" y="-257" font-family="Helvetica,sans-Serif" font-size="10.00">::Match4PCSBase::TryOneBase</text>
</g>
<!-- Node114 -->
<g id="node2" class="node"><title>Node114</title>
<g id="a_node2"><a xlink:href="a05206.xhtml#a423c63bc1aece6379b9b6a8cf9d5aa0f" target="_top" xlink:title="GlobalRegistration\l::Match4PCSBase::TryQuadrilateral">
<polygon fill="white" stroke="black" points="418,-379 418,-409 591,-409 591,-379 418,-379"/>
<text text-anchor="start" x="426" y="-397" font-family="Helvetica,sans-Serif" font-size="10.00">GlobalRegistration</text>
<text text-anchor="middle" x="504.5" y="-386" font-family="Helvetica,sans-Serif" font-size="10.00">::Match4PCSBase::TryQuadrilateral</text>
</a>
</g>
</g>
<!-- Node113&#45;&gt;Node114 -->
<g id="edge1" class="edge"><title>Node113&#45;&gt;Node114</title>
<path fill="none" stroke="midnightblue" d="M98.6719,-280.057C120.252,-297.116 158.001,-324.432 195,-339 263.331,-365.904 345.375,-379.728 407.672,-386.785"/>
<polygon fill="midnightblue" stroke="midnightblue" points="407.565,-390.294 417.887,-387.902 408.326,-383.336 407.565,-390.294"/>
</g>
<!-- Node115 -->
<g id="node3" class="node"><title>Node115</title>
<g id="a_node3"><a xlink:href="a05206.xhtml#a3b37709e1bda55f4d109c9a2dbd7b170" target="_top" xlink:title="GlobalRegistration\l::Match4PCSBase::SelectQuadrilateral">
<polygon fill="white" stroke="black" points="195,-299 195,-329 382,-329 382,-299 195,-299"/>
<text text-anchor="start" x="203" y="-317" font-family="Helvetica,sans-Serif" font-size="10.00">GlobalRegistration</text>
<text text-anchor="middle" x="288.5" y="-306" font-family="Helvetica,sans-Serif" font-size="10.00">::Match4PCSBase::SelectQuadrilateral</text>
</a>
</g>
</g>
<!-- Node113&#45;&gt;Node115 -->
<g id="edge2" class="edge"><title>Node113&#45;&gt;Node115</title>
<path fill="none" stroke="midnightblue" d="M144.014,-280.035C166.168,-285.279 191.211,-291.207 214.102,-296.626"/>
<polygon fill="midnightblue" stroke="midnightblue" points="213.569,-300.096 224.107,-298.994 215.182,-293.284 213.569,-300.096"/>
</g>
<!-- Node119 -->
<g id="node7" class="node"><title>Node119</title>
<g id="a_node7"><a xlink:href="a05206.xhtml#a869c21b7c49110f7301e78d64d9e0e57" target="_top" xlink:title="GlobalRegistration\l::Match4PCSBase::ExtractPairs">
<polygon fill="white" stroke="black" points="209.5,-250 209.5,-280 367.5,-280 367.5,-250 209.5,-250"/>
<text text-anchor="start" x="217.5" y="-268" font-family="Helvetica,sans-Serif" font-size="10.00">GlobalRegistration</text>
<text text-anchor="middle" x="288.5" y="-257" font-family="Helvetica,sans-Serif" font-size="10.00">::Match4PCSBase::ExtractPairs</text>
</a>
</g>
</g>
<!-- Node113&#45;&gt;Node119 -->
<g id="edge7" class="edge"><title>Node113&#45;&gt;Node119</title>
<path fill="none" stroke="midnightblue" d="M159.053,-265C172.177,-265 185.871,-265 199.219,-265"/>
<polygon fill="midnightblue" stroke="midnightblue" points="199.344,-268.5 209.344,-265 199.344,-261.5 199.344,-268.5"/>
</g>
<!-- Node120 -->
<g id="node8" class="node"><title>Node120</title>
<g id="a_node8"><a xlink:href="a05206.xhtml#ae197b4fe78911f96d3732d5faf0a6901" target="_top" xlink:title="GlobalRegistration\l::Match4PCSBase::FindCongruent\lQuadrilaterals">
<polygon fill="white" stroke="black" points="204.5,-189.5 204.5,-230.5 372.5,-230.5 372.5,-189.5 204.5,-189.5"/>
<text text-anchor="start" x="212.5" y="-218.5" font-family="Helvetica,sans-Serif" font-size="10.00">GlobalRegistration</text>
<text text-anchor="start" x="212.5" y="-207.5" font-family="Helvetica,sans-Serif" font-size="10.00">::Match4PCSBase::FindCongruent</text>
<text text-anchor="middle" x="288.5" y="-196.5" font-family="Helvetica,sans-Serif" font-size="10.00">Quadrilaterals</text>
</a>
</g>
</g>
<!-- Node113&#45;&gt;Node120 -->
<g id="edge8" class="edge"><title>Node113&#45;&gt;Node120</title>
<path fill="none" stroke="midnightblue" d="M137.064,-249.971C156.579,-244.786 178.92,-238.85 200.307,-233.167"/>
<polygon fill="midnightblue" stroke="midnightblue" points="201.287,-236.528 210.053,-230.578 199.489,-229.763 201.287,-236.528"/>
</g>
<!-- Node121 -->
<g id="node9" class="node"><title>Node121</title>
<g id="a_node9"><a xlink:href="a05206.xhtml#acecb2de1f163aff07803ebf905ab3e36" target="_top" xlink:title="GlobalRegistration\l::Match4PCSBase::TryCongruentSet">
<polygon fill="white" stroke="black" points="199,-116 199,-146 378,-146 378,-116 199,-116"/>
<text text-anchor="start" x="207" y="-134" font-family="Helvetica,sans-Serif" font-size="10.00">GlobalRegistration</text>
<text text-anchor="middle" x="288.5" y="-123" font-family="Helvetica,sans-Serif" font-size="10.00">::Match4PCSBase::TryCongruentSet</text>
</a>
</g>
</g>
<!-- Node113&#45;&gt;Node121 -->
<g id="edge9" class="edge"><title>Node113&#45;&gt;Node121</title>
<path fill="none" stroke="midnightblue" d="M98.9237,-249.957C121.049,-232.218 159.615,-202.326 195,-180 211.445,-169.624 230.303,-159.361 246.683,-150.93"/>
<polygon fill="midnightblue" stroke="midnightblue" points="248.677,-153.843 256.005,-146.19 245.504,-147.603 248.677,-153.843"/>
</g>
<!-- Node115&#45;&gt;Node114 -->
<g id="edge4" class="edge"><title>Node115&#45;&gt;Node114</title>
<path fill="none" stroke="midnightblue" d="M321.815,-329.111C347.546,-340.83 384.652,-357.036 418,-369 424.705,-371.405 431.766,-373.755 438.836,-375.99"/>
<polygon fill="midnightblue" stroke="midnightblue" points="437.864,-379.353 448.452,-378.962 439.932,-372.665 437.864,-379.353"/>
</g>
<!-- Node116 -->
<g id="node4" class="node"><title>Node116</title>
<g id="a_node4"><a xlink:href="a05206.xhtml#af9b9a0034ec3ff9646b36ce6250702cd" target="_top" xlink:title="GlobalRegistration\l::Match4PCSBase::SelectRandom\lTriangle">
<polygon fill="white" stroke="black" points="420,-318.5 420,-359.5 589,-359.5 589,-318.5 420,-318.5"/>
<text text-anchor="start" x="428" y="-347.5" font-family="Helvetica,sans-Serif" font-size="10.00">GlobalRegistration</text>
<text text-anchor="start" x="428" y="-336.5" font-family="Helvetica,sans-Serif" font-size="10.00">::Match4PCSBase::SelectRandom</text>
<text text-anchor="middle" x="504.5" y="-325.5" font-family="Helvetica,sans-Serif" font-size="10.00">Triangle</text>
</a>
</g>
</g>
<!-- Node115&#45;&gt;Node116 -->
<g id="edge3" class="edge"><title>Node115&#45;&gt;Node116</title>
<path fill="none" stroke="midnightblue" d="M382.119,-324.82C391.327,-325.896 400.68,-326.988 409.898,-328.065"/>
<polygon fill="midnightblue" stroke="midnightblue" points="409.496,-331.542 419.834,-329.226 410.308,-324.589 409.496,-331.542"/>
</g>
<!-- Node117 -->
<g id="node5" class="node"><title>Node117</title>
<g id="a_node5"><a xlink:href="a05142.xhtml#a81bcdc0c30914894311c78396d3781c7" target="_top" xlink:title="Add a new vertex in the KdTree. ">
<polygon fill="white" stroke="black" points="456,-269 456,-299 553,-299 553,-269 456,-269"/>
<text text-anchor="start" x="464" y="-287" font-family="Helvetica,sans-Serif" font-size="10.00">GlobalRegistration</text>
<text text-anchor="middle" x="504.5" y="-276" font-family="Helvetica,sans-Serif" font-size="10.00">::KdTree::add</text>
</a>
</g>
</g>
<!-- Node115&#45;&gt;Node117 -->
<g id="edge5" class="edge"><title>Node115&#45;&gt;Node117</title>
<path fill="none" stroke="midnightblue" d="M382.119,-301.016C403.762,-297.982 426.205,-294.836 445.819,-292.086"/>
<polygon fill="midnightblue" stroke="midnightblue" points="446.381,-295.542 455.798,-290.687 445.409,-288.61 446.381,-295.542"/>
</g>
<!-- Node118 -->
<g id="node6" class="node"><title>Node118</title>
<g id="a_node6"><a xlink:href="a05142.xhtml#a6841c0418254813b75dd036a9e4e7c2b" target="_top" xlink:title="Finalize the creation of the KdTree. ">
<polygon fill="white" stroke="black" points="456,-220 456,-250 553,-250 553,-220 456,-220"/>
<text text-anchor="start" x="464" y="-238" font-family="Helvetica,sans-Serif" font-size="10.00">GlobalRegistration</text>
<text text-anchor="middle" x="504.5" y="-227" font-family="Helvetica,sans-Serif" font-size="10.00">::KdTree::finalize</text>
</a>
</g>
</g>
<!-- Node115&#45;&gt;Node118 -->
<g id="edge6" class="edge"><title>Node115&#45;&gt;Node118</title>
<path fill="none" stroke="midnightblue" d="M360.894,-298.913C368.193,-296.362 375.358,-293.41 382,-290 400.528,-280.488 399.619,-269.795 418,-260 426.803,-255.309 436.598,-251.395 446.326,-248.164"/>
<polygon fill="midnightblue" stroke="midnightblue" points="447.483,-251.469 455.992,-245.157 445.404,-244.785 447.483,-251.469"/>
</g>
<!-- Node122 -->
<g id="node10" class="node"><title>Node122</title>
<g id="a_node10"><a xlink:href="a05238.xhtml#acd6175b6251a3fbf9e3e329ebfc58d06" target="_top" xlink:title="GlobalRegistration\l::Point3D::pos">
<polygon fill="white" stroke="black" points="456,-171 456,-201 553,-201 553,-171 456,-171"/>
<text text-anchor="start" x="464" y="-189" font-family="Helvetica,sans-Serif" font-size="10.00">GlobalRegistration</text>
<text text-anchor="middle" x="504.5" y="-178" font-family="Helvetica,sans-Serif" font-size="10.00">::Point3D::pos</text>
</a>
</g>
</g>
<!-- Node121&#45;&gt;Node122 -->
<g id="edge10" class="edge"><title>Node121&#45;&gt;Node122</title>
<path fill="none" stroke="midnightblue" d="M347.976,-146.029C378.441,-153.859 415.563,-163.399 445.899,-171.196"/>
<polygon fill="midnightblue" stroke="midnightblue" points="445.35,-174.669 455.907,-173.768 447.093,-167.889 445.35,-174.669"/>
</g>
<!-- Node123 -->
<g id="node11" class="node"><title>Node123</title>
<g id="a_node11"><a xlink:href="a05206.xhtml#af4249983ba17f93c48ba4f4d83442511" target="_top" xlink:title="GlobalRegistration\l::Match4PCSBase::ComputeRigid\lTransformation">
<polygon fill="white" stroke="black" points="421,-110.5 421,-151.5 588,-151.5 588,-110.5 421,-110.5"/>
<text text-anchor="start" x="429" y="-139.5" font-family="Helvetica,sans-Serif" font-size="10.00">GlobalRegistration</text>
<text text-anchor="start" x="429" y="-128.5" font-family="Helvetica,sans-Serif" font-size="10.00">::Match4PCSBase::ComputeRigid</text>
<text text-anchor="middle" x="504.5" y="-117.5" font-family="Helvetica,sans-Serif" font-size="10.00">Transformation</text>
</a>
</g>
</g>
<!-- Node121&#45;&gt;Node123 -->
<g id="edge11" class="edge"><title>Node121&#45;&gt;Node123</title>
<path fill="none" stroke="midnightblue" d="M378.087,-131C388.805,-131 399.777,-131 410.555,-131"/>
<polygon fill="midnightblue" stroke="midnightblue" points="410.815,-134.5 420.815,-131 410.815,-127.5 410.815,-134.5"/>
</g>
<!-- Node124 -->
<g id="node12" class="node"><title>Node124</title>
<g id="a_node12"><a xlink:href="a05206.xhtml#ac9a328320c7729722e3a4b9234f2dadf" target="_top" xlink:title="GlobalRegistration\l::Match4PCSBase::Verify">
<polygon fill="white" stroke="black" points="439.5,-61 439.5,-91 569.5,-91 569.5,-61 439.5,-61"/>
<text text-anchor="start" x="447.5" y="-79" font-family="Helvetica,sans-Serif" font-size="10.00">GlobalRegistration</text>
<text text-anchor="middle" x="504.5" y="-68" font-family="Helvetica,sans-Serif" font-size="10.00">::Match4PCSBase::Verify</text>
</a>
</g>
</g>
<!-- Node121&#45;&gt;Node124 -->
<g id="edge12" class="edge"><title>Node121&#45;&gt;Node124</title>
<path fill="none" stroke="midnightblue" d="M347.976,-115.971C374.987,-109.029 407.232,-100.742 435.34,-93.5177"/>
<polygon fill="midnightblue" stroke="midnightblue" points="436.28,-96.8899 445.094,-91.0108 434.538,-90.1103 436.28,-96.8899"/>
</g>
<!-- Node126 -->
<g id="node14" class="node"><title>Node126</title>
<g id="a_node14"><a xlink:href="a05246.xhtml#a1662893334239560ac536fd6bb44f71c" target="_top" xlink:title="GlobalRegistration\l::Match4PCSOptions::\lgetTerminateThreshold">
<polygon fill="white" stroke="black" points="446.5,-0.5 446.5,-41.5 562.5,-41.5 562.5,-0.5 446.5,-0.5"/>
<text text-anchor="start" x="454.5" y="-29.5" font-family="Helvetica,sans-Serif" font-size="10.00">GlobalRegistration</text>
<text text-anchor="start" x="454.5" y="-18.5" font-family="Helvetica,sans-Serif" font-size="10.00">::Match4PCSOptions::</text>
<text text-anchor="middle" x="504.5" y="-7.5" font-family="Helvetica,sans-Serif" font-size="10.00">getTerminateThreshold</text>
</a>
</g>
</g>
<!-- Node121&#45;&gt;Node126 -->
<g id="edge14" class="edge"><title>Node121&#45;&gt;Node126</title>
<path fill="none" stroke="midnightblue" d="M310.501,-115.907C335.291,-98.5775 378.192,-70.09 418,-51 424.004,-48.1208 430.36,-45.3736 436.787,-42.7934"/>
<polygon fill="midnightblue" stroke="midnightblue" points="438.163,-46.0138 446.223,-39.1367 435.634,-39.4869 438.163,-46.0138"/>
</g>
<!-- Node125 -->
<g id="node13" class="node"><title>Node125</title>
<g id="a_node13"><a xlink:href="a05142.xhtml#ad6cd36f9f91e1e6b444b38b1a986d0c1" target="_top" xlink:title="Finds the closest element index within the range [0:sqrt(sqdist)]. ">
<polygon fill="white" stroke="black" points="627,-55.5 627,-96.5 769,-96.5 769,-55.5 627,-55.5"/>
<text text-anchor="start" x="635" y="-84.5" font-family="Helvetica,sans-Serif" font-size="10.00">GlobalRegistration</text>
<text text-anchor="start" x="635" y="-73.5" font-family="Helvetica,sans-Serif" font-size="10.00">::KdTree::doQueryRestricted</text>
<text text-anchor="middle" x="698" y="-62.5" font-family="Helvetica,sans-Serif" font-size="10.00">ClosestIndex</text>
</a>
</g>
</g>
<!-- Node124&#45;&gt;Node125 -->
<g id="edge13" class="edge"><title>Node124&#45;&gt;Node125</title>
<path fill="none" stroke="midnightblue" d="M569.533,-76C584.607,-76 600.863,-76 616.556,-76"/>
<polygon fill="midnightblue" stroke="midnightblue" points="616.769,-79.5001 626.769,-76 616.769,-72.5001 616.769,-79.5001"/>
</g>
</g>
</svg>
