<?xml version="1.0" encoding="UTF-8" standalone="no"?>
<!DOCTYPE svg PUBLIC "-//W3C//DTD SVG 1.1//EN"
 "http://www.w3.org/Graphics/SVG/1.1/DTD/svg11.dtd">
<!-- Generated by graphviz version 2.38.0 (20140413.2041)
 -->
<!-- Title: GlobalRegistration::Match4PCSBase::TryCongruentSet Pages: 1 -->
<svg width="568pt" height="210pt"
 viewBox="0.00 0.00 568.00 209.50" xmlns="http://www.w3.org/2000/svg" xmlns:xlink="http://www.w3.org/1999/xlink">
<g id="graph0" class="graph" transform="scale(1 1) rotate(0) translate(4 205.5)">
<title>GlobalRegistration::Match4PCSBase::TryCongruentSet</title>
<polygon fill="white" stroke="none" points="-4,4 -4,-205.5 564,-205.5 564,4 -4,4"/>
<!-- Node107 -->
<g id="node1" class="node"><title>Node107</title>
<polygon fill="#bfbfbf" stroke="black" points="0,-88 0,-118 179,-118 179,-88 0,-88"/>
<text text-anchor="start" x="8" y="-106" font-family="Helvetica,sans-Serif" font-size="10.00">GlobalRegistration</text>
<text text-anchor="middle" x="89.5" y="-95" font-family="Helvetica,sans-Serif" font-size="10.00">::Match4PCSBase::TryCongruentSet</text>
</g>
<!-- Node108 -->
<g id="node2" class="node"><title>Node108</title>
<g id="a_node2"><a xlink:href="class_global_registration_1_1_point3_d.xhtml#acd6175b6251a3fbf9e3e329ebfc58d06" target="_top" xlink:title="GlobalRegistration\l::Point3D::pos">
<polygon fill="white" stroke="black" points="250,-171 250,-201 347,-201 347,-171 250,-171"/>
<text text-anchor="start" x="258" y="-189" font-family="Helvetica,sans-Serif" font-size="10.00">GlobalRegistration</text>
<text text-anchor="middle" x="298.5" y="-178" font-family="Helvetica,sans-Serif" font-size="10.00">::Point3D::pos</text>
</a>
</g>
</g>
<!-- Node107&#45;&gt;Node108 -->
<g id="edge1" class="edge"><title>Node107&#45;&gt;Node108</title>
<path fill="none" stroke="midnightblue" d="M119.675,-118.029C144.589,-130.512 181.59,-148.229 215,-161 223.126,-164.106 231.815,-167.09 240.392,-169.848"/>
<polygon fill="midnightblue" stroke="midnightblue" points="239.404,-173.206 249.993,-172.86 241.499,-166.527 239.404,-173.206"/>
</g>
<!-- Node109 -->
<g id="node3" class="node"><title>Node109</title>
<g id="a_node3"><a xlink:href="class_global_registration_1_1_match4_p_c_s_base.xhtml#af4249983ba17f93c48ba4f4d83442511" target="_top" xlink:title="GlobalRegistration\l::Match4PCSBase::ComputeRigid\lTransformation">
<polygon fill="white" stroke="black" points="215,-110.5 215,-151.5 382,-151.5 382,-110.5 215,-110.5"/>
<text text-anchor="start" x="223" y="-139.5" font-family="Helvetica,sans-Serif" font-size="10.00">GlobalRegistration</text>
<text text-anchor="start" x="223" y="-128.5" font-family="Helvetica,sans-Serif" font-size="10.00">::Match4PCSBase::ComputeRigid</text>
<text text-anchor="middle" x="298.5" y="-117.5" font-family="Helvetica,sans-Serif" font-size="10.00">Transformation</text>
</a>
</g>
</g>
<!-- Node107&#45;&gt;Node109 -->
<g id="edge2" class="edge"><title>Node107&#45;&gt;Node109</title>
<path fill="none" stroke="midnightblue" d="M179.187,-114.996C187.705,-116.149 196.36,-117.319 204.914,-118.476"/>
<polygon fill="midnightblue" stroke="midnightblue" points="204.517,-121.954 214.896,-119.826 205.455,-115.018 204.517,-121.954"/>
</g>
<!-- Node110 -->
<g id="node4" class="node"><title>Node110</title>
<g id="a_node4"><a xlink:href="class_global_registration_1_1_match4_p_c_s_base.xhtml#ac9a328320c7729722e3a4b9234f2dadf" target="_top" xlink:title="GlobalRegistration\l::Match4PCSBase::Verify">
<polygon fill="white" stroke="black" points="233.5,-61 233.5,-91 363.5,-91 363.5,-61 233.5,-61"/>
<text text-anchor="start" x="241.5" y="-79" font-family="Helvetica,sans-Serif" font-size="10.00">GlobalRegistration</text>
<text text-anchor="middle" x="298.5" y="-68" font-family="Helvetica,sans-Serif" font-size="10.00">::Match4PCSBase::Verify</text>
</a>
</g>
</g>
<!-- Node107&#45;&gt;Node110 -->
<g id="edge3" class="edge"><title>Node107&#45;&gt;Node110</title>
<path fill="none" stroke="midnightblue" d="M179.187,-91.4321C193.845,-89.5202 208.908,-87.5555 223.167,-85.6957"/>
<polygon fill="midnightblue" stroke="midnightblue" points="223.926,-89.1263 233.389,-84.3622 223.021,-82.1851 223.926,-89.1263"/>
</g>
<!-- Node112 -->
<g id="node6" class="node"><title>Node112</title>
<g id="a_node6"><a xlink:href="struct_global_registration_1_1_match4_p_c_s_options.xhtml#a1662893334239560ac536fd6bb44f71c" target="_top" xlink:title="GlobalRegistration\l::Match4PCSOptions::\lgetTerminateThreshold">
<polygon fill="white" stroke="black" points="240.5,-0.5 240.5,-41.5 356.5,-41.5 356.5,-0.5 240.5,-0.5"/>
<text text-anchor="start" x="248.5" y="-29.5" font-family="Helvetica,sans-Serif" font-size="10.00">GlobalRegistration</text>
<text text-anchor="start" x="248.5" y="-18.5" font-family="Helvetica,sans-Serif" font-size="10.00">::Match4PCSOptions::</text>
<text text-anchor="middle" x="298.5" y="-7.5" font-family="Helvetica,sans-Serif" font-size="10.00">getTerminateThreshold</text>
</a>
</g>
</g>
<!-- Node107&#45;&gt;Node112 -->
<g id="edge5" class="edge"><title>Node107&#45;&gt;Node112</title>
<path fill="none" stroke="midnightblue" d="M126.346,-87.9905C151.162,-77.6794 184.996,-63.7797 215,-52 220.701,-49.7616 226.637,-47.4653 232.594,-45.1838"/>
<polygon fill="midnightblue" stroke="midnightblue" points="233.845,-48.4529 241.943,-41.6214 231.352,-41.9118 233.845,-48.4529"/>
</g>
<!-- Node111 -->
<g id="node5" class="node"><title>Node111</title>
<g id="a_node5"><a xlink:href="class_global_registration_1_1_kd_tree.xhtml#ad6cd36f9f91e1e6b444b38b1a986d0c1" target="_top" xlink:title="Finds the closest element index within the range [0:sqrt(sqdist)]. ">
<polygon fill="white" stroke="black" points="418,-55.5 418,-96.5 560,-96.5 560,-55.5 418,-55.5"/>
<text text-anchor="start" x="426" y="-84.5" font-family="Helvetica,sans-Serif" font-size="10.00">GlobalRegistration</text>
<text text-anchor="start" x="426" y="-73.5" font-family="Helvetica,sans-Serif" font-size="10.00">::KdTree::doQueryRestricted</text>
<text text-anchor="middle" x="489" y="-62.5" font-family="Helvetica,sans-Serif" font-size="10.00">ClosestIndex</text>
</a>
</g>
</g>
<!-- Node110&#45;&gt;Node111 -->
<g id="edge4" class="edge"><title>Node110&#45;&gt;Node111</title>
<path fill="none" stroke="midnightblue" d="M363.581,-76C377.802,-76 393.049,-76 407.823,-76"/>
<polygon fill="midnightblue" stroke="midnightblue" points="407.958,-79.5001 417.958,-76 407.958,-72.5001 407.958,-79.5001"/>
</g>
</g>
</svg>
