<?xml version="1.0" encoding="UTF-8" standalone="no"?>
<!DOCTYPE svg PUBLIC "-//W3C//DTD SVG 1.1//EN"
 "http://www.w3.org/Graphics/SVG/1.1/DTD/svg11.dtd">
<!-- Generated by graphviz version 2.38.0 (20140413.2041)
 -->
<!-- Title: GlobalRegistration::IndexedNormalHealSet::getNeighbors Pages: 1 -->
<svg width="612pt" height="50pt"
 viewBox="0.00 0.00 612.00 50.00" xmlns="http://www.w3.org/2000/svg" xmlns:xlink="http://www.w3.org/1999/xlink">
<g id="graph0" class="graph" transform="scale(1 1) rotate(0) translate(4 46)">
<title>GlobalRegistration::IndexedNormalHealSet::getNeighbors</title>
<polygon fill="white" stroke="none" points="-4,4 -4,-46 608,-46 608,4 -4,4"/>
<!-- Node13 -->
<g id="node1" class="node"><title>Node13</title>
<polygon fill="#bfbfbf" stroke="black" points="0,-0.5 0,-41.5 124,-41.5 124,-0.5 0,-0.5"/>
<text text-anchor="start" x="8" y="-29.5" font-family="Helvetica,sans-Serif" font-size="10.00">GlobalRegistration</text>
<text text-anchor="start" x="8" y="-18.5" font-family="Helvetica,sans-Serif" font-size="10.00">::IndexedNormalHealSet</text>
<text text-anchor="middle" x="62" y="-7.5" font-family="Helvetica,sans-Serif" font-size="10.00">::getNeighbors</text>
</g>
<!-- Node14 -->
<g id="node2" class="node"><title>Node14</title>
<g id="a_node2"><a xlink:href="class_global_registration_1_1_indexed_normal_heal_set.xhtml#a6f1ef89fbcd981d7ff2e642dab13b521" target="_top" xlink:title="GlobalRegistration\l::IndexedNormalHealSet\l::getEpsilonMaps">
<polygon fill="white" stroke="black" points="160,-0.5 160,-41.5 284,-41.5 284,-0.5 160,-0.5"/>
<text text-anchor="start" x="168" y="-29.5" font-family="Helvetica,sans-Serif" font-size="10.00">GlobalRegistration</text>
<text text-anchor="start" x="168" y="-18.5" font-family="Helvetica,sans-Serif" font-size="10.00">::IndexedNormalHealSet</text>
<text text-anchor="middle" x="222" y="-7.5" font-family="Helvetica,sans-Serif" font-size="10.00">::getEpsilonMaps</text>
</a>
</g>
</g>
<!-- Node13&#45;&gt;Node14 -->
<g id="edge1" class="edge"><title>Node13&#45;&gt;Node14</title>
<path fill="none" stroke="midnightblue" d="M124.087,-21C132.513,-21 141.226,-21 149.815,-21"/>
<polygon fill="midnightblue" stroke="midnightblue" points="149.815,-24.5001 159.815,-21 149.815,-17.5001 149.815,-24.5001"/>
</g>
<!-- Node15 -->
<g id="node3" class="node"><title>Node15</title>
<g id="a_node3"><a xlink:href="class_global_registration_1_1_indexed_normal_heal_set.xhtml#aa7314aa789a467a33152f2eab47cbc5d" target="_top" xlink:title="Get closest points in euclidean space. ">
<polygon fill="white" stroke="black" points="320,-0.5 320,-41.5 444,-41.5 444,-0.5 320,-0.5"/>
<text text-anchor="start" x="328" y="-29.5" font-family="Helvetica,sans-Serif" font-size="10.00">GlobalRegistration</text>
<text text-anchor="start" x="328" y="-18.5" font-family="Helvetica,sans-Serif" font-size="10.00">::IndexedNormalHealSet</text>
<text text-anchor="middle" x="382" y="-7.5" font-family="Helvetica,sans-Serif" font-size="10.00">::getNeighbors</text>
</a>
</g>
</g>
<!-- Node14&#45;&gt;Node15 -->
<g id="edge2" class="edge"><title>Node14&#45;&gt;Node15</title>
<path fill="none" stroke="midnightblue" d="M284.087,-21C292.513,-21 301.226,-21 309.815,-21"/>
<polygon fill="midnightblue" stroke="midnightblue" points="309.815,-24.5001 319.815,-21 309.815,-17.5001 309.815,-24.5001"/>
</g>
<!-- Node16 -->
<g id="node4" class="node"><title>Node16</title>
<g id="a_node4"><a xlink:href="class_global_registration_1_1_indexed_normal_heal_set.xhtml#a57140b534b36a0e1fa5132eb36149d90" target="_top" xlink:title="GlobalRegistration\l::IndexedNormalHealSet\l::getMap">
<polygon fill="white" stroke="black" points="480,-0.5 480,-41.5 604,-41.5 604,-0.5 480,-0.5"/>
<text text-anchor="start" x="488" y="-29.5" font-family="Helvetica,sans-Serif" font-size="10.00">GlobalRegistration</text>
<text text-anchor="start" x="488" y="-18.5" font-family="Helvetica,sans-Serif" font-size="10.00">::IndexedNormalHealSet</text>
<text text-anchor="middle" x="542" y="-7.5" font-family="Helvetica,sans-Serif" font-size="10.00">::getMap</text>
</a>
</g>
</g>
<!-- Node15&#45;&gt;Node16 -->
<g id="edge3" class="edge"><title>Node15&#45;&gt;Node16</title>
<path fill="none" stroke="midnightblue" d="M444.087,-21C452.513,-21 461.226,-21 469.815,-21"/>
<polygon fill="midnightblue" stroke="midnightblue" points="469.815,-24.5001 479.815,-21 469.815,-17.5001 469.815,-24.5001"/>
</g>
</g>
</svg>
