<?xml version="1.0" encoding="UTF-8" standalone="no"?>
<!DOCTYPE svg PUBLIC "-//W3C//DTD SVG 1.1//EN"
 "http://www.w3.org/Graphics/SVG/1.1/DTD/svg11.dtd">
<!-- Generated by graphviz version 2.38.0 (20140413.2041)
 -->
<!-- Title: GlobalRegistration::Match4PCSBase::base3D Pages: 1 -->
<!--zoomable 237 -->
<svg id="main" version="1.1" xmlns="http://www.w3.org/2000/svg" xmlns:xlink="http://www.w3.org/1999/xlink" xml:space="preserve" onload="init(evt)">
<style type="text/css"><![CDATA[
.edge:hover path { stroke: red; }
.edge:hover polygon { stroke: red; fill: red; }
]]></style>
<script type="text/javascript"><![CDATA[
var edges = document.getElementsByTagName('g');
if (edges && edges.length) {
  for (var i=0;i<edges.length;i++) {
    if (edges[i].id.substr(0,4)=='edge') {
      edges[i].setAttribute('class','edge');
    }
  }
}
]]></script>
        <defs>
                <circle id="rim" cx="0" cy="0" r="7"/>
                <circle id="rim2" cx="0" cy="0" r="3.5"/>
                <g id="zoomPlus">
                        <use xlink:href="#rim" fill="#404040">
                                <set attributeName="fill" to="#808080" begin="zoomplus.mouseover" end="zoomplus.mouseout"/>
                        </use>
                        <path d="M-4,0h8M0,-4v8" fill="none" stroke="white" stroke-width="1.5" pointer-events="none"/>
                </g>
                <g id="zoomMin">
                        <use xlink:href="#rim" fill="#404040">
                                <set attributeName="fill" to="#808080" begin="zoomminus.mouseover" end="zoomminus.mouseout"/>
                        </use>
                        <path d="M-4,0h8" fill="none" stroke="white" stroke-width="1.5" pointer-events="none"/>
                </g>
                <g id="dirArrow">
                        <path fill="none" stroke="white" stroke-width="1.5" d="M0,-3.0v7 M-2.5,-0.5L0,-3.0L2.5,-0.5"/>
                </g>
               <g id="resetDef">
                       <use xlink:href="#rim2" fill="#404040">
                               <set attributeName="fill" to="#808080" begin="reset.mouseover" end="reset.mouseout"/>
                       </use>
               </g>
        </defs>

<script type="text/javascript">
var viewWidth = 742;
var viewHeight = 237;
var sectionId = 'dynsection-2';
</script>
<script xlink:href="svgpan.js"/>
<svg id="graph" class="graph">
<g id="viewport">
<title>GlobalRegistration::Match4PCSBase::base3D</title>
<polygon fill="white" stroke="none" points="-4,4 -4,-232.5 738,-232.5 738,4 -4,4"/>
<!-- Node2 -->
<g id="node1" class="node"><title>Node2</title>
<polygon fill="#bfbfbf" stroke="black" points="0,-143 0,-173 138,-173 138,-143 0,-143"/>
<text text-anchor="start" x="8" y="-161" font-family="Helvetica,sans-Serif" font-size="10.00">GlobalRegistration</text>
<text text-anchor="middle" x="69" y="-150" font-family="Helvetica,sans-Serif" font-size="10.00">::Match4PCSBase::base3D</text>
</g>
<!-- Node3 -->
<g id="node2" class="node"><title>Node3</title>
<g id="a_node2"><a xlink:href="class_global_registration_1_1_match4_p_c_s_base.xhtml#a869c21b7c49110f7301e78d64d9e0e57" target="_top" xlink:title="GlobalRegistration\l::Match4PCSBase::ExtractPairs">
<polygon fill="white" stroke="black" points="184.5,-198 184.5,-228 342.5,-228 342.5,-198 184.5,-198"/>
<text text-anchor="start" x="192.5" y="-216" font-family="Helvetica,sans-Serif" font-size="10.00">GlobalRegistration</text>
<text text-anchor="middle" x="263.5" y="-205" font-family="Helvetica,sans-Serif" font-size="10.00">::Match4PCSBase::ExtractPairs</text>
</a>
</g>
</g>
<!-- Node2&#45;&gt;Node3 -->
<g id="edge1" class="edge"><title>Node2&#45;&gt;Node3</title>
<path fill="none" stroke="midnightblue" d="M121.826,-173.011C138.481,-177.818 157.014,-183.151 174,-188 182.166,-190.331 190.758,-192.773 199.248,-195.178"/>
<polygon fill="midnightblue" stroke="midnightblue" points="198.561,-198.621 209.136,-197.977 200.467,-191.886 198.561,-198.621"/>
</g>
<!-- Node4 -->
<g id="node3" class="node"><title>Node4</title>
<g id="a_node3"><a xlink:href="class_global_registration_1_1_match4_p_c_s_base.xhtml#ae197b4fe78911f96d3732d5faf0a6901" target="_top" xlink:title="GlobalRegistration\l::Match4PCSBase::FindCongruent\lQuadrilaterals">
<polygon fill="white" stroke="black" points="179.5,-137.5 179.5,-178.5 347.5,-178.5 347.5,-137.5 179.5,-137.5"/>
<text text-anchor="start" x="187.5" y="-166.5" font-family="Helvetica,sans-Serif" font-size="10.00">GlobalRegistration</text>
<text text-anchor="start" x="187.5" y="-155.5" font-family="Helvetica,sans-Serif" font-size="10.00">::Match4PCSBase::FindCongruent</text>
<text text-anchor="middle" x="263.5" y="-144.5" font-family="Helvetica,sans-Serif" font-size="10.00">Quadrilaterals</text>
</a>
</g>
</g>
<!-- Node2&#45;&gt;Node4 -->
<g id="edge2" class="edge"><title>Node2&#45;&gt;Node4</title>
<path fill="none" stroke="midnightblue" d="M138.139,-158C148.221,-158 158.753,-158 169.238,-158"/>
<polygon fill="midnightblue" stroke="midnightblue" points="169.26,-161.5 179.26,-158 169.26,-154.5 169.26,-161.5"/>
</g>
<!-- Node5 -->
<g id="node4" class="node"><title>Node5</title>
<g id="a_node4"><a xlink:href="class_global_registration_1_1_match4_p_c_s_base.xhtml#acecb2de1f163aff07803ebf905ab3e36" target="_top" xlink:title="GlobalRegistration\l::Match4PCSBase::TryCongruentSet">
<polygon fill="white" stroke="black" points="174,-88 174,-118 353,-118 353,-88 174,-88"/>
<text text-anchor="start" x="182" y="-106" font-family="Helvetica,sans-Serif" font-size="10.00">GlobalRegistration</text>
<text text-anchor="middle" x="263.5" y="-95" font-family="Helvetica,sans-Serif" font-size="10.00">::Match4PCSBase::TryCongruentSet</text>
</a>
</g>
</g>
<!-- Node2&#45;&gt;Node5 -->
<g id="edge3" class="edge"><title>Node2&#45;&gt;Node5</title>
<path fill="none" stroke="midnightblue" d="M121.826,-142.989C138.481,-138.182 157.014,-132.849 174,-128 182.166,-125.669 190.758,-123.227 199.248,-120.822"/>
<polygon fill="midnightblue" stroke="midnightblue" points="200.467,-124.114 209.136,-118.023 198.561,-117.379 200.467,-124.114"/>
</g>
<!-- Node6 -->
<g id="node5" class="node"><title>Node6</title>
<g id="a_node5"><a xlink:href="class_global_registration_1_1_point3_d.xhtml#acd6175b6251a3fbf9e3e329ebfc58d06" target="_top" xlink:title="GlobalRegistration\l::Point3D::pos">
<polygon fill="white" stroke="black" points="424,-171 424,-201 521,-201 521,-171 424,-171"/>
<text text-anchor="start" x="432" y="-189" font-family="Helvetica,sans-Serif" font-size="10.00">GlobalRegistration</text>
<text text-anchor="middle" x="472.5" y="-178" font-family="Helvetica,sans-Serif" font-size="10.00">::Point3D::pos</text>
</a>
</g>
</g>
<!-- Node5&#45;&gt;Node6 -->
<g id="edge4" class="edge"><title>Node5&#45;&gt;Node6</title>
<path fill="none" stroke="midnightblue" d="M331.112,-118.13C338.708,-120.923 346.167,-124.19 353,-128 371.958,-138.57 370.143,-150.251 389,-161 396.746,-165.416 405.356,-169.13 414.006,-172.23"/>
<polygon fill="midnightblue" stroke="midnightblue" points="413.154,-175.635 423.747,-175.475 415.366,-168.994 413.154,-175.635"/>
</g>
<!-- Node7 -->
<g id="node6" class="node"><title>Node7</title>
<g id="a_node6"><a xlink:href="class_global_registration_1_1_match4_p_c_s_base.xhtml#af4249983ba17f93c48ba4f4d83442511" target="_top" xlink:title="GlobalRegistration\l::Match4PCSBase::ComputeRigid\lTransformation">
<polygon fill="white" stroke="black" points="389,-110.5 389,-151.5 556,-151.5 556,-110.5 389,-110.5"/>
<text text-anchor="start" x="397" y="-139.5" font-family="Helvetica,sans-Serif" font-size="10.00">GlobalRegistration</text>
<text text-anchor="start" x="397" y="-128.5" font-family="Helvetica,sans-Serif" font-size="10.00">::Match4PCSBase::ComputeRigid</text>
<text text-anchor="middle" x="472.5" y="-117.5" font-family="Helvetica,sans-Serif" font-size="10.00">Transformation</text>
</a>
</g>
</g>
<!-- Node5&#45;&gt;Node7 -->
<g id="edge5" class="edge"><title>Node5&#45;&gt;Node7</title>
<path fill="none" stroke="midnightblue" d="M353.187,-114.996C361.705,-116.149 370.36,-117.319 378.914,-118.476"/>
<polygon fill="midnightblue" stroke="midnightblue" points="378.517,-121.954 388.896,-119.826 379.455,-115.018 378.517,-121.954"/>
</g>
<!-- Node8 -->
<g id="node7" class="node"><title>Node8</title>
<g id="a_node7"><a xlink:href="class_global_registration_1_1_match4_p_c_s_base.xhtml#ac9a328320c7729722e3a4b9234f2dadf" target="_top" xlink:title="GlobalRegistration\l::Match4PCSBase::Verify">
<polygon fill="white" stroke="black" points="407.5,-61 407.5,-91 537.5,-91 537.5,-61 407.5,-61"/>
<text text-anchor="start" x="415.5" y="-79" font-family="Helvetica,sans-Serif" font-size="10.00">GlobalRegistration</text>
<text text-anchor="middle" x="472.5" y="-68" font-family="Helvetica,sans-Serif" font-size="10.00">::Match4PCSBase::Verify</text>
</a>
</g>
</g>
<!-- Node5&#45;&gt;Node8 -->
<g id="edge6" class="edge"><title>Node5&#45;&gt;Node8</title>
<path fill="none" stroke="midnightblue" d="M353.187,-91.4321C367.845,-89.5202 382.908,-87.5555 397.167,-85.6957"/>
<polygon fill="midnightblue" stroke="midnightblue" points="397.926,-89.1263 407.389,-84.3622 397.021,-82.1851 397.926,-89.1263"/>
</g>
<!-- Node10 -->
<g id="node9" class="node"><title>Node10</title>
<g id="a_node9"><a xlink:href="struct_global_registration_1_1_match4_p_c_s_options.xhtml#a1662893334239560ac536fd6bb44f71c" target="_top" xlink:title="GlobalRegistration\l::Match4PCSOptions::\lgetTerminateThreshold">
<polygon fill="white" stroke="black" points="414.5,-0.5 414.5,-41.5 530.5,-41.5 530.5,-0.5 414.5,-0.5"/>
<text text-anchor="start" x="422.5" y="-29.5" font-family="Helvetica,sans-Serif" font-size="10.00">GlobalRegistration</text>
<text text-anchor="start" x="422.5" y="-18.5" font-family="Helvetica,sans-Serif" font-size="10.00">::Match4PCSOptions::</text>
<text text-anchor="middle" x="472.5" y="-7.5" font-family="Helvetica,sans-Serif" font-size="10.00">getTerminateThreshold</text>
</a>
</g>
</g>
<!-- Node5&#45;&gt;Node10 -->
<g id="edge8" class="edge"><title>Node5&#45;&gt;Node10</title>
<path fill="none" stroke="midnightblue" d="M300.346,-87.9905C325.162,-77.6794 358.996,-63.7797 389,-52 394.701,-49.7616 400.637,-47.4653 406.594,-45.1838"/>
<polygon fill="midnightblue" stroke="midnightblue" points="407.845,-48.4529 415.943,-41.6214 405.352,-41.9118 407.845,-48.4529"/>
</g>
<!-- Node9 -->
<g id="node8" class="node"><title>Node9</title>
<g id="a_node8"><a xlink:href="class_global_registration_1_1_kd_tree.xhtml#ad6cd36f9f91e1e6b444b38b1a986d0c1" target="_top" xlink:title="Finds the closest element index within the range [0:sqrt(sqdist)]. ">
<polygon fill="white" stroke="black" points="592,-55.5 592,-96.5 734,-96.5 734,-55.5 592,-55.5"/>
<text text-anchor="start" x="600" y="-84.5" font-family="Helvetica,sans-Serif" font-size="10.00">GlobalRegistration</text>
<text text-anchor="start" x="600" y="-73.5" font-family="Helvetica,sans-Serif" font-size="10.00">::KdTree::doQueryRestricted</text>
<text text-anchor="middle" x="663" y="-62.5" font-family="Helvetica,sans-Serif" font-size="10.00">ClosestIndex</text>
</a>
</g>
</g>
<!-- Node8&#45;&gt;Node9 -->
<g id="edge7" class="edge"><title>Node8&#45;&gt;Node9</title>
<path fill="none" stroke="midnightblue" d="M537.581,-76C551.802,-76 567.049,-76 581.823,-76"/>
<polygon fill="midnightblue" stroke="midnightblue" points="581.958,-79.5001 591.958,-76 581.958,-72.5001 581.958,-79.5001"/>
</g>
</g>
</svg>
        <g id="navigator" transform="translate(0 0)" fill="#404254">
                <rect fill="#f2f5e9" fill-opacity="0.5" stroke="#606060" stroke-width=".5" x="0" y="0" width="60" height="60"/>
                <use id="zoomplus" xlink:href="#zoomPlus" x="17" y="9" onmousedown="handleZoom(evt,'in')"/>
                <use id="zoomminus" xlink:href="#zoomMin" x="42" y="9" onmousedown="handleZoom(evt,'out')"/>
                <use id="reset" xlink:href="#resetDef" x="30" y="36" onmousedown="handleReset()"/>
                <g id="arrowUp" xlink:href="#dirArrow" transform="translate(30 24)" onmousedown="handlePan(0,-1)">
                  <use xlink:href="#rim" fill="#404040">
                        <set attributeName="fill" to="#808080" begin="arrowUp.mouseover" end="arrowUp.mouseout"/>
                  </use>
                  <path fill="none" stroke="white" stroke-width="1.5" d="M0,-3.0v7 M-2.5,-0.5L0,-3.0L2.5,-0.5"/>
                </g>
                <g id="arrowRight" xlink:href="#dirArrow" transform="rotate(90) translate(36 -43)" onmousedown="handlePan(1,0)">
                  <use xlink:href="#rim" fill="#404040">
                        <set attributeName="fill" to="#808080" begin="arrowRight.mouseover" end="arrowRight.mouseout"/>
                  </use>
                  <path fill="none" stroke="white" stroke-width="1.5" d="M0,-3.0v7 M-2.5,-0.5L0,-3.0L2.5,-0.5"/>
                </g>
                <g id="arrowDown" xlink:href="#dirArrow" transform="rotate(180) translate(-30 -48)" onmousedown="handlePan(0,1)">
                  <use xlink:href="#rim" fill="#404040">
                        <set attributeName="fill" to="#808080" begin="arrowDown.mouseover" end="arrowDown.mouseout"/>
                  </use>
                  <path fill="none" stroke="white" stroke-width="1.5" d="M0,-3.0v7 M-2.5,-0.5L0,-3.0L2.5,-0.5"/>
                </g>
                <g id="arrowLeft" xlink:href="#dirArrow" transform="rotate(270) translate(-36 17)" onmousedown="handlePan(-1,0)">
                  <use xlink:href="#rim" fill="#404040">
                        <set attributeName="fill" to="#808080" begin="arrowLeft.mouseover" end="arrowLeft.mouseout"/>
                  </use>
                  <path fill="none" stroke="white" stroke-width="1.5" d="M0,-3.0v7 M-2.5,-0.5L0,-3.0L2.5,-0.5"/>
                </g>
        </g>
        <svg viewBox="0 0 15 15" width="100%" height="30px" preserveAspectRatio="xMaxYMin meet">
         <g id="arrow_out" transform="scale(0.3 0.3)">
          <a xlink:href="class_global_registration_1_1_match4_p_c_s_base_a995d1bd4cc26b4bf799222698e18a78c_cgraph_org.svg" target="_base">
           <rect id="button" ry="5" rx="5" y="6" x="6" height="38" width="38"
                fill="#f2f5e9" fill-opacity="0.5" stroke="#606060" stroke-width="1.0"/>
           <path id="arrow"
             d="M 11.500037,31.436501 C 11.940474,20.09759 22.043105,11.32322 32.158766,21.979434 L 37.068811,17.246167 C 37.068811,17.246167 37.088388,32 37.088388,32 L 22.160133,31.978069 C 22.160133,31.978069 26.997745,27.140456 26.997745,27.140456 C 18.528582,18.264221 13.291696,25.230495 11.500037,31.436501 z"
             style="fill:#404040;"/>
          </a>
         </g>
        </svg>
</svg>
