<?xml version="1.0" encoding="UTF-8" standalone="no"?>
<!DOCTYPE svg PUBLIC "-//W3C//DTD SVG 1.1//EN"
 "http://www.w3.org/Graphics/SVG/1.1/DTD/svg11.dtd">
<!-- Generated by graphviz version 2.38.0 (20140413.2041)
 -->
<!-- Title: GlobalRegistration::KdTree&lt; _Scalar, _Index &gt; Pages: 1 -->
<svg width="774pt" height="964pt"
 viewBox="0.00 0.00 774.00 964.00" xmlns="http://www.w3.org/2000/svg" xmlns:xlink="http://www.w3.org/1999/xlink">
<g id="graph0" class="graph" transform="scale(1 1) rotate(0) translate(4 960)">
<title>GlobalRegistration::KdTree&lt; _Scalar, _Index &gt;</title>
<polygon fill="white" stroke="none" points="-4,4 -4,-960 770,-960 770,4 -4,4"/>
<!-- Node2 -->
<g id="node1" class="node"><title>Node2</title>
<polygon fill="#bfbfbf" stroke="black" points="244,-0.5 244,-288.5 420,-288.5 420,-0.5 244,-0.5"/>
<text text-anchor="start" x="252" y="-276.5" font-family="Helvetica,sans-Serif" font-size="10.00">GlobalRegistration</text>
<text text-anchor="start" x="252" y="-265.5" font-family="Helvetica,sans-Serif" font-size="10.00">::KdTree&lt; _Scalar, </text>
<text text-anchor="middle" x="332" y="-254.5" font-family="Helvetica,sans-Serif" font-size="10.00">_Index &gt;</text>
<polyline fill="none" stroke="black" points="244,-247.5 420,-247.5 "/>
<text text-anchor="middle" x="332" y="-235.5" font-family="Helvetica,sans-Serif" font-size="10.00"> </text>
<polyline fill="none" stroke="black" points="244,-228.5 420,-228.5 "/>
<text text-anchor="start" x="252" y="-216.5" font-family="Helvetica,sans-Serif" font-size="10.00">+ _getNodes()</text>
<text text-anchor="start" x="252" y="-205.5" font-family="Helvetica,sans-Serif" font-size="10.00">+ _getPoints()</text>
<text text-anchor="start" x="252" y="-194.5" font-family="Helvetica,sans-Serif" font-size="10.00">+ _getIndices()</text>
<text text-anchor="start" x="252" y="-183.5" font-family="Helvetica,sans-Serif" font-size="10.00">+ KdTree()</text>
<text text-anchor="start" x="252" y="-172.5" font-family="Helvetica,sans-Serif" font-size="10.00">+ KdTree()</text>
<text text-anchor="start" x="252" y="-161.5" font-family="Helvetica,sans-Serif" font-size="10.00">+ add()</text>
<text text-anchor="start" x="252" y="-150.5" font-family="Helvetica,sans-Serif" font-size="10.00">+ add()</text>
<text text-anchor="start" x="252" y="-139.5" font-family="Helvetica,sans-Serif" font-size="10.00">+ finalize()</text>
<text text-anchor="start" x="252" y="-128.5" font-family="Helvetica,sans-Serif" font-size="10.00">+ aabb()</text>
<text text-anchor="start" x="252" y="-117.5" font-family="Helvetica,sans-Serif" font-size="10.00">+ ~KdTree()</text>
<text text-anchor="start" x="252" y="-106.5" font-family="Helvetica,sans-Serif" font-size="10.00">+ doQueryK()</text>
<text text-anchor="start" x="252" y="-95.5" font-family="Helvetica,sans-Serif" font-size="10.00">+ doQueryDist()</text>
<text text-anchor="start" x="252" y="-84.5" font-family="Helvetica,sans-Serif" font-size="10.00">+ doQueryDistIndices()</text>
<text text-anchor="start" x="252" y="-73.5" font-family="Helvetica,sans-Serif" font-size="10.00">+ doQueryDistProcessIndices()</text>
<text text-anchor="start" x="252" y="-62.5" font-family="Helvetica,sans-Serif" font-size="10.00">+ doQueryRestrictedClosest</text>
<text text-anchor="start" x="252" y="-51.5" font-family="Helvetica,sans-Serif" font-size="10.00">Index()</text>
<text text-anchor="start" x="252" y="-40.5" font-family="Helvetica,sans-Serif" font-size="10.00">+ invalidIndex()</text>
<text text-anchor="start" x="252" y="-29.5" font-family="Helvetica,sans-Serif" font-size="10.00"># split()</text>
<text text-anchor="start" x="252" y="-18.5" font-family="Helvetica,sans-Serif" font-size="10.00"># createTree()</text>
<text text-anchor="start" x="252" y="-7.5" font-family="Helvetica,sans-Serif" font-size="10.00"># _doQueryDistIndicesWithFunctor()</text>
</g>
<!-- Node3 -->
<g id="node2" class="node"><title>Node3</title>
<polygon fill="white" stroke="#bfbfbf" points="0,-430 0,-487 112,-487 112,-430 0,-430"/>
<text text-anchor="middle" x="56" y="-475" font-family="Helvetica,sans-Serif" font-size="10.00">vector&lt; VectorType &gt;</text>
<polyline fill="none" stroke="#bfbfbf" points="0,-468 112,-468 "/>
<text text-anchor="middle" x="56" y="-456" font-family="Helvetica,sans-Serif" font-size="10.00"> </text>
<polyline fill="none" stroke="#bfbfbf" points="0,-449 112,-449 "/>
<text text-anchor="middle" x="56" y="-437" font-family="Helvetica,sans-Serif" font-size="10.00"> </text>
</g>
<!-- Node3&#45;&gt;Node2 -->
<g id="edge1" class="edge"><title>Node3&#45;&gt;Node2</title>
<path fill="none" stroke="#404040" d="M69.5393,-429.813C81.5138,-406.606 100.266,-373.167 121,-347 154.637,-304.549 196.986,-262.407 234.901,-227.721"/>
<polygon fill="none" stroke="#404040" points="235.042,-227.592 236.796,-220.598 243.927,-219.526 242.174,-226.521 235.042,-227.592"/>
<text text-anchor="middle" x="174.5" y="-315.5" font-family="Helvetica,sans-Serif" font-size="10.00"> #mPoints</text>
</g>
<!-- Node4 -->
<g id="node3" class="node"><title>Node4</title>
<polygon fill="white" stroke="#bfbfbf" points="130,-430 130,-487 216,-487 216,-430 130,-430"/>
<text text-anchor="middle" x="173" y="-475" font-family="Helvetica,sans-Serif" font-size="10.00">vector&lt; Index &gt;</text>
<polyline fill="none" stroke="#bfbfbf" points="130,-468 216,-468 "/>
<text text-anchor="middle" x="173" y="-456" font-family="Helvetica,sans-Serif" font-size="10.00"> </text>
<polyline fill="none" stroke="#bfbfbf" points="130,-449 216,-449 "/>
<text text-anchor="middle" x="173" y="-437" font-family="Helvetica,sans-Serif" font-size="10.00"> </text>
</g>
<!-- Node4&#45;&gt;Node2 -->
<g id="edge2" class="edge"><title>Node4&#45;&gt;Node2</title>
<path fill="none" stroke="#404040" d="M185.668,-429.62C195.977,-407.169 211.052,-374.872 225,-347 232.705,-331.603 240.879,-315.625 249.14,-299.707"/>
<polygon fill="none" stroke="#404040" points="249.326,-299.349 248.549,-292.18 254.868,-288.705 255.645,-295.874 249.326,-299.349"/>
<text text-anchor="middle" x="269.5" y="-315.5" font-family="Helvetica,sans-Serif" font-size="10.00"> #mIndices</text>
</g>
<!-- Node5 -->
<g id="node4" class="node"><title>Node5</title>
<polygon fill="white" stroke="#bfbfbf" points="234.5,-430 234.5,-487 331.5,-487 331.5,-430 234.5,-430"/>
<text text-anchor="middle" x="283" y="-475" font-family="Helvetica,sans-Serif" font-size="10.00">vector&lt; KdNode &gt;</text>
<polyline fill="none" stroke="#bfbfbf" points="234.5,-468 331.5,-468 "/>
<text text-anchor="middle" x="283" y="-456" font-family="Helvetica,sans-Serif" font-size="10.00"> </text>
<polyline fill="none" stroke="#bfbfbf" points="234.5,-449 331.5,-449 "/>
<text text-anchor="middle" x="283" y="-437" font-family="Helvetica,sans-Serif" font-size="10.00"> </text>
</g>
<!-- Node5&#45;&gt;Node2 -->
<g id="edge3" class="edge"><title>Node5&#45;&gt;Node2</title>
<path fill="none" stroke="#404040" d="M287.348,-429.812C292.021,-400.058 299.832,-350.324 307.626,-300.698"/>
<polygon fill="none" stroke="#404040" points="307.637,-300.629 304.616,-294.081 309.499,-288.775 312.519,-295.323 307.637,-300.629"/>
<text text-anchor="middle" x="330" y="-315.5" font-family="Helvetica,sans-Serif" font-size="10.00"> #mNodes</text>
</g>
<!-- Node6 -->
<g id="node5" class="node"><title>Node6</title>
<polygon fill="white" stroke="#bfbfbf" points="349.5,-430 349.5,-487 418.5,-487 418.5,-430 349.5,-430"/>
<text text-anchor="middle" x="384" y="-475" font-family="Helvetica,sans-Serif" font-size="10.00">unsigned int</text>
<polyline fill="none" stroke="#bfbfbf" points="349.5,-468 418.5,-468 "/>
<text text-anchor="middle" x="384" y="-456" font-family="Helvetica,sans-Serif" font-size="10.00"> </text>
<polyline fill="none" stroke="#bfbfbf" points="349.5,-449 418.5,-449 "/>
<text text-anchor="middle" x="384" y="-437" font-family="Helvetica,sans-Serif" font-size="10.00"> </text>
</g>
<!-- Node6&#45;&gt;Node2 -->
<g id="edge4" class="edge"><title>Node6&#45;&gt;Node2</title>
<path fill="none" stroke="#404040" d="M379.385,-429.812C374.426,-400.058 366.137,-350.324 357.866,-300.698"/>
<polygon fill="none" stroke="#404040" points="357.852,-300.611 352.92,-295.351 355.879,-288.775 360.811,-294.035 357.852,-300.611"/>
<text text-anchor="middle" x="406" y="-321" font-family="Helvetica,sans-Serif" font-size="10.00"> #_nofPointsPerCell</text>
<text text-anchor="middle" x="406" y="-310" font-family="Helvetica,sans-Serif" font-size="10.00">#_maxDepth</text>
</g>
<!-- Node7 -->
<g id="node6" class="node"><title>Node7</title>
<g id="a_node6"><a xlink:href="struct_global_registration_1_1_kd_tree_1_1_query_node.xhtml" target="_top" xlink:title="element of the stack ">
<polygon fill="white" stroke="black" points="437,-413.5 437,-503.5 547,-503.5 547,-413.5 437,-413.5"/>
<text text-anchor="start" x="445" y="-491.5" font-family="Helvetica,sans-Serif" font-size="10.00">GlobalRegistration</text>
<text text-anchor="start" x="445" y="-480.5" font-family="Helvetica,sans-Serif" font-size="10.00">::KdTree&lt; _Scalar, </text>
<text text-anchor="middle" x="492" y="-469.5" font-family="Helvetica,sans-Serif" font-size="10.00">_Index &gt;::QueryNode</text>
<polyline fill="none" stroke="black" points="437,-462.5 547,-462.5 "/>
<text text-anchor="middle" x="492" y="-450.5" font-family="Helvetica,sans-Serif" font-size="10.00"> </text>
<polyline fill="none" stroke="black" points="437,-443.5 547,-443.5 "/>
<text text-anchor="start" x="445" y="-431.5" font-family="Helvetica,sans-Serif" font-size="10.00">+ QueryNode()</text>
<text text-anchor="start" x="445" y="-420.5" font-family="Helvetica,sans-Serif" font-size="10.00">+ QueryNode()</text>
</a>
</g>
</g>
<!-- Node7&#45;&gt;Node2 -->
<g id="edge5" class="edge"><title>Node7&#45;&gt;Node2</title>
<path fill="none" stroke="#404040" d="M485.653,-413.424C480.078,-382.541 470.255,-340.897 454,-307 446.335,-291.015 436.953,-275.059 426.828,-259.74"/>
<polygon fill="none" stroke="#404040" points="426.807,-259.708 420.131,-256.983 420.079,-249.772 426.755,-252.498 426.807,-259.708"/>
<text text-anchor="middle" x="496" y="-315.5" font-family="Helvetica,sans-Serif" font-size="10.00"> #mNodeStack</text>
</g>
<!-- Node8 -->
<g id="node7" class="node"><title>Node8</title>
<polygon fill="white" stroke="#bfbfbf" points="423,-700 423,-757 473,-757 473,-700 423,-700"/>
<text text-anchor="middle" x="448" y="-745" font-family="Helvetica,sans-Serif" font-size="10.00">_Scalar</text>
<polyline fill="none" stroke="#bfbfbf" points="423,-738 473,-738 "/>
<text text-anchor="middle" x="448" y="-726" font-family="Helvetica,sans-Serif" font-size="10.00"> </text>
<polyline fill="none" stroke="#bfbfbf" points="423,-719 473,-719 "/>
<text text-anchor="middle" x="448" y="-707" font-family="Helvetica,sans-Serif" font-size="10.00"> </text>
</g>
<!-- Node8&#45;&gt;Node7 -->
<g id="edge6" class="edge"><title>Node8&#45;&gt;Node7</title>
<path fill="none" stroke="#404040" d="M452.543,-699.829C459.641,-656.594 473.506,-572.144 482.763,-515.763"/>
<polygon fill="none" stroke="#404040" points="482.777,-515.674 479.802,-509.105 484.722,-503.832 487.697,-510.401 482.777,-515.674"/>
<text text-anchor="middle" x="480" y="-591" font-family="Helvetica,sans-Serif" font-size="10.00"> +sq</text>
</g>
<!-- Node9 -->
<g id="node8" class="node"><title>Node9</title>
<polygon fill="white" stroke="#bfbfbf" points="491.5,-700 491.5,-757 520.5,-757 520.5,-700 491.5,-700"/>
<text text-anchor="middle" x="506" y="-745" font-family="Helvetica,sans-Serif" font-size="10.00">int</text>
<polyline fill="none" stroke="#bfbfbf" points="491.5,-738 520.5,-738 "/>
<text text-anchor="middle" x="506" y="-726" font-family="Helvetica,sans-Serif" font-size="10.00"> </text>
<polyline fill="none" stroke="#bfbfbf" points="491.5,-719 520.5,-719 "/>
<text text-anchor="middle" x="506" y="-707" font-family="Helvetica,sans-Serif" font-size="10.00"> </text>
</g>
<!-- Node9&#45;&gt;Node7 -->
<g id="edge7" class="edge"><title>Node9&#45;&gt;Node7</title>
<path fill="none" stroke="#404040" d="M504.554,-699.829C502.301,-656.685 497.903,-572.498 494.958,-516.118"/>
<polygon fill="none" stroke="#404040" points="494.942,-515.816 490.634,-510.033 494.316,-503.832 498.623,-509.615 494.942,-515.816"/>
<text text-anchor="middle" x="518.5" y="-591" font-family="Helvetica,sans-Serif" font-size="10.00"> +nodeId</text>
</g>
<!-- Node10 -->
<g id="node9" class="node"><title>Node10</title>
<g id="a_node9"><a xlink:href="class_global_registration_1_1_a_a_b_b.xhtml" target="_top" xlink:title="{GlobalRegistration\l::AABB\&lt; Scalar \&gt;\n||+ AABB()\l+ AABB()\l+ AABB()\l+ AABB()\l+ operator=()\l+ extendTo()\l+ extendTo()\l+ contains()\l+ diagonal()\l+ center()\l+ min()\l+ max()\l+ depth()\l+ width()\l+ height()\l}">
<polygon fill="white" stroke="black" points="565.5,-347.5 565.5,-569.5 662.5,-569.5 662.5,-347.5 565.5,-347.5"/>
<text text-anchor="start" x="573.5" y="-557.5" font-family="Helvetica,sans-Serif" font-size="10.00">GlobalRegistration</text>
<text text-anchor="middle" x="614" y="-546.5" font-family="Helvetica,sans-Serif" font-size="10.00">::AABB&lt; Scalar &gt;</text>
<polyline fill="none" stroke="black" points="565.5,-539.5 662.5,-539.5 "/>
<text text-anchor="middle" x="614" y="-527.5" font-family="Helvetica,sans-Serif" font-size="10.00"> </text>
<polyline fill="none" stroke="black" points="565.5,-520.5 662.5,-520.5 "/>
<text text-anchor="start" x="573.5" y="-508.5" font-family="Helvetica,sans-Serif" font-size="10.00">+ AABB()</text>
<text text-anchor="start" x="573.5" y="-497.5" font-family="Helvetica,sans-Serif" font-size="10.00">+ AABB()</text>
<text text-anchor="start" x="573.5" y="-486.5" font-family="Helvetica,sans-Serif" font-size="10.00">+ AABB()</text>
<text text-anchor="start" x="573.5" y="-475.5" font-family="Helvetica,sans-Serif" font-size="10.00">+ AABB()</text>
<text text-anchor="start" x="573.5" y="-464.5" font-family="Helvetica,sans-Serif" font-size="10.00">+ operator=()</text>
<text text-anchor="start" x="573.5" y="-453.5" font-family="Helvetica,sans-Serif" font-size="10.00">+ extendTo()</text>
<text text-anchor="start" x="573.5" y="-442.5" font-family="Helvetica,sans-Serif" font-size="10.00">+ extendTo()</text>
<text text-anchor="start" x="573.5" y="-431.5" font-family="Helvetica,sans-Serif" font-size="10.00">+ contains()</text>
<text text-anchor="start" x="573.5" y="-420.5" font-family="Helvetica,sans-Serif" font-size="10.00">+ diagonal()</text>
<text text-anchor="start" x="573.5" y="-409.5" font-family="Helvetica,sans-Serif" font-size="10.00">+ center()</text>
<text text-anchor="start" x="573.5" y="-398.5" font-family="Helvetica,sans-Serif" font-size="10.00">+ min()</text>
<text text-anchor="start" x="573.5" y="-387.5" font-family="Helvetica,sans-Serif" font-size="10.00">+ max()</text>
<text text-anchor="start" x="573.5" y="-376.5" font-family="Helvetica,sans-Serif" font-size="10.00">+ depth()</text>
<text text-anchor="start" x="573.5" y="-365.5" font-family="Helvetica,sans-Serif" font-size="10.00">+ width()</text>
<text text-anchor="start" x="573.5" y="-354.5" font-family="Helvetica,sans-Serif" font-size="10.00">+ height()</text>
</a>
</g>
</g>
<!-- Node10&#45;&gt;Node2 -->
<g id="edge8" class="edge"><title>Node10&#45;&gt;Node2</title>
<path fill="none" stroke="#404040" d="M565.363,-364.218C562.218,-358.379 559.079,-352.601 556,-347 546.122,-329.029 546.334,-322.58 533,-307 503.135,-272.105 464.922,-239.239 429.849,-212.381"/>
<polygon fill="none" stroke="#404040" points="429.62,-212.207 422.422,-211.778 420.05,-204.968 427.248,-205.397 429.62,-212.207"/>
<text text-anchor="middle" x="569" y="-315.5" font-family="Helvetica,sans-Serif" font-size="10.00"> #mAABB</text>
</g>
<!-- Node11 -->
<g id="node10" class="node"><title>Node11</title>
<polygon fill="white" stroke="#bfbfbf" points="561.5,-898.5 561.5,-955.5 686.5,-955.5 686.5,-898.5 561.5,-898.5"/>
<text text-anchor="middle" x="624" y="-943.5" font-family="Helvetica,sans-Serif" font-size="10.00">Matrix&lt; Scalar, Dim, 1 &gt;</text>
<polyline fill="none" stroke="#bfbfbf" points="561.5,-936.5 686.5,-936.5 "/>
<text text-anchor="middle" x="624" y="-924.5" font-family="Helvetica,sans-Serif" font-size="10.00"> </text>
<polyline fill="none" stroke="#bfbfbf" points="561.5,-917.5 686.5,-917.5 "/>
<text text-anchor="middle" x="624" y="-905.5" font-family="Helvetica,sans-Serif" font-size="10.00"> </text>
</g>
<!-- Node11&#45;&gt;Node10 -->
<g id="edge9" class="edge"><title>Node11&#45;&gt;Node10</title>
<path fill="none" stroke="#404040" d="M612.917,-898.237C606.891,-881.636 600.059,-859.954 597,-840 583.879,-754.403 588.631,-656.807 596.404,-581.89"/>
<polygon fill="none" stroke="#404040" points="596.443,-581.525 593.108,-575.132 597.727,-569.594 601.062,-575.988 596.443,-581.525"/>
<text text-anchor="middle" x="612" y="-731.5" font-family="Helvetica,sans-Serif" font-size="10.00"> #_min</text>
<text text-anchor="middle" x="612" y="-720.5" font-family="Helvetica,sans-Serif" font-size="10.00">#_max</text>
</g>
<!-- Node12 -->
<g id="node11" class="node"><title>Node12</title>
<g id="a_node11"><a xlink:href="class_global_registration_1_1_a_a_b_b.xhtml" target="_top" xlink:title="{GlobalRegistration\l::AABB\&lt; _Scalar, _Dim \&gt;\n||+ AABB()\l+ AABB()\l+ AABB()\l+ AABB()\l+ operator=()\l+ extendTo()\l+ extendTo()\l+ contains()\l+ diagonal()\l+ center()\l+ min()\l+ max()\l+ depth()\l+ width()\l+ height()\l}">
<polygon fill="white" stroke="black" points="636,-617.5 636,-839.5 766,-839.5 766,-617.5 636,-617.5"/>
<text text-anchor="start" x="644" y="-827.5" font-family="Helvetica,sans-Serif" font-size="10.00">GlobalRegistration</text>
<text text-anchor="middle" x="701" y="-816.5" font-family="Helvetica,sans-Serif" font-size="10.00">::AABB&lt; _Scalar, _Dim &gt;</text>
<polyline fill="none" stroke="black" points="636,-809.5 766,-809.5 "/>
<text text-anchor="middle" x="701" y="-797.5" font-family="Helvetica,sans-Serif" font-size="10.00"> </text>
<polyline fill="none" stroke="black" points="636,-790.5 766,-790.5 "/>
<text text-anchor="start" x="644" y="-778.5" font-family="Helvetica,sans-Serif" font-size="10.00">+ AABB()</text>
<text text-anchor="start" x="644" y="-767.5" font-family="Helvetica,sans-Serif" font-size="10.00">+ AABB()</text>
<text text-anchor="start" x="644" y="-756.5" font-family="Helvetica,sans-Serif" font-size="10.00">+ AABB()</text>
<text text-anchor="start" x="644" y="-745.5" font-family="Helvetica,sans-Serif" font-size="10.00">+ AABB()</text>
<text text-anchor="start" x="644" y="-734.5" font-family="Helvetica,sans-Serif" font-size="10.00">+ operator=()</text>
<text text-anchor="start" x="644" y="-723.5" font-family="Helvetica,sans-Serif" font-size="10.00">+ extendTo()</text>
<text text-anchor="start" x="644" y="-712.5" font-family="Helvetica,sans-Serif" font-size="10.00">+ extendTo()</text>
<text text-anchor="start" x="644" y="-701.5" font-family="Helvetica,sans-Serif" font-size="10.00">+ contains()</text>
<text text-anchor="start" x="644" y="-690.5" font-family="Helvetica,sans-Serif" font-size="10.00">+ diagonal()</text>
<text text-anchor="start" x="644" y="-679.5" font-family="Helvetica,sans-Serif" font-size="10.00">+ center()</text>
<text text-anchor="start" x="644" y="-668.5" font-family="Helvetica,sans-Serif" font-size="10.00">+ min()</text>
<text text-anchor="start" x="644" y="-657.5" font-family="Helvetica,sans-Serif" font-size="10.00">+ max()</text>
<text text-anchor="start" x="644" y="-646.5" font-family="Helvetica,sans-Serif" font-size="10.00">+ depth()</text>
<text text-anchor="start" x="644" y="-635.5" font-family="Helvetica,sans-Serif" font-size="10.00">+ width()</text>
<text text-anchor="start" x="644" y="-624.5" font-family="Helvetica,sans-Serif" font-size="10.00">+ height()</text>
</a>
</g>
</g>
<!-- Node11&#45;&gt;Node12 -->
<g id="edge11" class="edge"><title>Node11&#45;&gt;Node12</title>
<path fill="none" stroke="#404040" d="M634.869,-898.263C639.936,-885.333 646.352,-868.958 653.185,-851.521"/>
<polygon fill="none" stroke="#404040" points="653.347,-851.107 651.812,-844.061 657.726,-839.934 659.261,-846.98 653.347,-851.107"/>
<text text-anchor="middle" x="663" y="-872" font-family="Helvetica,sans-Serif" font-size="10.00"> #_min</text>
<text text-anchor="middle" x="663" y="-861" font-family="Helvetica,sans-Serif" font-size="10.00">#_max</text>
</g>
<!-- Node12&#45;&gt;Node10 -->
<g id="edge10" class="edge"><title>Node12&#45;&gt;Node10</title>
<path fill="none" stroke="orange" d="M662.108,-607.696C658,-595.039 653.835,-582.211 649.765,-569.671"/>
<polygon fill="orange" stroke="orange" points="658.82,-608.903 665.237,-617.334 665.478,-606.742 658.82,-608.903"/>
<text text-anchor="middle" x="681.5" y="-591" font-family="Helvetica,sans-Serif" font-size="10.00"> &lt; Scalar &gt;</text>
</g>
</g>
</svg>
