<?xml version="1.0" encoding="UTF-8" standalone="no"?>
<!DOCTYPE svg PUBLIC "-//W3C//DTD SVG 1.1//EN"
 "http://www.w3.org/Graphics/SVG/1.1/DTD/svg11.dtd">
<!-- Generated by graphviz version 2.38.0 (20140413.2041)
 -->
<!-- Title: GlobalRegistration::Match4PCSBase::Log Pages: 1 -->
<svg width="1116pt" height="613pt"
 viewBox="0.00 0.00 1116.00 613.03" xmlns="http://www.w3.org/2000/svg" xmlns:xlink="http://www.w3.org/1999/xlink">
<g id="graph0" class="graph" transform="scale(1 1) rotate(0) translate(4 609.025)">
<title>GlobalRegistration::Match4PCSBase::Log</title>
<polygon fill="white" stroke="none" points="-4,4 -4,-609.025 1112,-609.025 1112,4 -4,4"/>
<!-- Node63 -->
<g id="node1" class="node"><title>Node63</title>
<polygon fill="#bfbfbf" stroke="black" points="0,-306.525 0,-336.525 120,-336.525 120,-306.525 0,-306.525"/>
<text text-anchor="start" x="8" y="-324.525" font-family="Helvetica,sans-Serif" font-size="10.00">GlobalRegistration</text>
<text text-anchor="middle" x="60" y="-313.525" font-family="Helvetica,sans-Serif" font-size="10.00">::Match4PCSBase::Log</text>
</g>
<!-- Node64 -->
<g id="node2" class="node"><title>Node64</title>
<g id="a_node2"><a xlink:href="class_global_registration_1_1_utils_1_1_logger.xhtml#a80be1cf2fd1833a5062f0699e40fc396" target="_top" xlink:title="GlobalRegistration\l::Utils::Logger::Log">
<polygon fill="white" stroke="black" points="175.5,-574.525 175.5,-604.525 275.5,-604.525 275.5,-574.525 175.5,-574.525"/>
<text text-anchor="start" x="183.5" y="-592.525" font-family="Helvetica,sans-Serif" font-size="10.00">GlobalRegistration</text>
<text text-anchor="middle" x="225.5" y="-581.525" font-family="Helvetica,sans-Serif" font-size="10.00">::Utils::Logger::Log</text>
</a>
</g>
</g>
<!-- Node63&#45;&gt;Node64 -->
<g id="edge1" class="edge"><title>Node63&#45;&gt;Node64</title>
<path fill="none" stroke="midnightblue" d="M63.0255,-336.772C69.264,-378.024 91.8092,-493.18 156,-559.525 159.576,-563.221 163.685,-566.491 168.077,-569.379"/>
<polygon fill="midnightblue" stroke="midnightblue" points="166.404,-572.456 176.805,-574.473 169.932,-566.41 166.404,-572.456"/>
</g>
<!-- Node65 -->
<g id="node3" class="node"><title>Node65</title>
<g id="a_node3"><a xlink:href="class_global_registration_1_1_match4_p_c_s_base.xhtml#a63d5f8d1043f6993c0bc3f14291e04b6" target="_top" xlink:title="GlobalRegistration\l::Match4PCSBase::MeanDistance">
<polygon fill="white" stroke="black" points="331,-536.525 331,-566.525 498,-566.525 498,-536.525 331,-536.525"/>
<text text-anchor="start" x="339" y="-554.525" font-family="Helvetica,sans-Serif" font-size="10.00">GlobalRegistration</text>
<text text-anchor="middle" x="414.5" y="-543.525" font-family="Helvetica,sans-Serif" font-size="10.00">::Match4PCSBase::MeanDistance</text>
</a>
</g>
</g>
<!-- Node63&#45;&gt;Node65 -->
<g id="edge2" class="edge"><title>Node63&#45;&gt;Node65</title>
<path fill="none" stroke="midnightblue" d="M63.1817,-336.711C69.5575,-374.989 91.9406,-475.631 156,-521.525 203.089,-555.261 267.916,-562.658 320.743,-561.673"/>
<polygon fill="midnightblue" stroke="midnightblue" points="320.904,-565.17 330.799,-561.383 320.702,-558.173 320.904,-565.17"/>
</g>
<!-- Node67 -->
<g id="node5" class="node"><title>Node67</title>
<g id="a_node5"><a xlink:href="class_global_registration_1_1_match4_p_c_s_base.xhtml#af9b9a0034ec3ff9646b36ce6250702cd" target="_top" xlink:title="GlobalRegistration\l::Match4PCSBase::SelectRandom\lTriangle">
<polygon fill="white" stroke="black" points="759,-16.0252 759,-57.0252 928,-57.0252 928,-16.0252 759,-16.0252"/>
<text text-anchor="start" x="767" y="-45.0252" font-family="Helvetica,sans-Serif" font-size="10.00">GlobalRegistration</text>
<text text-anchor="start" x="767" y="-34.0252" font-family="Helvetica,sans-Serif" font-size="10.00">::Match4PCSBase::SelectRandom</text>
<text text-anchor="middle" x="843.5" y="-23.0252" font-family="Helvetica,sans-Serif" font-size="10.00">Triangle</text>
</a>
</g>
</g>
<!-- Node63&#45;&gt;Node67 -->
<g id="edge4" class="edge"><title>Node63&#45;&gt;Node67</title>
<path fill="none" stroke="midnightblue" d="M62.6447,-306.36C67.8885,-266.055 88.0862,-155.856 156,-104.525 330.6,27.4419 605.736,5.65527 748.911,-17.6219"/>
<polygon fill="midnightblue" stroke="midnightblue" points="748.549,-21.1098 758.988,-19.2983 749.698,-14.2046 748.549,-21.1098"/>
</g>
<!-- Node68 -->
<g id="node6" class="node"><title>Node68</title>
<g id="a_node6"><a xlink:href="class_global_registration_1_1_match4_p_c_s_base.xhtml#a423c63bc1aece6379b9b6a8cf9d5aa0f" target="_top" xlink:title="GlobalRegistration\l::Match4PCSBase::TryQuadrilateral">
<polygon fill="white" stroke="black" points="757,-174.525 757,-204.525 930,-204.525 930,-174.525 757,-174.525"/>
<text text-anchor="start" x="765" y="-192.525" font-family="Helvetica,sans-Serif" font-size="10.00">GlobalRegistration</text>
<text text-anchor="middle" x="843.5" y="-181.525" font-family="Helvetica,sans-Serif" font-size="10.00">::Match4PCSBase::TryQuadrilateral</text>
</a>
</g>
</g>
<!-- Node63&#45;&gt;Node68 -->
<g id="edge5" class="edge"><title>Node63&#45;&gt;Node68</title>
<path fill="none" stroke="midnightblue" d="M120.101,-317.335C276.866,-306.099 693.227,-275.412 721,-264.525 739.872,-257.127 740.065,-247.665 757,-236.525 771.649,-226.889 788.431,-217.361 803.225,-209.429"/>
<polygon fill="midnightblue" stroke="midnightblue" points="804.942,-212.481 812.144,-204.71 801.668,-206.294 804.942,-212.481"/>
</g>
<!-- Node69 -->
<g id="node7" class="node"><title>Node69</title>
<g id="a_node7"><a xlink:href="class_global_registration_1_1_match4_p_c_s_base.xhtml#af4249983ba17f93c48ba4f4d83442511" target="_top" xlink:title="GlobalRegistration\l::Match4PCSBase::ComputeRigid\lTransformation">
<polygon fill="white" stroke="black" points="760,-356.025 760,-397.025 927,-397.025 927,-356.025 760,-356.025"/>
<text text-anchor="start" x="768" y="-385.025" font-family="Helvetica,sans-Serif" font-size="10.00">GlobalRegistration</text>
<text text-anchor="start" x="768" y="-374.025" font-family="Helvetica,sans-Serif" font-size="10.00">::Match4PCSBase::ComputeRigid</text>
<text text-anchor="middle" x="843.5" y="-363.025" font-family="Helvetica,sans-Serif" font-size="10.00">Transformation</text>
</a>
</g>
</g>
<!-- Node63&#45;&gt;Node69 -->
<g id="edge6" class="edge"><title>Node63&#45;&gt;Node69</title>
<path fill="none" stroke="midnightblue" d="M120.169,-319.39C204.65,-317.403 364.402,-317.592 498,-340.525 514.489,-343.356 517.567,-348.387 534,-351.525 605.621,-365.203 687.993,-371.405 749.595,-374.213"/>
<polygon fill="midnightblue" stroke="midnightblue" points="749.542,-377.714 759.685,-374.651 749.846,-370.721 749.542,-377.714"/>
</g>
<!-- Node70 -->
<g id="node8" class="node"><title>Node70</title>
<g id="a_node8"><a xlink:href="class_global_registration_1_1_match4_p_c_s_base.xhtml#ac9a328320c7729722e3a4b9234f2dadf" target="_top" xlink:title="GlobalRegistration\l::Match4PCSBase::Verify">
<polygon fill="white" stroke="black" points="778.5,-472.525 778.5,-502.525 908.5,-502.525 908.5,-472.525 778.5,-472.525"/>
<text text-anchor="start" x="786.5" y="-490.525" font-family="Helvetica,sans-Serif" font-size="10.00">GlobalRegistration</text>
<text text-anchor="middle" x="843.5" y="-479.525" font-family="Helvetica,sans-Serif" font-size="10.00">::Match4PCSBase::Verify</text>
</a>
</g>
</g>
<!-- Node63&#45;&gt;Node70 -->
<g id="edge7" class="edge"><title>Node63&#45;&gt;Node70</title>
<path fill="none" stroke="midnightblue" d="M67.9418,-336.543C81.0552,-363.085 112.141,-417.982 156,-444.525 371.638,-575.029 469.023,-499.743 721,-493.525 736.241,-493.149 752.548,-492.508 768.107,-491.781"/>
<polygon fill="midnightblue" stroke="midnightblue" points="768.386,-495.272 778.205,-491.293 768.048,-488.28 768.386,-495.272"/>
</g>
<!-- Node71 -->
<g id="node9" class="node"><title>Node71</title>
<g id="a_node9"><a xlink:href="class_global_registration_1_1_match4_p_c_s_base.xhtml#afd714116c6898bc5913a9d77eca865ff" target="_top" xlink:title="GlobalRegistration\l::Match4PCSBase::Perform\l_N_steps">
<polygon fill="white" stroke="black" points="156,-176.025 156,-217.025 295,-217.025 295,-176.025 156,-176.025"/>
<text text-anchor="start" x="164" y="-205.025" font-family="Helvetica,sans-Serif" font-size="10.00">GlobalRegistration</text>
<text text-anchor="start" x="164" y="-194.025" font-family="Helvetica,sans-Serif" font-size="10.00">::Match4PCSBase::Perform</text>
<text text-anchor="middle" x="225.5" y="-183.025" font-family="Helvetica,sans-Serif" font-size="10.00">_N_steps</text>
</a>
</g>
</g>
<!-- Node63&#45;&gt;Node71 -->
<g id="edge9" class="edge"><title>Node63&#45;&gt;Node71</title>
<path fill="none" stroke="midnightblue" d="M74.3621,-306.433C91.8043,-287.339 123.906,-254.214 156,-231.525 160.566,-228.297 165.472,-225.188 170.483,-222.247"/>
<polygon fill="midnightblue" stroke="midnightblue" points="172.564,-225.092 179.567,-217.142 169.135,-218.99 172.564,-225.092"/>
</g>
<!-- Node72 -->
<g id="node10" class="node"><title>Node72</title>
<g id="a_node10"><a xlink:href="class_global_registration_1_1_match4_p_c_s_base.xhtml#adcacd57bf5844d8205a7620c72c0d450" target="_top" xlink:title="GlobalRegistration\l::Match4PCSBase::TryOneBase">
<polygon fill="white" stroke="black" points="335,-181.525 335,-211.525 494,-211.525 494,-181.525 335,-181.525"/>
<text text-anchor="start" x="343" y="-199.525" font-family="Helvetica,sans-Serif" font-size="10.00">GlobalRegistration</text>
<text text-anchor="middle" x="414.5" y="-188.525" font-family="Helvetica,sans-Serif" font-size="10.00">::Match4PCSBase::TryOneBase</text>
</a>
</g>
</g>
<!-- Node63&#45;&gt;Node72 -->
<g id="edge24" class="edge"><title>Node63&#45;&gt;Node72</title>
<path fill="none" stroke="midnightblue" d="M84.8621,-306.5C103.642,-295.164 130.769,-279.853 156,-269.525 190.084,-255.573 280.691,-230.909 344.751,-214.149"/>
<polygon fill="midnightblue" stroke="midnightblue" points="345.999,-217.441 354.792,-211.53 344.232,-210.668 345.999,-217.441"/>
</g>
<!-- Node73 -->
<g id="node11" class="node"><title>Node73</title>
<g id="a_node11"><a xlink:href="class_global_registration_1_1_match4_p_c_s_base.xhtml#a3b37709e1bda55f4d109c9a2dbd7b170" target="_top" xlink:title="GlobalRegistration\l::Match4PCSBase::SelectQuadrilateral">
<polygon fill="white" stroke="black" points="534,-76.5252 534,-106.525 721,-106.525 721,-76.5252 534,-76.5252"/>
<text text-anchor="start" x="542" y="-94.5252" font-family="Helvetica,sans-Serif" font-size="10.00">GlobalRegistration</text>
<text text-anchor="middle" x="627.5" y="-83.5252" font-family="Helvetica,sans-Serif" font-size="10.00">::Match4PCSBase::SelectQuadrilateral</text>
</a>
</g>
</g>
<!-- Node63&#45;&gt;Node73 -->
<g id="edge31" class="edge"><title>Node63&#45;&gt;Node73</title>
<path fill="none" stroke="midnightblue" d="M65.5767,-306.129C75.9207,-274.246 104.318,-201.093 156,-166.525 265.844,-93.0568 421.831,-82.0777 523.588,-84.2057"/>
<polygon fill="midnightblue" stroke="midnightblue" points="523.789,-87.7119 533.876,-84.4693 523.969,-80.7142 523.789,-87.7119"/>
</g>
<!-- Node81 -->
<g id="node19" class="node"><title>Node81</title>
<g id="a_node19"><a xlink:href="class_global_registration_1_1_match4_p_c_s_base.xhtml#adac9aa457425985cf778c69c60fecc21" target="_top" xlink:title="GlobalRegistration\l::Match4PCSBase::Initialize">
<polygon fill="white" stroke="black" points="344.5,-350.525 344.5,-380.525 484.5,-380.525 484.5,-350.525 344.5,-350.525"/>
<text text-anchor="start" x="352.5" y="-368.525" font-family="Helvetica,sans-Serif" font-size="10.00">GlobalRegistration</text>
<text text-anchor="middle" x="414.5" y="-357.525" font-family="Helvetica,sans-Serif" font-size="10.00">::Match4PCSBase::Initialize</text>
</a>
</g>
</g>
<!-- Node63&#45;&gt;Node81 -->
<g id="edge25" class="edge"><title>Node63&#45;&gt;Node81</title>
<path fill="none" stroke="midnightblue" d="M120.253,-330.541C132.085,-332.261 144.43,-333.999 156,-335.525 215.715,-343.402 283.367,-351.242 334.338,-356.931"/>
<polygon fill="midnightblue" stroke="midnightblue" points="333.977,-360.412 344.303,-358.039 334.751,-353.455 333.977,-360.412"/>
</g>
<!-- Node82 -->
<g id="node20" class="node"><title>Node82</title>
<g id="a_node20"><a xlink:href="class_global_registration_1_1_match4_p_c_s_base.xhtml#a6da7132684e7b8285711303d136aed79" target="_top" xlink:title="GlobalRegistration\l::Match4PCSBase::init">
<polygon fill="white" stroke="black" points="167,-405.525 167,-435.525 284,-435.525 284,-405.525 167,-405.525"/>
<text text-anchor="start" x="175" y="-423.525" font-family="Helvetica,sans-Serif" font-size="10.00">GlobalRegistration</text>
<text text-anchor="middle" x="225.5" y="-412.525" font-family="Helvetica,sans-Serif" font-size="10.00">::Match4PCSBase::init</text>
</a>
</g>
</g>
<!-- Node63&#45;&gt;Node82 -->
<g id="edge26" class="edge"><title>Node63&#45;&gt;Node82</title>
<path fill="none" stroke="midnightblue" d="M85.8321,-336.561C113.883,-353.546 159.684,-381.279 190.912,-400.187"/>
<polygon fill="midnightblue" stroke="midnightblue" points="189.336,-403.325 199.703,-405.51 192.961,-397.337 189.336,-403.325"/>
</g>
<!-- Node66 -->
<g id="node4" class="node"><title>Node66</title>
<g id="a_node4"><a xlink:href="class_global_registration_1_1_kd_tree.xhtml#ad6cd36f9f91e1e6b444b38b1a986d0c1" target="_top" xlink:title="Finds the closest element index within the range [0:sqrt(sqdist)]. ">
<polygon fill="white" stroke="black" points="966,-497.025 966,-538.025 1108,-538.025 1108,-497.025 966,-497.025"/>
<text text-anchor="start" x="974" y="-526.025" font-family="Helvetica,sans-Serif" font-size="10.00">GlobalRegistration</text>
<text text-anchor="start" x="974" y="-515.025" font-family="Helvetica,sans-Serif" font-size="10.00">::KdTree::doQueryRestricted</text>
<text text-anchor="middle" x="1037" y="-504.025" font-family="Helvetica,sans-Serif" font-size="10.00">ClosestIndex</text>
</a>
</g>
</g>
<!-- Node65&#45;&gt;Node66 -->
<g id="edge3" class="edge"><title>Node65&#45;&gt;Node66</title>
<path fill="none" stroke="midnightblue" d="M498.218,-546.993C617.805,-540.44 837.567,-528.398 955.754,-521.922"/>
<polygon fill="midnightblue" stroke="midnightblue" points="956.031,-525.412 965.824,-521.37 955.648,-518.423 956.031,-525.412"/>
</g>
<!-- Node70&#45;&gt;Node66 -->
<g id="edge8" class="edge"><title>Node70&#45;&gt;Node66</title>
<path fill="none" stroke="midnightblue" d="M908.533,-497.556C923.607,-499.918 939.863,-502.465 955.556,-504.923"/>
<polygon fill="midnightblue" stroke="midnightblue" points="955.347,-508.433 965.769,-506.523 956.431,-501.517 955.347,-508.433"/>
</g>
<!-- Node71&#45;&gt;Node72 -->
<g id="edge10" class="edge"><title>Node71&#45;&gt;Node72</title>
<path fill="none" stroke="midnightblue" d="M295.07,-196.525C304.663,-196.525 314.634,-196.525 324.537,-196.525"/>
<polygon fill="midnightblue" stroke="midnightblue" points="324.813,-200.025 334.813,-196.525 324.813,-193.025 324.813,-200.025"/>
</g>
<!-- Node72&#45;&gt;Node68 -->
<g id="edge11" class="edge"><title>Node72&#45;&gt;Node68</title>
<path fill="none" stroke="midnightblue" d="M448.395,-181.448C471.734,-171.608 504.1,-159.667 534,-154.525 615.909,-140.439 638.705,-142.908 721,-154.525 722.697,-154.765 751.651,-163.1 780.866,-171.575"/>
<polygon fill="midnightblue" stroke="midnightblue" points="780.166,-175.016 790.745,-174.443 782.117,-168.293 780.166,-175.016"/>
</g>
<!-- Node72&#45;&gt;Node73 -->
<g id="edge12" class="edge"><title>Node72&#45;&gt;Node73</title>
<path fill="none" stroke="midnightblue" d="M435.99,-181.304C458.92,-164.819 497.635,-138.598 534,-121.525 543.055,-117.274 552.873,-113.384 562.616,-109.915"/>
<polygon fill="midnightblue" stroke="midnightblue" points="563.982,-113.147 572.304,-106.589 561.709,-106.526 563.982,-113.147"/>
</g>
<!-- Node76 -->
<g id="node14" class="node"><title>Node76</title>
<g id="a_node14"><a xlink:href="class_global_registration_1_1_match4_p_c_s_base.xhtml#a869c21b7c49110f7301e78d64d9e0e57" target="_top" xlink:title="GlobalRegistration\l::Match4PCSBase::ExtractPairs">
<polygon fill="white" stroke="black" points="548.5,-164.525 548.5,-194.525 706.5,-194.525 706.5,-164.525 548.5,-164.525"/>
<text text-anchor="start" x="556.5" y="-182.525" font-family="Helvetica,sans-Serif" font-size="10.00">GlobalRegistration</text>
<text text-anchor="middle" x="627.5" y="-171.525" font-family="Helvetica,sans-Serif" font-size="10.00">::Match4PCSBase::ExtractPairs</text>
</a>
</g>
</g>
<!-- Node72&#45;&gt;Node76 -->
<g id="edge17" class="edge"><title>Node72&#45;&gt;Node76</title>
<path fill="none" stroke="midnightblue" d="M494.069,-190.195C508.444,-189.037 523.534,-187.821 538.171,-186.642"/>
<polygon fill="midnightblue" stroke="midnightblue" points="538.531,-190.124 548.217,-185.832 537.968,-183.147 538.531,-190.124"/>
</g>
<!-- Node77 -->
<g id="node15" class="node"><title>Node77</title>
<g id="a_node15"><a xlink:href="class_global_registration_1_1_match4_p_c_s_base.xhtml#ae197b4fe78911f96d3732d5faf0a6901" target="_top" xlink:title="GlobalRegistration\l::Match4PCSBase::FindCongruent\lQuadrilaterals">
<polygon fill="white" stroke="black" points="543.5,-214.025 543.5,-255.025 711.5,-255.025 711.5,-214.025 543.5,-214.025"/>
<text text-anchor="start" x="551.5" y="-243.025" font-family="Helvetica,sans-Serif" font-size="10.00">GlobalRegistration</text>
<text text-anchor="start" x="551.5" y="-232.025" font-family="Helvetica,sans-Serif" font-size="10.00">::Match4PCSBase::FindCongruent</text>
<text text-anchor="middle" x="627.5" y="-221.025" font-family="Helvetica,sans-Serif" font-size="10.00">Quadrilaterals</text>
</a>
</g>
</g>
<!-- Node72&#45;&gt;Node77 -->
<g id="edge18" class="edge"><title>Node72&#45;&gt;Node77</title>
<path fill="none" stroke="midnightblue" d="M494.069,-210.675C506.86,-212.979 520.218,-215.384 533.318,-217.744"/>
<polygon fill="midnightblue" stroke="midnightblue" points="532.811,-221.208 543.273,-219.536 534.052,-214.319 532.811,-221.208"/>
</g>
<!-- Node78 -->
<g id="node16" class="node"><title>Node78</title>
<g id="a_node16"><a xlink:href="class_global_registration_1_1_match4_p_c_s_base.xhtml#acecb2de1f163aff07803ebf905ab3e36" target="_top" xlink:title="GlobalRegistration\l::Match4PCSBase::TryCongruentSet">
<polygon fill="white" stroke="black" points="538,-312.525 538,-342.525 717,-342.525 717,-312.525 538,-312.525"/>
<text text-anchor="start" x="546" y="-330.525" font-family="Helvetica,sans-Serif" font-size="10.00">GlobalRegistration</text>
<text text-anchor="middle" x="627.5" y="-319.525" font-family="Helvetica,sans-Serif" font-size="10.00">::Match4PCSBase::TryCongruentSet</text>
</a>
</g>
</g>
<!-- Node72&#45;&gt;Node78 -->
<g id="edge19" class="edge"><title>Node72&#45;&gt;Node78</title>
<path fill="none" stroke="midnightblue" d="M439.704,-211.553C477.602,-235.081 551.01,-280.657 593.647,-307.128"/>
<polygon fill="midnightblue" stroke="midnightblue" points="591.912,-310.171 602.254,-312.472 595.604,-304.224 591.912,-310.171"/>
</g>
<!-- Node73&#45;&gt;Node67 -->
<g id="edge13" class="edge"><title>Node73&#45;&gt;Node67</title>
<path fill="none" stroke="midnightblue" d="M686.976,-76.4962C707.243,-71.2875 730.456,-65.3216 752.657,-59.6157"/>
<polygon fill="midnightblue" stroke="midnightblue" points="753.62,-62.982 762.434,-57.1029 751.877,-56.2024 753.62,-62.982"/>
</g>
<!-- Node73&#45;&gt;Node68 -->
<g id="edge14" class="edge"><title>Node73&#45;&gt;Node68</title>
<path fill="none" stroke="midnightblue" d="M691.434,-106.638C701.785,-110.583 712.044,-115.481 721,-121.525 741.659,-135.469 736.14,-150.884 757,-164.525 760.163,-166.594 763.501,-168.495 766.953,-170.242"/>
<polygon fill="midnightblue" stroke="midnightblue" points="765.759,-173.545 776.309,-174.516 768.668,-167.178 765.759,-173.545"/>
</g>
<!-- Node74 -->
<g id="node12" class="node"><title>Node74</title>
<g id="a_node12"><a xlink:href="class_global_registration_1_1_kd_tree.xhtml#a81bcdc0c30914894311c78396d3781c7" target="_top" xlink:title="Add a new vertex in the KdTree. ">
<polygon fill="white" stroke="black" points="795,-125.525 795,-155.525 892,-155.525 892,-125.525 795,-125.525"/>
<text text-anchor="start" x="803" y="-143.525" font-family="Helvetica,sans-Serif" font-size="10.00">GlobalRegistration</text>
<text text-anchor="middle" x="843.5" y="-132.525" font-family="Helvetica,sans-Serif" font-size="10.00">::KdTree::add</text>
</a>
</g>
</g>
<!-- Node73&#45;&gt;Node74 -->
<g id="edge15" class="edge"><title>Node73&#45;&gt;Node74</title>
<path fill="none" stroke="midnightblue" d="M694.161,-106.56C723.159,-113.199 756.944,-120.935 784.94,-127.346"/>
<polygon fill="midnightblue" stroke="midnightblue" points="784.444,-130.822 794.973,-129.643 786.006,-123.999 784.444,-130.822"/>
</g>
<!-- Node75 -->
<g id="node13" class="node"><title>Node75</title>
<g id="a_node13"><a xlink:href="class_global_registration_1_1_kd_tree.xhtml#a6841c0418254813b75dd036a9e4e7c2b" target="_top" xlink:title="Finalize the creation of the KdTree. ">
<polygon fill="white" stroke="black" points="795,-76.5252 795,-106.525 892,-106.525 892,-76.5252 795,-76.5252"/>
<text text-anchor="start" x="803" y="-94.5252" font-family="Helvetica,sans-Serif" font-size="10.00">GlobalRegistration</text>
<text text-anchor="middle" x="843.5" y="-83.5252" font-family="Helvetica,sans-Serif" font-size="10.00">::KdTree::finalize</text>
</a>
</g>
</g>
<!-- Node73&#45;&gt;Node75 -->
<g id="edge16" class="edge"><title>Node73&#45;&gt;Node75</title>
<path fill="none" stroke="midnightblue" d="M721.119,-91.5252C742.663,-91.5252 764.999,-91.5252 784.548,-91.5252"/>
<polygon fill="midnightblue" stroke="midnightblue" points="784.798,-95.0253 794.798,-91.5252 784.798,-88.0253 784.798,-95.0253"/>
</g>
<!-- Node78&#45;&gt;Node69 -->
<g id="edge21" class="edge"><title>Node78&#45;&gt;Node69</title>
<path fill="none" stroke="midnightblue" d="M694.161,-342.56C711.843,-346.608 731.305,-351.065 750.149,-355.379"/>
<polygon fill="midnightblue" stroke="midnightblue" points="749.405,-358.799 759.934,-357.62 750.967,-351.976 749.405,-358.799"/>
</g>
<!-- Node78&#45;&gt;Node70 -->
<g id="edge22" class="edge"><title>Node78&#45;&gt;Node70</title>
<path fill="none" stroke="midnightblue" d="M648.633,-342.578C686.87,-371.166 770.096,-433.391 814.028,-466.237"/>
<polygon fill="midnightblue" stroke="midnightblue" points="812.16,-469.211 822.265,-472.396 816.352,-463.605 812.16,-469.211"/>
</g>
<!-- Node79 -->
<g id="node17" class="node"><title>Node79</title>
<g id="a_node17"><a xlink:href="class_global_registration_1_1_point3_d.xhtml#acd6175b6251a3fbf9e3e329ebfc58d06" target="_top" xlink:title="GlobalRegistration\l::Point3D::pos">
<polygon fill="white" stroke="black" points="795,-306.525 795,-336.525 892,-336.525 892,-306.525 795,-306.525"/>
<text text-anchor="start" x="803" y="-324.525" font-family="Helvetica,sans-Serif" font-size="10.00">GlobalRegistration</text>
<text text-anchor="middle" x="843.5" y="-313.525" font-family="Helvetica,sans-Serif" font-size="10.00">::Point3D::pos</text>
</a>
</g>
</g>
<!-- Node78&#45;&gt;Node79 -->
<g id="edge20" class="edge"><title>Node78&#45;&gt;Node79</title>
<path fill="none" stroke="midnightblue" d="M717.087,-325.041C739.908,-324.402 763.881,-323.729 784.684,-323.146"/>
<polygon fill="midnightblue" stroke="midnightblue" points="785.038,-326.638 794.936,-322.859 784.842,-319.64 785.038,-326.638"/>
</g>
<!-- Node80 -->
<g id="node18" class="node"><title>Node80</title>
<g id="a_node18"><a xlink:href="struct_global_registration_1_1_match4_p_c_s_options.xhtml#a1662893334239560ac536fd6bb44f71c" target="_top" xlink:title="GlobalRegistration\l::Match4PCSOptions::\lgetTerminateThreshold">
<polygon fill="white" stroke="black" points="785.5,-246.025 785.5,-287.025 901.5,-287.025 901.5,-246.025 785.5,-246.025"/>
<text text-anchor="start" x="793.5" y="-275.025" font-family="Helvetica,sans-Serif" font-size="10.00">GlobalRegistration</text>
<text text-anchor="start" x="793.5" y="-264.025" font-family="Helvetica,sans-Serif" font-size="10.00">::Match4PCSOptions::</text>
<text text-anchor="middle" x="843.5" y="-253.025" font-family="Helvetica,sans-Serif" font-size="10.00">getTerminateThreshold</text>
</a>
</g>
</g>
<!-- Node78&#45;&gt;Node80 -->
<g id="edge23" class="edge"><title>Node78&#45;&gt;Node80</title>
<path fill="none" stroke="midnightblue" d="M681.124,-312.525C709.6,-304.408 745.075,-294.296 775.505,-285.622"/>
<polygon fill="midnightblue" stroke="midnightblue" points="776.536,-288.968 785.193,-282.86 774.617,-282.236 776.536,-288.968"/>
</g>
<!-- Node82&#45;&gt;Node65 -->
<g id="edge27" class="edge"><title>Node82&#45;&gt;Node65</title>
<path fill="none" stroke="midnightblue" d="M247.951,-435.553C281.257,-458.884 345.51,-503.896 383.429,-530.46"/>
<polygon fill="midnightblue" stroke="midnightblue" points="381.813,-533.601 392.012,-536.472 385.83,-527.868 381.813,-533.601"/>
</g>
<!-- Node82&#45;&gt;Node70 -->
<g id="edge30" class="edge"><title>Node82&#45;&gt;Node70</title>
<path fill="none" stroke="midnightblue" d="M271.284,-435.592C289.597,-441.17 311.115,-446.991 331,-450.525 484.821,-477.863 668.09,-485.107 768.168,-486.96"/>
<polygon fill="midnightblue" stroke="midnightblue" points="768.121,-490.46 778.18,-487.133 768.241,-483.461 768.121,-490.46"/>
</g>
<!-- Node82&#45;&gt;Node81 -->
<g id="edge29" class="edge"><title>Node82&#45;&gt;Node81</title>
<path fill="none" stroke="midnightblue" d="M277.599,-405.496C300.789,-398.675 328.395,-390.556 352.649,-383.422"/>
<polygon fill="midnightblue" stroke="midnightblue" points="353.857,-386.716 362.463,-380.536 351.882,-380 353.857,-386.716"/>
</g>
<!-- Node83 -->
<g id="node21" class="node"><title>Node83</title>
<g id="a_node21"><a xlink:href="struct_global_registration_1_1_match4_p_c_s_options.xhtml#a91b3ac4a47f82c2c2ff8ecd0bbd43c2b" target="_top" xlink:title="GlobalRegistration\l::Match4PCSOptions::\lgetOverlapEstimation">
<polygon fill="white" stroke="black" points="356.5,-400.025 356.5,-441.025 472.5,-441.025 472.5,-400.025 356.5,-400.025"/>
<text text-anchor="start" x="364.5" y="-429.025" font-family="Helvetica,sans-Serif" font-size="10.00">GlobalRegistration</text>
<text text-anchor="start" x="364.5" y="-418.025" font-family="Helvetica,sans-Serif" font-size="10.00">::Match4PCSOptions::</text>
<text text-anchor="middle" x="414.5" y="-407.025" font-family="Helvetica,sans-Serif" font-size="10.00">getOverlapEstimation</text>
</a>
</g>
</g>
<!-- Node82&#45;&gt;Node83 -->
<g id="edge28" class="edge"><title>Node82&#45;&gt;Node83</title>
<path fill="none" stroke="midnightblue" d="M284.132,-420.525C303.778,-420.525 325.914,-420.525 346.248,-420.525"/>
<polygon fill="midnightblue" stroke="midnightblue" points="346.38,-424.025 356.38,-420.525 346.38,-417.025 346.38,-424.025"/>
</g>
</g>
</svg>
