<?xml version="1.0" encoding="UTF-8" standalone="no"?>
<!DOCTYPE svg PUBLIC "-//W3C//DTD SVG 1.1//EN"
 "http://www.w3.org/Graphics/SVG/1.1/DTD/svg11.dtd">
<!-- Generated by graphviz version 2.38.0 (20140413.2041)
 -->
<!-- Title: GlobalRegistration::Match4PCS::FindCongruentQuadrilaterals Pages: 1 -->
<svg width="341pt" height="149pt"
 viewBox="0.00 0.00 341.00 148.50" xmlns="http://www.w3.org/2000/svg" xmlns:xlink="http://www.w3.org/1999/xlink">
<g id="graph0" class="graph" transform="scale(1 1) rotate(0) translate(4 144.5)">
<title>GlobalRegistration::Match4PCS::FindCongruentQuadrilaterals</title>
<polygon fill="white" stroke="none" points="-4,4 -4,-144.5 337,-144.5 337,4 -4,4"/>
<!-- Node6 -->
<g id="node1" class="node"><title>Node6</title>
<polygon fill="#bfbfbf" stroke="black" points="0,-55.5 0,-96.5 146,-96.5 146,-55.5 0,-55.5"/>
<text text-anchor="start" x="8" y="-84.5" font-family="Helvetica,sans-Serif" font-size="10.00">GlobalRegistration</text>
<text text-anchor="start" x="8" y="-73.5" font-family="Helvetica,sans-Serif" font-size="10.00">::Match4PCS::FindCongruent</text>
<text text-anchor="middle" x="73" y="-62.5" font-family="Helvetica,sans-Serif" font-size="10.00">Quadrilaterals</text>
</g>
<!-- Node7 -->
<g id="node2" class="node"><title>Node7</title>
<g id="a_node2"><a xlink:href="class_global_registration_1_1_kd_tree.xhtml#a81bcdc0c30914894311c78396d3781c7" target="_top" xlink:title="Add a new vertex in the KdTree. ">
<polygon fill="white" stroke="black" points="209,-110 209,-140 306,-140 306,-110 209,-110"/>
<text text-anchor="start" x="217" y="-128" font-family="Helvetica,sans-Serif" font-size="10.00">GlobalRegistration</text>
<text text-anchor="middle" x="257.5" y="-117" font-family="Helvetica,sans-Serif" font-size="10.00">::KdTree::add</text>
</a>
</g>
</g>
<!-- Node6&#45;&gt;Node7 -->
<g id="edge1" class="edge"><title>Node6&#45;&gt;Node7</title>
<path fill="none" stroke="midnightblue" d="M146.129,-95.3661C163.786,-100.107 182.442,-105.116 199.292,-109.64"/>
<polygon fill="midnightblue" stroke="midnightblue" points="198.417,-113.029 208.982,-112.242 200.232,-106.268 198.417,-113.029"/>
</g>
<!-- Node8 -->
<g id="node3" class="node"><title>Node8</title>
<g id="a_node3"><a xlink:href="class_global_registration_1_1_kd_tree.xhtml#a6841c0418254813b75dd036a9e4e7c2b" target="_top" xlink:title="Finalize the creation of the KdTree. ">
<polygon fill="white" stroke="black" points="209,-61 209,-91 306,-91 306,-61 209,-61"/>
<text text-anchor="start" x="217" y="-79" font-family="Helvetica,sans-Serif" font-size="10.00">GlobalRegistration</text>
<text text-anchor="middle" x="257.5" y="-68" font-family="Helvetica,sans-Serif" font-size="10.00">::KdTree::finalize</text>
</a>
</g>
</g>
<!-- Node6&#45;&gt;Node8 -->
<g id="edge2" class="edge"><title>Node6&#45;&gt;Node8</title>
<path fill="none" stroke="midnightblue" d="M146.129,-76C163.621,-76 182.094,-76 198.819,-76"/>
<polygon fill="midnightblue" stroke="midnightblue" points="198.982,-79.5001 208.982,-76 198.982,-72.5001 198.982,-79.5001"/>
</g>
<!-- Node9 -->
<g id="node4" class="node"><title>Node9</title>
<g id="a_node4"><a xlink:href="class_global_registration_1_1_kd_tree.xhtml#a6865211d686d440c93e42101d2901a2e" target="_top" xlink:title="Performs distance query and return indices. ">
<polygon fill="white" stroke="black" points="182,-0.5 182,-41.5 333,-41.5 333,-0.5 182,-0.5"/>
<text text-anchor="start" x="190" y="-29.5" font-family="Helvetica,sans-Serif" font-size="10.00">GlobalRegistration</text>
<text text-anchor="start" x="190" y="-18.5" font-family="Helvetica,sans-Serif" font-size="10.00">::KdTree::doQueryDistProcess</text>
<text text-anchor="middle" x="257.5" y="-7.5" font-family="Helvetica,sans-Serif" font-size="10.00">Indices</text>
</a>
</g>
</g>
<!-- Node6&#45;&gt;Node9 -->
<g id="edge3" class="edge"><title>Node6&#45;&gt;Node9</title>
<path fill="none" stroke="midnightblue" d="M142.216,-55.4418C154.119,-51.8546 166.582,-48.0987 178.719,-44.4408"/>
<polygon fill="midnightblue" stroke="midnightblue" points="179.802,-47.77 188.367,-41.5333 177.782,-41.0677 179.802,-47.77"/>
</g>
</g>
</svg>
