<?xml version="1.0" encoding="UTF-8" standalone="no"?>
<!DOCTYPE svg PUBLIC "-//W3C//DTD SVG 1.1//EN"
 "http://www.w3.org/Graphics/SVG/1.1/DTD/svg11.dtd">
<!-- Generated by graphviz version 2.38.0 (20140413.2041)
 -->
<!-- Title: GlobalRegistration::Match4PCSBase::SelectQuadrilateral Pages: 1 -->
<svg width="404pt" height="198pt"
 viewBox="0.00 0.00 404.00 197.50" xmlns="http://www.w3.org/2000/svg" xmlns:xlink="http://www.w3.org/1999/xlink">
<g id="graph0" class="graph" transform="scale(1 1) rotate(0) translate(4 193.5)">
<title>GlobalRegistration::Match4PCSBase::SelectQuadrilateral</title>
<polygon fill="white" stroke="none" points="-4,4 -4,-193.5 400,-193.5 400,4 -4,4"/>
<!-- Node101 -->
<g id="node1" class="node"><title>Node101</title>
<polygon fill="#bfbfbf" stroke="black" points="0,-73.5 0,-103.5 187,-103.5 187,-73.5 0,-73.5"/>
<text text-anchor="start" x="8" y="-91.5" font-family="Helvetica,sans-Serif" font-size="10.00">GlobalRegistration</text>
<text text-anchor="middle" x="93.5" y="-80.5" font-family="Helvetica,sans-Serif" font-size="10.00">::Match4PCSBase::SelectQuadrilateral</text>
</g>
<!-- Node102 -->
<g id="node2" class="node"><title>Node102</title>
<g id="a_node2"><a xlink:href="class_global_registration_1_1_match4_p_c_s_base.xhtml#af9b9a0034ec3ff9646b36ce6250702cd" target="_top" xlink:title="GlobalRegistration\l::Match4PCSBase::SelectRandom\lTriangle">
<polygon fill="white" stroke="black" points="225,-148 225,-189 394,-189 394,-148 225,-148"/>
<text text-anchor="start" x="233" y="-177" font-family="Helvetica,sans-Serif" font-size="10.00">GlobalRegistration</text>
<text text-anchor="start" x="233" y="-166" font-family="Helvetica,sans-Serif" font-size="10.00">::Match4PCSBase::SelectRandom</text>
<text text-anchor="middle" x="309.5" y="-155" font-family="Helvetica,sans-Serif" font-size="10.00">Triangle</text>
</a>
</g>
</g>
<!-- Node101&#45;&gt;Node102 -->
<g id="edge1" class="edge"><title>Node101&#45;&gt;Node102</title>
<path fill="none" stroke="midnightblue" d="M132.326,-103.604C157.855,-113.702 192.353,-127.165 223,-138.5 228.388,-140.493 233.978,-142.527 239.603,-144.551"/>
<polygon fill="midnightblue" stroke="midnightblue" points="238.479,-147.866 249.074,-147.938 240.837,-141.275 238.479,-147.866"/>
</g>
<!-- Node103 -->
<g id="node3" class="node"><title>Node103</title>
<g id="a_node3"><a xlink:href="class_global_registration_1_1_match4_p_c_s_base.xhtml#a423c63bc1aece6379b9b6a8cf9d5aa0f" target="_top" xlink:title="GlobalRegistration\l::Match4PCSBase::TryQuadrilateral">
<polygon fill="white" stroke="black" points="223,-98.5 223,-128.5 396,-128.5 396,-98.5 223,-98.5"/>
<text text-anchor="start" x="231" y="-116.5" font-family="Helvetica,sans-Serif" font-size="10.00">GlobalRegistration</text>
<text text-anchor="middle" x="309.5" y="-105.5" font-family="Helvetica,sans-Serif" font-size="10.00">::Match4PCSBase::TryQuadrilateral</text>
</a>
</g>
</g>
<!-- Node101&#45;&gt;Node103 -->
<g id="edge2" class="edge"><title>Node101&#45;&gt;Node103</title>
<path fill="none" stroke="midnightblue" d="M187.119,-99.32C195.644,-100.316 204.293,-101.326 212.844,-102.325"/>
<polygon fill="midnightblue" stroke="midnightblue" points="212.486,-105.807 222.825,-103.491 213.298,-98.8544 212.486,-105.807"/>
</g>
<!-- Node104 -->
<g id="node4" class="node"><title>Node104</title>
<g id="a_node4"><a xlink:href="class_global_registration_1_1_kd_tree.xhtml#a81bcdc0c30914894311c78396d3781c7" target="_top" xlink:title="Add a new vertex in the KdTree. ">
<polygon fill="white" stroke="black" points="261,-49.5 261,-79.5 358,-79.5 358,-49.5 261,-49.5"/>
<text text-anchor="start" x="269" y="-67.5" font-family="Helvetica,sans-Serif" font-size="10.00">GlobalRegistration</text>
<text text-anchor="middle" x="309.5" y="-56.5" font-family="Helvetica,sans-Serif" font-size="10.00">::KdTree::add</text>
</a>
</g>
</g>
<!-- Node101&#45;&gt;Node104 -->
<g id="edge3" class="edge"><title>Node101&#45;&gt;Node104</title>
<path fill="none" stroke="midnightblue" d="M187.119,-78.1128C208.762,-75.6855 231.205,-73.1686 250.819,-70.969"/>
<polygon fill="midnightblue" stroke="midnightblue" points="251.25,-74.4426 260.798,-69.8498 250.47,-67.4862 251.25,-74.4426"/>
</g>
<!-- Node105 -->
<g id="node5" class="node"><title>Node105</title>
<g id="a_node5"><a xlink:href="class_global_registration_1_1_kd_tree.xhtml#a6841c0418254813b75dd036a9e4e7c2b" target="_top" xlink:title="Finalize the creation of the KdTree. ">
<polygon fill="white" stroke="black" points="261,-0.5 261,-30.5 358,-30.5 358,-0.5 261,-0.5"/>
<text text-anchor="start" x="269" y="-18.5" font-family="Helvetica,sans-Serif" font-size="10.00">GlobalRegistration</text>
<text text-anchor="middle" x="309.5" y="-7.5" font-family="Helvetica,sans-Serif" font-size="10.00">::KdTree::finalize</text>
</a>
</g>
</g>
<!-- Node101&#45;&gt;Node105 -->
<g id="edge4" class="edge"><title>Node101&#45;&gt;Node105</title>
<path fill="none" stroke="midnightblue" d="M132.475,-73.4827C157.921,-63.6265 192.266,-50.7183 223,-40.5 232.04,-37.4943 241.681,-34.4876 251.109,-31.6543"/>
<polygon fill="midnightblue" stroke="midnightblue" points="252.232,-34.972 260.823,-28.7719 250.24,-28.2612 252.232,-34.972"/>
</g>
</g>
</svg>
