<?xml version="1.0" encoding="UTF-8" standalone="no"?>
<!DOCTYPE svg PUBLIC "-//W3C//DTD SVG 1.1//EN"
 "http://www.w3.org/Graphics/SVG/1.1/DTD/svg11.dtd">
<!-- Generated by graphviz version 2.38.0 (20140413.2041)
 -->
<!-- Title: GlobalRegistration::MatchSuper4PCS::FindCongruentQuadrilaterals Pages: 1 -->
<svg width="333pt" height="170pt"
 viewBox="0.00 0.00 333.00 170.00" xmlns="http://www.w3.org/2000/svg" xmlns:xlink="http://www.w3.org/1999/xlink">
<g id="graph0" class="graph" transform="scale(1 1) rotate(0) translate(4 166)">
<title>GlobalRegistration::MatchSuper4PCS::FindCongruentQuadrilaterals</title>
<polygon fill="white" stroke="none" points="-4,4 -4,-166 329,-166 329,4 -4,4"/>
<!-- Node4 -->
<g id="node1" class="node"><title>Node4</title>
<polygon fill="#bfbfbf" stroke="black" points="0,-60.5 0,-101.5 171,-101.5 171,-60.5 0,-60.5"/>
<text text-anchor="start" x="8" y="-89.5" font-family="Helvetica,sans-Serif" font-size="10.00">GlobalRegistration</text>
<text text-anchor="start" x="8" y="-78.5" font-family="Helvetica,sans-Serif" font-size="10.00">::MatchSuper4PCS::FindCongruent</text>
<text text-anchor="middle" x="85.5" y="-67.5" font-family="Helvetica,sans-Serif" font-size="10.00">Quadrilaterals</text>
</g>
<!-- Node5 -->
<g id="node2" class="node"><title>Node5</title>
<g id="a_node2"><a xlink:href="struct_global_registration_1_1_pair_creation_functor.xhtml#af672b4e105893166dace675ef3647245" target="_top" xlink:title="GlobalRegistration\l::PairCreationFunctor\l::getNormalizedEpsilon">
<polygon fill="white" stroke="black" points="207,-120.5 207,-161.5 325,-161.5 325,-120.5 207,-120.5"/>
<text text-anchor="start" x="215" y="-149.5" font-family="Helvetica,sans-Serif" font-size="10.00">GlobalRegistration</text>
<text text-anchor="start" x="215" y="-138.5" font-family="Helvetica,sans-Serif" font-size="10.00">::PairCreationFunctor</text>
<text text-anchor="middle" x="266" y="-127.5" font-family="Helvetica,sans-Serif" font-size="10.00">::getNormalizedEpsilon</text>
</a>
</g>
</g>
<!-- Node4&#45;&gt;Node5 -->
<g id="edge1" class="edge"><title>Node4&#45;&gt;Node5</title>
<path fill="none" stroke="midnightblue" d="M147.93,-101.649C163.714,-106.954 180.788,-112.693 196.888,-118.105"/>
<polygon fill="midnightblue" stroke="midnightblue" points="196.173,-121.557 206.767,-121.426 198.403,-114.922 196.173,-121.557"/>
</g>
<!-- Node6 -->
<g id="node3" class="node"><title>Node6</title>
<g id="a_node3"><a xlink:href="struct_global_registration_1_1_indexed_normal_set.xhtml#a33214ce57b59b9a16c5ac6bca7145c54" target="_top" xlink:title="Add a new couple pos/normal, and its associated id. ">
<polygon fill="white" stroke="black" points="211,-60.5 211,-101.5 321,-101.5 321,-60.5 211,-60.5"/>
<text text-anchor="start" x="219" y="-89.5" font-family="Helvetica,sans-Serif" font-size="10.00">GlobalRegistration</text>
<text text-anchor="start" x="219" y="-78.5" font-family="Helvetica,sans-Serif" font-size="10.00">::IndexedNormalSet::</text>
<text text-anchor="middle" x="266" y="-67.5" font-family="Helvetica,sans-Serif" font-size="10.00">addElement</text>
</a>
</g>
</g>
<!-- Node4&#45;&gt;Node6 -->
<g id="edge2" class="edge"><title>Node4&#45;&gt;Node6</title>
<path fill="none" stroke="midnightblue" d="M171.045,-81C180.972,-81 190.976,-81 200.565,-81"/>
<polygon fill="midnightblue" stroke="midnightblue" points="200.783,-84.5001 210.783,-81 200.783,-77.5001 200.783,-84.5001"/>
</g>
<!-- Node7 -->
<g id="node4" class="node"><title>Node7</title>
<g id="a_node4"><a xlink:href="struct_global_registration_1_1_indexed_normal_set.xhtml#a63eba7afc1b198dccc938aeabe0b398e" target="_top" xlink:title="Get closest points in euclidean space. ">
<polygon fill="white" stroke="black" points="211,-0.5 211,-41.5 321,-41.5 321,-0.5 211,-0.5"/>
<text text-anchor="start" x="219" y="-29.5" font-family="Helvetica,sans-Serif" font-size="10.00">GlobalRegistration</text>
<text text-anchor="start" x="219" y="-18.5" font-family="Helvetica,sans-Serif" font-size="10.00">::IndexedNormalSet::</text>
<text text-anchor="middle" x="266" y="-7.5" font-family="Helvetica,sans-Serif" font-size="10.00">getNeighbors</text>
</a>
</g>
</g>
<!-- Node4&#45;&gt;Node7 -->
<g id="edge3" class="edge"><title>Node4&#45;&gt;Node7</title>
<path fill="none" stroke="midnightblue" d="M147.93,-60.3514C165.203,-54.5453 184.021,-48.2199 201.417,-42.3725"/>
<polygon fill="midnightblue" stroke="midnightblue" points="202.552,-45.6833 210.916,-39.1795 200.322,-39.0481 202.552,-45.6833"/>
</g>
</g>
</svg>
