<?xml version="1.0" encoding="UTF-8" standalone="no"?>
<!DOCTYPE svg PUBLIC "-//W3C//DTD SVG 1.1//EN"
 "http://www.w3.org/Graphics/SVG/1.1/DTD/svg11.dtd">
<!-- Generated by graphviz version 2.38.0 (20140413.2041)
 -->
<!-- Title: GlobalRegistration::Accelerators::PairExtraction::NdNode&lt; Point, _dim, Scalar, _PointContainer, _IdContainer &gt; Pages: 1 -->
<svg width="326pt" height="336pt"
 viewBox="0.00 0.00 326.00 336.00" xmlns="http://www.w3.org/2000/svg" xmlns:xlink="http://www.w3.org/1999/xlink">
<g id="graph0" class="graph" transform="scale(1 1) rotate(0) translate(4 332)">
<title>GlobalRegistration::Accelerators::PairExtraction::NdNode&lt; Point, _dim, Scalar, _PointContainer, _IdContainer &gt;</title>
<polygon fill="white" stroke="none" points="-4,4 -4,-332 322,-332 322,4 -4,4"/>
<!-- Node1 -->
<g id="node1" class="node"><title>Node1</title>
<polygon fill="#bfbfbf" stroke="black" points="82.5,-0.5 82.5,-211.5 242.5,-211.5 242.5,-0.5 82.5,-0.5"/>
<text text-anchor="start" x="90.5" y="-199.5" font-family="Helvetica,sans-Serif" font-size="10.00">GlobalRegistration</text>
<text text-anchor="start" x="90.5" y="-188.5" font-family="Helvetica,sans-Serif" font-size="10.00">::Accelerators::PairExtraction</text>
<text text-anchor="start" x="90.5" y="-177.5" font-family="Helvetica,sans-Serif" font-size="10.00">::NdNode&lt; Point, _dim, Scalar,</text>
<text text-anchor="middle" x="162.5" y="-166.5" font-family="Helvetica,sans-Serif" font-size="10.00"> _PointContainer, _IdContainer &gt;</text>
<polyline fill="none" stroke="black" points="82.5,-159.5 242.5,-159.5 "/>
<text text-anchor="middle" x="162.5" y="-147.5" font-family="Helvetica,sans-Serif" font-size="10.00"> </text>
<polyline fill="none" stroke="black" points="82.5,-140.5 242.5,-140.5 "/>
<text text-anchor="start" x="90.5" y="-128.5" font-family="Helvetica,sans-Serif" font-size="10.00">+ NdNode()</text>
<text text-anchor="start" x="90.5" y="-117.5" font-family="Helvetica,sans-Serif" font-size="10.00">+ NdNode()</text>
<text text-anchor="start" x="90.5" y="-106.5" font-family="Helvetica,sans-Serif" font-size="10.00">+ operator=()</text>
<text text-anchor="start" x="90.5" y="-95.5" font-family="Helvetica,sans-Serif" font-size="10.00">+ ~NdNode()</text>
<text text-anchor="start" x="90.5" y="-84.5" font-family="Helvetica,sans-Serif" font-size="10.00">+ rangeLength()</text>
<text text-anchor="start" x="90.5" y="-73.5" font-family="Helvetica,sans-Serif" font-size="10.00">+ rangeBegin()</text>
<text text-anchor="start" x="90.5" y="-62.5" font-family="Helvetica,sans-Serif" font-size="10.00">+ rangeEnd()</text>
<text text-anchor="start" x="90.5" y="-51.5" font-family="Helvetica,sans-Serif" font-size="10.00">+ pointInRange()</text>
<text text-anchor="start" x="90.5" y="-40.5" font-family="Helvetica,sans-Serif" font-size="10.00">+ idInRange()</text>
<text text-anchor="start" x="90.5" y="-29.5" font-family="Helvetica,sans-Serif" font-size="10.00">+ center()</text>
<text text-anchor="start" x="90.5" y="-18.5" font-family="Helvetica,sans-Serif" font-size="10.00">+ split()</text>
<text text-anchor="start" x="90.5" y="-7.5" font-family="Helvetica,sans-Serif" font-size="10.00">+ buildUnitRootNode()</text>
</g>
<!-- Node2 -->
<g id="node2" class="node"><title>Node2</title>
<polygon fill="white" stroke="#bfbfbf" points="0,-270.5 0,-327.5 39,-327.5 39,-270.5 0,-270.5"/>
<text text-anchor="middle" x="19.5" y="-315.5" font-family="Helvetica,sans-Serif" font-size="10.00">Point</text>
<polyline fill="none" stroke="#bfbfbf" points="0,-308.5 39,-308.5 "/>
<text text-anchor="middle" x="19.5" y="-296.5" font-family="Helvetica,sans-Serif" font-size="10.00"> </text>
<polyline fill="none" stroke="#bfbfbf" points="0,-289.5 39,-289.5 "/>
<text text-anchor="middle" x="19.5" y="-277.5" font-family="Helvetica,sans-Serif" font-size="10.00"> </text>
</g>
<!-- Node2&#45;&gt;Node1 -->
<g id="edge1" class="edge"><title>Node2&#45;&gt;Node1</title>
<path fill="none" stroke="#404040" d="M39.0837,-271.843C49.3573,-258.121 62.7335,-240.255 76.8776,-221.363"/>
<polygon fill="none" stroke="#404040" points="76.9091,-221.321 77.303,-214.12 84.101,-211.715 83.7071,-218.915 76.9091,-221.321"/>
<text text-anchor="middle" x="91" y="-238.5" font-family="Helvetica,sans-Serif" font-size="10.00"> #_center</text>
</g>
<!-- Node3 -->
<g id="node3" class="node"><title>Node3</title>
<polygon fill="white" stroke="#bfbfbf" points="57.5,-270.5 57.5,-327.5 175.5,-327.5 175.5,-270.5 57.5,-270.5"/>
<text text-anchor="middle" x="116.5" y="-315.5" font-family="Helvetica,sans-Serif" font-size="10.00">const PointContainer &amp;</text>
<polyline fill="none" stroke="#bfbfbf" points="57.5,-308.5 175.5,-308.5 "/>
<text text-anchor="middle" x="116.5" y="-296.5" font-family="Helvetica,sans-Serif" font-size="10.00"> </text>
<polyline fill="none" stroke="#bfbfbf" points="57.5,-289.5 175.5,-289.5 "/>
<text text-anchor="middle" x="116.5" y="-277.5" font-family="Helvetica,sans-Serif" font-size="10.00"> </text>
</g>
<!-- Node3&#45;&gt;Node1 -->
<g id="edge2" class="edge"><title>Node3&#45;&gt;Node1</title>
<path fill="none" stroke="#404040" d="M123.189,-270.227C126.286,-257.365 130.197,-241.127 134.344,-223.909"/>
<polygon fill="none" stroke="#404040" points="134.435,-223.529 131.951,-216.759 137.245,-211.863 139.729,-218.633 134.435,-223.529"/>
<text text-anchor="middle" x="153.5" y="-238.5" font-family="Helvetica,sans-Serif" font-size="10.00"> #_points</text>
</g>
<!-- Node4 -->
<g id="node4" class="node"><title>Node4</title>
<polygon fill="white" stroke="#bfbfbf" points="194,-270.5 194,-327.5 223,-327.5 223,-270.5 194,-270.5"/>
<text text-anchor="middle" x="208.5" y="-315.5" font-family="Helvetica,sans-Serif" font-size="10.00">int</text>
<polyline fill="none" stroke="#bfbfbf" points="194,-308.5 223,-308.5 "/>
<text text-anchor="middle" x="208.5" y="-296.5" font-family="Helvetica,sans-Serif" font-size="10.00"> </text>
<polyline fill="none" stroke="#bfbfbf" points="194,-289.5 223,-289.5 "/>
<text text-anchor="middle" x="208.5" y="-277.5" font-family="Helvetica,sans-Serif" font-size="10.00"> </text>
</g>
<!-- Node4&#45;&gt;Node1 -->
<g id="edge3" class="edge"><title>Node4&#45;&gt;Node1</title>
<path fill="none" stroke="#404040" d="M201.811,-270.227C198.714,-257.365 194.803,-241.127 190.656,-223.909"/>
<polygon fill="none" stroke="#404040" points="190.565,-223.529 185.271,-218.633 187.755,-211.863 193.049,-216.759 190.565,-223.529"/>
<text text-anchor="middle" x="214.5" y="-244" font-family="Helvetica,sans-Serif" font-size="10.00"> #_end</text>
<text text-anchor="middle" x="214.5" y="-233" font-family="Helvetica,sans-Serif" font-size="10.00">#_begin</text>
</g>
<!-- Node5 -->
<g id="node5" class="node"><title>Node5</title>
<polygon fill="white" stroke="#bfbfbf" points="241,-270.5 241,-327.5 318,-327.5 318,-270.5 241,-270.5"/>
<text text-anchor="middle" x="279.5" y="-315.5" font-family="Helvetica,sans-Serif" font-size="10.00">IdContainer &amp;</text>
<polyline fill="none" stroke="#bfbfbf" points="241,-308.5 318,-308.5 "/>
<text text-anchor="middle" x="279.5" y="-296.5" font-family="Helvetica,sans-Serif" font-size="10.00"> </text>
<polyline fill="none" stroke="#bfbfbf" points="241,-289.5 318,-289.5 "/>
<text text-anchor="middle" x="279.5" y="-277.5" font-family="Helvetica,sans-Serif" font-size="10.00"> </text>
</g>
<!-- Node5&#45;&gt;Node1 -->
<g id="edge4" class="edge"><title>Node5&#45;&gt;Node1</title>
<path fill="none" stroke="#404040" d="M262.487,-270.227C254.381,-256.994 244.086,-240.187 233.2,-222.417"/>
<polygon fill="none" stroke="#404040" points="233.004,-222.095 226.458,-219.069 226.735,-211.863 233.28,-214.89 233.004,-222.095"/>
<text text-anchor="middle" x="265" y="-238.5" font-family="Helvetica,sans-Serif" font-size="10.00"> #_ids</text>
</g>
</g>
</svg>
