<?xml version="1.0" encoding="UTF-8" standalone="no"?>
<!DOCTYPE svg PUBLIC "-//W3C//DTD SVG 1.1//EN"
 "http://www.w3.org/Graphics/SVG/1.1/DTD/svg11.dtd">
<!-- Generated by graphviz version 2.38.0 (20140413.2041)
 -->
<!-- Title: GlobalRegistration::Utils::Logger::LOG Pages: 1 -->
<svg width="251pt" height="110pt"
 viewBox="0.00 0.00 251.00 110.00" xmlns="http://www.w3.org/2000/svg" xmlns:xlink="http://www.w3.org/1999/xlink">
<g id="graph0" class="graph" transform="scale(1 1) rotate(0) translate(4 106)">
<title>GlobalRegistration::Utils::Logger::LOG</title>
<polygon fill="white" stroke="none" points="-4,4 -4,-106 247,-106 247,4 -4,4"/>
<!-- Node2 -->
<g id="node1" class="node"><title>Node2</title>
<polygon fill="#bfbfbf" stroke="black" points="0,-36 0,-66 104,-66 104,-36 0,-36"/>
<text text-anchor="start" x="8" y="-54" font-family="Helvetica,sans-Serif" font-size="10.00">GlobalRegistration</text>
<text text-anchor="middle" x="52" y="-43" font-family="Helvetica,sans-Serif" font-size="10.00">::Utils::Logger::LOG</text>
</g>
<!-- Node3 -->
<g id="node2" class="node"><title>Node3</title>
<g id="a_node2"><a xlink:href="class_global_registration_1_1_utils_1_1_logger.xhtml#ac0bf997cba3df967c8a9b8e81dafffa5" target="_top" xlink:title="GlobalRegistration\l::Utils::Logger::print\l_err_impl">
<polygon fill="white" stroke="black" points="140,-60.5 140,-101.5 243,-101.5 243,-60.5 140,-60.5"/>
<text text-anchor="start" x="148" y="-89.5" font-family="Helvetica,sans-Serif" font-size="10.00">GlobalRegistration</text>
<text text-anchor="start" x="148" y="-78.5" font-family="Helvetica,sans-Serif" font-size="10.00">::Utils::Logger::print</text>
<text text-anchor="middle" x="191.5" y="-67.5" font-family="Helvetica,sans-Serif" font-size="10.00">_err_impl</text>
</a>
</g>
</g>
<!-- Node2&#45;&gt;Node3 -->
<g id="edge1" class="edge"><title>Node2&#45;&gt;Node3</title>
<path fill="none" stroke="midnightblue" d="M104.2,-62.1709C112.542,-63.9909 121.253,-65.8915 129.796,-67.7554"/>
<polygon fill="midnightblue" stroke="midnightblue" points="129.199,-71.2075 139.715,-69.9197 130.691,-64.3684 129.199,-71.2075"/>
</g>
<!-- Node4 -->
<g id="node3" class="node"><title>Node4</title>
<g id="a_node3"><a xlink:href="class_global_registration_1_1_utils_1_1_logger.xhtml#a3940c940f4b8872274c10e9369857a98" target="_top" xlink:title="GlobalRegistration\l::Utils::Logger::print\l_msg_impl">
<polygon fill="white" stroke="black" points="140,-0.5 140,-41.5 243,-41.5 243,-0.5 140,-0.5"/>
<text text-anchor="start" x="148" y="-29.5" font-family="Helvetica,sans-Serif" font-size="10.00">GlobalRegistration</text>
<text text-anchor="start" x="148" y="-18.5" font-family="Helvetica,sans-Serif" font-size="10.00">::Utils::Logger::print</text>
<text text-anchor="middle" x="191.5" y="-7.5" font-family="Helvetica,sans-Serif" font-size="10.00">_msg_impl</text>
</a>
</g>
</g>
<!-- Node2&#45;&gt;Node4 -->
<g id="edge2" class="edge"><title>Node2&#45;&gt;Node4</title>
<path fill="none" stroke="midnightblue" d="M104.2,-39.8291C112.542,-38.0091 121.253,-36.1085 129.796,-34.2446"/>
<polygon fill="midnightblue" stroke="midnightblue" points="130.691,-37.6316 139.715,-32.0803 129.199,-30.7925 130.691,-37.6316"/>
</g>
</g>
</svg>
