<?xml version="1.0" encoding="UTF-8" standalone="no"?>
<!DOCTYPE svg PUBLIC "-//W3C//DTD SVG 1.1//EN"
 "http://www.w3.org/Graphics/SVG/1.1/DTD/svg11.dtd">
<!-- Generated by graphviz version 2.38.0 (20140413.2041)
 -->
<!-- Title: Graphical Class Hierarchy Pages: 1 -->
<svg width="240pt" height="88pt"
 viewBox="0.00 0.00 240.00 88.00" xmlns="http://www.w3.org/2000/svg" xmlns:xlink="http://www.w3.org/1999/xlink">
<g id="graph0" class="graph" transform="scale(1 1) rotate(0) translate(4 84)">
<title>Graphical Class Hierarchy</title>
<polygon fill="white" stroke="none" points="-4,4 -4,-84 236,-84 236,4 -4,4"/>
<!-- Node27 -->
<g id="node1" class="node"><title>Node27</title>
<polygon fill="white" stroke="#bfbfbf" points="0,-30 0,-49 66,-49 66,-30 0,-30"/>
<text text-anchor="middle" x="33" y="-37" font-family="Helvetica,sans-Serif" font-size="10.00">AlignedBox</text>
</g>
<!-- Node0 -->
<g id="node2" class="node"><title>Node0</title>
<g id="a_node2"><a xlink:href="a04637.html" target="_top" xlink:title="GlobalRegistration\l::AABB\&lt; Scalar \&gt;">
<polygon fill="white" stroke="black" points="118.5,-49.5 118.5,-79.5 215.5,-79.5 215.5,-49.5 118.5,-49.5"/>
<text text-anchor="start" x="126.5" y="-67.5" font-family="Helvetica,sans-Serif" font-size="10.00">GlobalRegistration</text>
<text text-anchor="middle" x="167" y="-56.5" font-family="Helvetica,sans-Serif" font-size="10.00">::AABB&lt; Scalar &gt;</text>
</a>
</g>
</g>
<!-- Node27&#45;&gt;Node0 -->
<g id="edge1" class="edge"><title>Node27&#45;&gt;Node0</title>
<path fill="none" stroke="midnightblue" d="M76.209,-47.4941C89.6225,-50.0346 104.55,-52.8617 118.321,-55.4699"/>
<polygon fill="midnightblue" stroke="midnightblue" points="76.7675,-44.0378 66.2908,-45.6157 75.4648,-50.9155 76.7675,-44.0378"/>
</g>
<!-- Node29 -->
<g id="node3" class="node"><title>Node29</title>
<g id="a_node3"><a xlink:href="a04637.html" target="_top" xlink:title="GlobalRegistration\l::AABB\&lt; _Scalar, _Dim \&gt;">
<polygon fill="white" stroke="black" points="102,-0.5 102,-30.5 232,-30.5 232,-0.5 102,-0.5"/>
<text text-anchor="start" x="110" y="-18.5" font-family="Helvetica,sans-Serif" font-size="10.00">GlobalRegistration</text>
<text text-anchor="middle" x="167" y="-7.5" font-family="Helvetica,sans-Serif" font-size="10.00">::AABB&lt; _Scalar, _Dim &gt;</text>
</a>
</g>
</g>
<!-- Node27&#45;&gt;Node29 -->
<g id="edge2" class="edge"><title>Node27&#45;&gt;Node29</title>
<path fill="none" stroke="midnightblue" d="M76.2629,-31.8158C84.4058,-30.3353 93.1049,-28.7537 101.763,-27.1794"/>
<polygon fill="midnightblue" stroke="midnightblue" points="75.5034,-28.3965 66.2908,-33.6289 76.7557,-35.2835 75.5034,-28.3965"/>
</g>
</g>
</svg>
