<?xml version="1.0" encoding="UTF-8" standalone="no"?>
<!DOCTYPE svg PUBLIC "-//W3C//DTD SVG 1.1//EN"
 "http://www.w3.org/Graphics/SVG/1.1/DTD/svg11.dtd">
<!-- Generated by graphviz version 2.38.0 (20140413.2041)
 -->
<!-- Title: GlobalRegistration::PairCreationFunctor&lt; _Scalar &gt; Pages: 1 -->
<!--zoomable 529 -->
<svg id="main" version="1.1" xmlns="http://www.w3.org/2000/svg" xmlns:xlink="http://www.w3.org/1999/xlink" xml:space="preserve" onload="init(evt)">
<style type="text/css"><![CDATA[
.edge:hover path { stroke: red; }
.edge:hover polygon { stroke: red; fill: red; }
]]></style>
<script type="text/javascript"><![CDATA[
var edges = document.getElementsByTagName('g');
if (edges && edges.length) {
  for (var i=0;i<edges.length;i++) {
    if (edges[i].id.substr(0,4)=='edge') {
      edges[i].setAttribute('class','edge');
    }
  }
}
]]></script>
        <defs>
                <circle id="rim" cx="0" cy="0" r="7"/>
                <circle id="rim2" cx="0" cy="0" r="3.5"/>
                <g id="zoomPlus">
                        <use xlink:href="#rim" fill="#404040">
                                <set attributeName="fill" to="#808080" begin="zoomplus.mouseover" end="zoomplus.mouseout"/>
                        </use>
                        <path d="M-4,0h8M0,-4v8" fill="none" stroke="white" stroke-width="1.5" pointer-events="none"/>
                </g>
                <g id="zoomMin">
                        <use xlink:href="#rim" fill="#404040">
                                <set attributeName="fill" to="#808080" begin="zoomminus.mouseover" end="zoomminus.mouseout"/>
                        </use>
                        <path d="M-4,0h8" fill="none" stroke="white" stroke-width="1.5" pointer-events="none"/>
                </g>
                <g id="dirArrow">
                        <path fill="none" stroke="white" stroke-width="1.5" d="M0,-3.0v7 M-2.5,-0.5L0,-3.0L2.5,-0.5"/>
                </g>
               <g id="resetDef">
                       <use xlink:href="#rim2" fill="#404040">
                               <set attributeName="fill" to="#808080" begin="reset.mouseover" end="reset.mouseout"/>
                       </use>
               </g>
        </defs>

<script type="text/javascript">
var viewWidth = 1155;
var viewHeight = 529;
var sectionId = 'dynsection-1';
</script>
<script xlink:href="svgpan.js"/>
<svg id="graph" class="graph">
<g id="viewport">
<title>GlobalRegistration::PairCreationFunctor&lt; _Scalar &gt;</title>
<polygon fill="white" stroke="none" points="-4,4 -4,-525 1151,-525 1151,4 -4,4"/>
<!-- Node2 -->
<g id="node1" class="node"><title>Node2</title>
<polygon fill="#bfbfbf" stroke="black" points="339,-0.5 339,-189.5 467,-189.5 467,-0.5 339,-0.5"/>
<text text-anchor="start" x="347" y="-177.5" font-family="Helvetica,sans-Serif" font-size="10.00">GlobalRegistration</text>
<text text-anchor="start" x="347" y="-166.5" font-family="Helvetica,sans-Serif" font-size="10.00">::PairCreationFunctor</text>
<text text-anchor="middle" x="403" y="-155.5" font-family="Helvetica,sans-Serif" font-size="10.00">&lt; _Scalar &gt;</text>
<polyline fill="none" stroke="black" points="339,-148.5 467,-148.5 "/>
<text text-anchor="middle" x="403" y="-136.5" font-family="Helvetica,sans-Serif" font-size="10.00"> </text>
<polyline fill="none" stroke="black" points="339,-129.5 467,-129.5 "/>
<text text-anchor="start" x="347" y="-117.5" font-family="Helvetica,sans-Serif" font-size="10.00">+ PairCreationFunctor()</text>
<text text-anchor="start" x="347" y="-106.5" font-family="Helvetica,sans-Serif" font-size="10.00">+ unitToWorld()</text>
<text text-anchor="start" x="347" y="-95.5" font-family="Helvetica,sans-Serif" font-size="10.00">+ unitToWorld()</text>
<text text-anchor="start" x="347" y="-84.5" font-family="Helvetica,sans-Serif" font-size="10.00">+ getPointInWorldCoord()</text>
<text text-anchor="start" x="347" y="-73.5" font-family="Helvetica,sans-Serif" font-size="10.00">+ synch3DContent()</text>
<text text-anchor="start" x="347" y="-62.5" font-family="Helvetica,sans-Serif" font-size="10.00">+ setRadius()</text>
<text text-anchor="start" x="347" y="-51.5" font-family="Helvetica,sans-Serif" font-size="10.00">+ getNormalizedEpsilon()</text>
<text text-anchor="start" x="347" y="-40.5" font-family="Helvetica,sans-Serif" font-size="10.00">+ setBase()</text>
<text text-anchor="start" x="347" y="-29.5" font-family="Helvetica,sans-Serif" font-size="10.00">+ beginPrimitiveCollect()</text>
<text text-anchor="start" x="347" y="-18.5" font-family="Helvetica,sans-Serif" font-size="10.00">+ endPrimitiveCollect()</text>
<text text-anchor="start" x="347" y="-7.5" font-family="Helvetica,sans-Serif" font-size="10.00">+ process()</text>
</g>
<!-- Node3 -->
<g id="node2" class="node"><title>Node3</title>
<polygon fill="white" stroke="#bfbfbf" points="0,-281.5 0,-338.5 74,-338.5 74,-281.5 0,-281.5"/>
<text text-anchor="middle" x="37" y="-326.5" font-family="Helvetica,sans-Serif" font-size="10.00">PairsVector *</text>
<polyline fill="none" stroke="#bfbfbf" points="0,-319.5 74,-319.5 "/>
<text text-anchor="middle" x="37" y="-307.5" font-family="Helvetica,sans-Serif" font-size="10.00"> </text>
<polyline fill="none" stroke="#bfbfbf" points="0,-300.5 74,-300.5 "/>
<text text-anchor="middle" x="37" y="-288.5" font-family="Helvetica,sans-Serif" font-size="10.00"> </text>
</g>
<!-- Node3&#45;&gt;Node2 -->
<g id="edge1" class="edge"><title>Node3&#45;&gt;Node2</title>
<path fill="none" stroke="#404040" d="M44.328,-281.411C51.6561,-258.808 65.0494,-227.481 87,-208 154.761,-147.862 256.945,-119.449 326.64,-106.415"/>
<polygon fill="none" stroke="#404040" points="327.017,-106.347 332.217,-101.351 338.828,-104.23 333.628,-109.226 327.017,-106.347"/>
<text text-anchor="middle" x="102.5" y="-222" font-family="Helvetica,sans-Serif" font-size="10.00"> +pairs</text>
</g>
<!-- Node4 -->
<g id="node3" class="node"><title>Node4</title>
<polygon fill="white" stroke="#bfbfbf" points="92.5,-281.5 92.5,-338.5 137.5,-338.5 137.5,-281.5 92.5,-281.5"/>
<text text-anchor="middle" x="115" y="-326.5" font-family="Helvetica,sans-Serif" font-size="10.00">double</text>
<polyline fill="none" stroke="#bfbfbf" points="92.5,-319.5 137.5,-319.5 "/>
<text text-anchor="middle" x="115" y="-307.5" font-family="Helvetica,sans-Serif" font-size="10.00"> </text>
<polyline fill="none" stroke="#bfbfbf" points="92.5,-300.5 137.5,-300.5 "/>
<text text-anchor="middle" x="115" y="-288.5" font-family="Helvetica,sans-Serif" font-size="10.00"> </text>
</g>
<!-- Node4&#45;&gt;Node2 -->
<g id="edge2" class="edge"><title>Node4&#45;&gt;Node2</title>
<path fill="none" stroke="#404040" d="M114.7,-281.133C115.89,-258.971 120.906,-228.401 138,-208 185.492,-151.319 266.683,-122.739 326.712,-108.714"/>
<polygon fill="none" stroke="#404040" points="327.087,-108.63 332.073,-103.42 338.8,-106.018 333.814,-111.228 327.087,-108.63"/>
<text text-anchor="middle" x="188" y="-233" font-family="Helvetica,sans-Serif" font-size="10.00"> +pair_distance</text>
<text text-anchor="middle" x="188" y="-222" font-family="Helvetica,sans-Serif" font-size="10.00">+pair_distance_epsilon</text>
<text text-anchor="middle" x="188" y="-211" font-family="Helvetica,sans-Serif" font-size="10.00">+pair_normals_angle</text>
</g>
<!-- Node5 -->
<g id="node4" class="node"><title>Node5</title>
<polygon fill="white" stroke="#bfbfbf" points="174,-281.5 174,-338.5 224,-338.5 224,-281.5 174,-281.5"/>
<text text-anchor="middle" x="199" y="-326.5" font-family="Helvetica,sans-Serif" font-size="10.00">_Scalar</text>
<polyline fill="none" stroke="#bfbfbf" points="174,-319.5 224,-319.5 "/>
<text text-anchor="middle" x="199" y="-307.5" font-family="Helvetica,sans-Serif" font-size="10.00"> </text>
<polyline fill="none" stroke="#bfbfbf" points="174,-300.5 224,-300.5 "/>
<text text-anchor="middle" x="199" y="-288.5" font-family="Helvetica,sans-Serif" font-size="10.00"> </text>
</g>
<!-- Node5&#45;&gt;Node2 -->
<g id="edge3" class="edge"><title>Node5&#45;&gt;Node2</title>
<path fill="none" stroke="#404040" d="M214.318,-281.26C226.751,-260.02 245.526,-230.622 266,-208 284.855,-187.166 307.725,-166.923 329.335,-149.507"/>
<polygon fill="none" stroke="#404040" points="329.431,-149.431 331.642,-142.567 338.828,-141.968 336.617,-148.832 329.431,-149.431"/>
<text text-anchor="middle" x="304" y="-222" font-family="Helvetica,sans-Serif" font-size="10.00"> +norm_threshold</text>
</g>
<!-- Node6 -->
<g id="node5" class="node"><title>Node6</title>
<polygon fill="white" stroke="#bfbfbf" points="242,-276 242,-344 394,-344 394,-276 242,-276"/>
<text text-anchor="start" x="250" y="-332" font-family="Helvetica,sans-Serif" font-size="10.00">vector&lt; typename PairCreation</text>
<text text-anchor="middle" x="318" y="-321" font-family="Helvetica,sans-Serif" font-size="10.00">Functor::Point &gt;</text>
<polyline fill="none" stroke="#bfbfbf" points="242,-314 394,-314 "/>
<text text-anchor="middle" x="318" y="-302" font-family="Helvetica,sans-Serif" font-size="10.00"> </text>
<polyline fill="none" stroke="#bfbfbf" points="242,-295 394,-295 "/>
<text text-anchor="middle" x="318" y="-283" font-family="Helvetica,sans-Serif" font-size="10.00"> </text>
</g>
<!-- Node6&#45;&gt;Node2 -->
<g id="edge4" class="edge"><title>Node6&#45;&gt;Node2</title>
<path fill="none" stroke="#404040" d="M331.281,-275.719C339.407,-255.357 350.294,-228.075 361.127,-200.929"/>
<polygon fill="none" stroke="#404040" points="361.146,-200.88 359.655,-193.825 365.594,-189.735 367.085,-196.79 361.146,-200.88"/>
<text text-anchor="middle" x="376" y="-222" font-family="Helvetica,sans-Serif" font-size="10.00"> +points</text>
</g>
<!-- Node7 -->
<g id="node6" class="node"><title>Node7</title>
<polygon fill="white" stroke="#bfbfbf" points="412,-281.5 412,-338.5 526,-338.5 526,-281.5 412,-281.5"/>
<text text-anchor="middle" x="469" y="-326.5" font-family="Helvetica,sans-Serif" font-size="10.00">vector&lt; unsigned int &gt;</text>
<polyline fill="none" stroke="#bfbfbf" points="412,-319.5 526,-319.5 "/>
<text text-anchor="middle" x="469" y="-307.5" font-family="Helvetica,sans-Serif" font-size="10.00"> </text>
<polyline fill="none" stroke="#bfbfbf" points="412,-300.5 526,-300.5 "/>
<text text-anchor="middle" x="469" y="-288.5" font-family="Helvetica,sans-Serif" font-size="10.00"> </text>
</g>
<!-- Node7&#45;&gt;Node2 -->
<g id="edge5" class="edge"><title>Node7&#45;&gt;Node2</title>
<path fill="none" stroke="#404040" d="M460.372,-281.154C453.956,-260.447 444.762,-230.778 435.609,-201.238"/>
<polygon fill="none" stroke="#404040" points="435.524,-200.965 429.928,-196.417 431.973,-189.502 437.569,-194.05 435.524,-200.965"/>
<text text-anchor="middle" x="459" y="-222" font-family="Helvetica,sans-Serif" font-size="10.00"> +ids</text>
</g>
<!-- Node8 -->
<g id="node7" class="node"><title>Node8</title>
<polygon fill="white" stroke="#bfbfbf" points="544.5,-270.5 544.5,-349.5 689.5,-349.5 689.5,-270.5 544.5,-270.5"/>
<text text-anchor="start" x="552.5" y="-337.5" font-family="Helvetica,sans-Serif" font-size="10.00">vector&lt; GlobalRegistration</text>
<text text-anchor="start" x="552.5" y="-326.5" font-family="Helvetica,sans-Serif" font-size="10.00">::Accelerators::PairExtraction</text>
<text text-anchor="middle" x="617" y="-315.5" font-family="Helvetica,sans-Serif" font-size="10.00">::HyperSphere &gt;</text>
<polyline fill="none" stroke="#bfbfbf" points="544.5,-308.5 689.5,-308.5 "/>
<text text-anchor="middle" x="617" y="-296.5" font-family="Helvetica,sans-Serif" font-size="10.00"> </text>
<polyline fill="none" stroke="#bfbfbf" points="544.5,-289.5 689.5,-289.5 "/>
<text text-anchor="middle" x="617" y="-277.5" font-family="Helvetica,sans-Serif" font-size="10.00"> </text>
</g>
<!-- Node8&#45;&gt;Node2 -->
<g id="edge6" class="edge"><title>Node8&#45;&gt;Node2</title>
<path fill="none" stroke="#404040" d="M578.246,-270.427C549.71,-242.024 510.058,-202.558 475.689,-168.349"/>
<polygon fill="none" stroke="#404040" points="475.58,-168.241 468.505,-166.843 467.075,-159.775 474.149,-161.173 475.58,-168.241"/>
<text text-anchor="middle" x="574" y="-222" font-family="Helvetica,sans-Serif" font-size="10.00"> +primitives</text>
</g>
<!-- Node9 -->
<g id="node8" class="node"><title>Node9</title>
<polygon fill="white" stroke="#bfbfbf" points="707.5,-276 707.5,-344 840.5,-344 840.5,-276 707.5,-276"/>
<text text-anchor="start" x="715.5" y="-332" font-family="Helvetica,sans-Serif" font-size="10.00">vector&lt; GlobalRegistration</text>
<text text-anchor="middle" x="774" y="-321" font-family="Helvetica,sans-Serif" font-size="10.00">::Point3D &gt; &amp;</text>
<polyline fill="none" stroke="#bfbfbf" points="707.5,-314 840.5,-314 "/>
<text text-anchor="middle" x="774" y="-302" font-family="Helvetica,sans-Serif" font-size="10.00"> </text>
<polyline fill="none" stroke="#bfbfbf" points="707.5,-295 840.5,-295 "/>
<text text-anchor="middle" x="774" y="-283" font-family="Helvetica,sans-Serif" font-size="10.00"> </text>
</g>
<!-- Node9&#45;&gt;Node2 -->
<g id="edge7" class="edge"><title>Node9&#45;&gt;Node2</title>
<path fill="none" stroke="#404040" d="M724.886,-275.897C716.012,-270.143 706.788,-264.308 698,-259 624.443,-214.572 538.198,-167.476 478.029,-135.393"/>
<polygon fill="none" stroke="#404040" points="477.7,-135.218 470.524,-135.931 467.106,-129.581 474.282,-128.868 477.7,-135.218"/>
<text text-anchor="middle" x="678" y="-222" font-family="Helvetica,sans-Serif" font-size="10.00"> +Q_</text>
</g>
<!-- Node10 -->
<g id="node9" class="node"><title>Node10</title>
<g id="a_node9"><a xlink:href="struct_global_registration_1_1_match4_p_c_s_options.xhtml" target="_top" xlink:title="{GlobalRegistration\l::Match4PCSOptions\n||+ Match4PCSOptions()\l+ configureOverlap()\l+ getTerminateThreshold()\l+ getOverlapEstimation()\l}">
<polygon fill="white" stroke="black" points="858.5,-259.5 858.5,-360.5 989.5,-360.5 989.5,-259.5 858.5,-259.5"/>
<text text-anchor="start" x="866.5" y="-348.5" font-family="Helvetica,sans-Serif" font-size="10.00">GlobalRegistration</text>
<text text-anchor="middle" x="924" y="-337.5" font-family="Helvetica,sans-Serif" font-size="10.00">::Match4PCSOptions</text>
<polyline fill="none" stroke="black" points="858.5,-330.5 989.5,-330.5 "/>
<text text-anchor="middle" x="924" y="-318.5" font-family="Helvetica,sans-Serif" font-size="10.00"> </text>
<polyline fill="none" stroke="black" points="858.5,-311.5 989.5,-311.5 "/>
<text text-anchor="start" x="866.5" y="-299.5" font-family="Helvetica,sans-Serif" font-size="10.00">+ Match4PCSOptions()</text>
<text text-anchor="start" x="866.5" y="-288.5" font-family="Helvetica,sans-Serif" font-size="10.00">+ configureOverlap()</text>
<text text-anchor="start" x="866.5" y="-277.5" font-family="Helvetica,sans-Serif" font-size="10.00">+ getTerminateThreshold()</text>
<text text-anchor="start" x="866.5" y="-266.5" font-family="Helvetica,sans-Serif" font-size="10.00">+ getOverlapEstimation()</text>
</a>
</g>
</g>
<!-- Node10&#45;&gt;Node2 -->
<g id="edge8" class="edge"><title>Node10&#45;&gt;Node2</title>
<path fill="none" stroke="#404040" d="M858.326,-263.462C855.544,-261.904 852.762,-260.41 850,-259 725.244,-195.323 569.642,-144.488 478.793,-117.419"/>
<polygon fill="none" stroke="#404040" points="478.734,-117.402 471.846,-119.536 467.227,-113.998 474.116,-111.864 478.734,-117.402"/>
<text text-anchor="middle" x="826" y="-222" font-family="Helvetica,sans-Serif" font-size="10.00"> +options_</text>
</g>
<!-- Node11 -->
<g id="node10" class="node"><title>Node11</title>
<polygon fill="white" stroke="#bfbfbf" points="815.5,-463.5 815.5,-520.5 858.5,-520.5 858.5,-463.5 815.5,-463.5"/>
<text text-anchor="middle" x="837" y="-508.5" font-family="Helvetica,sans-Serif" font-size="10.00">size_t</text>
<polyline fill="none" stroke="#bfbfbf" points="815.5,-501.5 858.5,-501.5 "/>
<text text-anchor="middle" x="837" y="-489.5" font-family="Helvetica,sans-Serif" font-size="10.00"> </text>
<polyline fill="none" stroke="#bfbfbf" points="815.5,-482.5 858.5,-482.5 "/>
<text text-anchor="middle" x="837" y="-470.5" font-family="Helvetica,sans-Serif" font-size="10.00"> </text>
</g>
<!-- Node11&#45;&gt;Node10 -->
<g id="edge9" class="edge"><title>Node11&#45;&gt;Node10</title>
<path fill="none" stroke="#404040" d="M837.07,-463.285C838.18,-439.672 842.335,-405.46 856,-379 857.493,-376.11 859.152,-373.265 860.944,-370.477"/>
<polygon fill="none" stroke="#404040" points="860.989,-370.414 861.213,-363.207 867.953,-360.642 867.728,-367.849 860.989,-370.414"/>
<text text-anchor="middle" x="888" y="-409.5" font-family="Helvetica,sans-Serif" font-size="10.00"> +sample_size</text>
</g>
<!-- Node12 -->
<g id="node11" class="node"><title>Node12</title>
<polygon fill="white" stroke="#bfbfbf" points="909.5,-463.5 909.5,-520.5 938.5,-520.5 938.5,-463.5 909.5,-463.5"/>
<text text-anchor="middle" x="924" y="-508.5" font-family="Helvetica,sans-Serif" font-size="10.00">int</text>
<polyline fill="none" stroke="#bfbfbf" points="909.5,-501.5 938.5,-501.5 "/>
<text text-anchor="middle" x="924" y="-489.5" font-family="Helvetica,sans-Serif" font-size="10.00"> </text>
<polyline fill="none" stroke="#bfbfbf" points="909.5,-482.5 938.5,-482.5 "/>
<text text-anchor="middle" x="924" y="-470.5" font-family="Helvetica,sans-Serif" font-size="10.00"> </text>
</g>
<!-- Node12&#45;&gt;Node10 -->
<g id="edge10" class="edge"><title>Node12&#45;&gt;Node10</title>
<path fill="none" stroke="#404040" d="M924,-463.269C924,-439.261 924,-403.656 924,-372.911"/>
<polygon fill="none" stroke="#404040" points="924,-372.523 920,-366.524 924,-360.523 928,-366.523 924,-372.523"/>
<text text-anchor="middle" x="971" y="-415" font-family="Helvetica,sans-Serif" font-size="10.00"> +max_time_seconds</text>
<text text-anchor="middle" x="971" y="-404" font-family="Helvetica,sans-Serif" font-size="10.00">+randomSeed</text>
</g>
<!-- Node13 -->
<g id="node12" class="node"><title>Node13</title>
<polygon fill="white" stroke="#bfbfbf" points="1019,-463.5 1019,-520.5 1063,-520.5 1063,-463.5 1019,-463.5"/>
<text text-anchor="middle" x="1041" y="-508.5" font-family="Helvetica,sans-Serif" font-size="10.00">Scalar</text>
<polyline fill="none" stroke="#bfbfbf" points="1019,-501.5 1063,-501.5 "/>
<text text-anchor="middle" x="1041" y="-489.5" font-family="Helvetica,sans-Serif" font-size="10.00"> </text>
<polyline fill="none" stroke="#bfbfbf" points="1019,-482.5 1063,-482.5 "/>
<text text-anchor="middle" x="1041" y="-470.5" font-family="Helvetica,sans-Serif" font-size="10.00"> </text>
</g>
<!-- Node13&#45;&gt;Node10 -->
<g id="edge11" class="edge"><title>Node13&#45;&gt;Node10</title>
<path fill="none" stroke="#404040" d="M1041.13,-463.107C1040,-439.065 1035.3,-404.33 1019,-379 1013.56,-370.541 1006.66,-362.807 999.07,-355.835"/>
<polygon fill="none" stroke="#404040" points="999.021,-355.794 991.861,-354.941 989.894,-348.003 997.054,-348.856 999.021,-355.794"/>
<text text-anchor="middle" x="1093" y="-437" font-family="Helvetica,sans-Serif" font-size="10.00"> +max_angle</text>
<text text-anchor="middle" x="1093" y="-426" font-family="Helvetica,sans-Serif" font-size="10.00">+max_color_distance</text>
<text text-anchor="middle" x="1093" y="-415" font-family="Helvetica,sans-Serif" font-size="10.00">+delta</text>
<text text-anchor="start" x="1039" y="-404" font-family="Helvetica,sans-Serif" font-size="10.00">+max_translation</text>
<text text-anchor="middle" x="1093" y="-393" font-family="Helvetica,sans-Serif" font-size="10.00">_distance</text>
<text text-anchor="middle" x="1093" y="-382" font-family="Helvetica,sans-Serif" font-size="10.00">+max_normal_difference</text>
</g>
</g>
</svg>
        <g id="navigator" transform="translate(0 0)" fill="#404254">
                <rect fill="#f2f5e9" fill-opacity="0.5" stroke="#606060" stroke-width=".5" x="0" y="0" width="60" height="60"/>
                <use id="zoomplus" xlink:href="#zoomPlus" x="17" y="9" onmousedown="handleZoom(evt,'in')"/>
                <use id="zoomminus" xlink:href="#zoomMin" x="42" y="9" onmousedown="handleZoom(evt,'out')"/>
                <use id="reset" xlink:href="#resetDef" x="30" y="36" onmousedown="handleReset()"/>
                <g id="arrowUp" xlink:href="#dirArrow" transform="translate(30 24)" onmousedown="handlePan(0,-1)">
                  <use xlink:href="#rim" fill="#404040">
                        <set attributeName="fill" to="#808080" begin="arrowUp.mouseover" end="arrowUp.mouseout"/>
                  </use>
                  <path fill="none" stroke="white" stroke-width="1.5" d="M0,-3.0v7 M-2.5,-0.5L0,-3.0L2.5,-0.5"/>
                </g>
                <g id="arrowRight" xlink:href="#dirArrow" transform="rotate(90) translate(36 -43)" onmousedown="handlePan(1,0)">
                  <use xlink:href="#rim" fill="#404040">
                        <set attributeName="fill" to="#808080" begin="arrowRight.mouseover" end="arrowRight.mouseout"/>
                  </use>
                  <path fill="none" stroke="white" stroke-width="1.5" d="M0,-3.0v7 M-2.5,-0.5L0,-3.0L2.5,-0.5"/>
                </g>
                <g id="arrowDown" xlink:href="#dirArrow" transform="rotate(180) translate(-30 -48)" onmousedown="handlePan(0,1)">
                  <use xlink:href="#rim" fill="#404040">
                        <set attributeName="fill" to="#808080" begin="arrowDown.mouseover" end="arrowDown.mouseout"/>
                  </use>
                  <path fill="none" stroke="white" stroke-width="1.5" d="M0,-3.0v7 M-2.5,-0.5L0,-3.0L2.5,-0.5"/>
                </g>
                <g id="arrowLeft" xlink:href="#dirArrow" transform="rotate(270) translate(-36 17)" onmousedown="handlePan(-1,0)">
                  <use xlink:href="#rim" fill="#404040">
                        <set attributeName="fill" to="#808080" begin="arrowLeft.mouseover" end="arrowLeft.mouseout"/>
                  </use>
                  <path fill="none" stroke="white" stroke-width="1.5" d="M0,-3.0v7 M-2.5,-0.5L0,-3.0L2.5,-0.5"/>
                </g>
        </g>
        <svg viewBox="0 0 15 15" width="100%" height="30px" preserveAspectRatio="xMaxYMin meet">
         <g id="arrow_out" transform="scale(0.3 0.3)">
          <a xlink:href="struct_global_registration_1_1_pair_creation_functor__coll__graph_org.svg" target="_base">
           <rect id="button" ry="5" rx="5" y="6" x="6" height="38" width="38"
                fill="#f2f5e9" fill-opacity="0.5" stroke="#606060" stroke-width="1.0"/>
           <path id="arrow"
             d="M 11.500037,31.436501 C 11.940474,20.09759 22.043105,11.32322 32.158766,21.979434 L 37.068811,17.246167 C 37.068811,17.246167 37.088388,32 37.088388,32 L 22.160133,31.978069 C 22.160133,31.978069 26.997745,27.140456 26.997745,27.140456 C 18.528582,18.264221 13.291696,25.230495 11.500037,31.436501 z"
             style="fill:#404040;"/>
          </a>
         </g>
        </svg>
</svg>
