<?xml version="1.0" encoding="UTF-8" standalone="no"?>
<!DOCTYPE svg PUBLIC "-//W3C//DTD SVG 1.1//EN"
 "http://www.w3.org/Graphics/SVG/1.1/DTD/svg11.dtd">
<!-- Generated by graphviz version 2.38.0 (20140413.2041)
 -->
<!-- Title: tripple Pages: 1 -->
<svg width="66pt" height="270pt"
 viewBox="0.00 0.00 66.00 270.00" xmlns="http://www.w3.org/2000/svg" xmlns:xlink="http://www.w3.org/1999/xlink">
<g id="graph0" class="graph" transform="scale(1 1) rotate(0) translate(4 266)">
<title>tripple</title>
<polygon fill="white" stroke="none" points="-4,4 -4,-266 62,-266 62,4 -4,4"/>
<!-- Node1 -->
<g id="node1" class="node"><title>Node1</title>
<polygon fill="#bfbfbf" stroke="black" points="-3.55271e-15,-0.5 -3.55271e-15,-68.5 58,-68.5 58,-0.5 -3.55271e-15,-0.5"/>
<text text-anchor="middle" x="29" y="-56.5" font-family="Helvetica,sans-Serif" font-size="10.00">tripple</text>
<polyline fill="none" stroke="black" points="-3.55271e-15,-49.5 58,-49.5 "/>
<text text-anchor="middle" x="29" y="-37.5" font-family="Helvetica,sans-Serif" font-size="10.00"> </text>
<polyline fill="none" stroke="black" points="-3.55271e-15,-30.5 58,-30.5 "/>
<text text-anchor="start" x="8" y="-18.5" font-family="Helvetica,sans-Serif" font-size="10.00">+ tripple()</text>
<text text-anchor="start" x="8" y="-7.5" font-family="Helvetica,sans-Serif" font-size="10.00">+ tripple()</text>
</g>
<!-- Node2 -->
<g id="node2" class="node"><title>Node2</title>
<polygon fill="white" stroke="#bfbfbf" points="14.5,-204.5 14.5,-261.5 43.5,-261.5 43.5,-204.5 14.5,-204.5"/>
<text text-anchor="middle" x="29" y="-249.5" font-family="Helvetica,sans-Serif" font-size="10.00">int</text>
<polyline fill="none" stroke="#bfbfbf" points="14.5,-242.5 43.5,-242.5 "/>
<text text-anchor="middle" x="29" y="-230.5" font-family="Helvetica,sans-Serif" font-size="10.00"> </text>
<polyline fill="none" stroke="#bfbfbf" points="14.5,-223.5 43.5,-223.5 "/>
<text text-anchor="middle" x="29" y="-211.5" font-family="Helvetica,sans-Serif" font-size="10.00"> </text>
</g>
<!-- Node2&#45;&gt;Node1 -->
<g id="edge1" class="edge"><title>Node2&#45;&gt;Node1</title>
<path fill="none" stroke="#404040" d="M29,-204.263C29,-172.232 29,-119.068 29,-80.9664"/>
<polygon fill="none" stroke="#404040" points="29.0001,-80.6747 25,-74.6747 29,-68.6747 33,-74.6746 29.0001,-80.6747"/>
<text text-anchor="middle" x="39" y="-178" font-family="Helvetica,sans-Serif" font-size="10.00"> +n2</text>
<text text-anchor="middle" x="39" y="-167" font-family="Helvetica,sans-Serif" font-size="10.00">+n3</text>
<text text-anchor="middle" x="39" y="-156" font-family="Helvetica,sans-Serif" font-size="10.00">+a</text>
<text text-anchor="middle" x="39" y="-145" font-family="Helvetica,sans-Serif" font-size="10.00">+b</text>
<text text-anchor="middle" x="39" y="-134" font-family="Helvetica,sans-Serif" font-size="10.00">+c</text>
<text text-anchor="middle" x="39" y="-123" font-family="Helvetica,sans-Serif" font-size="10.00">+t1</text>
<text text-anchor="middle" x="39" y="-112" font-family="Helvetica,sans-Serif" font-size="10.00">+t2</text>
<text text-anchor="middle" x="39" y="-101" font-family="Helvetica,sans-Serif" font-size="10.00">+t3</text>
<text text-anchor="middle" x="39" y="-90" font-family="Helvetica,sans-Serif" font-size="10.00">+n1</text>
</g>
</g>
</svg>
