<?xml version="1.0" encoding="UTF-8" standalone="no"?>
<!DOCTYPE svg PUBLIC "-//W3C//DTD SVG 1.1//EN"
 "http://www.w3.org/Graphics/SVG/1.1/DTD/svg11.dtd">
<!-- Generated by graphviz version 2.38.0 (20140413.2041)
 -->
<!-- Title: GlobalRegistration::Quadrilateral Pages: 1 -->
<svg width="105pt" height="226pt"
 viewBox="0.00 0.00 105.00 226.00" xmlns="http://www.w3.org/2000/svg" xmlns:xlink="http://www.w3.org/1999/xlink">
<g id="graph0" class="graph" transform="scale(1 1) rotate(0) translate(4 222)">
<title>GlobalRegistration::Quadrilateral</title>
<polygon fill="white" stroke="none" points="-4,4 -4,-222 101,-222 101,4 -4,4"/>
<!-- Node1 -->
<g id="node1" class="node"><title>Node1</title>
<polygon fill="#bfbfbf" stroke="black" points="-7.10543e-15,-0.5 -7.10543e-15,-112.5 97,-112.5 97,-0.5 -7.10543e-15,-0.5"/>
<text text-anchor="start" x="8" y="-100.5" font-family="Helvetica,sans-Serif" font-size="10.00">GlobalRegistration</text>
<text text-anchor="middle" x="48.5" y="-89.5" font-family="Helvetica,sans-Serif" font-size="10.00">::Quadrilateral</text>
<polyline fill="none" stroke="black" points="-7.10543e-15,-82.5 97,-82.5 "/>
<text text-anchor="middle" x="48.5" y="-70.5" font-family="Helvetica,sans-Serif" font-size="10.00"> </text>
<polyline fill="none" stroke="black" points="-7.10543e-15,-63.5 97,-63.5 "/>
<text text-anchor="start" x="8" y="-51.5" font-family="Helvetica,sans-Serif" font-size="10.00">+ Quadrilateral()</text>
<text text-anchor="start" x="8" y="-40.5" font-family="Helvetica,sans-Serif" font-size="10.00">+ operator&lt;()</text>
<text text-anchor="start" x="8" y="-29.5" font-family="Helvetica,sans-Serif" font-size="10.00">+ operator==()</text>
<text text-anchor="start" x="8" y="-18.5" font-family="Helvetica,sans-Serif" font-size="10.00">+ operator[]()</text>
<text text-anchor="start" x="8" y="-7.5" font-family="Helvetica,sans-Serif" font-size="10.00">+ operator[]()</text>
</g>
<!-- Node2 -->
<g id="node2" class="node"><title>Node2</title>
<polygon fill="white" stroke="#bfbfbf" points="9.5,-160.5 9.5,-217.5 87.5,-217.5 87.5,-160.5 9.5,-160.5"/>
<text text-anchor="middle" x="48.5" y="-205.5" font-family="Helvetica,sans-Serif" font-size="10.00">array&lt; int, 4 &gt;</text>
<polyline fill="none" stroke="#bfbfbf" points="9.5,-198.5 87.5,-198.5 "/>
<text text-anchor="middle" x="48.5" y="-186.5" font-family="Helvetica,sans-Serif" font-size="10.00"> </text>
<polyline fill="none" stroke="#bfbfbf" points="9.5,-179.5 87.5,-179.5 "/>
<text text-anchor="middle" x="48.5" y="-167.5" font-family="Helvetica,sans-Serif" font-size="10.00"> </text>
</g>
<!-- Node2&#45;&gt;Node1 -->
<g id="edge1" class="edge"><title>Node2&#45;&gt;Node1</title>
<path fill="none" stroke="#404040" d="M48.5,-160.324C48.5,-149.778 48.5,-137.246 48.5,-124.62"/>
<polygon fill="none" stroke="#404040" points="48.5001,-124.548 44.5,-118.548 48.5,-112.548 52.5,-118.548 48.5001,-124.548"/>
<text text-anchor="middle" x="70.5" y="-134" font-family="Helvetica,sans-Serif" font-size="10.00"> +vertices</text>
</g>
</g>
</svg>
