<?xml version="1.0" encoding="UTF-8" standalone="no"?>
<!DOCTYPE svg PUBLIC "-//W3C//DTD SVG 1.1//EN"
 "http://www.w3.org/Graphics/SVG/1.1/DTD/svg11.dtd">
<!-- Generated by graphviz version 2.38.0 (20140413.2041)
 -->
<!-- Title: GlobalRegistration::Match4PCSOptions Pages: 1 -->
<svg width="341pt" height="270pt"
 viewBox="0.00 0.00 340.50 270.00" xmlns="http://www.w3.org/2000/svg" xmlns:xlink="http://www.w3.org/1999/xlink">
<g id="graph0" class="graph" transform="scale(1 1) rotate(0) translate(4 266)">
<title>GlobalRegistration::Match4PCSOptions</title>
<polygon fill="white" stroke="none" points="-4,4 -4,-266 336.5,-266 336.5,4 -4,4"/>
<!-- Node1 -->
<g id="node1" class="node"><title>Node1</title>
<polygon fill="#bfbfbf" stroke="black" points="43,-0.5 43,-101.5 174,-101.5 174,-0.5 43,-0.5"/>
<text text-anchor="start" x="51" y="-89.5" font-family="Helvetica,sans-Serif" font-size="10.00">GlobalRegistration</text>
<text text-anchor="middle" x="108.5" y="-78.5" font-family="Helvetica,sans-Serif" font-size="10.00">::Match4PCSOptions</text>
<polyline fill="none" stroke="black" points="43,-71.5 174,-71.5 "/>
<text text-anchor="middle" x="108.5" y="-59.5" font-family="Helvetica,sans-Serif" font-size="10.00"> </text>
<polyline fill="none" stroke="black" points="43,-52.5 174,-52.5 "/>
<text text-anchor="start" x="51" y="-40.5" font-family="Helvetica,sans-Serif" font-size="10.00">+ Match4PCSOptions()</text>
<text text-anchor="start" x="51" y="-29.5" font-family="Helvetica,sans-Serif" font-size="10.00">+ configureOverlap()</text>
<text text-anchor="start" x="51" y="-18.5" font-family="Helvetica,sans-Serif" font-size="10.00">+ getTerminateThreshold()</text>
<text text-anchor="start" x="51" y="-7.5" font-family="Helvetica,sans-Serif" font-size="10.00">+ getOverlapEstimation()</text>
</g>
<!-- Node2 -->
<g id="node2" class="node"><title>Node2</title>
<polygon fill="white" stroke="#bfbfbf" points="0,-204.5 0,-261.5 43,-261.5 43,-204.5 0,-204.5"/>
<text text-anchor="middle" x="21.5" y="-249.5" font-family="Helvetica,sans-Serif" font-size="10.00">size_t</text>
<polyline fill="none" stroke="#bfbfbf" points="0,-242.5 43,-242.5 "/>
<text text-anchor="middle" x="21.5" y="-230.5" font-family="Helvetica,sans-Serif" font-size="10.00"> </text>
<polyline fill="none" stroke="#bfbfbf" points="0,-223.5 43,-223.5 "/>
<text text-anchor="middle" x="21.5" y="-211.5" font-family="Helvetica,sans-Serif" font-size="10.00"> </text>
</g>
<!-- Node2&#45;&gt;Node1 -->
<g id="edge1" class="edge"><title>Node2&#45;&gt;Node1</title>
<path fill="none" stroke="#404040" d="M21.5703,-204.285C22.6797,-180.672 26.8346,-146.46 40.5,-120 41.9927,-117.11 43.6521,-114.265 45.4442,-111.477"/>
<polygon fill="none" stroke="#404040" points="45.4888,-111.414 45.7132,-104.207 52.4527,-101.642 52.2283,-108.849 45.4888,-111.414"/>
<text text-anchor="middle" x="72.5" y="-150.5" font-family="Helvetica,sans-Serif" font-size="10.00"> +sample_size</text>
</g>
<!-- Node3 -->
<g id="node3" class="node"><title>Node3</title>
<polygon fill="white" stroke="#bfbfbf" points="94,-204.5 94,-261.5 123,-261.5 123,-204.5 94,-204.5"/>
<text text-anchor="middle" x="108.5" y="-249.5" font-family="Helvetica,sans-Serif" font-size="10.00">int</text>
<polyline fill="none" stroke="#bfbfbf" points="94,-242.5 123,-242.5 "/>
<text text-anchor="middle" x="108.5" y="-230.5" font-family="Helvetica,sans-Serif" font-size="10.00"> </text>
<polyline fill="none" stroke="#bfbfbf" points="94,-223.5 123,-223.5 "/>
<text text-anchor="middle" x="108.5" y="-211.5" font-family="Helvetica,sans-Serif" font-size="10.00"> </text>
</g>
<!-- Node3&#45;&gt;Node1 -->
<g id="edge2" class="edge"><title>Node3&#45;&gt;Node1</title>
<path fill="none" stroke="#404040" d="M108.5,-204.269C108.5,-180.261 108.5,-144.656 108.5,-113.911"/>
<polygon fill="none" stroke="#404040" points="108.5,-113.523 104.5,-107.524 108.5,-101.523 112.5,-107.523 108.5,-113.523"/>
<text text-anchor="middle" x="155.5" y="-156" font-family="Helvetica,sans-Serif" font-size="10.00"> +max_time_seconds</text>
<text text-anchor="middle" x="155.5" y="-145" font-family="Helvetica,sans-Serif" font-size="10.00">+randomSeed</text>
</g>
<!-- Node4 -->
<g id="node4" class="node"><title>Node4</title>
<polygon fill="white" stroke="#bfbfbf" points="203.5,-204.5 203.5,-261.5 247.5,-261.5 247.5,-204.5 203.5,-204.5"/>
<text text-anchor="middle" x="225.5" y="-249.5" font-family="Helvetica,sans-Serif" font-size="10.00">Scalar</text>
<polyline fill="none" stroke="#bfbfbf" points="203.5,-242.5 247.5,-242.5 "/>
<text text-anchor="middle" x="225.5" y="-230.5" font-family="Helvetica,sans-Serif" font-size="10.00"> </text>
<polyline fill="none" stroke="#bfbfbf" points="203.5,-223.5 247.5,-223.5 "/>
<text text-anchor="middle" x="225.5" y="-211.5" font-family="Helvetica,sans-Serif" font-size="10.00"> </text>
</g>
<!-- Node4&#45;&gt;Node1 -->
<g id="edge3" class="edge"><title>Node4&#45;&gt;Node1</title>
<path fill="none" stroke="#404040" d="M225.627,-204.107C224.498,-180.065 219.798,-145.33 203.5,-120 198.057,-111.541 191.158,-103.807 183.57,-96.8354"/>
<polygon fill="none" stroke="#404040" points="183.521,-96.7935 176.361,-95.941 174.394,-89.0033 181.554,-89.8559 183.521,-96.7935"/>
<text text-anchor="middle" x="278.5" y="-178" font-family="Helvetica,sans-Serif" font-size="10.00"> +max_angle</text>
<text text-anchor="middle" x="278.5" y="-167" font-family="Helvetica,sans-Serif" font-size="10.00">+max_color_distance</text>
<text text-anchor="middle" x="278.5" y="-156" font-family="Helvetica,sans-Serif" font-size="10.00">+delta</text>
<text text-anchor="start" x="224.5" y="-145" font-family="Helvetica,sans-Serif" font-size="10.00">+max_translation</text>
<text text-anchor="middle" x="278.5" y="-134" font-family="Helvetica,sans-Serif" font-size="10.00">_distance</text>
<text text-anchor="middle" x="278.5" y="-123" font-family="Helvetica,sans-Serif" font-size="10.00">+max_normal_difference</text>
</g>
</g>
</svg>
