<?xml version="1.0" encoding="UTF-8" standalone="no"?>
<!DOCTYPE svg PUBLIC "-//W3C//DTD SVG 1.1//EN"
 "http://www.w3.org/Graphics/SVG/1.1/DTD/svg11.dtd">
<!-- Generated by graphviz version 2.38.0 (20140413.2041)
 -->
<!-- Title: GlobalRegistration::KdTree&lt; _Scalar, _Index &gt;::QueryNode Pages: 1 -->
<svg width="120pt" height="204pt"
 viewBox="0.00 0.00 120.00 204.00" xmlns="http://www.w3.org/2000/svg" xmlns:xlink="http://www.w3.org/1999/xlink">
<g id="graph0" class="graph" transform="scale(1 1) rotate(0) translate(4 200)">
<title>GlobalRegistration::KdTree&lt; _Scalar, _Index &gt;::QueryNode</title>
<polygon fill="white" stroke="none" points="-4,4 -4,-200 116,-200 116,4 -4,4"/>
<!-- Node1 -->
<g id="node1" class="node"><title>Node1</title>
<polygon fill="#bfbfbf" stroke="black" points="0,-0.5 0,-90.5 110,-90.5 110,-0.5 0,-0.5"/>
<text text-anchor="start" x="8" y="-78.5" font-family="Helvetica,sans-Serif" font-size="10.00">GlobalRegistration</text>
<text text-anchor="start" x="8" y="-67.5" font-family="Helvetica,sans-Serif" font-size="10.00">::KdTree&lt; _Scalar, </text>
<text text-anchor="middle" x="55" y="-56.5" font-family="Helvetica,sans-Serif" font-size="10.00">_Index &gt;::QueryNode</text>
<polyline fill="none" stroke="black" points="0,-49.5 110,-49.5 "/>
<text text-anchor="middle" x="55" y="-37.5" font-family="Helvetica,sans-Serif" font-size="10.00"> </text>
<polyline fill="none" stroke="black" points="0,-30.5 110,-30.5 "/>
<text text-anchor="start" x="8" y="-18.5" font-family="Helvetica,sans-Serif" font-size="10.00">+ QueryNode()</text>
<text text-anchor="start" x="8" y="-7.5" font-family="Helvetica,sans-Serif" font-size="10.00">+ QueryNode()</text>
</g>
<!-- Node2 -->
<g id="node2" class="node"><title>Node2</title>
<polygon fill="white" stroke="#bfbfbf" points="1,-138.5 1,-195.5 51,-195.5 51,-138.5 1,-138.5"/>
<text text-anchor="middle" x="26" y="-183.5" font-family="Helvetica,sans-Serif" font-size="10.00">_Scalar</text>
<polyline fill="none" stroke="#bfbfbf" points="1,-176.5 51,-176.5 "/>
<text text-anchor="middle" x="26" y="-164.5" font-family="Helvetica,sans-Serif" font-size="10.00"> </text>
<polyline fill="none" stroke="#bfbfbf" points="1,-157.5 51,-157.5 "/>
<text text-anchor="middle" x="26" y="-145.5" font-family="Helvetica,sans-Serif" font-size="10.00"> </text>
</g>
<!-- Node2&#45;&gt;Node1 -->
<g id="edge1" class="edge"><title>Node2&#45;&gt;Node1</title>
<path fill="none" stroke="#404040" d="M32.7261,-138.284C35.3128,-127.625 38.3681,-115.035 41.3732,-102.652"/>
<polygon fill="none" stroke="#404040" points="41.392,-102.574 38.9199,-95.7999 44.2221,-90.9125 46.6942,-97.6866 41.392,-102.574"/>
<text text-anchor="middle" x="50" y="-112" font-family="Helvetica,sans-Serif" font-size="10.00"> +sq</text>
</g>
<!-- Node3 -->
<g id="node3" class="node"><title>Node3</title>
<polygon fill="white" stroke="#bfbfbf" points="69.5,-138.5 69.5,-195.5 98.5,-195.5 98.5,-138.5 69.5,-138.5"/>
<text text-anchor="middle" x="84" y="-183.5" font-family="Helvetica,sans-Serif" font-size="10.00">int</text>
<polyline fill="none" stroke="#bfbfbf" points="69.5,-176.5 98.5,-176.5 "/>
<text text-anchor="middle" x="84" y="-164.5" font-family="Helvetica,sans-Serif" font-size="10.00"> </text>
<polyline fill="none" stroke="#bfbfbf" points="69.5,-157.5 98.5,-157.5 "/>
<text text-anchor="middle" x="84" y="-145.5" font-family="Helvetica,sans-Serif" font-size="10.00"> </text>
</g>
<!-- Node3&#45;&gt;Node1 -->
<g id="edge2" class="edge"><title>Node3&#45;&gt;Node1</title>
<path fill="none" stroke="#404040" d="M77.2739,-138.284C74.6872,-127.625 71.6319,-115.035 68.6268,-102.652"/>
<polygon fill="none" stroke="#404040" points="68.608,-102.574 63.3058,-97.6866 65.7779,-90.9125 71.0801,-95.7999 68.608,-102.574"/>
<text text-anchor="middle" x="92.5" y="-112" font-family="Helvetica,sans-Serif" font-size="10.00"> +nodeId</text>
</g>
</g>
</svg>
